<?xml version="1.0" encoding="utf-8"?>
<!-- Generator: Adobe Illustrator 22.1.0, SVG Export Plug-In . SVG Version: 6.00 Build 0)  -->
<svg version="1.1" id="Layer_1" xmlns="http://www.w3.org/2000/svg" xmlns:xlink="http://www.w3.org/1999/xlink" x="0px" y="0px"
	 viewBox="0 0 961.788 528.928" style="enable-background:new 0 0 961.788 528.928;" xml:space="preserve">
<style type="text/css">
	.st0{fill:#D3E2DF;}
	.st1{fill:#00A89B;}
	.st2{fill:#332F2F;}
	.st3{fill:#B22D49;}
	.st4{fill:#666161;}
	.st5{fill:#F2F2F2;}
	.st6{fill:#DDDDDD;}
	.st7{fill:#CE2E41;}
	.st8{fill:#EFF3F4;}
	.st9{fill:#B2BEC1;}
	.st10{fill:#FCBE7A;}
	.st11{fill:#FFFFFF;}
	.st12{fill:#333333;}
	.st13{fill:#DD9564;}
	.st14{fill:#E25963;}
	.st15{fill:#D3E2DF;stroke:#000000;stroke-width:5;stroke-miterlimit:10;}
	
		.st16{clip-path:url(#SVGID_2_);fill:#424242;stroke:#000000;stroke-width:5;stroke-linecap:round;stroke-linejoin:round;stroke-miterlimit:10;}
	
		.st17{clip-path:url(#SVGID_2_);fill:#5F6362;stroke:#000000;stroke-width:5;stroke-linecap:round;stroke-linejoin:round;stroke-miterlimit:10;}
	.st18{clip-path:url(#SVGID_2_);}
	.st19{fill:#999999;stroke:#000000;stroke-width:2;stroke-miterlimit:10;}
	.st20{fill:#FFFFFF;stroke:#000000;stroke-width:2;stroke-miterlimit:10;}
	.st21{fill:#E2C5B0;stroke:#000000;stroke-width:2;stroke-miterlimit:10;}
	.st22{fill:#231F20;stroke:#000000;stroke-width:2;stroke-miterlimit:10;}
	.st23{fill:#2D4959;}
	.st24{fill:none;stroke:#000000;stroke-width:5;stroke-linecap:round;stroke-linejoin:round;stroke-miterlimit:10;}
	
		.st25{clip-path:url(#SVGID_2_);fill:#FFFFFF;stroke:#000000;stroke-width:5;stroke-linecap:round;stroke-linejoin:round;stroke-miterlimit:10;}
	.st26{clip-path:url(#SVGID_2_);fill:#21284C;}
	.st27{clip-path:url(#SVGID_2_);fill:#E37A37;}
	.st28{clip-path:url(#SVGID_2_);fill:#999999;stroke:#000000;stroke-width:2;stroke-miterlimit:10;}
	.st29{fill:#FFB58C;}
	.st30{fill:none;}
	.st31{fill:#231512;}
	.st32{fill:#FF8732;}
	.st33{fill:#E8BD84;}
	.st34{fill:#2F548C;}
	.st35{fill:none;stroke:#000000;stroke-width:5;stroke-miterlimit:10;}
	
		.st36{clip-path:url(#SVGID_2_);fill:none;stroke:#000000;stroke-width:5;stroke-linecap:round;stroke-linejoin:round;stroke-miterlimit:10;}
	.st37{clip-path:url(#SVGID_2_);fill:none;stroke:#000000;stroke-linecap:round;stroke-linejoin:round;stroke-miterlimit:10;}
	.st38{fill:#21284C;}
	.st39{fill:#E37A37;}
	.st40{fill:#999999;}
	.st41{fill:#424242;}
	.st42{fill:#5F6362;}
	.st43{fill:#E2C5B0;}
	.st44{fill:#231F20;}
	.st45{fill:#F9B767;}
	.st46{fill:#DE953D;}
	.st47{fill:#E5DA53;}
	.st48{fill:#7A5332;}
	.st49{fill:#211406;}
	.st50{fill:#C8CECE;}
	.st51{fill:#020202;}
	.st52{fill:#BEC4CE;stroke:#000000;stroke-width:5;stroke-miterlimit:10;}
	.st53{fill:#8E939B;stroke:#000000;stroke-width:5;stroke-miterlimit:10;}
	.st54{fill:#FF5267;}
	.st55{fill:#FAB29A;}
	.st56{fill:#070707;}
	.st57{fill:#CC8A79;}
	.st58{fill:#94D2CE;}
	.st59{fill:#6B6B6B;}
	.st60{fill:#00A89B;stroke:#000000;stroke-width:5;stroke-miterlimit:10;}
	.st61{fill:#6B6B6B;stroke:#000000;stroke-width:5;stroke-miterlimit:10;}
	.st62{fill:none;stroke:#DDDDDD;stroke-width:5;stroke-miterlimit:10;}
	.st63{fill:#AA3A57;}
	.st64{fill:#E24761;}
	.st65{fill:#C1405C;}
	.st66{fill:#8BFF73;}
	.st67{fill:#4D4D4D;}
	.st68{fill:#00776B;}
	.st69{fill:#5EBC4D;}
	.st70{clip-path:url(#SVGID_4_);}
	.st71{fill:#FFD5AB;}
	.st72{fill:#DDAC8A;}
	.st73{fill:none;stroke:#FAB29A;stroke-width:0;stroke-linecap:round;stroke-linejoin:round;}
	.st74{fill:#F4EA0B;}
	.st75{fill:#E24761;stroke:#000000;stroke-width:6;stroke-miterlimit:10;}
	.st76{fill:#FAB29A;stroke:#000000;stroke-width:6;stroke-miterlimit:10;}
	.st77{fill:#00A89B;stroke:#000000;stroke-width:6;stroke-miterlimit:10;}
	.st78{fill:#F4EA0B;stroke:#000000;stroke-width:6;stroke-miterlimit:10;}
	.st79{fill:#E0563B;stroke:#231F20;stroke-width:9;stroke-linecap:round;stroke-linejoin:round;stroke-miterlimit:10;}
	.st80{fill:#E5DA53;stroke:#231F20;stroke-width:9;stroke-linecap:round;stroke-linejoin:round;stroke-miterlimit:10;}
	.st81{fill:#F8F8F8;}
	.st82{fill:#D1D3D4;}
	.st83{fill:#FFB583;}
	.st84{fill:#67C96E;}
	.st85{fill:#BEC4CE;}
	.st86{fill:#666666;}
	.st87{fill:#EF8A6F;}
	.st88{fill:#8E939B;}
	.st89{fill:#BBC4C4;}
	.st90{fill:#049688;}
	.st91{fill:#474747;}
	.st92{fill:#E0D00E;}
	.st93{fill:#E2E2E2;}
	.st94{fill:#D1D1D1;}
</style>
<path class="st0" d="M421.998,18.023c-40.732,14.754-89.573,38.696-169.512,85.683c-75.16,45.405-181.419,113.855-226.62,181.079
	c-45.474,68.375-32.729,119.495,52.1,161.833c82.441,41.314,236.966,73.846,419.901,81.403c89.626,3.13,173.636-1.76,242.152-15.88
	c68.88-14.077,122.264-37.385,159.192-70.297c72.364-63.257,84.254-172.221,23.661-272.479
	c-29.495-49.649-78.811-89.027-132.891-115.785C735.805,26.518,676.864,12.076,625.93,5.271
	c-51.325-6.832-94.648-6.022-126.637-3.168C466.614,5.21,445.269,10.361,421.998,18.023z"/>
<g>
	<path class="st1" d="M73.379,490.641h-9.792v-26.807l0.096-4.405l0.158-4.816c-1.627,1.627-2.757,2.693-3.391,3.2l-5.323,4.278
		l-4.722-5.894l14.925-11.883h8.049V490.641z"/>
	<path class="st1" d="M116.758,491.275c-4.162,0-7.431-1.616-9.807-4.848c-2.377-3.232-3.565-7.711-3.565-13.436
		c0-5.81,1.209-10.335,3.628-13.578c2.419-3.242,5.752-4.864,9.998-4.864c4.457,0,7.858,1.732,10.203,5.197h0.316
		c-0.486-2.641-0.729-4.996-0.729-7.066v-11.344h9.696v49.305h-7.415l-1.869-4.595h-0.412
		C124.605,489.533,121.258,491.275,116.758,491.275z M120.148,483.575c2.472,0,4.283-0.718,5.435-2.154s1.779-3.876,1.885-7.319
		v-1.046c0-3.803-0.586-6.527-1.758-8.176c-1.173-1.647-3.079-2.472-5.72-2.472c-2.155,0-3.829,0.914-5.022,2.741
		c-1.194,1.827-1.79,4.483-1.79,7.97c0,3.485,0.602,6.1,1.806,7.842C116.187,482.704,117.909,483.575,120.148,483.575z"/>
	<path class="st1" d="M178.801,472.865c0,5.768-1.521,10.277-4.562,13.53c-3.042,3.254-7.277,4.88-12.707,4.88
		c-3.401,0-6.4-0.744-8.999-2.233c-2.598-1.489-4.595-3.629-5.988-6.417c-1.395-2.788-2.092-6.041-2.092-9.76
		c0-5.788,1.511-10.287,4.531-13.499c3.021-3.21,7.267-4.816,12.738-4.816c3.401,0,6.401,0.74,8.999,2.219
		c2.599,1.479,4.595,3.602,5.989,6.369S178.801,469.147,178.801,472.865z M154.307,472.865c0,3.507,0.576,6.158,1.728,7.953
		c1.151,1.796,3.026,2.694,5.624,2.694c2.577,0,4.431-0.893,5.562-2.678c1.13-1.785,1.695-4.441,1.695-7.97
		c0-3.506-0.57-6.137-1.711-7.89c-1.141-1.754-3.011-2.631-5.609-2.631c-2.577,0-4.436,0.872-5.576,2.614
		C154.877,466.702,154.307,469.338,154.307,472.865z"/>
	<path class="st1" d="M219.488,490.641h-9.665V469.95c0-2.556-0.454-4.473-1.362-5.751s-2.355-1.917-4.341-1.917
		c-2.705,0-4.658,0.902-5.862,2.709c-1.204,1.806-1.807,4.801-1.807,8.983v16.667h-9.664v-35.426h7.383l1.299,4.531h0.539
		c1.077-1.711,2.562-3.005,4.452-3.882c1.891-0.876,4.04-1.315,6.448-1.315c4.119,0,7.245,1.115,9.379,3.344
		s3.201,5.444,3.201,9.648V490.641z"/>
	<path class="st1" d="M251.936,490.641l-1.869-4.816h-0.254c-1.626,2.05-3.301,3.47-5.021,4.262
		c-1.723,0.793-3.967,1.188-6.734,1.188c-3.401,0-6.078-0.972-8.032-2.915s-2.931-4.711-2.931-8.302c0-3.76,1.314-6.533,3.944-8.318
		s6.596-2.772,11.898-2.963l6.147-0.189v-1.553c0-3.592-1.838-5.387-5.514-5.387c-2.831,0-6.158,0.855-9.981,2.566l-3.2-6.527
		c4.077-2.134,8.598-3.201,13.562-3.201c4.753,0,8.396,1.036,10.932,3.105c2.535,2.071,3.803,5.219,3.803,9.443v23.606H251.936z
		 M249.084,474.227l-3.739,0.127c-2.81,0.085-4.9,0.592-6.273,1.521c-1.374,0.93-2.06,2.345-2.06,4.246
		c0,2.725,1.562,4.087,4.689,4.087c2.239,0,4.029-0.644,5.371-1.933c1.341-1.288,2.012-2.999,2.012-5.133V474.227z"/>
	<path class="st1" d="M283.56,483.575c1.69,0,3.719-0.369,6.084-1.108v7.192c-2.408,1.078-5.365,1.616-8.872,1.616
		c-3.866,0-6.681-0.977-8.444-2.931c-1.765-1.954-2.646-4.885-2.646-8.793v-17.08h-4.626v-4.087l5.323-3.232l2.789-7.479h6.179
		v7.542h9.918v7.256h-9.918v17.08c0,1.373,0.385,2.387,1.156,3.042C281.273,483.248,282.293,483.575,283.56,483.575z"/>
	<path class="st1" d="M296.394,446.057c0-3.147,1.753-4.721,5.26-4.721s5.26,1.573,5.26,4.721c0,1.501-0.438,2.668-1.314,3.502
		c-0.877,0.835-2.192,1.252-3.945,1.252C298.146,450.811,296.394,449.226,296.394,446.057z M306.47,490.641h-9.664v-35.426h9.664
		V490.641z"/>
	<path class="st1" d="M348.804,472.865c0,5.768-1.521,10.277-4.562,13.53c-3.042,3.254-7.277,4.88-12.707,4.88
		c-3.401,0-6.4-0.744-8.999-2.233c-2.598-1.489-4.595-3.629-5.988-6.417c-1.395-2.788-2.092-6.041-2.092-9.76
		c0-5.788,1.511-10.287,4.531-13.499c3.021-3.21,7.267-4.816,12.738-4.816c3.401,0,6.401,0.74,8.999,2.219
		c2.599,1.479,4.595,3.602,5.989,6.369S348.804,469.147,348.804,472.865z M324.31,472.865c0,3.507,0.576,6.158,1.728,7.953
		c1.151,1.796,3.026,2.694,5.624,2.694c2.577,0,4.431-0.893,5.562-2.678c1.13-1.785,1.695-4.441,1.695-7.97
		c0-3.506-0.57-6.137-1.711-7.89c-1.141-1.754-3.011-2.631-5.609-2.631c-2.577,0-4.436,0.872-5.576,2.614
		C324.88,466.702,324.31,469.338,324.31,472.865z"/>
	<path class="st1" d="M389.491,490.641h-9.665V469.95c0-2.556-0.454-4.473-1.362-5.751s-2.355-1.917-4.341-1.917
		c-2.705,0-4.658,0.902-5.862,2.709c-1.204,1.806-1.807,4.801-1.807,8.983v16.667h-9.664v-35.426h7.383l1.299,4.531h0.539
		c1.077-1.711,2.562-3.005,4.452-3.882c1.891-0.876,4.04-1.315,6.448-1.315c4.119,0,7.245,1.115,9.379,3.344
		s3.201,5.444,3.201,9.648V490.641z"/>
	<path class="st1" d="M430.685,491.275c-11.027,0-16.541-6.052-16.541-18.156c0-6.021,1.5-10.62,4.5-13.8
		c2.999-3.18,7.298-4.77,12.896-4.77c4.098,0,7.773,0.804,11.027,2.408l-2.853,7.479c-1.521-0.612-2.937-1.114-4.246-1.505
		s-2.619-0.587-3.929-0.587c-5.028,0-7.542,3.57-7.542,10.711c0,6.929,2.514,10.394,7.542,10.394c1.858,0,3.581-0.248,5.165-0.745
		c1.584-0.496,3.169-1.272,4.753-2.329v8.271c-1.563,0.993-3.143,1.68-4.737,2.06C435.126,491.086,433.113,491.275,430.685,491.275z
		"/>
	<path class="st1" d="M472.162,490.641l-1.869-4.816h-0.254c-1.626,2.05-3.301,3.47-5.021,4.262
		c-1.723,0.793-3.967,1.188-6.734,1.188c-3.401,0-6.078-0.972-8.032-2.915s-2.931-4.711-2.931-8.302c0-3.76,1.314-6.533,3.944-8.318
		s6.596-2.772,11.898-2.963l6.147-0.189v-1.553c0-3.592-1.838-5.387-5.514-5.387c-2.831,0-6.158,0.855-9.981,2.566l-3.2-6.527
		c4.077-2.134,8.598-3.201,13.562-3.201c4.753,0,8.396,1.036,10.932,3.105c2.535,2.071,3.803,5.219,3.803,9.443v23.606H472.162z
		 M469.311,474.227l-3.739,0.127c-2.81,0.085-4.9,0.592-6.273,1.521c-1.374,0.93-2.06,2.345-2.06,4.246
		c0,2.725,1.562,4.087,4.689,4.087c2.239,0,4.029-0.644,5.371-1.933c1.341-1.288,2.012-2.999,2.012-5.133V474.227z"/>
	<path class="st1" d="M521.563,490.641h-9.665V469.95c0-2.556-0.454-4.473-1.362-5.751s-2.355-1.917-4.341-1.917
		c-2.705,0-4.658,0.902-5.862,2.709c-1.204,1.806-1.807,4.801-1.807,8.983v16.667h-9.664v-35.426h7.383l1.299,4.531h0.539
		c1.077-1.711,2.562-3.005,4.452-3.882c1.891-0.876,4.04-1.315,6.448-1.315c4.119,0,7.245,1.115,9.379,3.344
		s3.201,5.444,3.201,9.648V490.641z"/>
	<path class="st1" d="M573.087,480.122c0,3.633-1.263,6.4-3.787,8.302s-6.301,2.852-11.328,2.852c-2.577,0-4.774-0.174-6.591-0.522
		c-1.817-0.349-3.518-0.86-5.102-1.537v-7.985c1.795,0.846,3.818,1.553,6.068,2.123s4.23,0.855,5.941,0.855
		c3.506,0,5.26-1.014,5.26-3.042c0-0.76-0.232-1.378-0.697-1.854s-1.268-1.014-2.408-1.616c-1.141-0.602-2.661-1.304-4.562-2.106
		c-2.726-1.142-4.728-2.197-6.005-3.169c-1.278-0.972-2.208-2.086-2.789-3.343s-0.871-2.805-0.871-4.643
		c0-3.147,1.22-5.582,3.66-7.304c2.439-1.722,5.898-2.583,10.378-2.583c4.267,0,8.417,0.93,12.452,2.789l-2.915,6.971
		c-1.774-0.761-3.433-1.383-4.975-1.869s-3.116-0.729-4.722-0.729c-2.852,0-4.277,0.771-4.277,2.312c0,0.866,0.459,1.616,1.378,2.25
		s2.932,1.574,6.037,2.82c2.767,1.12,4.795,2.165,6.084,3.137c1.288,0.972,2.238,2.092,2.852,3.359
		C572.78,476.858,573.087,478.368,573.087,480.122z"/>
	<path class="st1" d="M603.126,490.641l-1.869-4.816h-0.254c-1.626,2.05-3.301,3.47-5.021,4.262
		c-1.723,0.793-3.967,1.188-6.734,1.188c-3.401,0-6.078-0.972-8.032-2.915s-2.931-4.711-2.931-8.302c0-3.76,1.314-6.533,3.944-8.318
		s6.596-2.772,11.898-2.963l6.147-0.189v-1.553c0-3.592-1.838-5.387-5.514-5.387c-2.831,0-6.158,0.855-9.981,2.566l-3.2-6.527
		c4.077-2.134,8.598-3.201,13.562-3.201c4.753,0,8.396,1.036,10.932,3.105c2.535,2.071,3.803,5.219,3.803,9.443v23.606H603.126z
		 M600.274,474.227l-3.739,0.127c-2.81,0.085-4.9,0.592-6.273,1.521c-1.374,0.93-2.06,2.345-2.06,4.246
		c0,2.725,1.562,4.087,4.689,4.087c2.239,0,4.029-0.644,5.371-1.933c1.341-1.288,2.012-2.999,2.012-5.133V474.227z"/>
	<path class="st1" d="M628.255,490.641l-13.499-35.426h10.108l6.845,20.185c0.76,2.557,1.235,4.975,1.426,7.256h0.189
		c0.105-2.027,0.581-4.446,1.426-7.256l6.813-20.185h10.108l-13.499,35.426H628.255z"/>
	<path class="st1" d="M672.775,491.275c-5.703,0-10.161-1.573-13.372-4.722c-3.211-3.146-4.816-7.604-4.816-13.371
		c0-5.937,1.484-10.525,4.452-13.769c2.968-3.242,7.071-4.864,12.311-4.864c5.007,0,8.904,1.426,11.692,4.278
		c2.789,2.852,4.183,6.792,4.183,11.819v4.689h-22.846c0.105,2.746,0.919,4.891,2.439,6.433s3.654,2.313,6.4,2.313
		c2.134,0,4.151-0.223,6.053-0.666s3.887-1.151,5.957-2.123v7.479c-1.69,0.845-3.496,1.474-5.418,1.885
		C677.888,491.069,675.543,491.275,672.775,491.275z M671.413,461.425c-2.05,0-3.655,0.65-4.816,1.949
		c-1.162,1.299-1.827,3.143-1.996,5.529h13.562c-0.042-2.387-0.665-4.23-1.869-5.529S673.462,461.425,671.413,461.425z"/>
	<path class="st1" d="M740.048,454.676c0,2.895-0.877,5.355-2.63,7.383c-1.754,2.028-4.215,3.423-7.384,4.184v0.189
		c3.739,0.465,6.57,1.601,8.492,3.406c1.922,1.807,2.884,4.241,2.884,7.305c0,4.457-1.616,7.927-4.849,10.409
		c-3.231,2.482-7.848,3.723-13.847,3.723c-5.028,0-9.485-0.834-13.372-2.503v-8.334c1.795,0.908,3.771,1.647,5.926,2.218
		c2.154,0.57,4.288,0.856,6.4,0.856c3.232,0,5.619-0.55,7.161-1.648c1.542-1.098,2.313-2.862,2.313-5.292
		c0-2.175-0.888-3.718-2.662-4.626s-4.605-1.362-8.492-1.362h-3.517v-7.51h3.58c3.591,0,6.216-0.47,7.874-1.41
		c1.658-0.939,2.488-2.551,2.488-4.832c0-3.507-2.197-5.261-6.591-5.261c-1.521,0-3.069,0.254-4.643,0.761
		c-1.574,0.507-3.322,1.384-5.244,2.63l-4.531-6.749c4.225-3.042,9.263-4.563,15.114-4.563c4.796,0,8.582,0.973,11.36,2.916
		C738.658,448.508,740.048,451.213,740.048,454.676z"/>
	<path class="st1" d="M775.505,490.641h-9.664v-49.305h9.664V490.641z"/>
	<path class="st1" d="M785.233,446.057c0-3.147,1.753-4.721,5.26-4.721s5.26,1.573,5.26,4.721c0,1.501-0.438,2.668-1.314,3.502
		c-0.877,0.835-2.192,1.252-3.945,1.252C786.986,450.811,785.233,449.226,785.233,446.057z M795.31,490.641h-9.664v-35.426h9.664
		V490.641z"/>
	<path class="st1" d="M813.879,490.641l-13.499-35.426h10.108l6.845,20.185c0.76,2.557,1.235,4.975,1.426,7.256h0.189
		c0.105-2.027,0.581-4.446,1.426-7.256l6.813-20.185h10.108l-13.499,35.426H813.879z"/>
	<path class="st1" d="M858.399,491.275c-5.703,0-10.161-1.573-13.372-4.722c-3.211-3.146-4.816-7.604-4.816-13.371
		c0-5.937,1.484-10.525,4.452-13.769c2.968-3.242,7.071-4.864,12.311-4.864c5.007,0,8.904,1.426,11.692,4.278
		c2.789,2.852,4.183,6.792,4.183,11.819v4.689h-22.846c0.105,2.746,0.919,4.891,2.439,6.433s3.654,2.313,6.4,2.313
		c2.134,0,4.151-0.223,6.053-0.666s3.887-1.151,5.957-2.123v7.479c-1.69,0.845-3.496,1.474-5.418,1.885
		C863.512,491.069,861.167,491.275,858.399,491.275z M857.037,461.425c-2.05,0-3.655,0.65-4.816,1.949
		c-1.162,1.299-1.827,3.143-1.996,5.529h13.562c-0.042-2.387-0.665-4.23-1.869-5.529S859.086,461.425,857.037,461.425z"/>
	<path class="st1" d="M905.424,480.122c0,3.633-1.263,6.4-3.787,8.302s-6.301,2.852-11.328,2.852c-2.577,0-4.774-0.174-6.591-0.522
		c-1.817-0.349-3.518-0.86-5.102-1.537v-7.985c1.795,0.846,3.818,1.553,6.068,2.123s4.23,0.855,5.941,0.855
		c3.506,0,5.26-1.014,5.26-3.042c0-0.76-0.232-1.378-0.697-1.854s-1.268-1.014-2.408-1.616c-1.141-0.602-2.661-1.304-4.562-2.106
		c-2.726-1.142-4.728-2.197-6.005-3.169c-1.278-0.972-2.208-2.086-2.789-3.343s-0.871-2.805-0.871-4.643
		c0-3.147,1.22-5.582,3.66-7.304c2.439-1.722,5.898-2.583,10.378-2.583c4.267,0,8.417,0.93,12.452,2.789l-2.915,6.971
		c-1.774-0.761-3.433-1.383-4.975-1.869s-3.116-0.729-4.722-0.729c-2.852,0-4.277,0.771-4.277,2.312c0,0.866,0.459,1.616,1.378,2.25
		s2.932,1.574,6.037,2.82c2.767,1.12,4.795,2.165,6.084,3.137c1.288,0.972,2.238,2.092,2.852,3.359
		C905.117,476.858,905.424,478.368,905.424,480.122z"/>
</g>
<g>
	<path class="st30" d="M478.058,70.818c0.033,0.025,0.065,0.052,0.098,0.078C478.123,70.87,478.091,70.843,478.058,70.818z"/>
	<path class="st30" d="M478.979,71.633c0.116,0.118,0.233,0.234,0.343,0.36C479.211,71.869,479.097,71.75,478.979,71.633z"/>
	<polygon class="st30" points="481.485,74.58 479.624,72.332 479.623,72.331 481.486,74.58 	"/>
	<path class="st30" d="M476.828,70.025c0.239,0.124,0.469,0.264,0.696,0.41C477.299,70.287,477.066,70.152,476.828,70.025z"/>
	<path class="st30" d="M434.8,122.284h76.182c1.919,0,3.474-1.555,3.474-3.474V88.002c0-1.919-1.555-3.474-3.474-3.474H434.8
		c-1.919,0-3.474,1.555-3.474,3.474v30.807C431.326,120.728,432.881,122.284,434.8,122.284z"/>
	<path class="st30" d="M639.623,252.085c-0.04-0.135-0.082-0.273-0.124-0.416c-0.624,4.926-0.637,8.7-0.003,10.607
		c-0.093-1.562-0.045-3.378,0.31-5.291C640.133,255.227,640.071,253.579,639.623,252.085z"/>
	<path class="st30" d="M464.61,76.901h0.681c-1.159,0-1.794-1.349-1.056-2.243l-0.434,0.525
		C463.235,75.867,463.722,76.901,464.61,76.901z"/>
	<path class="st30" d="M474.93,69.3c-0.083-0.02-0.166-0.024-0.249-0.041c0.656,0.14,1.29,0.354,1.89,0.641
		C476.049,69.643,475.502,69.436,474.93,69.3z"/>
	<path class="st30" d="M467.778,70.775c0.151-0.114,0.304-0.225,0.461-0.329C468.081,70.549,467.93,70.661,467.778,70.775z"/>
	<path class="st30" d="M473.504,69.092c0.2,0.014,0.396,0.042,0.593,0.07C473.899,69.134,473.702,69.106,473.504,69.092z"/>
	<path class="st30" d="M466.301,72.16l-0.127,0.154c0.087-0.105,0.18-0.204,0.271-0.305
		C466.399,72.061,466.346,72.106,466.301,72.16z"/>
	<path class="st30" d="M600.021,251.672c-0.031,0.105-0.062,0.208-0.093,0.31c-0.427,1.429-0.437,4-0.2,5.659
		c0.258,1.8,0.284,3.464,0.203,4.888C600.657,260.715,600.674,256.823,600.021,251.672z"/>
	<path class="st30" d="M466.839,71.595c0.231-0.229,0.471-0.446,0.723-0.649C467.31,71.148,467.069,71.363,466.839,71.595z"/>
	<path class="st30" d="M472.293,69.09c0.202-0.014,0.402-0.013,0.602-0.013C472.694,69.077,472.493,69.077,472.293,69.09z"/>
	<path class="st30" d="M468.994,70.001c0.061-0.032,0.124-0.06,0.185-0.091C469.117,69.941,469.055,69.97,468.994,70.001z"/>
	<path class="st30" d="M471.125,69.252c0.186-0.038,0.372-0.065,0.558-0.091C471.496,69.188,471.309,69.213,471.125,69.252z"/>
	<path class="st30" d="M769.038,282.644c0-0.018-0.001-0.029-0.002-0.038c-0.118-0.913-0.291-2.223-0.5-3.732
		c0.073,1.404,0.13,2.819,0.171,4.209C768.811,282.931,768.921,282.785,769.038,282.644z"/>
	<path class="st30" d="M642.681,282.643c0-0.017-0.001-0.029-0.002-0.037c-0.118-0.914-0.292-2.225-0.5-3.737
		c0.072,1.406,0.13,2.822,0.171,4.213C642.453,282.931,642.563,282.784,642.681,282.643z"/>
	<path class="st30" d="M726.379,251.673c-0.031,0.104-0.062,0.206-0.092,0.307c-0.428,1.43-0.438,4-0.201,5.66
		c0.258,1.801,0.284,3.466,0.203,4.891C727.015,260.719,727.032,256.827,726.379,251.673z"/>
	<path class="st30" d="M723.553,282.938c0.044-1.421,0.104-2.866,0.181-4.3c-0.216,1.557-0.396,2.917-0.521,3.874
		C723.333,282.65,723.446,282.792,723.553,282.938z"/>
	<path class="st30" d="M765.981,252.084c-0.04-0.135-0.082-0.272-0.124-0.415c-0.625,4.925-0.637,8.699-0.004,10.607
		c-0.092-1.563-0.045-3.379,0.31-5.291C766.49,255.229,766.429,253.58,765.981,252.084z"/>
	<path class="st30" d="M894.197,252.084c-0.04-0.135-0.082-0.272-0.124-0.415c-0.625,4.925-0.637,8.699-0.004,10.607
		c-0.092-1.563-0.045-3.379,0.31-5.291C894.706,255.229,894.645,253.58,894.197,252.084z"/>
	<path class="st30" d="M897.254,282.644c0-0.018-0.001-0.029-0.002-0.038c-0.118-0.914-0.292-2.226-0.5-3.738
		c0.072,1.407,0.13,2.823,0.171,4.215C897.026,282.931,897.137,282.785,897.254,282.644z"/>
	<path class="st30" d="M597.195,282.938c0.044-1.419,0.104-2.863,0.18-4.294c-0.216,1.554-0.396,2.912-0.521,3.868
		C596.976,282.649,597.089,282.792,597.195,282.938z"/>
	<path class="st30" d="M854.595,251.672c-0.031,0.105-0.062,0.208-0.093,0.31c-0.427,1.429-0.437,4-0.2,5.659
		c0.258,1.8,0.284,3.464,0.203,4.888C855.23,260.715,855.247,256.823,854.595,251.672z"/>
	<path class="st30" d="M851.769,282.938c0.044-1.419,0.104-2.863,0.18-4.294c-0.216,1.554-0.396,2.912-0.521,3.868
		C851.549,282.649,851.662,282.792,851.769,282.938z"/>
	<path class="st54" d="M332.148,135.343c0.036,0.201,0.079,0.397,0.109,0.601c0.342,2.388,0.178,4.956-0.566,7.399h92.007v-8
		H332.148z"/>
	<path class="st54" d="M615.594,143.343v-4c0-2.209,1.791-4,4-4h-97.51v8H615.594z"/>
	<path class="st55" d="M167.305,220.028c-2.121,0.43-3.114,1.415-3.693,2.531c-0.957,1.841-1.255,8.479-0.442,9.865
		c7.373,12.574,26.02,14.581,27.625,14.73c7.829-0.213,13.513-3.757,16.896-10.534c0.968-1.94,1.607-3.87,2.032-5.541
		c-5.942,0.019-11.757-0.542-17.181-1.532C181.994,227.598,172.957,224.027,167.305,220.028z"/>
	<path class="st55" d="M231.104,130.584c5.155,0.728,14.933,2.047,22.478,2.692c3.22,0.275,7.676,2.372,10.619,10.795
		c0.878,2.511,1.072,5.131,0.671,7.637c40.248-0.64,52.407-2.021,55.447-3.081c6.121-2.129,7.591-7.781,6.989-11.973
		c-0.548-3.819-3.062-7.771-7.445-7.989c-1.049-0.051-2.816-0.156-5.191-0.295c-16.528-0.974-62.484-3.681-100.999-2.384
		c5.06,1.301,10.103,2.657,13.254,3.658C228.236,130.06,229.643,130.377,231.104,130.584z"/>
	<path class="st55" d="M188.801,203.089c-7.977,0.319-13.129-0.905-16.452-2.484c-0.046,0.114-0.098,0.228-0.147,0.341
		c-1.617,5.733-1.179,7.81-1.033,8.258c3.787,3.355,8.06,5.928,12.395,7.908c3.239,0.876,6.852,2.002,10.887,3.382
		c0.811,0.22,8.382,2.255,14.414,2.957c2.193,0.183,3.729,0.22,4.313,0.226c7.786-1.881,13.02-5.31,15.559-10.194
		c2.083-4.008,1.98-8.324,1.49-11.342c-10.37,0.162-24.18,0.403-35.261,0.741C192.796,202.95,190.718,203.02,188.801,203.089z"/>
	<path class="st55" d="M127.802,147.303c-0.716,0.485-1.384,0.938-2.001,1.405c-0.747,0.525-1.394,0.994-2.019,1.462
		c-0.9,0.673-1.779,1.34-2.651,2.001c-1.358,1.03-2.7,2.048-4.068,3.049l-1.261,0.91c-1.388,1.003-2.692,1.896-3.987,2.73
		l-0.342,0.226c-0.273,0.18-0.552,0.361-0.819,0.554c-13.875,9.705-33.18,36.406-33.373,36.675c-0.233,0.323-0.54,0.586-0.895,0.767
		l-54.768,27.911c-1.754,0.894-2.523,2.994-1.771,4.806l29.797,58.154c0.642,1.252,1.74,2.154,3.093,2.541
		c1.353,0.385,2.762,0.201,3.968-0.522l45.271-27.153c3.798-2.574,8.276-3.933,12.966-3.933c0.049,0,0.098,0,0.147,0
		c25.758,0.146,51.174-5.21,64.412-8.537c-0.056-0.015-0.11-0.029-0.166-0.044c-8.913-2.448-19.926-7.227-24.405-16.416
		c-2.96-6.065-3.642-11.331-3.324-15.593l-17.256,9.063c-10.65,6.465-31.932,5.277-34.331,5.118
		c-0.094-0.006-0.187-0.015-0.279-0.028c-4.025-0.554-9.02,1.043-13.327,3.025c1.774,1.055,3.534,2.655,5.044,5.065
		c1.751,2.794,3.199,7.475,2.018,12.23c-0.976,3.925-3.566,7.199-7.492,9.469c-4.615,2.668-9.629,3.681-14.582,3.681
		c-9.478,0-18.731-3.708-24.535-6.621c-3.688-1.852-5.813-5.702-5.412-9.81c0.962-9.841,4.629-27.428,18.376-34.658
		c4.015-2.11,8.166-2.555,12.006-1.287c4.654,1.538,7.84,5.259,9.27,8.23c1.163,2.415,1.598,4.634,1.6,6.609
		c5.25-2.453,11.921-4.651,17.965-3.88c4.518,0.282,15.122,0.34,23.079-1.559c2.418-0.857,4.917-1.838,7.45-2.966l10.378-5.451
		c11.403-7.022,21.976-17.472,26.813-32.979c0,0-1.813-17.501,20.883-19.048c2.009-0.138,4.225-0.254,6.649-0.323
		c13.904-0.499,35.948,1.305,51.009,1.831c2.203-1.312,5.161-3.326,9.14-6.47c3.533-2.792,4.902-7.541,3.407-11.817
		c-1.137-3.256-3.158-7.193-6.324-7.464c-7.665-0.655-17.545-1.987-22.752-2.723c-1.738-0.246-3.417-0.625-4.992-1.125
		c-5.724-1.819-18.021-4.881-24.841-6.545c-2.763-0.675-5.596-0.825-8.427-0.446l-19.919,2.665c-0.39,0.084-0.797,0.166-1.174,0.252
		C146.488,136.037,135.404,142.112,127.802,147.303z"/>
	<path class="st55" d="M193.014,170.195c-6.536,0.135-11.194,1.969-13.848,5.449c-1.714,2.248-2.034,4.538-2.089,5.098
		c1.435,13.527,9.424,13.322,9.768,13.317c0.045-0.002,0.096-0.003,0.147-0.003c0.064,0,0.129,0.002,0.184,0.006l5.087,0.381
		l20.591,0.178l18.307-0.168c5.716-3.093,9.162-6.905,10.246-11.336c1.234-5.045-0.889-9.782-2.005-11.802L193.014,170.195z"/>
	<path class="st56" d="M190.718,252.158c-0.062,0-0.122-0.002-0.184-0.007c-0.276-0.02-2.424-0.196-5.529-0.839
		c-0.234,0.064-0.458,0.126-0.706,0.193c-1.475-0.313-3.104-0.693-4.798-1.156c-13.238,3.327-38.654,8.683-64.412,8.537
		c-0.05,0-0.099,0-0.147,0c-4.689,0-9.168,1.358-12.966,3.933l-45.271,27.153c-1.206,0.724-2.615,0.907-3.968,0.522
		c-1.353-0.387-2.451-1.289-3.093-2.541l-29.797-58.154c-0.752-1.812,0.018-3.912,1.771-4.806l54.768-27.911
		c0.354-0.181,0.661-0.444,0.895-0.767c0.193-0.269,19.498-26.97,33.373-36.675c0.268-0.193,0.546-0.374,0.819-0.554l0.342-0.226
		c1.295-0.833,2.6-1.727,3.987-2.73l1.261-0.91c1.368-1.001,2.71-2.019,4.068-3.049c0.872-0.662,1.751-1.329,2.651-2.001
		c0.625-0.469,1.271-0.938,2.019-1.462c0.617-0.468,1.285-0.92,2.001-1.405c7.603-5.191,18.687-11.266,43.249-16.967
		c0.377-0.087,0.784-0.168,1.174-0.252l-1.956,0.262c-26.129,3.394-42.687,16.667-42.852,16.8c-0.042,0.034-0.084,0.066-0.128,0.098
		l-18.741,13.343c-1.125,0.801-2.686,0.539-3.486-0.587c-0.454-0.637-0.555-1.411-0.363-2.111
		c-13.099,10.623-28.509,31.431-31.12,35.013l-54.231,27.638c-4.127,2.103-5.91,7.076-4.059,11.322
		c0.021,0.047,0.043,0.094,0.067,0.141l29.837,58.232c1.261,2.461,3.509,4.308,6.168,5.068c0.899,0.257,1.824,0.384,2.746,0.384
		c1.805,0,3.599-0.485,5.168-1.427l45.333-27.189c0.042-0.024,0.083-0.052,0.124-0.079c2.977-2.032,6.504-3.104,10.208-3.104
		c0.039,0,0.078,0,0.116,0c0.395,0.002,0.784,0.004,1.178,0.004c28.377-0.001,55.514-6.205,69.269-9.939
		c3.344-0.905,5.519-1.574,6.273-1.812c0.044-0.009,0.084-0.027,0.128-0.038c-0.375,0.022-0.746,0.048-1.132,0.057
		C190.755,252.158,190.736,252.158,190.718,252.158z"/>
	<path class="st56" d="M332.257,135.944c-0.029-0.204-0.073-0.4-0.109-0.601c-1.195-6.704-5.961-11.369-12.039-11.673
		c-1.041-0.051-2.792-0.154-5.145-0.292c-19.045-1.123-77.001-4.538-118.08-1.528c-10.17,0.736-18.726,1.849-25.515,3.303
		l20.113-2.691c3.448-0.459,6.905-0.277,10.274,0.544c3.185,0.777,7.556,1.858,11.915,2.979
		c38.515-1.298,84.471,1.409,100.999,2.384c2.375,0.14,4.143,0.244,5.191,0.295c4.384,0.219,6.897,4.17,7.445,7.989
		c0.602,4.192-0.868,9.844-6.989,11.973c-3.04,1.06-15.199,2.441-55.447,3.081c-0.282,1.759-0.857,3.461-1.713,5.027
		c45.924-0.69,55.577-2.26,58.804-3.386c5.349-1.861,8.43-5.742,9.728-10.005C332.435,140.9,332.599,138.332,332.257,135.944z"/>
	<path class="st56" d="M264.872,151.708c0.402-2.506,0.207-5.127-0.671-7.637c-2.943-8.424-7.399-10.52-10.619-10.795
		c-7.545-0.645-17.322-1.964-22.478-2.692c-1.462-0.207-2.868-0.523-4.179-0.94c-3.151-1.001-8.194-2.357-13.254-3.658
		c-4.359-1.121-8.73-2.202-11.915-2.979c-3.369-0.822-6.826-1.004-10.274-0.544l-20.113,2.691l-1.754,0.235
		c-26.935,3.498-43.911,16.722-45.287,17.825l-18.681,13.299c-0.487,0.347-0.802,0.84-0.949,1.376
		c-0.192,0.7-0.091,1.474,0.363,2.111c0.801,1.126,2.361,1.388,3.486,0.587l18.741-13.343c0.044-0.031,0.086-0.064,0.128-0.098
		c0.164-0.134,16.723-13.407,42.852-16.8l1.956-0.262l19.919-2.665c2.831-0.379,5.664-0.229,8.427,0.446
		c6.82,1.664,19.117,4.726,24.841,6.545c1.575,0.5,3.254,0.879,4.992,1.125c5.207,0.735,15.087,2.068,22.752,2.723
		c3.166,0.271,5.188,4.208,6.324,7.464c1.495,4.276,0.126,9.025-3.407,11.817c-3.979,3.144-9.14,6.47-9.14,6.47l-4.191,3.237
		c0,0,1.425,2.314,1.938,3.446c2.929-1.071,7.382-3.612,14.493-9.23c1.669-1.318,3.005-2.934,3.986-4.726
		C264.015,155.169,264.59,153.467,264.872,151.708z"/>
	<path class="st57" d="M130.515,220.338l0.686-0.36c-2.533,1.128-5.032,2.109-7.45,2.966c2.537-0.605,4.807-1.408,6.522-2.468
		C130.352,220.426,130.433,220.381,130.515,220.338z"/>
	<path class="st57" d="M166.064,208.767c-4.903,4.414-10.719,7.564-11.715,8.089l-2.742,1.44c-0.318,4.262,0.364,9.528,3.324,15.593
		c4.479,9.189,15.492,13.968,24.405,16.416c0.056,0.015,0.11,0.029,0.166,0.044c1.694,0.464,3.323,0.843,4.798,1.156
		c0.247-0.067,0.472-0.129,0.706-0.193c-7.274-1.506-19.835-5.592-26.147-16.358c-1.926-3.283-1.188-11.804,0.317-14.7
		c1.913-3.68,5.285-5.49,10.95-5.43c-0.801-0.628-1.593-1.274-2.364-1.96C166.937,212.171,166.237,210.936,166.064,208.767z"/>
	<path class="st57" d="M176.305,193.399c-0.241-0.321-0.475-0.664-0.705-1.022c-0.118,0.378-0.238,0.75-0.359,1.111
		C175.584,193.451,175.939,193.421,176.305,193.399z"/>
	<path class="st57" d="M195.924,162.176c-2.424,0.07-4.641,0.185-6.649,0.323c-22.696,1.547-20.883,19.048-20.883,19.048
		c-4.837,15.507-15.41,25.957-26.813,32.979l9.044-4.75c5.279-2.792,13.257-8.529,14.44-12.531c0.069-0.235,0.16-0.462,0.271-0.68
		c1.859-3.67,4.522-10.998,3.747-15.022c-0.065-0.342-0.087-0.69-0.062-1.037l0.366-5.212c0.155-2.203,2.059-3.867,4.271-3.71
		c0.682,0.048,1.301,0.279,1.842,0.621c3.048-3.673,8.454-6.835,17.474-7.008c0.034-0.001,0.071,0,0.108,0l47.809,1.154
		c0.788,0.019,1.399,0.252,1.855,0.895c0.037,0.052,4.295-3.299,4.295-3.299S209.829,161.678,195.924,162.176z"/>
	<path class="st57" d="M192.541,229.548c5.424,0.99,11.239,1.551,17.181,1.532c0.234-0.92,0.405-1.766,0.526-2.484
		c-0.166-0.012-0.339-0.031-0.507-0.046c-5.682-0.358-16.932-1.709-28.034-6.758c-5.377-1.429-9.145-1.992-11.807-1.992
		c-1.016,0-1.871,0.083-2.595,0.229C172.957,224.027,181.994,227.598,192.541,229.548z"/>
	<path class="st57" d="M186.218,199.346c-9.278-1.874-12.411-0.655-13.301-0.082c-0.115,0.244-0.219,0.461-0.299,0.622
		c-0.08,0.241-0.172,0.48-0.269,0.719c3.323,1.579,8.475,2.804,16.452,2.484c1.917-0.069,3.995-0.138,6.165-0.208
		c11.081-0.338,24.892-0.579,35.261-0.741c-0.15-0.928-0.336-1.738-0.508-2.373l-16.872-0.146l-16.283,0.149
		c-0.007,0-0.015,0-0.022,0c-0.062,0-0.125-0.002-0.187-0.007l-4.3-0.322l-5.365-0.046
		C186.531,199.394,186.373,199.377,186.218,199.346z"/>
	<path class="st54" d="M172.618,199.886c0.079-0.161,0.184-0.378,0.299-0.622c-0.147,0.095-0.24,0.174-0.282,0.216
		c-0.16,0.516-0.301,0.999-0.433,1.466c0.05-0.114,0.101-0.227,0.147-0.341C172.446,200.366,172.538,200.126,172.618,199.886z"/>
	<path class="st54" d="M169.385,175.293l-0.366,5.212c-0.024,0.347-0.003,0.695,0.062,1.037c0.775,4.024-1.888,11.352-3.747,15.022
		c-0.11,0.218-0.201,0.445-0.271,0.68c-1.184,4.002-9.161,9.74-14.44,12.531l-9.044,4.75l-10.378,5.451l-0.686,0.36
		c-0.082,0.043-0.163,0.089-0.242,0.138c-1.716,1.06-3.986,1.862-6.522,2.468c-7.958,1.899-18.561,1.841-23.079,1.559
		c-6.044-0.771-12.716,1.427-17.965,3.88c0.002,2.078-0.476,3.886-1.107,5.359c1.49,0.237,3.158,0.748,4.815,1.733
		c4.307-1.982,9.301-3.578,13.327-3.025c0.093,0.013,0.186,0.022,0.279,0.028c2.399,0.159,23.681,1.347,34.331-5.118l17.256-9.063
		l2.742-1.44c0.996-0.525,6.812-3.675,11.715-8.089c-0.186-2.329,0.236-5.734,1.788-10.743c0.158-0.599,0.655-1.81,2.176-2.855
		c1.289-0.886,3.035-1.443,5.213-1.681c0.122-0.362,0.242-0.733,0.359-1.111c-1.675-2.622-3.011-6.263-3.519-11.343
		c-0.011-0.104-0.015-0.208-0.012-0.313c0.059-2.324,0.992-5.584,3.428-8.518c-0.541-0.341-1.16-0.573-1.842-0.621
		C171.443,171.426,169.54,173.09,169.385,175.293z"/>
	<path class="st56" d="M231.816,199.447l-18.969,0.174l16.872,0.146c0.172,0.635,0.358,1.444,0.508,2.373
		c0.49,3.018,0.593,7.334-1.49,11.342c-2.539,4.884-7.772,8.313-15.559,10.194c-0.585-0.006-2.12-0.043-4.313-0.226
		c1.505,0.175,2.916,0.269,4.1,0.229c0.693-0.024,1.364,0.245,1.853,0.736s0.751,1.164,0.725,1.857
		c-0.024,0.627-0.078,1.298-0.159,1.998c8.718-2.307,14.712-6.517,17.817-12.533c3.534-6.847,2.254-14.047,1.308-17.431
		c-0.506,0.292-1.023,0.58-1.559,0.859C232.6,199.347,232.211,199.444,231.816,199.447z"/>
	<polygon class="st56" points="196.624,194.77 212.854,194.621 192.263,194.443 	"/>
	<path class="st56" d="M193.054,225.295c-0.049-0.013-0.098-0.028-0.146-0.045c-4.357-1.491-8.053-2.622-11.201-3.458
		c11.102,5.049,22.352,6.401,28.034,6.758C202.743,227.942,193.51,225.42,193.054,225.295z"/>
	<path class="st56" d="M170.027,195.169c-1.521,1.045-2.018,2.256-2.176,2.855c-1.551,5.008-1.973,8.414-1.788,10.743
		c0.173,2.169,0.873,3.405,1.697,4.097c0.771,0.686,1.563,1.332,2.364,1.96c3.524,0.037,7.937,0.8,13.439,2.288
		c-4.335-1.98-8.608-4.553-12.395-7.908c-0.146-0.448-0.584-2.525,1.033-8.258c0.132-0.467,0.272-0.949,0.433-1.466
		c0.042-0.042,0.135-0.121,0.282-0.216c0.89-0.573,4.023-1.792,13.301,0.082c0.155,0.031,0.313,0.048,0.473,0.049l5.365,0.046
		l-5.173-0.388c-1.279-0.008-6.625-0.38-10.577-5.655c-0.366,0.021-0.72,0.051-1.064,0.089
		C173.063,193.726,171.317,194.284,170.027,195.169z"/>
	<path class="st56" d="M214.817,224.415c-0.488-0.492-1.159-0.761-1.853-0.736c-1.184,0.04-2.595-0.054-4.1-0.229
		c-6.032-0.702-13.603-2.737-14.414-2.957c-4.035-1.38-7.648-2.505-10.887-3.382c-5.502-1.488-9.915-2.251-13.439-2.288
		c-5.665-0.06-9.038,1.751-10.95,5.43c-1.505,2.896-2.243,11.417-0.317,14.7c6.312,10.766,18.874,14.851,26.147,16.358
		c3.106,0.643,5.254,0.819,5.529,0.839c0.062,0.005,0.122,0.007,0.184,0.007c0.019,0,0.037,0,0.056-0.001
		c0.385-0.009,0.757-0.035,1.132-0.057c16.612-0.978,22.455-14.952,23.478-23.831c0.081-0.699,0.135-1.37,0.159-1.998
		C215.568,225.579,215.306,224.907,214.817,224.415z M181.707,221.791c3.148,0.836,6.844,1.967,11.201,3.458
		c0.048,0.017,0.097,0.032,0.146,0.045c0.456,0.125,9.689,2.647,16.687,3.255c0.168,0.015,0.342,0.034,0.507,0.046
		c-0.12,0.719-0.292,1.564-0.526,2.484c-0.425,1.671-1.064,3.601-2.032,5.541c-3.383,6.777-9.066,10.321-16.896,10.534
		c-1.605-0.149-20.252-2.156-27.625-14.73c-0.812-1.386-0.515-8.023,0.442-9.865c0.58-1.116,1.572-2.102,3.693-2.531
		c0.724-0.147,1.579-0.229,2.595-0.229C172.563,219.799,176.33,220.363,181.707,221.791z"/>
	<path class="st56" d="M243.33,168.121c-0.25-0.407-0.428-0.668-0.465-0.72c-0.456-0.643-1.189-1.033-1.978-1.052l-47.809-1.154
		c-0.037,0-0.074-0.001-0.108,0c-9.02,0.174-14.425,3.336-17.474,7.008c-2.436,2.934-3.368,6.194-3.428,8.518
		c-0.003,0.104,0.001,0.209,0.012,0.313c0.508,5.079,1.844,8.721,3.519,11.343c0.229,0.359,0.464,0.701,0.705,1.022
		c3.953,5.274,9.298,5.646,10.577,5.655l5.173,0.388l4.3,0.322c0.062,0.004,0.124,0.007,0.187,0.007c0.008,0,0.016,0,0.022,0
		l16.283-0.149l18.969-0.174c0.395-0.004,0.783-0.101,1.133-0.283c0.537-0.28,1.053-0.567,1.559-0.859
		c6.458-3.726,10.417-8.448,11.77-14.058c1.317-5.463-0.189-10.447-1.598-13.557C244.167,169.558,243.676,168.686,243.33,168.121z
		 M241.407,183.117c-1.084,4.431-4.53,8.243-10.246,11.336l-18.307,0.168l-16.23,0.149l-4.361-0.327l-5.087-0.381
		c-0.055-0.004-0.119-0.006-0.184-0.006c-0.052,0-0.103,0.001-0.147,0.003c-0.344,0.005-8.333,0.21-9.768-13.317
		c0.055-0.56,0.375-2.85,2.089-5.098c2.653-3.48,7.312-5.314,13.848-5.449l46.389,1.12
		C240.519,173.336,242.642,178.072,241.407,183.117z"/>
	<path class="st54" d="M79.976,238.584c-1.407-0.098-2.651-0.888-3.327-2.114c-0.676-1.225-0.68-2.699-0.011-3.941
		c1.433-2.668,1.421-5.558-0.038-8.586c-0.984-2.046-3.164-4.604-6.332-5.65c-2.557-0.844-5.286-0.521-8.109,0.965
		c-4.033,2.121-13.64,9.36-15.728,30.719c-0.198,2.032,0.853,3.938,2.678,4.854c19.183,9.626,30.429,5.362,34.373,3.081
		c2.762-1.598,4.492-3.732,5.142-6.347c0.805-3.236-0.196-6.446-1.402-8.37C85.437,240.345,82.999,238.795,79.976,238.584z"/>
	<path d="M82.706,228.382c-0.002-1.975-0.437-4.193-1.6-6.609c-1.43-2.971-4.615-6.692-9.27-8.23
		c-3.84-1.268-7.991-0.823-12.006,1.287c-13.747,7.23-17.414,24.817-18.376,34.658c-0.401,4.107,1.724,7.958,5.412,9.81
		c5.804,2.913,15.058,6.621,24.535,6.621c4.953,0,9.967-1.013,14.582-3.681c3.926-2.27,6.517-5.544,7.492-9.469
		c1.182-4.756-0.267-9.437-2.018-12.23c-1.51-2.411-3.27-4.01-5.044-5.065c-1.656-0.985-3.325-1.496-4.815-1.733
		C82.229,232.268,82.708,230.461,82.706,228.382z M88.623,251.564c-0.649,2.614-2.38,4.749-5.142,6.347
		c-3.944,2.281-15.19,6.545-34.373-3.081c-1.825-0.916-2.876-2.822-2.678-4.854c2.088-21.359,11.694-28.598,15.728-30.719
		c2.823-1.486,5.553-1.809,8.109-0.965c3.168,1.046,5.348,3.604,6.332,5.65c1.459,3.029,1.471,5.918,0.038,8.586
		c-0.669,1.243-0.665,2.716,0.011,3.941c0.676,1.226,1.92,2.016,3.327,2.114c3.023,0.211,5.461,1.762,7.245,4.61
		C88.427,245.118,89.428,248.328,88.623,251.564z"/>
	<path class="st58" d="M649.502,256.322L649.502,256.322c-0.607-2.161-0.605-5.24-0.347-7.185
		c0.595-4.479-0.234-12.284-1.209-18.095c-0.097-0.578-0.097-1.392-0.002-1.981c1.942-12.229-6.833-15.17-9.569-15.781
		c-0.574-0.128-1.139-0.348-1.676-0.654l-9.097-5.212c-0.868-0.496-1.535-1.498-1.659-2.492l-0.563-4.486
		c-0.104-0.836,0.132-1.876,0.586-2.591l0.455-0.706c0.993-1.53,1.593-2.454,1.931-4.487c0.065-0.395,0.248-0.761,0.523-1.051
		c0.188-0.207,0.673-1.231,0.886-2.917c0.144-1.124,0.097-1.993,0.012-2.522c-0.087-0.03-0.173-0.066-0.256-0.108
		c-0.597-0.303-1.003-0.884-1.081-1.549c-0.716-6.067-1.757-10.362-8.674-10.362c-7.498,0-7.983,4.309-8.545,9.299
		c-0.041,0.367-0.081,0.727-0.124,1.077c-0.082,0.667-0.493,1.247-1.094,1.546c-0.082,0.041-0.165,0.075-0.251,0.104
		c-0.085,0.53-0.131,1.396,0.012,2.515c0.214,1.685,0.699,2.708,0.887,2.917c0.257,0.284,0.461,0.673,0.523,1.051
		c0.338,2.035,0.938,2.959,1.933,4.491l0.453,0.704c0.457,0.717,0.691,1.759,0.586,2.594l-0.562,4.481
		c-0.123,0.992-0.791,1.995-1.66,2.493l-9.094,5.211c-0.54,0.308-1.284,0.562-1.784,0.68c-10.412,2.434-10.087,11.833-9.464,15.762
		c0.094,0.583,0.094,1.398-0.003,1.975c-0.978,5.829-1.808,13.65-1.205,18.126c0.278,2.068-0.022,5.152-0.699,7.173
		c-0.902,2.693-1.562,7.409,0.419,14.581c0.031,0.113,0.053,0.23,0.063,0.349l1.065,11.527c0.016,0.165,0.01,0.332-0.016,0.496
		c0,0-0.058,0.457,0.002,1.207c0.018,0.103,0.027,0.208,0.029,0.315c0.035,2.8,0.08,7.523-0.001,8.911
		c0.12,0.266,0.476,0.784,0.697,1.107c0.157,0.229,0.312,0.456,0.456,0.68c0.045,0.067,0.138,0.135,0.231,0.102
		c1.651-0.53,2.466-1.065,2.791-1.368c-0.075-1.175-0.273-2.72-0.578-3.379c-0.155-0.338-0.214-0.711-0.169-1.08
		c0.174-1.486-0.012-4.038-0.963-4.777c-0.388-0.302-0.65-0.734-0.739-1.218c-0.022-0.121-0.041-0.239-0.056-0.359l-0.042-0.458
		c-0.003-0.033-0.005-0.067-0.007-0.101c-0.011-0.286-0.009-0.559,0.022-0.796c0.413-3.17,1.477-11.068,2.406-15.723
		c0.014-0.072,0.032-0.143,0.055-0.213c0.009-0.028,1.063-3.508,0.432-7.939c-0.292-2.043-0.314-5.222,0.327-7.369
		c0.558-1.866,1.325-4.575,1.814-6.886c0.247-1.169,1.251-1.982,2.444-1.982c0.006,0,0.012,0,0.017,0
		c1.2,0.008,2.201,0.836,2.435,2.015c1.451,7.335,2.699,16.92,0.407,20.93c-0.655,1.146-1.796,7.583-2.069,19.974
		c-0.422,19.121,1.502,38.571,5.146,52.028c0.583,2.153,0.65,5.385,0.639,7.12c-0.003,0.353,0.017,0.812,0.05,1.354
		c0.23,3.673,1.271,11.67,2.816,19.846c0.145,0.764,0.272,1.539,0.399,2.317c0.259,1.576,0.504,3.064,0.89,4.486
		c0.49,1.805,0.634,3.413,0.48,5.378c-0.068,0.871-0.336,2.071-0.553,2.758c-0.35,1.11-0.654,2.081-1.401,3.149
		c-0.204,0.292-0.393,0.68-0.593,1.091c-0.362,0.744-0.773,1.587-1.48,2.335c-0.89,0.942-1.994,1.419-2.969,1.841
		c-0.479,0.207-0.932,0.402-1.264,0.616c-0.01,0.007-0.02,0.013-0.028,0.02c2.293,0.297,6.358,0.81,6.765,0.842
		c0.201,0.003,0.356,0.034,0.521,0.096c0.194-0.019,0.718-0.219,1.435-1.014c0.594-0.659,1.533-1.602,2.826-2.181
		c0.145-0.064,0.16-0.107,0.165-0.122c0.078-0.223,0.033-0.946-0.634-2.248c-0.271-0.526-0.359-1.116-0.446-1.832l-0.033-0.255
		c-0.217-1.417,0.388-2.307,0.749-2.838c0.02-0.028,0.039-0.057,0.059-0.086c-0.027-0.073-0.06-0.153-0.086-0.218
		c-0.081-0.202-0.161-0.406-0.227-0.608c-0.231-0.725-0.159-1.388-0.111-1.826c0.01-0.09,0.021-0.18,0.025-0.268
		c0.005-0.13,0.735-19.329,0.735-19.329c0.003-0.067,0.248-6.263-0.17-11.672c-0.098-1.269-0.225-2.398-0.377-3.357
		c-0.167-1.062-0.689-4.715-0.377-7.186c0.948-7.471,3.957-32.669,2.869-43.277c-0.058-0.563,0.125-1.124,0.505-1.544
		c0.379-0.42,0.918-0.66,1.484-0.66h1.611c0.565,0,1.105,0.24,1.484,0.66s0.562,0.98,0.505,1.544
		c-1.083,10.58,2.049,35.689,3.034,43.133c0.274,2.068,0.222,4.157-0.156,6.207c-0.312,1.691-0.521,3.164-0.639,4.502
		c-0.417,5.393-0.2,11.592-0.197,11.654c0,0,0.73,19.195,0.735,19.324c0.004,0.085,0.016,0.174,0.025,0.265
		c0.048,0.439,0.121,1.104-0.111,1.828c-0.065,0.204-0.146,0.408-0.227,0.61c-0.026,0.064-0.059,0.145-0.086,0.218
		c0.02,0.028,0.039,0.058,0.059,0.086c0.362,0.531,0.968,1.422,0.749,2.838l-0.033,0.255c-0.087,0.716-0.176,1.306-0.446,1.833
		c-0.849,1.655-0.64,2.23-0.631,2.254c0.021,0.052,0.139,0.109,0.233,0.145c0.939,0.34,1.78,0.964,2.501,1.854
		c0.855,1.056,1.486,1.301,1.699,1.312c0.192-0.063,0.394-0.098,0.597-0.101c0.342-0.029,4.377-0.539,6.68-0.838l-0.021-0.015
		c-0.34-0.219-0.793-0.414-1.272-0.622c-0.974-0.421-2.078-0.897-2.969-1.84c-0.706-0.748-1.115-1.589-1.477-2.331
		c-0.15-0.309-0.298-0.618-0.474-0.907c-0.421-0.691-0.896-1.526-1.238-2.489c-0.358-1.013-0.705-2.115-0.814-3.324
		c-0.19-2.125-0.059-3.765,0.458-5.66c0.385-1.417,0.628-2.901,0.887-4.473c0.128-0.783,0.257-1.562,0.402-2.331
		c1.426-7.543,2.434-15.646,2.697-19.791l0.002-0.254c0.004-0.436,0.007-0.812-0.001-1.115c-0.05-1.752-0.045-5.015,0.544-7.164
		c3.743-13.636,5.736-33.084,5.33-52.024c-0.265-12.35-1.422-18.805-2.089-19.973c-2.292-4.012-1.043-13.598,0.408-20.933
		c0.233-1.179,1.234-2.007,2.435-2.015c0.005,0,0.011,0,0.017,0c1.193,0,2.197,0.814,2.444,1.984
		c0.495,2.337,1.277,5.09,1.846,6.987c0.632,2.109,0.728,4.39,0.284,6.779c-0.827,4.451,0.424,8.368,0.437,8.407
		c0.024,0.075,0.047,0.157,0.062,0.234c0.941,4.709,1.998,12.571,2.408,15.732c0.072,0.551,0.034,1.183-0.112,1.878
		c-0.09,0.423-0.313,0.807-0.64,1.092c-0.951,0.834-1.067,3.493-0.918,4.731c0.045,0.368-0.014,0.742-0.17,1.079
		c-0.304,0.658-0.502,2.201-0.577,3.375c0.226,0.214,0.734,0.589,1.811,1.021c0.622,0.249,1.359,0.017,1.752-0.556
		c0.142-0.206,0.493-0.721,0.613-0.984c-0.082-1.395-0.037-6.113-0.002-8.909c0.002-0.111,0.012-0.22,0.031-0.326
		c0.059-0.757-0.002-1.214-0.002-1.219c-0.02-0.144-0.026-0.31-0.015-0.454l0.948-11.527c0.009-0.103,0.024-0.205,0.049-0.306
		C651.022,264.328,650.35,259.337,649.502,256.322z"/>
	<path d="M653.353,255.239c-0.43-1.528-0.44-4.013-0.232-5.574c0.822-6.189-0.732-16.325-1.229-19.282
		c-0.024-0.148-0.023-0.524,0.003-0.688c2.554-16.083-10.088-19.747-12.65-20.319c-0.185-0.041-0.373-0.116-0.559-0.222l-8.814-5.05
		l-0.517-4.069c0.001-0.029,0.012-0.084-0.013-0.044l0.434-0.673c1.03-1.587,1.929-2.971,2.428-5.491
		c1.026-1.48,1.405-3.683,1.526-4.638c0.182-1.427,0.162-2.82-0.056-3.924c-0.279-1.414-0.853-2.186-1.436-2.605
		c-0.669-5.006-2.442-12.516-12.477-12.516c-10.811,0-11.93,7.667-12.48,12.504c-1.547,1.104-1.821,3.935-1.49,6.541
		c0.122,0.957,0.502,3.159,1.527,4.637c0.499,2.522,1.398,3.907,2.43,5.495l0.393,0.599c0.009,0.024,0.023,0.086,0.031,0.028
		l-0.521,4.156l-8.809,5.047c-0.108,0.062-0.473,0.203-0.714,0.259c-2.531,0.592-15.028,4.349-12.501,20.289
		c0.025,0.158,0.026,0.534,0.002,0.681c-0.498,2.968-2.058,13.131-1.225,19.32c0.194,1.442-0.052,3.95-0.527,5.368
		c-1.071,3.199-1.882,8.694,0.309,16.744l1.03,11.145c-0.037,0.384-0.073,1.104,0.02,2.074c0.056,4.469,0.057,7.957,0.001,8.51
		c-0.134,1.326,0.644,2.459,1.395,3.555c0.135,0.196,0.27,0.393,0.394,0.586c1.035,1.604,3.014,2.319,4.815,1.742
		c1.378-0.442,2.499-0.949,3.373-1.527c0.479,14.995,2.316,29.354,5.216,40.062c0.331,1.22,0.518,3.48,0.5,6.045
		c-0.003,0.423,0.017,0.979,0.058,1.633c0.23,3.681,1.229,11.615,2.879,20.339c0.138,0.732,0.26,1.477,0.383,2.223
		c0.264,1.606,0.536,3.268,0.976,4.887c0.373,1.372,0.472,2.499,0.353,4.019c-0.036,0.463-0.217,1.352-0.407,1.953
		c-0.267,0.85-0.442,1.41-0.836,1.973c-0.385,0.551-0.665,1.126-0.912,1.633c-0.259,0.532-0.504,1.035-0.791,1.339
		c-0.325,0.344-0.968,0.622-1.648,0.916c-0.579,0.25-1.236,0.534-1.854,0.933c-1.427,0.918-2.279,2.479-2.279,4.177v0.101
		c0,1.418,0.933,2.61,2.231,2.838c0.057,0.01,6.744,0.893,8.455,1.067c0.921,0.241,3.08,0.405,5.433-2.206
		c0.559-0.618,1.031-1.003,1.488-1.207c1.121-0.501,1.918-1.346,2.305-2.445c0.519-1.472,0.258-3.206-0.796-5.3
		c-0.032-0.147-0.068-0.443-0.087-0.594c-0.01-0.085-0.02-0.165-0.029-0.238c0.026-0.04,0.056-0.08,0.084-0.121
		c0.146-0.216,0.297-0.443,0.434-0.705c0.727-1.389,0.216-2.658-0.059-3.34c-0.033-0.084-0.068-0.168-0.099-0.251
		c0.003-0.085,0.017-0.17,0.026-0.255c0.021-0.186,0.038-0.37,0.045-0.543c0.001-0.023,0.736-19.332,0.736-19.331
		c0.011-0.263,0.258-6.488-0.179-12.138c-0.105-1.375-0.245-2.612-0.414-3.675c-0.288-1.827-0.556-4.51-0.359-6.058
		c0.463-3.649,1.14-9.279,1.746-15.456c0.632,6.129,1.334,11.711,1.813,15.334c0.219,1.652,0.177,3.32-0.125,4.957
		c-0.335,1.815-0.561,3.41-0.691,4.896c-0.437,5.646-0.218,11.867-0.209,12.133c0,0,0.736,19.313,0.737,19.335
		c0.007,0.177,0.025,0.358,0.045,0.541c0.01,0.086,0.024,0.172,0.027,0.258c-0.031,0.084-0.065,0.168-0.1,0.252
		c-0.274,0.682-0.785,1.951-0.058,3.341c0.136,0.261,0.286,0.488,0.434,0.705c0.028,0.041,0.057,0.08,0.083,0.12
		c-0.01,0.073-0.02,0.153-0.029,0.238c-0.019,0.15-0.055,0.446-0.087,0.594c-1.073,2.135-1.323,3.965-0.743,5.441
		c0.444,1.13,1.364,1.996,2.592,2.441c0.242,0.088,0.504,0.299,0.757,0.612c1.859,2.292,3.631,2.789,4.818,2.789
		c0.414,0,0.757-0.06,1.009-0.126c1.714-0.176,8.396-1.058,8.466-1.069c1.265-0.223,2.218-1.441,2.218-2.836v-0.633
		c0-1.311-0.637-2.532-1.697-3.265c-0.193-0.135-0.379-0.252-0.589-0.384c-0.61-0.395-1.268-0.679-1.848-0.93
		c-0.681-0.294-1.323-0.571-1.648-0.915c-0.285-0.302-0.529-0.804-0.787-1.335c-0.206-0.422-0.413-0.842-0.653-1.235
		c-0.314-0.517-0.665-1.128-0.886-1.748c-0.271-0.765-0.53-1.577-0.6-2.345c-0.147-1.638-0.054-2.829,0.333-4.253
		c0.439-1.615,0.711-3.271,0.975-4.873c0.123-0.751,0.246-1.499,0.385-2.236c1.531-8.097,2.506-16.219,2.764-20.339
		c0.002-0.037,0.004-0.074,0.004-0.112l0.002-0.307c0.004-0.49,0.007-0.914-0.003-1.257c-0.072-2.567,0.078-4.809,0.403-5.994
		c3.734-13.603,5.011-28.834,5.386-40.15c0.616,0.422,1.362,0.809,2.244,1.161c2.384,0.958,5.075,0.13,6.54-2.01
		c0.642-0.938,1.44-2.104,1.309-3.425c-0.056-0.559-0.056-4.042,0-8.501c0-0.004,0-0.008,0.001-0.012
		c0.093-0.979,0.056-1.703,0.019-2.084l0.919-11.177C655.103,264.349,654.323,258.689,653.353,255.239
		C653.354,255.24,653.354,255.24,653.353,255.239z M649.365,271.29l-0.948,11.527c-0.012,0.145-0.005,0.311,0.015,0.454
		c0,0.005,0.061,0.462,0.002,1.219c-0.02,0.106-0.029,0.215-0.031,0.326c-0.035,2.796-0.08,7.515,0.002,8.909
		c-0.12,0.264-0.472,0.778-0.613,0.984c-0.393,0.572-1.13,0.805-1.752,0.556c-1.076-0.432-1.585-0.807-1.811-1.021
		c0.075-1.174,0.273-2.717,0.577-3.375c0.156-0.337,0.215-0.711,0.17-1.079c-0.149-1.238-0.033-3.897,0.918-4.731
		c0.326-0.285,0.55-0.669,0.64-1.092c0.146-0.695,0.185-1.327,0.112-1.878c-0.41-3.161-1.467-11.023-2.408-15.732
		c-0.015-0.077-0.037-0.159-0.062-0.234c-0.013-0.039-1.264-3.956-0.437-8.407c0.443-2.39,0.348-4.67-0.284-6.779
		c-0.568-1.897-1.351-4.65-1.846-6.987c-0.247-1.17-1.251-1.984-2.444-1.984c-0.006,0-0.012,0-0.017,0
		c-1.2,0.008-2.201,0.836-2.435,2.015c-1.451,7.335-2.7,16.921-0.408,20.933c0.667,1.168,1.824,7.623,2.089,19.973
		c0.406,18.94-1.587,38.389-5.33,52.024c-0.589,2.149-0.594,5.412-0.544,7.164c0.008,0.303,0.005,0.68,0.001,1.115l-0.002,0.254
		c-0.264,4.145-1.271,12.248-2.697,19.791c-0.146,0.769-0.274,1.548-0.402,2.331c-0.259,1.571-0.502,3.056-0.887,4.473
		c-0.517,1.896-0.648,3.535-0.458,5.66c0.109,1.209,0.456,2.312,0.814,3.324c0.343,0.963,0.817,1.798,1.238,2.489
		c0.176,0.289,0.323,0.599,0.474,0.907c0.361,0.742,0.771,1.583,1.477,2.331c0.891,0.942,1.995,1.419,2.969,1.84
		c0.479,0.208,0.933,0.403,1.272,0.622l0.021,0.015c-2.303,0.299-6.338,0.809-6.68,0.838c-0.203,0.003-0.404,0.037-0.597,0.101
		c-0.213-0.012-0.844-0.257-1.699-1.312c-0.721-0.89-1.562-1.514-2.501-1.854c-0.095-0.035-0.213-0.093-0.233-0.145
		c-0.009-0.023-0.218-0.599,0.631-2.254c0.271-0.527,0.359-1.117,0.446-1.833l0.033-0.255c0.219-1.416-0.387-2.307-0.749-2.838
		c-0.02-0.028-0.039-0.058-0.059-0.086c0.027-0.073,0.06-0.153,0.086-0.218c0.081-0.202,0.161-0.406,0.227-0.61
		c0.232-0.725,0.159-1.389,0.111-1.828c-0.01-0.091-0.021-0.18-0.025-0.265c-0.005-0.129-0.735-19.324-0.735-19.324
		c-0.003-0.062-0.22-6.262,0.197-11.654c0.118-1.338,0.327-2.811,0.639-4.502c0.378-2.05,0.431-4.139,0.156-6.207
		c-0.985-7.443-4.117-32.553-3.034-43.133c0.058-0.563-0.126-1.124-0.505-1.544s-0.919-0.66-1.484-0.66h-1.611
		c-0.566,0-1.105,0.24-1.484,0.66c-0.38,0.42-0.562,0.98-0.505,1.544c1.088,10.608-1.921,35.807-2.869,43.277
		c-0.312,2.471,0.21,6.123,0.377,7.186c0.152,0.959,0.279,2.089,0.377,3.357c0.418,5.409,0.173,11.604,0.17,11.672
		c0,0-0.73,19.199-0.735,19.329c-0.004,0.088-0.016,0.178-0.025,0.268c-0.048,0.438-0.12,1.102,0.111,1.826
		c0.065,0.202,0.146,0.406,0.227,0.608c0.026,0.064,0.059,0.145,0.086,0.218c-0.02,0.029-0.039,0.058-0.059,0.086
		c-0.361,0.531-0.966,1.421-0.749,2.838l0.033,0.255c0.087,0.716,0.176,1.306,0.446,1.832c0.667,1.302,0.712,2.025,0.634,2.248
		c-0.005,0.015-0.021,0.058-0.165,0.122c-1.293,0.579-2.232,1.521-2.826,2.181c-0.717,0.795-1.24,0.995-1.435,1.014
		c-0.165-0.062-0.32-0.093-0.521-0.096c-0.406-0.032-4.472-0.545-6.765-0.842c0.009-0.007,0.019-0.013,0.028-0.02
		c0.332-0.214,0.784-0.409,1.264-0.616c0.975-0.422,2.079-0.898,2.969-1.841c0.707-0.748,1.118-1.591,1.48-2.335
		c0.2-0.411,0.389-0.799,0.593-1.091c0.747-1.068,1.052-2.039,1.401-3.149c0.217-0.687,0.484-1.887,0.553-2.758
		c0.153-1.965,0.01-3.573-0.48-5.378c-0.386-1.422-0.631-2.91-0.89-4.486c-0.127-0.778-0.255-1.554-0.399-2.317
		c-1.545-8.176-2.586-16.173-2.816-19.846c-0.033-0.542-0.053-1.002-0.05-1.354c0.012-1.735-0.056-4.967-0.639-7.12
		c-3.644-13.457-5.567-32.907-5.146-52.028c0.273-12.391,1.414-18.827,2.069-19.974c2.292-4.01,1.044-13.595-0.407-20.93
		c-0.233-1.179-1.234-2.007-2.435-2.015c-0.005,0-0.011,0-0.017,0c-1.193,0-2.197,0.813-2.444,1.982
		c-0.489,2.311-1.257,5.02-1.814,6.886c-0.642,2.147-0.619,5.326-0.327,7.369c0.632,4.432-0.423,7.911-0.432,7.939
		c-0.022,0.07-0.041,0.141-0.055,0.213c-0.93,4.654-1.993,12.553-2.406,15.723c-0.031,0.237-0.033,0.51-0.022,0.796
		c0.002,0.033,0.004,0.067,0.007,0.101l0.042,0.458c0.015,0.12,0.033,0.238,0.056,0.359c0.089,0.483,0.352,0.916,0.739,1.218
		c0.951,0.739,1.137,3.291,0.963,4.777c-0.045,0.369,0.014,0.742,0.169,1.08c0.305,0.659,0.503,2.204,0.578,3.379
		c-0.325,0.303-1.14,0.838-2.791,1.368c-0.094,0.033-0.187-0.034-0.231-0.102c-0.144-0.224-0.299-0.451-0.456-0.68
		c-0.222-0.323-0.577-0.842-0.697-1.107c0.081-1.388,0.036-6.111,0.001-8.911c-0.002-0.107-0.012-0.213-0.029-0.315
		c-0.06-0.75-0.002-1.207-0.002-1.207c0.025-0.164,0.031-0.331,0.016-0.496l-1.065-11.527c-0.011-0.118-0.032-0.235-0.063-0.349
		c-1.981-7.172-1.321-11.888-0.419-14.581c0.677-2.021,0.978-5.104,0.699-7.173c-0.603-4.476,0.228-12.297,1.205-18.126
		c0.097-0.577,0.097-1.391,0.003-1.975c-0.623-3.928-0.948-13.328,9.464-15.762c0.5-0.118,1.244-0.373,1.784-0.68l9.094-5.211
		c0.869-0.498,1.537-1.5,1.66-2.493l0.562-4.481c0.105-0.835-0.129-1.877-0.586-2.594l-0.453-0.704
		c-0.994-1.532-1.595-2.456-1.933-4.491c-0.062-0.378-0.267-0.767-0.523-1.051c-0.188-0.208-0.673-1.232-0.887-2.917
		c-0.143-1.118-0.097-1.985-0.012-2.515c0.086-0.029,0.169-0.063,0.251-0.104c0.601-0.299,1.012-0.88,1.094-1.546
		c0.043-0.35,0.083-0.71,0.124-1.077c0.562-4.99,1.047-9.299,8.545-9.299c6.917,0,7.958,4.295,8.674,10.362
		c0.078,0.665,0.484,1.246,1.081,1.549c0.083,0.042,0.169,0.079,0.256,0.108c0.085,0.529,0.132,1.398-0.012,2.522
		c-0.213,1.686-0.698,2.709-0.886,2.917c-0.275,0.29-0.458,0.656-0.523,1.051c-0.338,2.033-0.938,2.957-1.931,4.487l-0.455,0.706
		c-0.454,0.714-0.689,1.754-0.586,2.591l0.563,4.486c0.124,0.995,0.791,1.997,1.659,2.492l9.097,5.212
		c0.537,0.306,1.102,0.526,1.676,0.654c2.736,0.61,11.512,3.552,9.569,15.781c-0.095,0.589-0.095,1.403,0.002,1.981
		c0.975,5.811,1.804,13.616,1.209,18.095c-0.259,1.944-0.261,5.023,0.348,7.186l-0.001-0.001c0.848,3.015,1.521,8.006-0.088,14.662
		C649.39,271.085,649.374,271.187,649.365,271.29z M639.496,262.276c-0.634-1.907-0.621-5.682,0.003-10.607
		c0.042,0.143,0.084,0.281,0.124,0.416c0.448,1.494,0.51,3.143,0.183,4.9C639.451,258.898,639.403,260.714,639.496,262.276z
		 M599.729,257.64c-0.236-1.659-0.227-4.23,0.2-5.659c0.03-0.102,0.062-0.204,0.093-0.31c0.652,5.151,0.636,9.043-0.09,10.856
		C600.013,261.104,599.986,259.44,599.729,257.64z M597.195,282.938c-0.106-0.146-0.22-0.289-0.341-0.426
		c0.125-0.956,0.305-2.314,0.521-3.868C597.299,280.075,597.239,281.519,597.195,282.938z M642.679,282.606
		c0.001,0.008,0.002,0.021,0.002,0.037c-0.117,0.141-0.228,0.288-0.331,0.438c-0.041-1.391-0.099-2.807-0.171-4.213
		C642.387,280.382,642.561,281.692,642.679,282.606z"/>
	<path class="st58" d="M775.861,256.324c-0.608-2.158-0.607-5.238-0.349-7.186c0.596-4.479-0.233-12.285-1.208-18.096
		c-0.097-0.573-0.099-1.389-0.003-1.981c1.942-12.229-6.833-15.171-9.569-15.781c-0.576-0.128-1.141-0.349-1.677-0.656l-9.095-5.211
		c-0.868-0.496-1.536-1.498-1.66-2.492l-0.562-4.486c-0.105-0.832,0.129-1.874,0.585-2.59l0.452-0.701
		c0.995-1.532,1.596-2.457,1.934-4.491c0.065-0.396,0.248-0.762,0.524-1.052c0.188-0.207,0.673-1.23,0.886-2.916
		c0.143-1.124,0.097-1.993,0.011-2.522c-0.088-0.03-0.175-0.067-0.259-0.11c-0.596-0.303-1-0.884-1.078-1.547
		c-0.716-6.067-1.757-10.362-8.674-10.362c-7.498,0-7.983,4.31-8.545,9.3c-0.041,0.366-0.081,0.726-0.124,1.075
		c-0.082,0.667-0.493,1.247-1.094,1.546c-0.082,0.041-0.165,0.075-0.251,0.104c-0.085,0.53-0.131,1.396,0.012,2.515
		c0.214,1.685,0.699,2.708,0.887,2.917c0.257,0.284,0.461,0.673,0.523,1.051c0.338,2.035,0.938,2.959,1.933,4.491l0.453,0.704
		c0.455,0.715,0.69,1.755,0.587,2.589l-0.563,4.486c-0.123,0.992-0.791,1.994-1.66,2.492l-9.094,5.211
		c-0.541,0.308-1.284,0.563-1.783,0.68c-10.413,2.433-10.088,11.833-9.464,15.762c0.095,0.586,0.093,1.403-0.005,1.98
		c-0.977,5.823-1.807,13.645-1.203,18.12c0.278,2.071-0.022,5.155-0.7,7.175c-0.902,2.691-1.562,7.407,0.42,14.58
		c0.031,0.113,0.053,0.23,0.063,0.349l1.064,11.527c0.016,0.165,0.01,0.332-0.016,0.496c0,0-0.058,0.453,0.001,1.197
		c0.02,0.106,0.029,0.215,0.031,0.326c0.041,3.414,0.073,7.619-0.002,8.908c0.12,0.267,0.477,0.785,0.698,1.108
		c0.156,0.229,0.312,0.457,0.456,0.681c0.044,0.066,0.126,0.135,0.231,0.102c1.651-0.53,2.466-1.065,2.791-1.368
		c-0.075-1.175-0.274-2.719-0.578-3.378c-0.156-0.338-0.215-0.712-0.17-1.081c0.174-1.486-0.012-4.038-0.963-4.777
		c-0.388-0.302-0.65-0.734-0.739-1.218c-0.022-0.121-0.041-0.239-0.056-0.359l-0.042-0.463c-0.016-0.326-0.022-0.588,0.014-0.877
		c0.415-3.185,1.479-11.083,2.408-15.737c0.014-0.072,0.032-0.143,0.055-0.213c0.009-0.028,1.063-3.508,0.432-7.939
		c-0.292-2.044-0.314-5.223,0.328-7.37c0.56-1.876,1.329-4.594,1.813-6.885c0.251-1.178,1.265-1.971,2.464-1.982
		c1.199,0.009,2.199,0.837,2.432,2.015c1.451,7.335,2.699,16.92,0.408,20.93c-0.655,1.146-1.796,7.581-2.069,19.974
		c-0.422,19.119,1.501,38.569,5.146,52.028c0.582,2.154,0.649,5.386,0.638,7.12c-0.002,0.349,0.016,0.811,0.05,1.354
		c0.23,3.673,1.271,11.67,2.816,19.846c0.146,0.768,0.273,1.548,0.402,2.33c0.258,1.571,0.502,3.056,0.887,4.474
		c0.49,1.802,0.634,3.41,0.48,5.378c-0.068,0.868-0.335,2.067-0.551,2.755l-0.032,0.103c-0.308,0.977-0.626,1.986-1.37,3.05
		c-0.205,0.293-0.395,0.682-0.595,1.093c-0.361,0.743-0.771,1.586-1.479,2.333c-0.891,0.942-1.995,1.42-2.97,1.841
		c-0.479,0.207-0.932,0.402-1.265,0.617c-0.009,0.006-0.019,0.012-0.027,0.019c2.292,0.297,6.357,0.81,6.765,0.842
		c0.202,0.003,0.356,0.034,0.521,0.096c0.194-0.019,0.718-0.218,1.434-1.014c0.595-0.659,1.535-1.603,2.829-2.182
		c0.143-0.063,0.158-0.106,0.163-0.121c0.078-0.223,0.033-0.946-0.634-2.247c-0.271-0.527-0.359-1.117-0.446-1.833l-0.033-0.255
		c-0.217-1.416,0.388-2.305,0.748-2.836c0.02-0.029,0.04-0.059,0.061-0.088c-0.028-0.074-0.061-0.155-0.086-0.22
		c-0.082-0.202-0.161-0.404-0.227-0.606c-0.232-0.723-0.16-1.387-0.112-1.827c0.01-0.09,0.021-0.179,0.024-0.267
		c0.006-0.13,0.737-19.329,0.737-19.329c0.002-0.067,0.248-6.263-0.17-11.672c-0.099-1.271-0.226-2.4-0.377-3.358
		c-0.168-1.06-0.691-4.709-0.378-7.185c0.948-7.471,3.957-32.669,2.87-43.277c-0.058-0.563,0.126-1.124,0.505-1.544
		s0.918-0.66,1.484-0.66h1.611c0.565,0,1.105,0.24,1.484,0.66c0.38,0.42,0.562,0.98,0.505,1.544
		c-1.084,10.579,2.048,35.689,3.033,43.133c0.274,2.067,0.222,4.155-0.155,6.206c-0.312,1.699-0.522,3.172-0.64,4.503
		c-0.417,5.393-0.2,11.592-0.197,11.654c0,0,0.731,19.196,0.736,19.324c0.004,0.089,0.016,0.179,0.025,0.269
		c0.048,0.438,0.119,1.102-0.112,1.824c-0.064,0.203-0.145,0.407-0.227,0.61c-0.025,0.064-0.058,0.145-0.086,0.218
		c0.021,0.029,0.041,0.059,0.061,0.087c0.36,0.532,0.965,1.422,0.747,2.837l-0.032,0.255c-0.088,0.717-0.176,1.309-0.449,1.838
		c-0.847,1.65-0.638,2.226-0.629,2.249c0.021,0.052,0.139,0.109,0.233,0.145c0.937,0.339,1.778,0.962,2.5,1.852
		c0.857,1.058,1.488,1.303,1.701,1.314c0.192-0.063,0.394-0.098,0.597-0.101c0.342-0.029,4.377-0.539,6.68-0.838l-0.028-0.019
		c-0.333-0.215-0.785-0.41-1.265-0.617c-0.975-0.421-2.079-0.898-2.97-1.841c-0.707-0.748-1.116-1.589-1.479-2.332
		c-0.149-0.308-0.297-0.617-0.473-0.906c-0.421-0.691-0.896-1.528-1.237-2.491c-0.358-1.008-0.706-2.109-0.815-3.322
		c-0.19-2.125-0.059-3.765,0.458-5.66c0.385-1.417,0.629-2.901,0.887-4.473c0.129-0.782,0.257-1.562,0.402-2.331
		c1.426-7.543,2.434-15.648,2.698-19.792l0.001-0.183c0.004-0.464,0.009-0.862-0.001-1.181c-0.05-1.757-0.045-5.02,0.544-7.169
		c3.743-13.636,5.736-33.084,5.33-52.024c-0.264-12.35-1.421-18.805-2.089-19.972c-2.291-4.013-1.042-13.599,0.409-20.934
		c0.233-1.179,1.233-2.007,2.434-2.015c0.006,0,0.012,0,0.017,0c1.193,0,2.197,0.814,2.444,1.984
		c0.497,2.346,1.278,5.095,1.847,6.987c0.632,2.112,0.727,4.394,0.282,6.78c-0.826,4.45,0.425,8.367,0.438,8.406
		c0.024,0.075,0.046,0.156,0.062,0.233c0.939,4.696,1.997,12.567,2.408,15.733c0.071,0.548,0.034,1.179-0.11,1.873
		c-0.089,0.426-0.313,0.811-0.641,1.097c-0.908,0.795-1.085,3.297-0.918,4.736c0.042,0.365-0.017,0.739-0.17,1.073
		c-0.304,0.659-0.503,2.201-0.578,3.376c0.227,0.214,0.734,0.589,1.812,1.021c0.621,0.249,1.358,0.016,1.751-0.555
		c0.142-0.208,0.493-0.721,0.613-0.985c-0.075-1.289-0.043-5.494-0.002-8.908c0.002-0.112,0.012-0.222,0.031-0.329
		c0.059-0.754-0.001-1.21-0.002-1.215c-0.02-0.144-0.026-0.312-0.015-0.456l0.949-11.527c0.009-0.104,0.024-0.205,0.049-0.306
		C777.38,264.332,776.708,259.34,775.861,256.324z"/>
	<path d="M779.711,255.238c-0.43-1.524-0.44-4.01-0.233-5.573c0.823-6.189-0.731-16.325-1.229-19.288
		c-0.024-0.146-0.023-0.519,0.003-0.682c2.554-16.084-10.089-19.748-12.65-20.319c-0.185-0.041-0.372-0.115-0.558-0.222
		l-8.815-5.051l-0.516-4.071c0.001-0.028,0.014-0.083-0.014-0.042l0.432-0.667c1.03-1.588,1.93-2.973,2.43-5.495
		c1.027-1.48,1.406-3.683,1.527-4.64c0.331-2.607,0.057-5.441-1.494-6.543c-0.671-5.006-2.45-12.501-12.475-12.501
		c-10.81,0-11.93,7.667-12.48,12.504c-1.547,1.104-1.821,3.935-1.49,6.541c0.122,0.957,0.502,3.159,1.527,4.637
		c0.499,2.522,1.398,3.907,2.43,5.495l0.393,0.599c0.011,0.026,0.025,0.086,0.032,0.027l-0.522,4.157l-8.809,5.047
		c-0.108,0.062-0.473,0.203-0.713,0.259c-2.531,0.591-15.029,4.349-12.501,20.289c0.025,0.158,0.026,0.531,0.001,0.681
		c-0.498,2.968-2.058,13.132-1.224,19.32c0.194,1.442-0.053,3.951-0.528,5.368c-1.071,3.199-1.881,8.693,0.31,16.744l1.029,11.145
		c-0.037,0.385-0.073,1.104,0.02,2.075c0.001,0.003,0.001,0.006,0.001,0.009c0.067,5.598,0.042,8.079,0,8.502
		c-0.132,1.325,0.645,2.457,1.395,3.552c0.136,0.197,0.271,0.394,0.394,0.585c1.035,1.605,3.018,2.32,4.816,1.744
		c1.378-0.442,2.499-0.949,3.372-1.527c0.479,14.994,2.317,29.352,5.217,40.061c0.33,1.221,0.517,3.482,0.499,6.053
		c-0.002,0.421,0.018,0.975,0.058,1.627c0.23,3.681,1.229,11.615,2.879,20.34c0.139,0.736,0.262,1.484,0.385,2.235
		c0.263,1.602,0.535,3.259,0.975,4.875c0.372,1.368,0.471,2.494,0.352,4.017c-0.036,0.462-0.217,1.352-0.378,1.865l-0.032,0.101
		c-0.266,0.844-0.441,1.4-0.832,1.959c-0.386,0.552-0.666,1.128-0.914,1.636c-0.259,0.532-0.503,1.034-0.788,1.336
		c-0.326,0.345-0.969,0.623-1.65,0.917c-0.579,0.25-1.235,0.534-1.854,0.933c-1.427,0.918-2.279,2.479-2.279,4.177v0.101
		c0,1.395,0.953,2.613,2.231,2.838c0.057,0.01,6.744,0.893,8.454,1.067c0.925,0.241,3.082,0.405,5.434-2.206
		c0.558-0.618,1.031-1.002,1.49-1.207c1.12-0.501,1.917-1.347,2.304-2.446c0.518-1.472,0.257-3.206-0.797-5.299
		c-0.032-0.147-0.068-0.443-0.087-0.594c-0.01-0.085-0.02-0.165-0.029-0.237c0.026-0.04,0.056-0.08,0.083-0.121
		c0.147-0.217,0.299-0.445,0.435-0.706c0.727-1.389,0.217-2.658-0.058-3.34c-0.034-0.085-0.068-0.168-0.1-0.253
		c0.003-0.085,0.017-0.17,0.026-0.254c0.021-0.186,0.038-0.369,0.045-0.542c0.001-0.023,0.736-19.332,0.736-19.331
		c0.011-0.263,0.259-6.488-0.178-12.14c-0.107-1.375-0.246-2.611-0.414-3.675c-0.289-1.824-0.557-4.505-0.36-6.056
		c0.463-3.649,1.14-9.279,1.746-15.456c0.632,6.129,1.333,11.711,1.813,15.334c0.219,1.651,0.177,3.319-0.124,4.957
		c-0.336,1.822-0.562,3.417-0.692,4.896c-0.437,5.646-0.218,11.867-0.209,12.133c0,0,0.737,19.313,0.737,19.331
		c0.008,0.178,0.025,0.361,0.046,0.546c0.009,0.086,0.023,0.172,0.026,0.257c-0.031,0.085-0.066,0.17-0.101,0.255
		c-0.273,0.681-0.782,1.949-0.057,3.336c0.136,0.262,0.287,0.49,0.434,0.707c0.028,0.041,0.057,0.08,0.084,0.119
		c-0.011,0.074-0.021,0.155-0.031,0.241c-0.018,0.15-0.054,0.444-0.085,0.59c-1.074,2.136-1.324,3.967-0.744,5.443
		c0.444,1.13,1.364,1.996,2.593,2.442c0.241,0.087,0.503,0.299,0.757,0.611c1.859,2.292,3.631,2.789,4.818,2.789
		c0.414,0,0.757-0.06,1.009-0.126c1.714-0.176,8.396-1.058,8.466-1.069c1.265-0.223,2.218-1.441,2.218-2.836v-0.633
		c0-1.31-0.637-2.531-1.698-3.265c-0.187-0.13-0.365-0.243-0.502-0.33l-0.087-0.055c-0.61-0.394-1.267-0.678-1.847-0.928
		c-0.681-0.294-1.323-0.572-1.649-0.917c-0.285-0.302-0.529-0.804-0.788-1.335c-0.205-0.421-0.413-0.841-0.652-1.234
		c-0.314-0.517-0.665-1.128-0.885-1.75c-0.271-0.762-0.531-1.573-0.601-2.343c-0.147-1.638-0.054-2.829,0.333-4.252
		c0.439-1.615,0.712-3.272,0.975-4.874c0.123-0.751,0.246-1.499,0.385-2.236c1.531-8.097,2.506-16.219,2.764-20.339
		c0.002-0.036,0.004-0.072,0.004-0.108l0.002-0.235c0.005-0.524,0.008-0.976-0.003-1.332c-0.072-2.567,0.078-4.809,0.403-5.994
		c3.734-13.604,5.011-28.834,5.386-40.151c0.616,0.423,1.363,0.809,2.245,1.162c2.388,0.958,5.076,0.13,6.538-2.008
		c0.643-0.938,1.441-2.104,1.31-3.427c-0.042-0.423-0.067-2.904,0-8.502c0-0.003,0-0.006,0.001-0.009
		c0.094-0.98,0.056-1.705,0.019-2.086l0.92-11.176c1.763-7.418,0.983-13.079,0.015-16.531
		C779.712,255.24,779.711,255.239,779.711,255.238z M775.724,271.29l-0.949,11.527c-0.012,0.145-0.005,0.312,0.015,0.456
		c0.001,0.005,0.061,0.461,0.002,1.215c-0.02,0.107-0.029,0.217-0.031,0.329c-0.041,3.414-0.073,7.619,0.002,8.908
		c-0.12,0.265-0.472,0.777-0.613,0.985c-0.393,0.57-1.13,0.804-1.751,0.555c-1.077-0.432-1.585-0.807-1.812-1.021
		c0.075-1.175,0.274-2.717,0.578-3.376c0.153-0.334,0.212-0.708,0.17-1.073c-0.167-1.439,0.01-3.941,0.918-4.736
		c0.327-0.286,0.552-0.671,0.641-1.097c0.145-0.694,0.182-1.325,0.11-1.873c-0.411-3.166-1.469-11.037-2.408-15.733
		c-0.016-0.077-0.037-0.158-0.062-0.233c-0.013-0.039-1.264-3.956-0.438-8.406c0.444-2.387,0.35-4.668-0.282-6.78
		c-0.568-1.893-1.35-4.642-1.847-6.987c-0.247-1.17-1.251-1.984-2.444-1.984c-0.005,0-0.011,0-0.017,0
		c-1.2,0.008-2.2,0.836-2.434,2.015c-1.451,7.335-2.7,16.921-0.409,20.934c0.668,1.167,1.825,7.622,2.089,19.972
		c0.406,18.94-1.587,38.389-5.33,52.024c-0.589,2.149-0.594,5.412-0.544,7.169c0.01,0.318,0.005,0.717,0.001,1.181l-0.001,0.183
		c-0.265,4.144-1.272,12.249-2.698,19.792c-0.146,0.769-0.273,1.549-0.402,2.331c-0.258,1.571-0.502,3.056-0.887,4.473
		c-0.517,1.896-0.648,3.535-0.458,5.66c0.109,1.213,0.457,2.314,0.815,3.322c0.341,0.963,0.816,1.8,1.237,2.491
		c0.176,0.289,0.323,0.599,0.473,0.906c0.362,0.743,0.771,1.584,1.479,2.332c0.891,0.942,1.995,1.42,2.97,1.841
		c0.479,0.207,0.932,0.402,1.265,0.617l0.028,0.019c-2.303,0.299-6.338,0.809-6.68,0.838c-0.203,0.003-0.404,0.037-0.597,0.101
		c-0.213-0.012-0.844-0.257-1.701-1.314c-0.722-0.89-1.563-1.513-2.5-1.852c-0.095-0.035-0.213-0.093-0.233-0.145
		c-0.009-0.023-0.218-0.599,0.629-2.249c0.273-0.529,0.361-1.121,0.449-1.838l0.032-0.255c0.218-1.415-0.387-2.305-0.747-2.837
		c-0.02-0.028-0.04-0.058-0.061-0.087c0.028-0.073,0.061-0.153,0.086-0.218c0.082-0.203,0.162-0.407,0.227-0.61
		c0.231-0.723,0.16-1.386,0.112-1.824c-0.01-0.09-0.021-0.18-0.025-0.269c-0.005-0.128-0.736-19.324-0.736-19.324
		c-0.003-0.062-0.22-6.262,0.197-11.654c0.117-1.331,0.327-2.804,0.64-4.503c0.377-2.051,0.43-4.139,0.155-6.206
		c-0.985-7.443-4.117-32.554-3.033-43.133c0.058-0.563-0.125-1.124-0.505-1.544c-0.379-0.42-0.919-0.66-1.484-0.66h-1.611
		c-0.566,0-1.105,0.24-1.484,0.66s-0.562,0.98-0.505,1.544c1.087,10.608-1.922,35.807-2.87,43.277
		c-0.313,2.476,0.21,6.125,0.378,7.185c0.151,0.958,0.278,2.088,0.377,3.358c0.418,5.409,0.172,11.604,0.17,11.672
		c0,0-0.731,19.199-0.737,19.329c-0.003,0.088-0.015,0.177-0.024,0.267c-0.048,0.44-0.12,1.104,0.112,1.827
		c0.065,0.202,0.145,0.404,0.227,0.606c0.025,0.064,0.058,0.146,0.086,0.22c-0.021,0.029-0.041,0.059-0.061,0.088
		c-0.36,0.531-0.965,1.42-0.748,2.836l0.033,0.255c0.087,0.716,0.176,1.306,0.446,1.833c0.667,1.301,0.712,2.024,0.634,2.247
		c-0.005,0.015-0.021,0.058-0.163,0.121c-1.294,0.579-2.234,1.522-2.829,2.182c-0.716,0.796-1.239,0.995-1.434,1.014
		c-0.165-0.062-0.319-0.093-0.521-0.096c-0.407-0.032-4.473-0.545-6.765-0.842c0.009-0.007,0.019-0.013,0.027-0.019
		c0.333-0.215,0.785-0.41,1.265-0.617c0.975-0.421,2.079-0.898,2.97-1.841c0.707-0.747,1.117-1.59,1.479-2.333
		c0.2-0.411,0.39-0.8,0.595-1.093c0.744-1.063,1.062-2.073,1.37-3.05l0.032-0.103c0.216-0.688,0.482-1.887,0.551-2.755
		c0.153-1.968,0.01-3.576-0.48-5.378c-0.385-1.418-0.629-2.902-0.887-4.474c-0.129-0.782-0.257-1.562-0.402-2.33
		c-1.545-8.176-2.586-16.173-2.816-19.846c-0.034-0.544-0.052-1.006-0.05-1.354c0.012-1.734-0.056-4.966-0.638-7.12
		c-3.645-13.459-5.567-32.909-5.146-52.028c0.273-12.393,1.414-18.828,2.069-19.974c2.291-4.01,1.043-13.595-0.408-20.93
		c-0.232-1.178-1.232-2.006-2.432-2.015c-1.199,0.012-2.213,0.805-2.464,1.982c-0.484,2.291-1.254,5.009-1.813,6.885
		c-0.643,2.147-0.62,5.326-0.328,7.37c0.632,4.432-0.423,7.911-0.432,7.939c-0.022,0.07-0.041,0.141-0.055,0.213
		c-0.93,4.654-1.993,12.553-2.408,15.737c-0.036,0.289-0.029,0.551-0.014,0.877l0.042,0.463c0.015,0.12,0.033,0.238,0.056,0.359
		c0.089,0.483,0.352,0.916,0.739,1.218c0.951,0.739,1.137,3.291,0.963,4.777c-0.045,0.369,0.014,0.743,0.17,1.081
		c0.304,0.659,0.503,2.203,0.578,3.378c-0.325,0.303-1.14,0.838-2.791,1.368c-0.105,0.033-0.188-0.035-0.231-0.102
		c-0.144-0.224-0.3-0.452-0.456-0.681c-0.222-0.323-0.578-0.842-0.698-1.108c0.075-1.289,0.043-5.494,0.002-8.908
		c-0.002-0.111-0.012-0.22-0.031-0.326c-0.059-0.744-0.001-1.197-0.001-1.197c0.025-0.164,0.031-0.331,0.016-0.496l-1.064-11.527
		c-0.011-0.118-0.032-0.235-0.063-0.349c-1.981-7.173-1.322-11.889-0.42-14.58c0.678-2.02,0.979-5.104,0.7-7.175
		c-0.604-4.475,0.227-12.296,1.203-18.12c0.098-0.577,0.1-1.394,0.005-1.98c-0.624-3.929-0.949-13.329,9.464-15.762
		c0.499-0.117,1.242-0.373,1.783-0.68l9.094-5.211c0.869-0.498,1.537-1.5,1.66-2.492l0.563-4.486
		c0.104-0.834-0.132-1.875-0.587-2.589l-0.453-0.704c-0.994-1.532-1.595-2.456-1.933-4.491c-0.062-0.378-0.267-0.767-0.523-1.051
		c-0.188-0.208-0.673-1.232-0.887-2.917c-0.143-1.118-0.097-1.985-0.012-2.515c0.086-0.029,0.169-0.063,0.251-0.104
		c0.601-0.299,1.012-0.88,1.094-1.546c0.043-0.35,0.083-0.709,0.124-1.075c0.562-4.991,1.047-9.3,8.545-9.3
		c6.917,0,7.958,4.295,8.674,10.362c0.078,0.664,0.482,1.244,1.078,1.547c0.084,0.043,0.171,0.08,0.259,0.11
		c0.086,0.529,0.132,1.398-0.011,2.522c-0.213,1.685-0.698,2.708-0.886,2.916c-0.276,0.29-0.459,0.657-0.524,1.052
		c-0.338,2.035-0.938,2.959-1.934,4.491l-0.452,0.701c-0.456,0.716-0.69,1.758-0.585,2.59l0.562,4.486
		c0.124,0.994,0.792,1.996,1.66,2.492l9.095,5.211c0.536,0.307,1.101,0.528,1.677,0.656c2.736,0.61,11.512,3.552,9.569,15.781
		c-0.096,0.592-0.094,1.408,0.003,1.981c0.975,5.811,1.804,13.616,1.208,18.096c-0.259,1.947-0.26,5.027,0.349,7.186
		c0.847,3.017,1.519,8.008-0.089,14.66C775.748,271.085,775.732,271.186,775.724,271.29z M765.854,262.276
		c-0.633-1.908-0.621-5.683,0.004-10.607c0.042,0.143,0.084,0.28,0.124,0.415c0.447,1.496,0.509,3.146,0.182,4.901
		C765.809,258.897,765.762,260.713,765.854,262.276z M726.086,257.64c-0.236-1.66-0.227-4.23,0.201-5.66
		c0.03-0.101,0.061-0.202,0.092-0.307c0.653,5.153,0.636,9.046-0.09,10.857C726.37,261.106,726.344,259.441,726.086,257.64z
		 M723.553,282.938c-0.106-0.146-0.22-0.288-0.341-0.426c0.125-0.957,0.306-2.317,0.521-3.874
		C723.657,280.072,723.597,281.517,723.553,282.938z M769.036,282.606c0.001,0.009,0.002,0.021,0.002,0.038
		c-0.117,0.141-0.228,0.287-0.331,0.438c-0.041-1.39-0.098-2.805-0.171-4.209C768.745,280.383,768.918,281.693,769.036,282.606z"/>
	<path class="st58" d="M904.076,256.322c-0.607-2.158-0.606-5.236-0.348-7.184c0.594-4.471-0.234-12.279-1.208-18.096
		c-0.097-0.572-0.099-1.389-0.003-1.98c1.942-12.229-6.833-15.17-9.569-15.781c-0.576-0.128-1.141-0.349-1.677-0.656l-9.096-5.211
		c-0.869-0.498-1.535-1.5-1.659-2.492l-0.562-4.486c-0.105-0.832,0.13-1.874,0.585-2.59l0.455-0.706
		c0.993-1.53,1.593-2.454,1.931-4.487c0.065-0.396,0.248-0.762,0.524-1.052c0.188-0.207,0.673-1.23,0.886-2.916
		c0.143-1.124,0.097-1.993,0.011-2.522c-0.088-0.03-0.175-0.067-0.259-0.11c-0.596-0.303-1-0.884-1.078-1.547
		c-0.716-6.067-1.757-10.362-8.674-10.362c-7.498,0-7.983,4.31-8.545,9.3c-0.041,0.366-0.081,0.726-0.124,1.075
		c-0.082,0.667-0.493,1.247-1.094,1.546c-0.082,0.041-0.165,0.075-0.251,0.104c-0.085,0.53-0.131,1.396,0.012,2.515
		c0.214,1.685,0.699,2.708,0.887,2.917c0.257,0.284,0.461,0.673,0.523,1.051c0.338,2.035,0.938,2.959,1.933,4.491l0.453,0.704
		c0.457,0.717,0.691,1.759,0.586,2.594l-0.562,4.481c-0.123,0.992-0.791,1.995-1.66,2.493l-9.094,5.211
		c-0.541,0.308-1.286,0.563-1.785,0.681c-10.411,2.433-10.085,11.833-9.462,15.761c0.094,0.582,0.093,1.396-0.004,1.975
		c-0.978,5.829-1.808,13.65-1.205,18.126c0.279,2.068-0.021,5.152-0.699,7.174c-0.902,2.692-1.562,7.409,0.42,14.579
		c0.031,0.114,0.053,0.231,0.063,0.35l1.064,11.527c0.016,0.165,0.01,0.332-0.016,0.496c0,0-0.058,0.453,0.001,1.197
		c0.02,0.105,0.029,0.215,0.031,0.326c0.041,3.415,0.073,7.621-0.002,8.909c0.12,0.266,0.476,0.783,0.696,1.105
		c0.157,0.229,0.314,0.458,0.458,0.683c0.044,0.066,0.127,0.133,0.229,0.102c1.652-0.53,2.467-1.065,2.792-1.367
		c-0.075-1.176-0.273-2.721-0.578-3.38c-0.155-0.338-0.214-0.711-0.169-1.08c0.174-1.486-0.012-4.038-0.963-4.777
		c-0.388-0.302-0.65-0.734-0.739-1.218c-0.022-0.121-0.041-0.239-0.056-0.359l-0.042-0.458c-0.003-0.033-0.005-0.067-0.007-0.101
		c-0.011-0.286-0.009-0.559,0.022-0.796c0.413-3.17,1.477-11.068,2.406-15.723c0.014-0.072,0.032-0.143,0.055-0.213
		c0.009-0.028,1.063-3.508,0.432-7.939c-0.292-2.043-0.314-5.222,0.327-7.369c0.56-1.872,1.328-4.586,1.814-6.886
		c0.251-1.178,1.261-1.971,2.464-1.982c1.199,0.009,2.199,0.837,2.432,2.015c1.451,7.335,2.699,16.92,0.407,20.93
		c-0.655,1.146-1.796,7.583-2.069,19.974c-0.421,19.119,1.502,38.569,5.146,52.028c0.582,2.154,0.649,5.386,0.638,7.12
		c-0.003,0.353,0.017,0.812,0.05,1.354c0.23,3.673,1.271,11.67,2.816,19.846c0.145,0.764,0.272,1.539,0.399,2.317
		c0.259,1.576,0.504,3.064,0.89,4.486c0.49,1.802,0.634,3.41,0.48,5.378c-0.068,0.868-0.335,2.067-0.551,2.755
		c-0.353,1.119-0.658,2.086-1.403,3.152c-0.204,0.292-0.394,0.681-0.594,1.092c-0.361,0.743-0.771,1.586-1.478,2.333
		c-0.892,0.943-1.996,1.42-2.97,1.841c-0.479,0.208-0.933,0.403-1.265,0.617c-0.01,0.007-0.02,0.013-0.028,0.02
		c2.293,0.297,6.357,0.81,6.765,0.842c0.202,0.003,0.356,0.034,0.521,0.096c0.194-0.019,0.718-0.218,1.434-1.014
		c0.595-0.659,1.535-1.603,2.829-2.182c0.143-0.063,0.158-0.106,0.163-0.121c0.078-0.223,0.033-0.946-0.634-2.247
		c-0.271-0.527-0.359-1.117-0.446-1.833l-0.033-0.255c-0.217-1.417,0.388-2.307,0.749-2.838c0.02-0.028,0.039-0.058,0.059-0.086
		c-0.027-0.074-0.06-0.153-0.085-0.218c-0.082-0.203-0.162-0.407-0.228-0.611c-0.231-0.72-0.159-1.384-0.111-1.824
		c0.01-0.09,0.021-0.179,0.025-0.267c0.005-0.13,0.735-19.329,0.735-19.329c0.003-0.067,0.248-6.263-0.169-11.673
		c-0.099-1.27-0.226-2.399-0.377-3.357c-0.168-1.06-0.691-4.709-0.378-7.185c0.948-7.471,3.957-32.669,2.869-43.277
		c-0.058-0.563,0.125-1.124,0.505-1.544c0.379-0.42,0.918-0.66,1.484-0.66h1.612c0.566,0,1.105,0.24,1.484,0.66
		c0.38,0.42,0.562,0.98,0.505,1.544c-1.084,10.579,2.048,35.689,3.033,43.133c0.274,2.068,0.222,4.157-0.156,6.207
		c-0.317,1.727-0.52,3.158-0.639,4.502c-0.417,5.393-0.2,11.592-0.197,11.654c0.737,19.341,0.737,19.349,0.737,19.402
		c0.002,0.007,0.014,0.096,0.023,0.187c0.048,0.439,0.121,1.104-0.111,1.828c-0.064,0.203-0.145,0.407-0.227,0.611
		c-0.025,0.063-0.058,0.144-0.086,0.217c0.02,0.029,0.04,0.058,0.059,0.086c0.362,0.531,0.968,1.422,0.749,2.838l-0.032,0.255
		c-0.088,0.717-0.176,1.309-0.449,1.838c-0.847,1.65-0.638,2.226-0.629,2.249c0.021,0.052,0.139,0.109,0.233,0.145
		c0.937,0.339,1.778,0.962,2.5,1.852c0.857,1.058,1.488,1.303,1.701,1.314c0.192-0.063,0.394-0.098,0.597-0.101
		c0.344-0.029,4.378-0.54,6.68-0.838l-0.028-0.019c-0.333-0.215-0.785-0.41-1.265-0.617c-0.975-0.421-2.08-0.898-2.971-1.842
		c-0.706-0.747-1.115-1.588-1.478-2.331c-0.149-0.308-0.297-0.617-0.473-0.906c-0.421-0.691-0.896-1.528-1.237-2.491
		c-0.358-1.008-0.706-2.109-0.815-3.322c-0.19-2.125-0.059-3.765,0.458-5.66c0.385-1.417,0.628-2.901,0.887-4.473
		c0.128-0.783,0.257-1.562,0.402-2.331c1.426-7.544,2.435-15.648,2.698-19.792l0.001-0.121c0.004-0.492,0.008-0.913-0.001-1.247
		c-0.05-1.752-0.045-5.015,0.544-7.164c3.743-13.636,5.736-33.084,5.33-52.024c-0.265-12.35-1.422-18.805-2.089-19.973
		c-2.291-4.012-1.042-13.598,0.409-20.933c0.233-1.179,1.233-2.007,2.434-2.015c0.006,0,0.012,0,0.017,0
		c1.193,0,2.197,0.814,2.444,1.984c0.497,2.346,1.278,5.095,1.847,6.987c0.632,2.112,0.727,4.394,0.282,6.78
		c-0.826,4.45,0.425,8.367,0.438,8.406c0.024,0.075,0.046,0.156,0.062,0.233c0.939,4.696,1.997,12.567,2.408,15.733
		c0.071,0.548,0.034,1.179-0.11,1.873c-0.089,0.426-0.313,0.811-0.641,1.097c-0.908,0.795-1.085,3.297-0.918,4.736
		c0.042,0.365-0.017,0.74-0.171,1.074c-0.304,0.658-0.502,2.2-0.577,3.375c0.227,0.214,0.734,0.589,1.812,1.021
		c0.622,0.249,1.358,0.016,1.751-0.555c0.142-0.208,0.493-0.721,0.613-0.985c-0.075-1.289-0.043-5.494-0.002-8.908
		c0.002-0.111,0.012-0.221,0.031-0.327c0.059-0.757-0.002-1.214-0.002-1.219c-0.02-0.144-0.026-0.31-0.015-0.454l0.948-11.527
		c0.009-0.103,0.024-0.205,0.049-0.306C905.596,264.329,904.924,259.338,904.076,256.322z"/>
	<path d="M907.928,255.24c0,0-0.001-0.001-0.001-0.002c-0.43-1.524-0.44-4.01-0.233-5.573c0.821-6.178-0.732-16.321-1.229-19.288
		c-0.024-0.146-0.023-0.519,0.003-0.682c2.554-16.083-10.088-19.747-12.65-20.319c-0.185-0.041-0.372-0.115-0.558-0.222l-8.815-5.05
		l-0.516-4.071c0.001-0.028,0.011-0.083-0.013-0.043l0.433-0.672c1.03-1.587,1.929-2.971,2.428-5.49
		c1.027-1.48,1.406-3.683,1.527-4.64c0.331-2.607,0.057-5.441-1.494-6.543c-0.671-5.006-2.45-12.501-12.475-12.501
		c-10.81,0-11.93,7.667-12.48,12.504c-1.547,1.104-1.821,3.935-1.49,6.541c0.122,0.957,0.502,3.159,1.527,4.637
		c0.499,2.522,1.398,3.907,2.43,5.495l0.393,0.599c0.01,0.024,0.022,0.086,0.031,0.028l-0.521,4.156l-8.809,5.047
		c-0.108,0.062-0.473,0.203-0.714,0.259c-2.531,0.592-15.028,4.349-12.5,20.289c0.025,0.157,0.026,0.533,0.001,0.681
		c-0.498,2.968-2.058,13.131-1.225,19.321c0.195,1.441-0.051,3.949-0.527,5.367c-1.071,3.2-1.882,8.694,0.31,16.744l1.029,11.145
		c-0.037,0.384-0.073,1.104,0.02,2.075c0.001,0.003,0.001,0.006,0.001,0.009c0.067,5.598,0.042,8.079,0,8.5
		c-0.134,1.326,0.644,2.458,1.395,3.553c0.135,0.197,0.271,0.394,0.394,0.586c1.034,1.605,3.016,2.32,4.815,1.744
		c1.379-0.442,2.499-0.949,3.373-1.527c0.479,14.994,2.317,29.352,5.217,40.061c0.33,1.221,0.517,3.482,0.499,6.047
		c-0.003,0.423,0.017,0.979,0.058,1.633c0.23,3.681,1.229,11.615,2.879,20.339c0.138,0.732,0.26,1.477,0.383,2.223
		c0.264,1.606,0.536,3.268,0.977,4.889c0.372,1.368,0.471,2.494,0.352,4.017c-0.036,0.462-0.217,1.352-0.407,1.958
		c-0.267,0.847-0.443,1.406-0.836,1.968c-0.386,0.551-0.665,1.126-0.913,1.635c-0.259,0.532-0.503,1.034-0.788,1.336
		c-0.326,0.345-0.969,0.622-1.649,0.916c-0.58,0.251-1.237,0.535-1.854,0.934c-1.427,0.918-2.279,2.479-2.279,4.177v0.101
		c0,1.418,0.933,2.61,2.231,2.838c0.057,0.01,6.744,0.893,8.455,1.067c0.92,0.241,3.081,0.405,5.433-2.206
		c0.558-0.618,1.031-1.002,1.49-1.207c1.12-0.501,1.917-1.347,2.304-2.446c0.518-1.472,0.257-3.206-0.797-5.299
		c-0.032-0.147-0.068-0.443-0.087-0.594c-0.01-0.085-0.02-0.165-0.029-0.238c0.026-0.04,0.056-0.08,0.084-0.121
		c0.146-0.216,0.297-0.443,0.434-0.705c0.726-1.388,0.217-2.656-0.057-3.337c-0.034-0.085-0.069-0.169-0.101-0.256
		c0.003-0.084,0.017-0.17,0.026-0.254c0.021-0.186,0.038-0.369,0.045-0.542c0.001-0.023,0.736-19.332,0.736-19.331
		c0.011-0.263,0.258-6.488-0.178-12.14c-0.107-1.375-0.246-2.611-0.414-3.675c-0.289-1.824-0.557-4.505-0.36-6.056
		c0.463-3.649,1.14-9.279,1.746-15.456c0.632,6.129,1.333,11.711,1.813,15.334c0.219,1.652,0.177,3.32-0.125,4.958
		c-0.341,1.854-0.56,3.402-0.691,4.896c-0.437,5.646-0.218,11.867-0.209,12.133c0,0,0.727,19.04,0.737,19.335
		c0.007,0.177,0.025,0.358,0.045,0.541c0.01,0.086,0.024,0.173,0.027,0.258c-0.031,0.085-0.066,0.17-0.101,0.255
		c-0.273,0.681-0.782,1.948-0.057,3.338c0.136,0.261,0.286,0.488,0.434,0.705c0.028,0.041,0.057,0.08,0.083,0.12
		c-0.01,0.073-0.02,0.154-0.03,0.24c-0.018,0.15-0.054,0.444-0.085,0.59c-1.074,2.136-1.324,3.967-0.744,5.443
		c0.444,1.13,1.364,1.996,2.593,2.442c0.241,0.087,0.503,0.299,0.757,0.611c1.858,2.292,3.63,2.789,4.818,2.789
		c0.413,0,0.757-0.06,1.008-0.126c1.714-0.175,8.397-1.058,8.465-1.069c1.266-0.222,2.22-1.441,2.22-2.836v-0.633
		c0-1.31-0.637-2.531-1.698-3.265c-0.187-0.13-0.365-0.243-0.502-0.33l-0.086-0.055c-0.611-0.394-1.268-0.678-1.848-0.928
		c-0.681-0.294-1.323-0.572-1.649-0.917c-0.285-0.302-0.529-0.804-0.788-1.335c-0.205-0.421-0.413-0.841-0.652-1.234
		c-0.314-0.517-0.665-1.128-0.885-1.75c-0.271-0.762-0.531-1.573-0.601-2.343c-0.147-1.638-0.054-2.829,0.333-4.253
		c0.439-1.615,0.711-3.271,0.975-4.873c0.123-0.751,0.246-1.499,0.385-2.236c1.531-8.097,2.506-16.219,2.764-20.339
		c0.002-0.036,0.004-0.072,0.004-0.108l0.001-0.175c0.005-0.549,0.009-1.019-0.002-1.393c-0.072-2.567,0.078-4.809,0.403-5.994
		c3.734-13.603,5.011-28.834,5.386-40.15c0.616,0.422,1.363,0.809,2.245,1.161c2.39,0.958,5.076,0.13,6.538-2.008
		c0.643-0.938,1.441-2.104,1.31-3.427c-0.042-0.423-0.067-2.905,0-8.502c0-0.003,0-0.007,0.001-0.011
		c0.093-0.979,0.056-1.703,0.019-2.084l0.919-11.177C909.676,264.352,908.896,258.691,907.928,255.24z M903.938,271.29
		l-0.948,11.527c-0.012,0.145-0.005,0.311,0.015,0.454c0,0.005,0.061,0.462,0.002,1.219c-0.02,0.106-0.029,0.216-0.031,0.327
		c-0.041,3.414-0.073,7.619,0.002,8.908c-0.12,0.265-0.472,0.777-0.613,0.985c-0.393,0.57-1.129,0.804-1.751,0.555
		c-1.077-0.432-1.585-0.807-1.812-1.021c0.075-1.175,0.273-2.717,0.577-3.375c0.154-0.334,0.213-0.709,0.171-1.074
		c-0.167-1.439,0.01-3.941,0.918-4.736c0.327-0.286,0.552-0.671,0.641-1.097c0.145-0.694,0.182-1.325,0.11-1.873
		c-0.411-3.166-1.469-11.037-2.408-15.733c-0.016-0.077-0.037-0.158-0.062-0.233c-0.013-0.039-1.264-3.956-0.438-8.406
		c0.444-2.387,0.35-4.668-0.282-6.78c-0.568-1.893-1.35-4.642-1.847-6.987c-0.247-1.17-1.251-1.984-2.444-1.984
		c-0.005,0-0.011,0-0.017,0c-1.2,0.008-2.2,0.836-2.434,2.015c-1.451,7.335-2.7,16.921-0.409,20.933
		c0.667,1.168,1.824,7.623,2.089,19.973c0.406,18.94-1.587,38.389-5.33,52.024c-0.589,2.149-0.594,5.412-0.544,7.164
		c0.009,0.334,0.005,0.755,0.001,1.247l-0.001,0.121c-0.264,4.144-1.272,12.248-2.698,19.792c-0.146,0.769-0.274,1.548-0.402,2.331
		c-0.259,1.571-0.502,3.056-0.887,4.473c-0.517,1.896-0.648,3.535-0.458,5.66c0.109,1.213,0.457,2.314,0.815,3.322
		c0.341,0.963,0.816,1.8,1.237,2.491c0.176,0.289,0.323,0.599,0.473,0.906c0.362,0.743,0.771,1.584,1.478,2.331
		c0.891,0.943,1.996,1.421,2.971,1.842c0.479,0.207,0.932,0.402,1.265,0.617l0.028,0.019c-2.302,0.298-6.336,0.809-6.68,0.838
		c-0.203,0.003-0.404,0.037-0.597,0.101c-0.213-0.012-0.844-0.257-1.701-1.314c-0.722-0.89-1.563-1.513-2.5-1.852
		c-0.095-0.035-0.213-0.093-0.233-0.145c-0.009-0.023-0.218-0.599,0.629-2.249c0.273-0.529,0.361-1.121,0.449-1.838l0.032-0.255
		c0.219-1.416-0.387-2.307-0.749-2.838c-0.019-0.028-0.039-0.057-0.059-0.086c0.028-0.073,0.061-0.153,0.086-0.217
		c0.082-0.204,0.162-0.408,0.227-0.611c0.232-0.725,0.159-1.389,0.111-1.828c-0.01-0.091-0.021-0.18-0.023-0.187
		c0-0.054,0-0.062-0.737-19.402c-0.003-0.062-0.22-6.262,0.197-11.654c0.119-1.344,0.321-2.775,0.639-4.502
		c0.378-2.05,0.431-4.139,0.156-6.207c-0.985-7.443-4.117-32.554-3.033-43.133c0.058-0.563-0.125-1.124-0.505-1.544
		c-0.379-0.42-0.918-0.66-1.484-0.66h-1.612c-0.566,0-1.105,0.24-1.484,0.66c-0.38,0.42-0.562,0.98-0.505,1.544
		c1.088,10.608-1.921,35.807-2.869,43.277c-0.313,2.476,0.21,6.125,0.378,7.185c0.151,0.958,0.278,2.088,0.377,3.357
		c0.417,5.41,0.172,11.605,0.169,11.673c0,0-0.73,19.199-0.735,19.329c-0.004,0.088-0.016,0.177-0.025,0.267
		c-0.048,0.44-0.12,1.104,0.111,1.824c0.065,0.204,0.146,0.408,0.228,0.611c0.025,0.064,0.058,0.144,0.085,0.218
		c-0.02,0.028-0.039,0.058-0.059,0.086c-0.361,0.531-0.966,1.421-0.749,2.838l0.033,0.255c0.087,0.716,0.176,1.306,0.446,1.833
		c0.667,1.301,0.712,2.024,0.634,2.247c-0.005,0.015-0.021,0.058-0.163,0.121c-1.294,0.579-2.234,1.522-2.829,2.182
		c-0.716,0.796-1.239,0.995-1.434,1.014c-0.165-0.062-0.319-0.093-0.521-0.096c-0.407-0.032-4.472-0.545-6.765-0.842
		c0.009-0.007,0.019-0.013,0.028-0.02c0.332-0.214,0.785-0.409,1.265-0.617c0.974-0.421,2.078-0.897,2.97-1.841
		c0.706-0.747,1.116-1.59,1.478-2.333c0.2-0.411,0.39-0.8,0.594-1.092c0.745-1.066,1.051-2.033,1.403-3.152
		c0.216-0.688,0.482-1.887,0.551-2.755c0.153-1.968,0.01-3.576-0.48-5.378c-0.386-1.422-0.631-2.91-0.89-4.486
		c-0.127-0.778-0.255-1.554-0.399-2.317c-1.545-8.176-2.586-16.173-2.816-19.846c-0.033-0.542-0.053-1.002-0.05-1.354
		c0.012-1.734-0.056-4.966-0.638-7.12c-3.645-13.459-5.567-32.909-5.146-52.028c0.273-12.391,1.414-18.827,2.069-19.974
		c2.292-4.01,1.044-13.595-0.407-20.93c-0.232-1.178-1.232-2.006-2.432-2.015c-1.203,0.012-2.213,0.805-2.464,1.982
		c-0.486,2.3-1.255,5.014-1.814,6.886c-0.642,2.147-0.619,5.326-0.327,7.369c0.632,4.432-0.423,7.911-0.432,7.939
		c-0.022,0.07-0.041,0.141-0.055,0.213c-0.93,4.654-1.993,12.553-2.406,15.723c-0.031,0.237-0.033,0.51-0.022,0.796
		c0.002,0.033,0.004,0.067,0.007,0.101l0.042,0.458c0.015,0.12,0.033,0.238,0.056,0.359c0.089,0.483,0.352,0.916,0.739,1.218
		c0.951,0.739,1.137,3.291,0.963,4.777c-0.045,0.369,0.014,0.742,0.169,1.08c0.305,0.659,0.503,2.204,0.578,3.38
		c-0.325,0.302-1.14,0.837-2.792,1.367c-0.103,0.031-0.186-0.035-0.229-0.102c-0.144-0.225-0.301-0.453-0.458-0.683
		c-0.221-0.322-0.576-0.84-0.696-1.105c0.075-1.288,0.043-5.494,0.002-8.909c-0.002-0.111-0.012-0.221-0.031-0.326
		c-0.059-0.744-0.001-1.197-0.001-1.197c0.025-0.164,0.031-0.331,0.016-0.496l-1.064-11.527c-0.011-0.118-0.032-0.235-0.063-0.35
		c-1.982-7.17-1.322-11.887-0.42-14.579c0.678-2.021,0.979-5.105,0.699-7.174c-0.603-4.476,0.228-12.297,1.205-18.126
		c0.097-0.578,0.098-1.393,0.004-1.975c-0.623-3.928-0.949-13.328,9.462-15.761c0.499-0.117,1.244-0.373,1.785-0.681l9.094-5.211
		c0.869-0.498,1.537-1.5,1.66-2.493l0.562-4.481c0.105-0.835-0.129-1.877-0.586-2.594l-0.453-0.704
		c-0.994-1.532-1.595-2.456-1.933-4.491c-0.062-0.378-0.267-0.767-0.523-1.051c-0.188-0.208-0.673-1.232-0.887-2.917
		c-0.143-1.118-0.097-1.985-0.012-2.515c0.086-0.029,0.169-0.063,0.251-0.104c0.601-0.299,1.012-0.88,1.094-1.546
		c0.043-0.35,0.083-0.709,0.124-1.075c0.562-4.991,1.047-9.3,8.545-9.3c6.917,0,7.958,4.295,8.674,10.362
		c0.078,0.664,0.482,1.244,1.078,1.547c0.084,0.043,0.171,0.08,0.259,0.11c0.086,0.529,0.132,1.398-0.011,2.522
		c-0.213,1.685-0.698,2.708-0.886,2.916c-0.276,0.29-0.459,0.657-0.524,1.052c-0.338,2.033-0.938,2.957-1.931,4.487l-0.455,0.706
		c-0.455,0.716-0.69,1.758-0.585,2.59l0.562,4.486c0.124,0.993,0.79,1.995,1.659,2.492l9.096,5.211
		c0.536,0.307,1.101,0.528,1.677,0.656c2.736,0.61,11.512,3.552,9.569,15.781c-0.096,0.592-0.094,1.408,0.003,1.98
		c0.974,5.817,1.802,13.625,1.208,18.096c-0.259,1.947-0.26,5.025,0.348,7.184c0.848,3.016,1.52,8.007-0.089,14.662
		C903.963,271.085,903.947,271.187,903.938,271.29z M894.069,262.276c-0.633-1.908-0.621-5.683,0.004-10.607
		c0.042,0.143,0.084,0.28,0.124,0.415c0.447,1.496,0.509,3.146,0.182,4.901C894.024,258.897,893.978,260.713,894.069,262.276z
		 M854.302,257.64c-0.236-1.659-0.227-4.23,0.2-5.659c0.03-0.102,0.062-0.204,0.093-0.31c0.652,5.151,0.636,9.043-0.09,10.856
		C854.586,261.104,854.56,259.44,854.302,257.64z M851.769,282.938c-0.106-0.146-0.22-0.289-0.341-0.426
		c0.125-0.956,0.305-2.314,0.521-3.868C851.872,280.075,851.812,281.519,851.769,282.938z M897.252,282.606
		c0.001,0.009,0.002,0.021,0.002,0.038c-0.117,0.141-0.228,0.287-0.331,0.438c-0.041-1.392-0.099-2.808-0.171-4.215
		C896.96,280.381,897.134,281.692,897.252,282.606z"/>
	<path class="st54" d="M749.952,139.343v4h120.216v-4c0-2.209,1.791-4,4-4H745.952C748.161,135.343,749.952,137.134,749.952,139.343
		z"/>
	<path class="st54" d="M623.594,139.343v4h118.358v-4c0-2.209,1.791-4,4-4H619.874h-0.28
		C621.803,135.343,623.594,137.134,623.594,139.343z"/>
	<path class="st54" d="M615.594,139.343v4v14.829c0,2.209,1.791,4,4,4s4-1.791,4-4v-14.829v-4c0-2.209-1.791-4-4-4
		S615.594,137.134,615.594,139.343z"/>
	<path class="st54" d="M741.952,139.343v4v14.829c0,2.209,1.791,4,4,4s4-1.791,4-4v-14.829v-4c0-2.209-1.791-4-4-4
		S741.952,137.134,741.952,139.343z"/>
	<path class="st54" d="M870.168,139.343v4v14.829c0,2.209,1.791,4,4,4s4-1.791,4-4v-18.829c0-2.209-1.791-4-4-4
		S870.168,137.134,870.168,139.343z"/>
	<path class="st54" d="M476.947,209.325h-8.11c-1.919,0-3.474,1.555-3.474,3.474v8.116c0,1.919,1.556,3.474,3.474,3.474h8.11
		c1.919,0,3.474-1.555,3.474-3.474v-8.116C480.421,210.88,478.865,209.325,476.947,209.325z"/>
	<path class="st54" d="M463.075,172.935c0.142,5.267,4.532,9.546,9.807,9.546c5.349,0,9.757-4.35,9.827-9.697
		c-0.239-2.355-2.975-9.587-9.807-22.127C466.152,163.051,463.393,170.252,463.075,172.935z"/>
	<path class="st54" d="M510.982,129.911H434.8c-1.919,0-3.474,1.555-3.474,3.474v51.491c0,9.288,7.529,16.817,16.817,16.817h49.499
		c9.286,0,16.814-7.528,16.814-16.814v-51.494C514.456,131.467,512.901,129.911,510.982,129.911z M472.882,190.482
		c-9.603,0-17.59-7.812-17.806-17.415c-0.007-0.316,0.004-0.611,0.037-0.921c0.685-6.422,7.842-20.079,12.046-27.647
		c1.157-2.083,3.357-3.376,5.742-3.376s4.584,1.292,5.741,3.374c4.223,7.595,11.401,21.278,12.032,27.582
		c0.026,0.277,0.036,0.529,0.034,0.792C490.581,182.59,482.584,190.482,472.882,190.482z"/>
	<path d="M522.084,135.343V80.715c0-2.106-1.708-3.814-3.814-3.814h-29.034l-0.452-2.348c-1.591-8.259-9.342-14.059-17.921-12.997
		c-7.049,0.872-12.605,6.456-13.949,13.431l-0.369,1.914h-29.034c-2.106,0-3.813,1.707-3.813,3.814v54.629v8v41.536
		c0,13.501,10.945,24.446,24.446,24.446h9.591v18.879c0,2.106,1.707,3.813,3.813,3.813h22.687c2.107,0,3.814-1.708,3.814-3.815
		v-18.878h9.59c13.501,0,24.445-10.944,24.445-24.445v-41.536V135.343z M463.801,75.183l0.434-0.525c0,0,0,0,0,0l1.938-2.343
		c0,0,0.001-0.001,0.001-0.001l0.127-0.154c0.045-0.054,0.098-0.099,0.144-0.152c0.127-0.142,0.259-0.28,0.394-0.414
		c0.23-0.232,0.471-0.447,0.723-0.649c0.072-0.058,0.143-0.116,0.216-0.171c0.152-0.114,0.303-0.226,0.461-0.329
		c0.244-0.162,0.496-0.309,0.755-0.444c0.061-0.031,0.123-0.061,0.185-0.091c0.537-0.265,1.1-0.479,1.689-0.617
		c0.086-0.02,0.171-0.024,0.257-0.042c0.184-0.039,0.371-0.064,0.558-0.091c0.204-0.028,0.407-0.057,0.61-0.071
		c0.199-0.014,0.4-0.013,0.602-0.013c0.204,0,0.407,0,0.609,0.015c0.198,0.014,0.395,0.042,0.593,0.07
		c0.196,0.028,0.391,0.055,0.583,0.096c0.083,0.017,0.166,0.021,0.249,0.041c0.572,0.136,1.119,0.344,1.641,0.599
		c0.086,0.041,0.172,0.082,0.257,0.126c0.238,0.127,0.471,0.262,0.696,0.41c0.184,0.119,0.359,0.249,0.534,0.382
		c0.033,0.026,0.065,0.052,0.098,0.078c0.289,0.227,0.563,0.472,0.824,0.737c0.117,0.117,0.231,0.237,0.343,0.36
		c0.051,0.058,0.109,0.107,0.159,0.167l0.142,0.172c0,0,0,0.001,0.001,0.001l1.861,2.248c0,0,0,0,0,0.001l0.235,0.283
		c0.672,0.811,0.095,2.037-0.958,2.037h-0.369h-15.103h-0.681C463.722,76.901,463.235,75.867,463.801,75.183z M431.326,88.002
		c0-1.919,1.555-3.474,3.474-3.474h76.182c1.919,0,3.474,1.555,3.474,3.474v30.807c0,1.919-1.555,3.474-3.474,3.474H434.8
		c-1.919,0-3.474-1.555-3.474-3.474V88.002z M514.456,184.879c0,9.286-7.528,16.814-16.814,16.814h-49.499
		c-9.288,0-16.817-7.529-16.817-16.817v-51.491c0-1.919,1.555-3.474,3.474-3.474h76.182c1.919,0,3.474,1.555,3.474,3.474V184.879z
		 M480.421,220.914c0,1.919-1.556,3.474-3.474,3.474h-8.11c-1.919,0-3.474-1.555-3.474-3.474v-8.116
		c0-1.919,1.556-3.474,3.474-3.474h8.11c1.919,0,3.474,1.555,3.474,3.474V220.914z"/>
	<path class="st0" d="M465.291,76.901h15.103h0.369c1.053,0,1.63-1.227,0.958-2.037l-0.235-0.283l-1.863-2.249l-0.142-0.172
		c-0.049-0.06-0.108-0.108-0.159-0.167c-0.11-0.125-0.227-0.242-0.343-0.36c-0.26-0.265-0.535-0.51-0.824-0.737
		c-0.033-0.026-0.065-0.053-0.098-0.078c-0.175-0.133-0.35-0.263-0.534-0.382c-0.227-0.146-0.457-0.286-0.696-0.41
		c-0.085-0.044-0.17-0.085-0.257-0.126c-0.601-0.287-1.234-0.5-1.89-0.641c-0.192-0.041-0.387-0.069-0.583-0.096
		c-0.197-0.028-0.394-0.056-0.593-0.07c-0.202-0.014-0.405-0.014-0.609-0.015c-0.2,0-0.4-0.001-0.602,0.013
		c-0.203,0.014-0.406,0.043-0.61,0.071c-0.186,0.026-0.372,0.053-0.558,0.091c-0.086,0.017-0.171,0.022-0.257,0.042
		c-0.589,0.138-1.152,0.352-1.689,0.617c-0.062,0.03-0.124,0.059-0.185,0.091c-0.259,0.136-0.511,0.283-0.755,0.444
		c-0.157,0.104-0.311,0.215-0.461,0.329c-0.073,0.055-0.144,0.114-0.216,0.171c-0.252,0.203-0.493,0.42-0.723,0.649
		c-0.135,0.134-0.266,0.272-0.394,0.414c-0.091,0.101-0.185,0.2-0.271,0.305c0,0-0.001,0.001-0.001,0.001l-1.938,2.343c0,0,0,0,0,0
		C463.497,75.551,464.132,76.901,465.291,76.901z"/>
	<path d="M478.643,144.496c-1.157-2.081-3.356-3.374-5.741-3.374s-4.585,1.293-5.742,3.376
		c-4.204,7.569-11.361,21.226-12.046,27.647c-0.033,0.31-0.044,0.604-0.037,0.921c0.216,9.603,8.203,17.415,17.806,17.415
		c9.702,0,17.699-7.892,17.827-17.612c0.002-0.263-0.008-0.514-0.034-0.792C490.044,165.775,482.865,152.091,478.643,144.496z
		 M472.882,182.482c-5.274,0-9.665-4.28-9.807-9.546c0.317-2.684,3.077-9.884,9.827-22.278c6.832,12.54,9.567,19.772,9.807,22.127
		C482.639,178.132,478.23,182.482,472.882,182.482z"/>
</g>
</svg>
