<svg id="Layer_1" data-name="Layer 1" xmlns="http://www.w3.org/2000/svg" xmlns:xlink="http://www.w3.org/1999/xlink" viewBox="0 0 531 774.361"><defs><style>.cls-1,.cls-18{fill:none;}.cls-2{fill:#d3e2df;}.cls-13,.cls-15,.cls-16,.cls-18,.cls-19,.cls-2,.cls-20,.cls-21,.cls-25,.cls-7{stroke:#000;stroke-miterlimit:10;}.cls-15,.cls-16,.cls-18,.cls-2,.cls-25,.cls-7{stroke-width:5px;}.cls-3{fill:#fff;}.cls-4{font-size:27.33px;font-family:OpenSans-Light, Open Sans;}.cls-5{clip-path:url(#clip-path);}.cls-6{fill:#bfd1cd;}.cls-7{fill:#f2f2f2;}.cls-8{fill:#141a28;}.cls-9{fill:#e0e3e8;}.cls-10{opacity:0.7;}.cls-11{fill:#c3c9d1;}.cls-12{fill:#bdc1c6;}.cls-13{fill:#6cc1d6;}.cls-13,.cls-20,.cls-21{stroke-width:4px;}.cls-14{fill:#76797e;}.cls-15{fill:#2b3235;}.cls-16,.cls-21,.cls-24{fill:#e25963;}.cls-17{fill:#636667;opacity:0.6;}.cls-19,.cls-20{fill:#d8d8d8;}.cls-19{stroke-width:3px;}.cls-22{fill:#bbc4c4;}.cls-23{fill:#c8cece;}.cls-25{fill:#eaeaea;}.cls-26{font-size:50px;font-family:OpenSans-Bold, Open Sans;font-weight:700;}</style><clipPath id="clip-path"><rect class="cls-1" x="6.608" y="192.209" width="517" height="577.019"/></clipPath></defs><title>Before-Step-1</title><rect class="cls-2" x="3.392" y="71.861" width="524.215" height="700"/><rect class="cls-3" x="2.5" y="67.861" width="526" height="125"/><path d="M526,70.361v120H5v-120H526m5-5H0v130H531v-130Z"/><text class="cls-4" transform="translate(25.622 107.701)">Your have to first register your name <tspan x="0" y="32.795">at a blood bank / blood donation </tspan><tspan x="0" y="65.591">camp.</tspan></text><g class="cls-5"><rect class="cls-6" y="195.361" width="527.608" height="284.5"/><path class="cls-7" d="M411.885,382.073l2,5.418a3.188,3.188,0,0,1,.2,1.089l.359,68.9a3.193,3.193,0,0,1-3.208,3.209L391.49,460.6a3.2,3.2,0,0,1-3.153-2.858,40.407,40.407,0,0,0-80.256-.015,3.2,3.2,0,0,1-3.169,2.859H155.926a3.2,3.2,0,0,1-3.169-2.859,40.408,40.408,0,0,0-80.256,0,3.205,3.205,0,0,1-3.17,2.859H43.9a3.209,3.209,0,0,1-1.783-.538c-17.194-11.553-17.028-24.457-16.213-29.33a3.2,3.2,0,0,1,2.213-2.543l6.713-2.066a3.19,3.19,0,0,0,2.065-1.971l8.037-22.352c3.19-8.988,13.19-11.953,14.344-12.267.077-.022.151-.044.227-.071l63.024-22.17a3.187,3.187,0,0,0,1.567-1.2l30.9-44.69a3.1,3.1,0,0,0-.125-3.8c-.857-.962-1.254-2.241,1.095-3.243a3.238,3.238,0,0,1,1.266-.258l239.561,0s13.01.406,14.574,12.451a3.389,3.389,0,0,1,.029.45l.3,53.99A3.187,3.187,0,0,0,411.885,382.073Z"/><polygon class="cls-7" points="171.443 289.76 179.106 289.76 191.1 312.863 165.064 312.863 171.443 289.76"/><polygon class="cls-8" points="407.873 460.708 401.288 467.449 70.508 467.33 65.588 458.131 407.873 460.708"/><polygon class="cls-8" points="66.814 460.584 389.912 460.708 387.271 416.41 66.814 416.288 66.814 460.584"/><path class="cls-9" d="M26.375,428.709l9.978-3.071,3.837-18.952L122.6,383.815h289.93l1.553,4.2.379,72.69-25.89-.124a40.4,40.4,0,0,0-80.721,0H152.99a40.405,40.405,0,0,0-80.722,0H42.929C20.252,445.87,26.375,428.709,26.375,428.709Z"/><g class="cls-10"><path class="cls-11" d="M388.28,457.363c-.094-.709-.2-1.413-.329-2.115-.026-.135-.047-.273-.072-.41-.142-.823-.337-1.626-.534-2.418-.064-.2-.111-.391-.158-.59-.188-.643-.383-1.285-.582-1.916-.062-.178-.109-.365-.178-.543q-.393-1.161-.859-2.285c-.046-.139-.121-.27-.168-.4-.271-.637-.571-1.268-.858-1.888-.094-.18-.178-.364-.273-.536-.366-.733-.749-1.452-1.168-2.161-.011-.021-.011-.024-.02-.043-.409-.69-.832-1.363-1.273-2.025-.121-.166-.216-.315-.336-.476-.43-.625-.87-1.231-1.335-1.821l-.106-.156c-.513-.649-1.037-1.279-1.587-1.894-.115-.125-.225-.249-.329-.362-.479-.531-.981-1.042-1.478-1.542-.085-.1-.179-.19-.262-.274-.6-.584-1.215-1.139-1.833-1.679a3.127,3.127,0,0,1-.262-.215c-.549-.469-1.121-.921-1.718-1.362-.116-.1-.236-.192-.367-.286-.682-.494-1.357-.977-2.059-1.442h-.015c-.691-.447-1.394-.862-2.1-1.263-.142-.082-.289-.16-.43-.236-.729-.4-1.452-.786-2.215-1.138l48.909.12.179,34.7-25.89-.124c-.047-.859-.118-1.7-.214-2.549C388.328,457.81,388.308,457.588,388.28,457.363Z"/><path class="cls-12" d="M72.268,460.584H42.929c-22.677-14.714-16.554-31.875-16.554-31.875l8.418-2.821H95.467A40.439,40.439,0,0,0,72.268,460.584Z"/></g><path class="cls-13" d="M124.5,365.491l31.823-46.03c.2-.293,2.228.389,1.859,1.111l-24.075,47.142a1.085,1.085,0,0,1-1.12.581l-7.748-1.113A1.085,1.085,0,0,1,124.5,365.491Z"/><path class="cls-13" d="M152.88,373.312c-.862,1.453-.19,2.646,1.5,2.646h44.544a3.2,3.2,0,0,0,3.175-3.073l0-45.072a2.971,2.971,0,0,0-2.97-3.077H178.808a6.036,6.036,0,0,0-4.66,2.646Z"/><path class="cls-13" d="M284.513,372.169c.105,2.04-.57,2.961-2.256,2.961H229.62a3.1,3.1,0,0,1-3.092-3.074l-.07-43.415a3.07,3.07,0,0,1,3.065-3.076h52.444a2.743,2.743,0,0,1,2.651,2.966Z"/><path class="cls-14" d="M122.524,423.285c-.807-.2-1.618-.374-2.432-.522l.264-55.216,2.455-.476Z"/><path class="cls-15" d="M81.084,461.583a31.492,31.492,0,1,0,31.486-31.5A31.488,31.488,0,0,0,81.084,461.583Z"/><path class="cls-16" d="M99.754,461.583a12.819,12.819,0,1,0,12.817-12.818A12.821,12.821,0,0,0,99.754,461.583Z"/><path class="cls-15" d="M316.9,461.583a31.492,31.492,0,1,0,31.486-31.5A31.488,31.488,0,0,0,316.9,461.583Z"/><path class="cls-16" d="M335.568,461.583a12.819,12.819,0,1,0,12.817-12.818A12.821,12.821,0,0,0,335.568,461.583Z"/><path class="cls-17" d="M428.662,446.306v5.549a15.315,15.315,0,0,1-13.9,8.853H392.705v-14.4Z"/><path class="cls-18" d="M411.69,381.546l2.39,6.472.379,72.69-25.89-.124a40.4,40.4,0,0,0-80.721,0H152.99a40.405,40.405,0,0,0-80.722,0H42.929c-22.677-14.714-16.554-31.875-16.554-31.875l9.978-3.071,8.577-23.854c3.387-9.543,14.452-12.3,14.452-12.3L123.5,366.932l31.223-45.162a3.959,3.959,0,0,0-.149-4.54c-.689-1-.689-2.222,2.069-3.139l240.14,0s13.172.411,14.6,12.677Z"/><path class="cls-19" d="M181.259,393.461a3.32,3.32,0,0,0,3.309,3.335H198.98a3.32,3.32,0,0,0,3.309-3.335h0a3.313,3.313,0,0,0-3.309-3.318H184.568a3.313,3.313,0,0,0-3.309,3.318Z"/><path class="cls-19" d="M274.936,393.461a3.322,3.322,0,0,0,3.321,3.335h14.4a3.329,3.329,0,0,0,3.32-3.335h0a3.322,3.322,0,0,0-3.32-3.318h-14.4a3.315,3.315,0,0,0-3.321,3.318Z"/><path class="cls-20" d="M317.939,367.557A36.26,36.26,0,1,0,354.2,331.3,36.26,36.26,0,0,0,317.939,367.557Z"/><path class="cls-21" d="M336.14,360.312h7.233a3.581,3.581,0,0,0,3.581-3.581V349.5a3.582,3.582,0,0,1,3.582-3.581h7.324a3.581,3.581,0,0,1,3.581,3.581v7.233a3.581,3.581,0,0,0,3.581,3.581h7.235a3.582,3.582,0,0,1,3.581,3.582v7.324a3.581,3.581,0,0,1-3.581,3.581h-7.235a3.581,3.581,0,0,0-3.581,3.581v7.233a3.582,3.582,0,0,1-3.581,3.582h-7.324a3.582,3.582,0,0,1-3.582-3.582V378.38a3.581,3.581,0,0,0-3.581-3.581H336.14a3.581,3.581,0,0,1-3.581-3.581v-7.324A3.582,3.582,0,0,1,336.14,360.312Z"/><rect class="cls-8" x="163.052" y="311.634" width="29.793" height="2.457"/><rect class="cls-7" x="239.623" y="445.051" width="227.503" height="266.318" rx="3" ry="3" transform="translate(1.061 -0.647) rotate(0.105)"/><path class="cls-16" d="M414.458,477.545l12.964.024a1.724,1.724,0,0,1,1.721,1.727l-.024,12.964a1.724,1.724,0,0,0,1.721,1.727l12.434.023A1.724,1.724,0,0,1,445,495.737l-.023,12.434a1.724,1.724,0,0,1-1.727,1.721l-12.434-.023a1.724,1.724,0,0,0-1.727,1.721l-.024,12.964a1.723,1.723,0,0,1-1.727,1.72l-12.964-.024a1.724,1.724,0,0,1-1.721-1.727l.024-12.963a1.724,1.724,0,0,0-1.721-1.727l-11.905-.022a1.725,1.725,0,0,1-1.721-1.727l.023-12.435a1.723,1.723,0,0,1,1.727-1.72l11.905.021a1.723,1.723,0,0,0,1.727-1.72l.024-12.964A1.724,1.724,0,0,1,414.458,477.545Z"/><path class="cls-22" d="M290.3,674.747l-23.153-.043a3.8,3.8,0,0,1-3.788-3.8l.042-23.153a3.8,3.8,0,0,1,3.8-3.788l23.154.042a3.8,3.8,0,0,1,3.788,3.8l-.043,23.154A3.8,3.8,0,0,1,290.3,674.747Zm-15.95-7.22,8.773.016a3.8,3.8,0,0,0,3.8-3.788l.016-8.772a3.8,3.8,0,0,0-3.788-3.8l-8.773-.016a3.794,3.794,0,0,0-3.8,3.788l-.017,8.772A3.8,3.8,0,0,0,274.348,667.527Z"/><path d="M276.758,665.174l-5.083-8.933a2.506,2.506,0,0,1,.938-3.418h0a2.507,2.507,0,0,1,3.418.939l1.726,3.034a2.507,2.507,0,0,0,4,.478l17.463-18.559a2.506,2.506,0,0,1,3.543-.107h0a2.506,2.506,0,0,1,.108,3.542l-22.114,23.5A2.506,2.506,0,0,1,276.758,665.174Z"/><path class="cls-23" d="M441.462,673.423l-136.584.032c-1.6,0-2.9-.974-2.9-2.17l.011-5.851c0-1.195,1.305-2.162,2.909-2.159l136.584-.032c1.605,0,2.9.974,2.9,2.169l-.01,5.852C444.37,672.459,443.067,673.426,441.462,673.423Z"/><path class="cls-22" d="M290.586,571.133l-23.153-.043a3.8,3.8,0,0,1-3.788-3.8l.042-23.153a3.8,3.8,0,0,1,3.8-3.788l23.154.042a3.8,3.8,0,0,1,3.788,3.8l-.043,23.154A3.8,3.8,0,0,1,290.586,571.133Zm-15.95-7.22,8.773.016a3.8,3.8,0,0,0,3.8-3.788l.016-8.772a3.8,3.8,0,0,0-3.788-3.8l-8.773-.016a3.8,3.8,0,0,0-3.8,3.788l-.016,8.772A3.8,3.8,0,0,0,274.636,563.913Z"/><path d="M277.046,561.56l-5.084-8.933a2.507,2.507,0,0,1,.939-3.418h0a2.507,2.507,0,0,1,3.418.939l1.726,3.034a2.507,2.507,0,0,0,4,.478L299.512,535.1a2.506,2.506,0,0,1,3.543-.108h0a2.5,2.5,0,0,1,.107,3.542l-22.113,23.5A2.506,2.506,0,0,1,277.046,561.56Z"/><path class="cls-23" d="M441.656,568.136l-136.584.033c-1.605,0-2.9-.975-2.9-2.17l.011-5.852c0-1.2,1.305-2.161,2.909-2.158l136.584-.033c1.605,0,2.9.975,2.9,2.17l-.011,5.851C444.563,567.173,443.26,568.139,441.656,568.136Z"/><path class="cls-22" d="M290.4,621.658l-23.154-.042a3.8,3.8,0,0,1-3.788-3.8l.043-23.153a3.794,3.794,0,0,1,3.8-3.788l23.154.042a3.8,3.8,0,0,1,3.788,3.8L294.2,617.87A3.8,3.8,0,0,1,290.4,621.658Zm-15.95-7.219,8.772.016a3.8,3.8,0,0,0,3.8-3.788l.016-8.772a3.794,3.794,0,0,0-3.788-3.8l-8.772-.016a3.8,3.8,0,0,0-3.8,3.788l-.016,8.772A3.8,3.8,0,0,0,274.446,614.439Z"/><path d="M276.855,612.086l-5.083-8.933a2.506,2.506,0,0,1,.939-3.418h0a2.5,2.5,0,0,1,3.417.939l1.727,3.034a2.506,2.506,0,0,0,4,.478l17.463-18.559a2.507,2.507,0,0,1,3.543-.108h0a2.506,2.506,0,0,1,.108,3.542l-22.113,23.5A2.507,2.507,0,0,1,276.855,612.086Z"/><path class="cls-23" d="M441.556,622.359l-136.584.032c-1.6,0-2.9-.974-2.9-2.169l.01-5.852c0-1.2,1.305-2.161,2.91-2.159l136.584-.032c1.6,0,2.9.975,2.9,2.17l-.011,5.851C444.463,621.4,443.161,622.362,441.556,622.359Z"/><path class="cls-24" d="M269.092,505.112v7.129h-3.94V493.662h5.414q3.788,0,5.6,1.378a5.5,5.5,0,0,1,.915,7.1,5.971,5.971,0,0,1-2.554,2q4.194,6.265,5.465,8.095h-4.372l-4.436-7.129Zm0-3.2h1.271a4.861,4.861,0,0,0,2.757-.623,2.223,2.223,0,0,0,.89-1.957,2.033,2.033,0,0,0-.909-1.881,5.512,5.512,0,0,0-2.815-.559h-1.194Z"/><path class="cls-24" d="M293.034,512.241h-10.7V493.662h10.7v3.228h-6.76v4.079h6.29V504.2h-6.29v4.791h6.76Z"/><path class="cls-24" d="M303.964,501.808h7.371v9.633a20.8,20.8,0,0,1-3.374.819,21.957,21.957,0,0,1-3.235.236,8.183,8.183,0,0,1-6.424-2.472q-2.217-2.472-2.217-7.1a9.36,9.36,0,0,1,2.573-7.015,9.774,9.774,0,0,1,7.136-2.516,13.8,13.8,0,0,1,5.515,1.144L310,497.69a9.356,9.356,0,0,0-4.232-1.016,5.225,5.225,0,0,0-4.092,1.715A6.658,6.658,0,0,0,300.139,503a7.415,7.415,0,0,0,1.238,4.619,4.289,4.289,0,0,0,3.6,1.595,12.779,12.779,0,0,0,2.5-.254v-3.876h-3.52Z"/><path class="cls-24" d="M315.757,512.241V493.662h3.94v18.579Z"/><path class="cls-24" d="M335.34,507.082a4.8,4.8,0,0,1-1.811,3.965,7.864,7.864,0,0,1-5.038,1.449,11.83,11.83,0,0,1-5.262-1.119v-3.66a21.715,21.715,0,0,0,3.184,1.182,9.408,9.408,0,0,0,2.383.343,3.379,3.379,0,0,0,1.988-.5,1.693,1.693,0,0,0,.693-1.473,1.619,1.619,0,0,0-.3-.972,3.377,3.377,0,0,0-.9-.82,23.15,23.15,0,0,0-2.408-1.259,11.39,11.39,0,0,1-2.554-1.537,5.77,5.77,0,0,1-1.36-1.716,4.89,4.89,0,0,1-.509-2.287,4.8,4.8,0,0,1,1.672-3.877,6.942,6.942,0,0,1,4.619-1.41,10.9,10.9,0,0,1,2.764.343,19.076,19.076,0,0,1,2.752.966l-1.271,3.062a18.682,18.682,0,0,0-2.46-.851,7.907,7.907,0,0,0-1.912-.241,2.531,2.531,0,0,0-1.716.521,1.718,1.718,0,0,0-.6,1.36,1.681,1.681,0,0,0,.242.908,2.658,2.658,0,0,0,.768.75,23.769,23.769,0,0,0,2.5,1.3,9.944,9.944,0,0,1,3.572,2.5A4.872,4.872,0,0,1,335.34,507.082Z"/><path class="cls-24" d="M345.876,512.241h-3.94v-15.3h-5.045v-3.279h14.03v3.279h-5.045Z"/><path class="cls-24" d="M364.481,512.241h-10.7V493.662h10.7v3.228H357.72v4.079h6.291V504.2H357.72v4.791h6.761Z"/><path class="cls-24" d="M372.3,505.112v7.129h-3.939V493.662h5.414q3.786,0,5.6,1.378a5.5,5.5,0,0,1,.915,7.1,5.974,5.974,0,0,1-2.555,2q4.2,6.265,5.465,8.095h-4.372l-4.435-7.129Zm0-3.2h1.271a4.862,4.862,0,0,0,2.758-.623,2.223,2.223,0,0,0,.89-1.957,2.035,2.035,0,0,0-.909-1.881,5.512,5.512,0,0,0-2.815-.559H372.3Z"/><line class="cls-18" x1="211.299" y1="282.455" x2="211.299" y2="314.092"/><line class="cls-18" x1="380.699" y1="282.455" x2="380.699" y2="314.092"/><rect class="cls-25" x="190.875" y="228.992" width="213.852" height="53.463" rx="17.85" ry="17.85"/><path class="cls-24" d="M220.5,256.707a7.268,7.268,0,0,1-2.076,5.585,8.465,8.465,0,0,1-6,1.94h-4.181V249.465h4.636a7.808,7.808,0,0,1,5.616,1.909A7.023,7.023,0,0,1,220.5,256.707Zm-3.253.081q0-4.758-4.2-4.758h-1.667v9.616h1.343Q217.246,261.646,217.245,256.788Z"/><path class="cls-24" d="M236.962,256.828a8.018,8.018,0,0,1-1.819,5.637,7.883,7.883,0,0,1-10.424,0,8.048,8.048,0,0,1-1.817-5.657,7.931,7.931,0,0,1,1.823-5.631,6.817,6.817,0,0,1,5.227-1.945,6.723,6.723,0,0,1,5.206,1.96A8.033,8.033,0,0,1,236.962,256.828Zm-10.778,0a6.162,6.162,0,0,0,.94,3.727,3.286,3.286,0,0,0,2.807,1.253q3.749,0,3.748-4.98t-3.727-4.99a3.312,3.312,0,0,0-2.819,1.258A6.148,6.148,0,0,0,226.184,256.828Z"/><path class="cls-24" d="M253.123,264.232h-3.98l-6.424-11.171h-.091q.192,2.958.192,4.222v6.949h-2.8V249.465h3.949l6.414,11.06h.07q-.15-2.878-.151-4.071v-6.989h2.818Z"/><path class="cls-24" d="M265.88,264.232l-1.071-3.515h-5.383l-1.071,3.515h-3.374l5.212-14.828h3.829l5.231,14.828Zm-1.818-6.141q-1.485-4.778-1.672-5.4c-.125-.418-.214-.747-.268-.99q-.333,1.293-1.908,6.394Z"/><path class="cls-24" d="M276.809,264.232h-3.132V252.071h-4.01v-2.606h11.152v2.606h-4.01Z"/><path class="cls-24" d="M283.091,264.232V249.465h3.132v14.767Z"/><path class="cls-24" d="M303.344,256.828a8.018,8.018,0,0,1-1.819,5.637,7.883,7.883,0,0,1-10.424,0,8.048,8.048,0,0,1-1.818-5.657,7.936,7.936,0,0,1,1.823-5.631,6.82,6.82,0,0,1,5.227-1.945,6.723,6.723,0,0,1,5.207,1.96A8.033,8.033,0,0,1,303.344,256.828Zm-10.778,0a6.169,6.169,0,0,0,.939,3.727,3.288,3.288,0,0,0,2.808,1.253q3.749,0,3.748-4.98t-3.728-4.99a3.311,3.311,0,0,0-2.818,1.258A6.148,6.148,0,0,0,292.566,256.828Z"/><path class="cls-24" d="M319.5,264.232h-3.98L309.1,253.061h-.09q.192,2.958.192,4.222v6.949h-2.8V249.465h3.949l6.414,11.06h.07q-.15-2.878-.151-4.071v-6.989H319.5Z"/><path class="cls-24" d="M334.867,251.859a3.189,3.189,0,0,0-2.737,1.328,6.174,6.174,0,0,0-.97,3.7q0,4.938,3.707,4.939a11.71,11.71,0,0,0,3.768-.778v2.627a10.484,10.484,0,0,1-4.061.757,6.2,6.2,0,0,1-4.929-1.954,8.28,8.28,0,0,1-1.707-5.612,9.164,9.164,0,0,1,.838-4.035,6.054,6.054,0,0,1,2.41-2.656,7.121,7.121,0,0,1,3.681-.924,9.928,9.928,0,0,1,4.323,1.04l-1.01,2.546a16.875,16.875,0,0,0-1.666-.688A4.984,4.984,0,0,0,334.867,251.859Z"/><path class="cls-24" d="M350.816,264.232l-1.071-3.515h-5.383l-1.071,3.515h-3.373L345.13,249.4h3.828l5.232,14.828ZM349,258.091q-1.485-4.778-1.671-5.4c-.125-.418-.214-.747-.268-.99q-.334,1.293-1.909,6.394Z"/><path class="cls-24" d="M362.3,264.232l-3.556-11.585h-.091q.192,3.534.192,4.717v6.868h-2.8V249.465h4.263l3.5,11.292h.06l3.707-11.292h4.262v14.767h-2.919v-6.99c0-.33.006-.71.016-1.141s.055-1.576.136-3.434h-.091l-3.808,11.565Z"/><path class="cls-24" d="M385.755,254.07a4.515,4.515,0,0,1-1.49,3.647,6.37,6.37,0,0,1-4.237,1.262h-1.344v5.253h-3.131V249.465h4.717a6.282,6.282,0,0,1,4.086,1.156A4.219,4.219,0,0,1,385.755,254.07Zm-7.071,2.344h1.031a3.434,3.434,0,0,0,2.161-.57,2,2,0,0,0,.717-1.662,2.05,2.05,0,0,0-.6-1.627,2.819,2.819,0,0,0-1.884-.525h-1.424Z"/></g><path class="cls-16" d="M167.412,570.863a64.879,64.879,0,0,0,6.751,20.037c7.661,14.618,19.491,25.122,33.24,33.749,1.793,1.125,3.961,1.784,4.767,4.179.811,2.411.644,3.4-1.872,3.644-6.926.678-13.9,1.571-20.827,1.4A69.972,69.972,0,0,1,145.738,617.7a58.172,58.172,0,0,1-17.22-23.822c-1.356-3.4-2.407-6.927-3.685-10.652-1.236.341-2.581.708-3.923,1.083q-6.291,1.758-12.58,3.516a11.692,11.692,0,0,1-1.765.356c-3.331.388-4.462-.847-3.327-3.982,2.887-7.976,5.886-15.911,8.9-23.841q7.832-20.634,15.735-41.24c1.356-3.544,3.146-3.654,6.032-1.2,5.085,4.32,10.441,8.323,15.722,12.409q18.258,14.125,36.541,28.217a21.624,21.624,0,0,1,3.287,3.052c1.2,1.419.973,2.948-.72,3.729a33.145,33.145,0,0,1-5.942,2C177.768,568.556,172.714,569.652,167.412,570.863Z"/><rect class="cls-3" x="2.5" y="2.5" width="526" height="65.281"/><path d="M526,5V65.281H5V5H526m5-5H0V70.281H531V0Z"/><text class="cls-26" transform="translate(180.295 54.085)">STEP 1 </text></svg>