<svg id="Layer_1" data-name="Layer 1" xmlns="http://www.w3.org/2000/svg" xmlns:xlink="http://www.w3.org/1999/xlink" viewBox="0 0 531 766.668"><defs><style>.cls-1,.cls-26{fill:none;}.cls-2{fill:#d3e2df;}.cls-12,.cls-17,.cls-18,.cls-2,.cls-24,.cls-25,.cls-26{stroke:#000;}.cls-12,.cls-17,.cls-18,.cls-2,.cls-24,.cls-25{stroke-miterlimit:10;}.cls-2,.cls-24,.cls-25{stroke-width:5px;}.cls-3{fill:#fff;}.cls-4{font-size:27.33px;font-family:OpenSans-Light, Open Sans;}.cls-5{font-size:50px;font-family:OpenSans-Bold, Open Sans;font-weight:700;}.cls-6{clip-path:url(#clip-path);}.cls-7{fill:#e25963;}.cls-8{fill:#e5da53;}.cls-9{fill:#2d4959;}.cls-10{fill:#ffb583;}.cls-11{fill:#231f20;}.cls-12,.cls-26{stroke-width:2px;}.cls-13{fill:#333;}.cls-14{fill:#f9b767;}.cls-15{fill:#ffc78a;}.cls-16{fill:#eda574;}.cls-18,.cls-20,.cls-24{fill:#bec4ce;}.cls-18{stroke-width:4px;}.cls-19{fill:#00a89b;}.cls-21{fill:#ef8a6f;}.cls-22{fill:#ff6c96;}.cls-23{clip-path:url(#clip-path-2);}.cls-25{fill:#8e939b;}.cls-26{stroke-linecap:round;stroke-linejoin:round;}</style><clipPath id="clip-path"><polygon class="cls-1" points="526.728 761.649 1.42 761.742 2.513 211.361 526.728 211.361 526.728 761.649"/></clipPath><clipPath id="clip-path-2"><polygon class="cls-1" points="426.323 1228.748 -28.531 1228.748 -28.531 514.208 115.645 518.509 151.019 526.742 155.919 527.936 292.594 480.718 426.323 514.208 426.323 1228.748"/></clipPath></defs><title>Before-Step-2</title><rect class="cls-2" x="2.513" y="64.168" width="524.215" height="700"/><polygon class="cls-3" points="2.5 300.237 2.5 67.861 528.481 67.861 526.738 300.237 2.5 300.237"/><path d="M525.962,70.361l-1.705,227.377H5V70.361H525.962m5.038-5H0V302.738H529.22L531,65.361Z"/><text class="cls-4" transform="translate(26.622 111.701)">A doctor / nurse will ask you some <tspan x="0" y="32.795">questions regarding your health, life</tspan><tspan x="440.398" y="32.795">-</tspan><tspan x="0" y="65.591">style, and medical history. He / she will </tspan><tspan x="0" y="98.387">do a short health exam and check </tspan><tspan x="0" y="131.182">your pulse, temperature and blood </tspan><tspan x="0" y="163.978">pressure.</tspan></text><rect class="cls-3" x="2.5" y="2.5" width="526" height="65.281"/><path d="M526,5V65.281H5V5H526m5-5H0V70.281H531V0Z"/><text class="cls-5" transform="translate(180.295 54.085)">STEP 2</text><g class="cls-6"><path class="cls-7" d="M501.189,675.523c.955,8.046,3.941,15.707,5.5,23.657,1.54,7.82,1.689,15.841,2.652,23.753,1.673,13.759,5.79,27.088,9.887,40.329l.484,1.314A18.46,18.46,0,0,1,507.126,788.8l-25.452,6.749-25.054-97.2Z"/><path d="M499.02,676.121c1.193,8.667,4.378,16.857,5.836,25.465,1.336,7.879,1.457,15.908,2.563,23.819a185.6,185.6,0,0,0,5.807,25.778c1.745,6.037,5.131,12.839,5.366,19.18a16.367,16.367,0,0,1-10.774,15.879c-2.326.83-4.817,1.327-7.2,1.958l-19.544,5.183,2.768,1.571-21.9-84.971-3.153-12.232-1.034,2.541,44.57-22.826c2.578-1.321.3-5.205-2.271-3.886l-44.57,22.826a2.283,2.283,0,0,0-1.034,2.541l21.9,84.972,3.153,12.232a2.283,2.283,0,0,0,2.767,1.571l21.475-5.694c9.179-2.434,17.079-7.089,18.994-17.275,1.112-5.914-1.034-11.067-2.732-16.607a255.784,255.784,0,0,1-7.178-27.42c-1.725-9.142-1.925-18.42-3.222-27.612-1.349-9.568-4.932-18.62-6.25-28.189C502.965,672.069,498.629,673.285,499.02,676.121Z"/><path class="cls-8" d="M513.581,576.884a107.4,107.4,0,0,0-17.065-39.148l-2.348-3.209c-7.114-9.349-15.8-17.329-25.7-22.572-3.521,1.634-7.033,3.5-10.767,5.184a34.313,34.313,0,0,1-14.634,3.116l-2.95-.127.9-1.519c2.727-4.616,5.523-9.4,7.969-14.328a18.9,18.9,0,0,1-1.972-.812c-1.5,11.176-11.246,23.932-20.823,28.948-13.451,7.044-21.777-3.627-25.262-15.751a37.417,37.417,0,0,1-8.961,10c-.844.641-2.15-.42-1.8-1.38,2.408-6.532,1.352-12.6-.951-18.425a55.611,55.611,0,0,0-18.537,14.211l-1.988,2.346c-7.535,9.211-13.3,20.258-17.983,30.366-8.88,19.146-14.544,39.094-21.032,58.948,1.924.644,7.117,1.761,7.138,2.478v.01l2.922,1.039c4.474,1.578,9.251,2.7,13.718,4.417-.641-3.347-1.2-6.669-1.765-9.8a89.61,89.61,0,0,1-1.627-23.266c.534-6.448,3.654-18.372,4.53-21.631a9.47,9.47,0,0,1,.6-1.624c1.553-3.26,7.663-15.863,12.089-21.832a.717.717,0,0,1,1.237.725c-3.036,6.262-6.122,12.463-8.73,18.8a8.148,8.148,0,0,1-.259-1.049c-1.524,5.379-7.28,22.083-7.388,27.928-.159,8.471,1.976,17.744,3.986,25.981,1.506,6.149,3.563,12.677,4.347,19.082,5.039,13.418-1.951,30.65-5.113,43.616-4.889,20.065-9.915,40.27-12.183,60.833-2.129,19.328-1.169,38.419.691,57.475q3.06,1.344,6.161,2.563l2.09.831a148.964,148.964,0,0,0,26.072,7.448c13.983,2.582,28.048,3.162,42.165,4.458,13.446,1.232,27.683,3.147,41.107.786,6.775-1.192,15.342-3.112,18.77-9.828,2.821-5.533,3-11.552,2.931-17.638a1.5,1.5,0,0,1,2.925-.393c1.794,6.707,4.909,12.892,7.73,19.209l2.725,1.465a32.133,32.133,0,0,0,5.054-1.885,137.685,137.685,0,0,0-.753-19.406c-1.519-11.971-5.207-23.267-9.425-34.527-6.709-17.934-16.192-38.67-12.013-58.273a38.593,38.593,0,0,1-9.033-.676c-7.006-1.314-44.545-22.387-65.668-27.118-19.736-4.421-23.358,7.443-23.558,7.385a12.929,12.929,0,0,1-7.814-5.736,8.992,8.992,0,0,1-.986-4.389c.15-1.278-1.969-1.1-2.563-1.414a5.388,5.388,0,0,1-3.23-4.5c-.366-4.99.735-8.65-2.087-13.369-3.276-5.473,6.619,3.624,6.619,3.624l26.865,13.839,57.8,6.242,9.992-10.409a12.617,12.617,0,0,0,7-5.92c-11.117-7.779-1.718-27.039,1.223-36.7,2.871-9.422,3.031-18.662,3.5-28.45a301.21,301.21,0,0,1,2.9-29.986c.143-.961,1.817-.736,1.7.23-1.2,9.87-1.488,19.826-1.777,29.756-.211,7.173.331,14.779-1.324,21.815-2.678,11.39-13.558,30.124-4.946,40.718a36.4,36.4,0,0,0,1.346-4.043l-.914-.791c-1.616.635-2.036-1.818-.652-1.7,11.929,1.054,23.527,7.4,33.013,16.083,2.056-9.647,3.751-19.358,5.286-29.236C514.6,609.91,516.889,593.033,513.581,576.884Z"/><path class="cls-9" d="M450.04,502.109a67.858,67.858,0,0,0,5.719-17.031,61.877,61.877,0,0,0,.812-13.02c-2.066,2.3-4.164,4.54-6.242,6.693-1.648,1.713-3.354,3.431-5.119,5.105.051,4.042-.876,8.178-1.113,12.214-.068,1.192-.094,2.392-.141,3.59a14.892,14.892,0,0,1,3.651,1.166A13.672,13.672,0,0,1,450.04,502.109Z"/><path class="cls-10" d="M433.008,490.222c9.061-6.008,16.26-13.932,23.345-22-.792-9.759-3.141-19.418-4.737-29.163-2.348-14.332-5.641-33.609,2.6-46.748-12.521,1.1-25.387,2.229-37.309-1.862a69.2,69.2,0,0,1-25.3-15.938c-7.718,15.625-15.633,30.6-16.858,48.695-1.19,17.615,1.446,36.692,10.342,52.24,4.622,8.081,11.3,17.1,20.673,19.937C415.37,498.291,424.79,495.668,433.008,490.222Zm2.3-61.212c-3,2-5.49-1.015-5.791-3.869-.241-2.291.068-6.015,2.085-7.592,1.352-2.373,5.788-.6,6.436,2.377C438.679,422.846,438,427.215,435.306,429.01Zm-8.889-25.7c2.011-5.226,11.605-6.818,13.474-.684a.676.676,0,0,1-.986.759c-1.96-1.119-3.808-2.18-6.124-1.427-1.857.6-3.428,1.832-5.273,2.443A.893.893,0,0,1,426.417,403.313Zm-21.7,42.473c.735-3.082,1.08-6.242,1.869-9.319.162-.625,1.232-.509,1.152.158-.432,3.645-.216,7.321-.847,10.949a1.279,1.279,0,0,1-1.554.882c-1.55-.256-6.65-.5-4.378,2.519,1.277,1.7,3.34,1.843,5.089,2.777a.755.755,0,0,1-.178,1.368c-3.141,1.013-7.782-1.79-7.951-5.274C397.737,445.969,401.638,445.383,404.72,445.786Zm-19.889-45.5c3.824-5.667,13.727-3.915,15,3a.987.987,0,0,1-1.637.953c-1.835-1.629-3.314-3.913-5.847-4.518-2.565-.609-4.3.229-6.364,1.711C385.3,401.928,384.376,400.966,384.831,400.286Zm1.366,24.855c-.244-2.291.066-6.015,2.082-7.592,1.352-2.373,5.789-.6,6.439,2.377.641,2.92-.038,7.289-2.732,9.084C388.986,431.01,386.5,428,386.2,425.141Z"/><path class="cls-10" d="M358.569,638.55a.934.934,0,0,1-.158-.231,73.631,73.631,0,0,1-4.258-14.211c-5.936-.691-11.818-3.3-17.335-5.384-.289,12.85-3.9,25.8-7.164,38.095-3.878,14.6-7.805,29.161-10.742,43.984-5.68,28.713-7.694,58.738-17.173,86.543a1.209,1.209,0,0,1-1.4.859c-5.355,9.978-8.648,20.307-8.711,31.8-.059,10.786,1.446,23.849,11.131,30.079-.237-6.983-1.93-13.741-3.333-20.586a17.577,17.577,0,0,1-4.376-2.376.573.573,0,0,1,.439-1.042c1.392.371,2.815.718,4.254,1.014a1.262,1.262,0,0,1,1.962.364,30.759,30.759,0,0,0,7.826.373,1.2,1.2,0,0,1,.406-.037,17.475,17.475,0,0,0,9.181-3.672,1.522,1.522,0,0,1,1.765-.1,13.674,13.674,0,0,1-.167-3.688c.935-8.317,8.9-20.642,2.247-28.126a.952.952,0,0,1-1.547-.49c-.064-.357-.085-.717-.127-1.073a1.417,1.417,0,0,1-.1-2c.019-4,1.19-8.007,1.974-11.937,1.3-6.511,2.749-13.016,4.6-19.4,3.312-11.45,7.477-22.107,13.758-32.254a1.064,1.064,0,0,1,.23-.249c2.186-13.411,5.117-26.69,8.35-39.9C353.9,669.33,358.531,654.432,358.569,638.55ZM317.624,800.805c-1.1,4.071-3.836,7.791-8.2,7.834.465,4.316-.07,14.4-5.3,12.023-2.063-.939-3.208-3.585-3.882-5.585a21.746,21.746,0,0,1-1.089-10.835.653.653,0,0,1,1.251,0c.629,3.082.8,6.253,1.772,9.26.493,1.521,1.195,3.826,2.6,4.8.381.258.6.387.766.237a3.774,3.774,0,0,0,.985-1.864c.862-3.148.249-6.4.9-9.532a.861.861,0,0,1,1.374-.467,9.118,9.118,0,0,0,6.4-8.714,22.967,22.967,0,0,0-.408-6.4c-.289-1.291-.848-2.409-.331-3.676a.911.911,0,0,1,1.322-.538C319.145,789.238,318.467,797.676,317.624,800.805Z"/><path class="cls-10" d="M402.638,513.688c1.641,6.6,5.246,18.562,13.946,18.743,5.493.114,10.431-2.945,14.274-6.67a62.614,62.614,0,0,0,14.676-22.976c-.592-.274-1.169-.554-1.721-.872a18.787,18.787,0,0,1-.857,4.4.784.784,0,0,1-1.5,0c-1.164-4.272-.5-9.2,0-13.551.171-1.473.328-2.953.565-4.413a22.357,22.357,0,0,1-2.063,1.7.586.586,0,0,1-.186.742c-9.471,7.155-21.665,16.638-33.391,9.115a33.008,33.008,0,0,1-3.758,13.755C402.629,513.677,402.638,513.681,402.638,513.688Z"/><path class="cls-9" d="M388.293,504.663c-1.558-3.482-3.467-6.887-5.256-10.261a.773.773,0,0,1,1.21-.932,31.648,31.648,0,0,1,6.92,10.489l.7,1.813a33.112,33.112,0,0,1,1.664,16.14c6.486-6.8,9.241-15.229,11.31-24.476-7.08-2.311-13.366-7.321-18.35-14.707-22.61-33.512-16.791-76.878,3.383-109.951q-2.44-2.508-4.639-5.191a.632.632,0,0,1,.892-.894c1.669,1.372,3.31,2.771,4.951,4.169l1.638,1.391c8.007,6.793,16.115,13.286,26.671,15.988,11.9,3.046,24.213,1.951,36.426,1.794l2.259-.011c2.119,0,4.239.028,6.352.125a.687.687,0,0,1,0,1.374c-2.557.141-5.148.351-7.754.575-11.579,18.771-1.568,47.632,1.39,67.1q.468,3.12.779,6.188l.3,3.757c.531,8.985-.361,17.713-3.957,26.432-3.113,7.542-6.092,15.818-10.733,22.748,7.622-1.006,14.225-4.254,21.338-7.713l2.589-1.253.408-.2c6.648-3.177,12.261-4.345,19.51-2.687.7.16.563,1.347-.174,1.274-6.226-.629-11.544.779-16.706,2.919,9.57,4.569,17.391,12.713,23.865,21.035.165.212.324.429.488.644,11.516-15.838,21.847-32.552,16.725-53.461-5.34-21.8-21.947-39.249-22.6-62.42-.39-13.916,2.9-29.121-1.662-42.615A71.173,71.173,0,0,0,469.6,344.78c-17.33-16.217-41.057-25.259-61.679-12.768l-1.95,1.249a47.3,47.3,0,0,0-3.857,2.913c-.7.586-1.707-.382-1.019-1.014,1.007-.912,2.038-1.8,3.1-2.651-5.087-1.952-10.2-2.216-15.542,1.1-6.547,4.064-11.5,10.363-15.488,16.862a134.3,134.3,0,0,0-17.455,44.444,46.08,46.08,0,0,0,4.559,30.452c3.117,6.061,2.368,4.688.014,11.186a85.506,85.506,0,0,0-4.333,16.634c-3.014,20.534-.618,47.241,12.464,65C374.017,511.957,380.571,506.946,388.293,504.663Z"/><path class="cls-3" d="M432.781,419.618a3.5,3.5,0,0,0,.2,2.759,2.7,2.7,0,0,0,1.617,1.235,2.4,2.4,0,0,1,1.028.389,8.812,8.812,0,0,0,.212-1.844C435.823,420.145,434.7,417.867,432.781,419.618Z"/><path class="cls-3" d="M392.514,422.157c-.012-2.012-1.129-4.29-3.056-2.539a3.522,3.522,0,0,0,.2,2.759,2.7,2.7,0,0,0,1.619,1.235,2.415,2.415,0,0,1,1.026.389A8.594,8.594,0,0,0,392.514,422.157Z"/><path class="cls-10" d="M468.092,656.721c-6.115,2.1-12.873,1.668-19.162.621-12.485-2.08-29.428-5.973-39.05-14.969a.508.508,0,0,1-.308-.349.761.761,0,0,1-.026-.705c.082-4.919-1.345-8.317-5.309-11.419a40.9,40.9,0,0,1-6.77-6.331c-1.967-2.428-3.965-5.727-6.664-7.411-3.744-2.334-3.993,5.711-3.531,7.268a17.851,17.851,0,0,0,4.174,7.248,2.69,2.69,0,0,1-.423,2.68c-6.347,3.056-16.025,3.523-22.584.882-.8-.321-4.788-.3-3.575,2.611.9,2.156,2.524,3.914,3.251,6.161,1.374,4.2-1.194,13.619,5.718,13.92a1.237,1.237,0,0,1,1.233,1.233c-1.894,16.738,21.561,8.359,28.781,4.59a.725.725,0,0,1,.868.186c18.056,10.61,37.124,16.735,57.278,22,5.58,1.457,12.333,3.352,18.5,2.74a1.116,1.116,0,0,1,.7-.079,16.886,16.886,0,0,0,6.629-2.229c9.6-5.807,14.4-18.179,15.225-28.923-7.761-6.571-16.157-10.065-25.181-13.789C476.308,648.434,474.287,654.6,468.092,656.721Z"/><path class="cls-11" d="M406.589,436.467c-.789,3.077-1.134,6.237-1.869,9.319-3.082-.4-6.983.183-6.8,4.06.169,3.484,4.81,6.287,7.951,5.274a.755.755,0,0,0,.178-1.368c-1.749-.934-3.812-1.078-5.089-2.777-2.272-3.022,2.828-2.775,4.378-2.519a1.279,1.279,0,0,0,1.554-.882c.631-3.628.415-7.3.847-10.949C407.821,435.958,406.751,435.842,406.589,436.467Z"/><path class="cls-11" d="M438.036,419.926c-.648-2.976-5.084-4.75-6.436-2.377-2.017,1.577-2.326,5.3-2.085,7.592.3,2.854,2.791,5.869,5.791,3.869C438,427.215,438.679,422.846,438.036,419.926ZM435.625,424a2.4,2.4,0,0,0-1.028-.389,2.7,2.7,0,0,1-1.617-1.235,3.5,3.5,0,0,1-.2-2.759c1.922-1.751,3.042.527,3.056,2.539A8.812,8.812,0,0,1,435.625,424Z"/><path class="cls-11" d="M394.718,419.926c-.65-2.976-5.087-4.75-6.439-2.377-2.016,1.577-2.326,5.3-2.082,7.592.3,2.854,2.789,5.869,5.789,3.869C394.68,427.215,395.359,422.846,394.718,419.926ZM392.307,424a2.415,2.415,0,0,0-1.026-.389,2.7,2.7,0,0,1-1.619-1.235,3.522,3.522,0,0,1-.2-2.759c1.927-1.751,3.044.527,3.056,2.539A8.594,8.594,0,0,1,392.307,424Z"/><path class="cls-11" d="M426.417,403.313a.893.893,0,0,0,1.091,1.091c1.845-.611,3.416-1.84,5.273-2.443,2.316-.753,4.164.308,6.124,1.427a.676.676,0,0,0,.986-.759C438.022,396.5,428.428,398.087,426.417,403.313Z"/><path class="cls-11" d="M399.831,403.289c-1.273-6.918-11.176-8.67-15-3-.455.68.467,1.642,1.152,1.149,2.062-1.482,3.8-2.32,6.364-1.711,2.533.605,4.012,2.889,5.847,4.518A.987.987,0,0,0,399.831,403.289Z"/><path class="cls-12" d="M492.537,685.941c7.667-6.654,12.305-17.043,13.077-27.162.115.11.242.213.357.326l3.216,3.375.988-3.994c2.777-12.111,3.939-24.909,5.711-36.67,2.411-16.025,3.512-32.111.24-48.092-2.81-13.732-9.657-26.72-17.9-38.088,11.983-15.074,21.015-34,18.177-52.764-1.941-12.854-8.039-23.943-13.927-35.344-8.032-15.558-9.912-29.855-9.1-47.2.632-13.5-.443-25.6-6.582-37.776-5.521-10.957-14.225-20.106-24-27.361-9.154-6.794-20.281-11.483-31.675-12.361-9.188-.706-17.568,2.789-24.76,8.033-10.613-7.022-23.128,1.352-30.626,10.627-11.4,14.093-18.474,32.739-22.488,50.252a49.529,49.529,0,0,0-.134,23.379c1.385,5.888,7.237,12.955,4.979,18.678a92.725,92.725,0,0,0-5.413,20.764A104.615,104.615,0,0,0,354.6,493.1c2.089,9.054,5.918,19.386,11.8,27.428-6.741,8.158-12.025,17.937-16.279,26.351-10.145,20.061-18.882,42.379-24.114,64.673l-.62,2.772,3.347,1.3q3.018,1.173,6.045,2.32c-2.436,12.782-4.8,25.418-8.159,38.04-3.888,14.607-7.791,29.148-10.8,43.969-3.009,14.79-5.347,29.715-7.762,44.612-2.315,14.241-6.021,27.994-8.754,42.109-.009.056,0,.1,0,.153-9.11,8.058-10.629,23.788-10.73,35.142-.106,12.014,3.028,26.382,14.934,31.814a1.451,1.451,0,0,0,2.153-1.233c0-.514-.024-1.023-.038-1.53a27.318,27.318,0,0,0,4.716,3.589,1.107,1.107,0,0,0,1.509-.394,17.047,17.047,0,0,0,1.646-7.033c1.11,1.275,2.568,2.349,4.159,2.08,2.111-.36,2.561-2.789,2.779-4.55a22.714,22.714,0,0,0-.035-4.957,11.387,11.387,0,0,0,4.362,3.408,1.177,1.177,0,0,0,1.377-.178c1.9-1.829.956-4.293.609-6.711a77.717,77.717,0,0,0-2.472-9.319c-1.432-5.2-.723-9.54.931-14.5,2.484-7.436,5.038-16.924-1.309-22.9,2.493-9.521,3.8-19.4,6.291-28.947a168.262,168.262,0,0,1,10.643-29.793c-.5,3.483-.974,6.974-1.359,10.481-1.918,17.474-1.378,35.149.354,52.778l.3,3.049,4.1,2.122c1.929.953,3.894,1.812,5.868,2.639,1.035,52.158,9.512,103.79,20.357,154.808,10.175,47.853,21.919,95.509,34.285,142.893l.646,2.488c-5.6,7.026-11.038,13.347-17.95,19.248-7.468,6.378-15.46,12.117-23.061,18.333a1.1,1.1,0,0,0-.145,1.648c0,.005.007.012.011.017a1.811,1.811,0,0,0,.294.265c6.927,6.591,17.675,5.166,26.142,2.9a108.366,108.366,0,0,0,16.481-6.443c4.469-2.033,9.35-3.815,13.38-6.688-.026.141-.056.279-.08.418a1.208,1.208,0,0,0,.831,1.469c13.744,2.244,10.345-15.666,9.185-25.06l1.845.638c.547.158,1.1.3,1.655.442.6,9.38-2.413,19.954.986,28.928,2.7,7.134,11.164,4.977,11.878-1.537,9.556,5.913,18.581,11.657,30.079,12.633,10.92.923,28.112,1.362,37.6-5.406a1.4,1.4,0,0,0,.446-1.957.94.94,0,0,0-.58-.646c-9.352-4.286-18.929-7.727-27.947-12.76-1.9-1.061-3.676-2.211-5.4-3.406a1.379,1.379,0,0,0-1.244-.852c-6.274-4.554-11.586-9.882-17.419-15.23l.443-2.549c2.364-13.493,4.441-27.027,6.493-40.485,4.669-30.663,8.507-61.468,12.619-92.209,7.322-54.785,14.76-110.377,14.66-165.822a32.946,32.946,0,0,0,4.976-1.662l4.117-2.068-.019-3.476a145.409,145.409,0,0,0-7.678-43.391c-7.554-22.429-17.19-42.8-16.112-66.858A20.116,20.116,0,0,0,492.537,685.941ZM355.947,453.184a85.506,85.506,0,0,1,4.333-16.634c2.355-6.5,3.1-5.125-.014-11.186a46.079,46.079,0,0,1-4.559-30.452,134.3,134.3,0,0,1,17.455-44.444c3.993-6.5,8.942-12.8,15.488-16.862,5.345-3.313,10.455-3.049,15.542-1.1-1.063.852-2.094,1.739-3.1,2.651-.688.632.317,1.6,1.019,1.014a47.3,47.3,0,0,1,3.857-2.913l1.95-1.249c20.622-12.491,44.349-3.449,61.679,12.768a71.173,71.173,0,0,1,18.627,29.067c4.563,13.494,1.272,28.7,1.662,42.615.655,23.171,17.262,40.621,22.6,62.42,5.122,20.909-5.209,37.623-16.725,53.461-.164-.215-.324-.432-.488-.644-6.474-8.322-14.3-16.466-23.865-21.035,5.162-2.14,10.48-3.548,16.706-2.919.737.073.878-1.114.174-1.274-7.249-1.658-12.862-.49-19.51,2.687l-.408.2-2.589,1.253c-7.113,3.459-13.716,6.707-21.338,7.713,4.641-6.93,7.62-15.206,10.733-22.748,3.6-8.719,4.488-17.447,3.957-26.432l-.3-3.757q-.306-3.07-.779-6.188c-2.958-19.465-12.969-48.326-1.39-67.1,2.606-.224,5.2-.434,7.754-.575a.687.687,0,0,0,0-1.374c-2.113-.1-4.233-.13-6.352-.125l-2.259.011c-12.213.157-24.529,1.252-36.426-1.794-10.556-2.7-18.664-9.195-26.671-15.988l-1.638-1.391c-1.641-1.4-3.282-2.8-4.951-4.169a.632.632,0,0,0-.892.894q2.194,2.679,4.639,5.191c-20.173,33.073-25.993,76.439-3.383,109.951,4.984,7.386,11.27,12.4,18.35,14.707-2.068,9.247-4.825,17.679-11.31,24.476a33.112,33.112,0,0,0-1.664-16.14l-.7-1.814a31.654,31.654,0,0,0-6.92-10.488.772.772,0,0,0-1.209.932c1.788,3.374,3.7,6.779,5.255,10.261-7.722,2.283-14.276,7.294-19.882,13.524C355.329,500.425,352.933,473.718,355.947,453.184Zm50.437,46.729c11.726,7.523,23.92-1.96,33.392-9.115a.587.587,0,0,0,.185-.742,22.357,22.357,0,0,0,2.063-1.7c-.237,1.46-.394,2.94-.566,4.413-.509,4.354-1.168,9.279,0,13.551a.784.784,0,0,0,1.5,0,18.736,18.736,0,0,0,.857-4.4c.552.318,1.129.6,1.72.872a62.6,62.6,0,0,1-14.675,22.976c-3.843,3.725-8.781,6.784-14.274,6.67-8.7-.181-12.305-12.144-13.946-18.743,0-.007-.009-.011-.012-.02A33.023,33.023,0,0,0,406.384,499.913Zm-.622-4.532c-9.377-2.838-16.051-11.856-20.673-19.937-8.9-15.548-11.532-34.624-10.342-52.24,1.225-18.093,9.14-33.07,16.858-48.695a69.2,69.2,0,0,0,25.3,15.938c11.922,4.091,24.788,2.958,37.309,1.862-8.242,13.139-4.949,32.416-2.6,46.748,1.6,9.745,3.946,19.4,4.737,29.163-7.085,8.07-14.284,15.994-23.345,22C424.79,495.668,415.37,498.291,405.762,495.381Zm38.194,4.279c.047-1.2.073-2.4.141-3.59.237-4.036,1.164-8.172,1.113-12.214,1.765-1.674,3.471-3.392,5.119-5.105,2.078-2.153,4.176-4.391,6.242-6.693a61.877,61.877,0,0,1-.812,13.02,67.858,67.858,0,0,1-5.719,17.031,13.672,13.672,0,0,0-2.433-1.283A14.849,14.849,0,0,0,443.956,499.66ZM310.368,852.022a38.787,38.787,0,0,1-4.894-3.694c-.463-6.063-1.843-12.007-3.106-17.976a23.2,23.2,0,0,0,6.477.408C309.568,837.758,312.927,845.135,310.368,852.022Zm7.047-5.774c-.371,1.279-2.89-.981-3.932-1.866-.056-1.141-.157-2.282-.272-3.411a57.831,57.831,0,0,0-1.763-10.535,23.984,23.984,0,0,0,4.476-1.289c.259,3.639,1.353,7.32,1.686,10.956A16.94,16.94,0,0,1,317.415,846.248ZM324.884,841c-1.028,1.07-4.087-4.552-5.211-6.925a36.078,36.078,0,0,0-1.171-6.136,18.873,18.873,0,0,0,2.669-1.763c.058-.049.075-.105.124-.155.542,2.165,1.31,4.3,1.873,6.216C323.567,833.577,325.724,840.128,324.884,841Zm16.631-115.945c-6.281,10.147-10.446,20.8-13.758,32.254-1.847,6.385-3.3,12.89-4.6,19.4-.784,3.93-1.955,7.937-1.974,11.937a1.417,1.417,0,0,0,.1,2c.042.356.064.716.127,1.073a.952.952,0,0,0,1.547.49c6.652,7.484-1.312,19.809-2.247,28.126a13.674,13.674,0,0,0,.167,3.688,1.522,1.522,0,0,0-1.765.1,17.475,17.475,0,0,1-9.181,3.672,1.2,1.2,0,0,0-.406.037,30.759,30.759,0,0,1-7.826-.373,1.262,1.262,0,0,0-1.962-.364c-1.439-.3-2.862-.643-4.254-1.014a.573.573,0,0,0-.439,1.042,17.577,17.577,0,0,0,4.376,2.376c1.4,6.845,3.1,13.6,3.333,20.586-9.685-6.23-11.19-19.293-11.131-30.079.063-11.49,3.356-21.819,8.711-31.8a1.209,1.209,0,0,0,1.4-.859c9.479-27.8,11.493-57.83,17.173-86.543,2.937-14.823,6.864-29.386,10.742-43.984,3.267-12.295,6.875-25.245,7.164-38.095,5.517,2.088,11.4,4.693,17.335,5.384a73.631,73.631,0,0,0,4.258,14.211.934.934,0,0,0,.158.231c-.038,15.882-4.665,30.78-8.474,46.355-3.233,13.208-6.164,26.487-8.35,39.9A1.064,1.064,0,0,0,341.515,725.052Zm62.454,383.778c.488,1.829,1.352,3.568,1.939,5.378,1.094,3.373-.817,4.366-3.237,5.855a44.4,44.4,0,0,1-6.728,3.349,10.136,10.136,0,0,1-2.812.782c-.319.028-.925-2.024-1.314-3.11C395.781,1117.7,400.718,1113.544,403.969,1108.83Zm18.974,22.089c.178-1.34.413-2.657.68-3.993a.765.765,0,0,0-1.392-.589,10.266,10.266,0,0,0-.974,2.089c-7.854,4.368-16.748,7.969-25.09,11.251-10.125,3.981-19.162,5.049-29.108,1.251,7.385-5.964,15-11.641,22.265-17.755.472,1.981,1.889,3.929,3.807,4.04,2.918.171,6.535-2.078,8.963-3.421,1.748-.967,5.912-2.934,6.368-5.225.821-4.126-1.434-7.962-3.4-11.483a19.2,19.2,0,0,0,1.582-3.378l2.835.786a51.522,51.522,0,0,0,18.305,1.214l.014.129C426.816,1112.877,433.757,1130.48,422.943,1130.919Zm54.423-4.545a44.017,44.017,0,0,0-3.507,4.806,53.2,53.2,0,0,1-16.739-12.641,35.967,35.967,0,0,0,6.573-4.307C467.261,1119.025,472.31,1123,477.366,1126.374Zm-14.5-13.307c-2.777,1.254-5.422,2.787-8.16,4.134a1.156,1.156,0,0,0-.42,1.589,51.991,51.991,0,0,0,19.429,15.136,1.292,1.292,0,0,0,1.744-.455,35.4,35.4,0,0,1,4.043-5.707c1.183.754,2.351,1.484,3.49,2.181,7.587,4.627,17.69,10.457,26.9,12.734-10.415,3.758-22.058,3.974-32.98,3.347-11.547-.664-19.551-8.159-30.119-11.229a.659.659,0,0,0-.974-.24.683.683,0,0,0-.385,1.2c-.7,2.988-3.059,3.721-7.11,2.139-.972-1.261-1.228-3.561-1.418-5.031a48.978,48.978,0,0,1-.16-7.467c.124-5.124.643-10.312.357-15.436a68.524,68.524,0,0,0,12.687,1.211c2.547.01,5.27-.115,8.075-.37l3.413-.39A28.763,28.763,0,0,0,462.862,1113.067Zm15.847-142.16c-4.178,31.382-8.221,62.808-12.911,94.115-2.117,14.124-4.666,28.163-7.276,42.2-1.74.244-3.507.436-5.31.563a57.351,57.351,0,0,1-21.3-2.361c-.018-.15-.035-.3-.054-.456l-.507-4.476c-4.734-41.159-7.783-82.5-11.117-123.821-2.1-26.063-4.056-52.1-4.8-78.242-.516-18.244-.2-36.595-.6-54.886l-.1-4.42c-.188-6.523-.486-13.035-.965-19.528a.7.7,0,0,0-1.4,0c-.421,5.655-.681,11.331-.857,17.016a61.971,61.971,0,0,1-5.089-4.652c-4.93-5.054-9.1-10.819-14.223-15.683-.685-.648-1.913.209-1.345,1.04,5.385,7.817,12.2,17.448,20.532,23.854-.413,19.084.233,38.276.679,57.259.615,26.133,2.687,52.184,4.772,78.242,2.075,25.957,4.347,51.9,6.429,77.857q1.588,19.785,3.378,39.567c.219,2.378.446,4.789.681,7.2a50.041,50.041,0,0,1-18.734-.662c-10.822-47.5-24.011-94.492-34.342-142.1-11.115-51.205-19.793-103.338-22.009-155.78,24.067,9.42,51.039,10.321,76.737,12.533,14.1,1.215,29.232,2.307,42.8-2.545,9.594-3.432,13.038-11.305,14.028-20.117,2,4.991,4.418,9.8,6.524,14.8a1.568,1.568,0,0,0,1.291,1.063C491.321,862.874,485.906,916.856,478.709,970.907ZM491.429,749c4.218,11.26,7.906,22.556,9.425,34.527a137.685,137.685,0,0,1,.753,19.406,32.133,32.133,0,0,1-5.054,1.885l-2.725-1.465c-2.821-6.317-5.936-12.5-7.73-19.209a1.5,1.5,0,0,0-2.924.393c.072,6.086-.111,12.1-2.932,17.638-3.428,6.716-12,8.636-18.77,9.828-13.424,2.361-27.661.446-41.107-.786-14.117-1.3-28.182-1.876-42.165-4.458a148.964,148.964,0,0,1-26.072-7.448l-2.09-.831q-3.1-1.226-6.161-2.563c-1.859-19.056-2.82-38.147-.69-57.475,2.267-20.563,7.293-40.768,12.182-60.833,3.162-12.966,10.152-30.2,5.113-43.616-.784-6.4-2.84-12.933-4.347-19.082a98.159,98.159,0,0,1-2.815-25.136c-.027-13.431,5.243-29.022,15.206-46.527a.717.717,0,0,0-1.237-.725,90.225,90.225,0,0,0-12.166,22.486s-4.43,15.084-5.052,22.6A89.61,89.61,0,0,0,351.7,610.88c.566,3.127,1.124,6.449,1.765,9.8-4.467-1.714-9.244-2.839-13.718-4.417-.979-.348-2.922-1.049-2.922-1.049-.021-.717-5.214-1.834-7.138-2.478,6.488-19.854,12.152-39.8,21.032-58.948,4.685-10.108,10.448-21.155,17.983-30.366l1.988-2.346a55.611,55.611,0,0,1,18.537-14.211c2.3,5.824,3.359,11.893.951,18.425-.355.96.951,2.021,1.8,1.38a37.431,37.431,0,0,0,8.96-10c3.485,12.124,11.811,22.795,25.262,15.751,9.577-5.016,19.328-17.772,20.823-28.948a18.9,18.9,0,0,0,1.972.812c-2.446,4.926-5.242,9.712-7.969,14.329l-.9,1.518,2.95.127a34.31,34.31,0,0,0,14.634-3.116c3.734-1.683,7.246-3.55,10.767-5.184,9.894,5.243,18.582,13.223,25.7,22.572l2.347,3.209a107.4,107.4,0,0,1,17.065,39.148c3.308,16.149,1.021,33.026-1.481,49.1-1.535,9.878-3.23,19.589-5.286,29.236-9.486-8.687-21.084-15.029-33.013-16.083-1.384-.122-.964,2.331.653,1.7l.913.791a36.4,36.4,0,0,1-1.346,4.043c-8.612-10.594,2.268-29.328,4.946-40.718,1.655-7.036,1.113-14.642,1.324-21.815.289-9.93.58-19.886,1.777-29.756.12-.966-1.554-1.191-1.7-.23a301.21,301.21,0,0,0-2.9,29.986c-.467,9.788-.627,19.028-3.5,28.45-2.941,9.661-12.34,28.921-1.223,36.7a12.617,12.617,0,0,1-7,5.92s-22.808,4.191-52.961-13.1c0,0,.134-9.381-6.03-12.329,0,0-5.5-3.886-11.927-13,0,0-4.155-4.825-6.7-2.949,0,0-3.886,1.877-3.886,8.979,0,0,1.34,6.969,3.35,8.979,0,0-11.891,3.415-17.675,1.863a5.106,5.106,0,0,0-6.259,3,6.033,6.033,0,0,0,.812,5.256c2.822,4.719,1.721,8.379,2.087,13.369a5.388,5.388,0,0,0,3.23,4.5c.594.316,2.713.136,2.563,1.414a8.992,8.992,0,0,0,.986,4.389,12.929,12.929,0,0,0,7.814,5.736c.414.12,1.391.344,1.816.428,5.7.075,11.683-1.662,17.845-4.577,3.315-1.738,3.575-1.249,5.416-.278a276.91,276.91,0,0,0,27.12,13.786c14,4.616,22.423,8.171,37.029,10.374a45.31,45.31,0,0,0,9.032.676C475.237,710.334,484.72,731.07,491.429,749ZM481.2,687.6a1.116,1.116,0,0,0-.7.079c-6.171.612-12.924-1.283-18.5-2.74-20.154-5.264-39.222-11.389-57.278-22a.725.725,0,0,0-.868-.186c-7.221,3.769-30.675,12.148-28.781-4.59a1.237,1.237,0,0,0-1.233-1.233c-6.912-.3-4.344-9.715-5.718-13.92-.727-2.247-2.352-4-3.251-6.161-1.213-2.914,2.777-2.932,3.575-2.611,6.559,2.641,16.237,2.173,22.584-.882a2.69,2.69,0,0,0,.423-2.68,17.851,17.851,0,0,1-4.174-7.248c-.462-1.557-.213-9.6,3.53-7.268,2.7,1.684,4.7,4.983,6.665,7.411a40.9,40.9,0,0,0,6.77,6.331c3.964,3.1,5.391,6.5,5.309,11.419a.761.761,0,0,0,.026.705.51.51,0,0,0,.308.349c9.621,9,26.565,12.889,39.05,14.969,6.289,1.047,13.047,1.479,19.162-.621,6.195-2.124,8.216-8.287,9.783-14.065,9.024,3.724,17.42,7.218,25.181,13.789-.827,10.744-5.62,23.116-15.225,28.923A16.886,16.886,0,0,1,481.2,687.6Z"/><polygon class="cls-3" points="152.615 529.443 168.309 560.046 174.064 557.954 187.793 565.597 189.758 554.553 180.341 535.197 167.263 527.089 152.615 529.443"/><polygon class="cls-10" points="119.771 521.189 121.227 537.028 140.322 549.584 145.814 550.892 154.045 544.958 152.354 532.059 140.982 524.406 119.771 521.189"/><path class="cls-3" d="M167.707,437.275a1.656,1.656,0,0,0-2.3.654,5.465,5.465,0,0,0-.262,2.889,20.423,20.423,0,0,0,.291,3.021c1.356.337,3.5-.336,3.724-2.059A5.912,5.912,0,0,0,167.707,437.275Z"/><path class="cls-3" d="M107.1,443.184c1.356.336,2.644.183,3.225-1.433s-.306-3.068-1-4.451c0-.009,0-.016,0-.025a1.658,1.658,0,0,0-2.3.654,5.455,5.455,0,0,0-.261,2.889A13.631,13.631,0,0,0,107.1,443.184Z"/><path class="cls-9" d="M191.934,392.237q.4.952.782,1.9Q192.331,393.188,191.934,392.237Z"/><path class="cls-9" d="M190.762,389.491q.444,1.016.874,2.036Q191.207,390.507,190.762,389.491Z"/><path class="cls-9" d="M192.984,394.8q.5,1.254.991,2.507Q193.488,396.054,192.984,394.8Z"/><path class="cls-9" d="M137.169,370.357q-.167.691-.343,1.381C136.944,371.278,137.057,370.818,137.169,370.357Z"/><path class="cls-9" d="M155.111,384.254c-.4-.5-.8-1-1.193-1.506C154.315,383.251,154.707,383.757,155.111,384.254Z"/><path class="cls-9" d="M188.176,383.879q1.244,2.547,2.38,5.139Q189.418,386.429,188.176,383.879Z"/><path class="cls-9" d="M152.322,380.687q-.792-1.047-1.568-2.105Q151.529,379.641,152.322,380.687Z"/><path class="cls-9" d="M136.122,374.305c-.086.3-.17.589-.259.883C135.953,374.894,136.036,374.6,136.122,374.305Z"/><path class="cls-9" d="M135.506,376.307c-.069.212-.134.425-.205.636C135.372,376.732,135.437,376.519,135.506,376.307Z"/><path class="cls-9" d="M136.668,372.336q-.146.556-.3,1.111C136.472,373.077,136.57,372.706,136.668,372.336Z"/><path class="cls-9" d="M185.44,378.609q.642,1.161,1.255,2.338Q186.082,379.771,185.44,378.609Z"/><path class="cls-9" d="M186.9,381.344q.572,1.1,1.119,2.22Q187.473,382.448,186.9,381.344Z"/><path class="cls-9" d="M61.239,396.106c.07-1.175.162-2.343.269-3.506C61.4,393.764,61.309,394.931,61.239,396.106Z"/><path class="cls-13" d="M212.781,507.555c-.607-12.574-1.4-25.143-2.685-37.664-2.545-24.7-7.107-49.369-16.121-72.584q-.487-1.253-.991-2.507l-.268-.658q-.386-.954-.782-1.9-.148-.354-.3-.71-.429-1.02-.874-2.036c-.069-.158-.136-.316-.206-.473q-1.14-2.589-2.38-5.139c-.051-.105-.1-.209-.156-.315q-.548-1.114-1.119-2.22l-.206-.4q-.613-1.176-1.255-2.338l-.064-.118q-.71-1.278-1.453-2.534c.008.026.015.053.023.079a78.925,78.925,0,0,0-8.152-11.494c-8.02-9.273-18.654-15.647-30.292-19.31-11.958-3.757-24.6-4.623-37.064-4.03-6.247.3-13.106.447-19.156,2.1-6.521,1.785-11.127,7.422-14.976,12.668a65.388,65.388,0,0,0-11.048,25.117l0-.009c-.024.108-.043.217-.066.325q-.216,1.007-.408,2.02c-.036.191-.073.381-.107.572q-.193,1.056-.36,2.121c-.026.162-.053.324-.078.487q-.174,1.149-.321,2.307c-.014.111-.031.222-.045.334-.11.891-.211,1.785-.3,2.683-.022.225-.044.449-.064.674-.107,1.163-.2,2.331-.269,3.506-.718,12.08-.159,24.16-1.353,36.192a6.457,6.457,0,0,1,4.5-1.511c4.634.121,9.491,2.819,12.769,6.576.17-1.2.275-2.409.373-3.62a27,27,0,0,1-4.417-2.343.442.442,0,0,1,.339-.8,25.547,25.547,0,0,1,4.226,1.234,134.039,134.039,0,0,0,0-13.418l-.088-2.181,1.821-.138c6.462-.5,12.819-1.158,18.983-3.862,7.536-3.311,14.222-8.419,20.735-13.381,7.133-5.437,12.377-11.69,15.549-20.149.218-.583.424-1.169.623-1.757.071-.211.136-.424.205-.636.121-.372.243-.745.357-1.119.089-.294.173-.588.259-.883s.168-.571.248-.858q.153-.555.3-1.111.079-.3.158-.6.176-.69.343-1.381c.022-.09.044-.18.065-.27.5-2.087.946-4.187,1.382-6.29l.774-3.716,1.128,2.073c1.608,2.982,3.218,5.966,5.039,8.83.8,1.256,1.626,2.492,2.468,3.718l-.017-.012c.583.858,1.184,1.7,1.785,2.549.319.448.637.9.961,1.343q.774,1.06,1.568,2.105t1.6,2.061c.4.5.79,1.009,1.193,1.506.993,1.224,2,2.436,3.033,3.626,4.642,5.342,9.66,10.685,15.359,14.916a54.585,54.585,0,0,0,11.9,6.5c-.133-.789-.251-1.577-.386-2.369a.565.565,0,0,1,1.088-.3c.32,1.1.582,2.208.871,3.312l.493,1.877c3.807,15.516,4.653,31.933,3.548,47.773a175.615,175.615,0,0,1-3.727,25.849c-1.757,7.909-4.073,15.926-8.659,22.71A31.638,31.638,0,0,1,164.061,520.2a83.05,83.05,0,0,1-16.243,4.535c11.263,1.048,22.578.144,33.969-.295,7-.269,13.908-.6,20.673-2.569a60.041,60.041,0,0,0,10.849-4.47C213.135,514.109,212.938,510.821,212.781,507.555Z"/><path class="cls-13" d="M99.447,505.457a123.146,123.146,0,0,1-22.936-36.864,15.4,15.4,0,0,1-10.829-.761,15.942,15.942,0,0,1-7-6.643c-.111,4.5-.522,9.037-.643,13.5-.188,6.8-.221,13.607-.044,20.41.161,6.216.667,12.4,1.208,18.586A128.749,128.749,0,0,0,73.16,519.84a105.394,105.394,0,0,0,19.28,5.112c7.331,1.182,14.522.972,21.9.844a7.994,7.994,0,0,1,5.431-1.985c-.016-.885-.021-1.767,0-2.622A67.906,67.906,0,0,1,99.447,505.457Z"/><path class="cls-14" d="M139.014,525.624c.059.4.134.795.22,1.191C139.149,526.419,139.073,526.022,139.014,525.624Z"/><path class="cls-14" d="M101.917,414.484c.088-.08.176-.16.269-.235C102.093,414.324,102.005,414.4,101.917,414.484Z"/><path class="cls-14" d="M143.567,522.728c-.316.04-.631.086-.947.12C142.936,522.814,143.251,522.768,143.567,522.728Z"/><path class="cls-14" d="M146.171,522.343c-.5.086-1,.17-1.5.243C145.174,522.513,145.673,522.428,146.171,522.343Z"/><path class="cls-14" d="M148.478,521.913c-.594.121-1.189.237-1.785.344C147.289,522.15,147.884,522.034,148.478,521.913Z"/><path class="cls-14" d="M101.505,414.888c.068-.073.134-.15.206-.22C101.639,414.738,101.573,414.815,101.505,414.888Z"/><path class="cls-14" d="M100.291,416.629l.065-.122Z"/><path class="cls-14" d="M100.93,415.583c.039-.054.081-.1.121-.157C101.011,415.479,100.969,415.529,100.93,415.583Z"/><path class="cls-14" d="M100.036,417.16c.01-.023.02-.046.031-.069Z"/><path class="cls-14" d="M93.5,449.044c-.026-.035-.048-.073-.074-.108C93.452,448.971,93.474,449.009,93.5,449.044Z"/><path class="cls-14" d="M95.632,451.067c-.122-.085-.239-.176-.357-.266C95.393,450.891,95.51,450.982,95.632,451.067Z"/><path class="cls-14" d="M94.477,450.133c-.067-.063-.128-.131-.193-.2C94.348,450,94.41,450.07,94.477,450.133Z"/><path class="cls-14" d="M82.433,435.729c.5.205,1.03.443,1.574.692C83.464,436.172,82.935,435.933,82.433,435.729Z"/><path class="cls-14" d="M127.483,449.58a8.82,8.82,0,0,1-.554.748A8.609,8.609,0,0,0,127.483,449.58Z"/><path class="cls-14" d="M128.419,447.643a8.38,8.38,0,0,1-.368.905A8.677,8.677,0,0,0,128.419,447.643Z"/><path class="cls-14" d="M164.042,455c-.007,0-.012-.011-.019-.015S164.035,454.994,164.042,455Z"/><path class="cls-14" d="M186.746,451.165c-.118.2-.262.419-.419.643C186.483,451.584,186.628,451.366,186.746,451.165Z"/><path class="cls-14" d="M127.937,448.781a8.208,8.208,0,0,1-.44.776A8.208,8.208,0,0,0,127.937,448.781Z"/><path class="cls-14" d="M100.59,416.1c.031-.05.063-.1.095-.149C100.653,416,100.621,416.048,100.59,416.1Z"/><path class="cls-14" d="M104.133,413.234c.145-.044.3-.078.449-.11C104.43,413.156,104.278,413.19,104.133,413.234Z"/><path class="cls-14" d="M102.763,417.811a6.633,6.633,0,0,1,.771-.975A6.633,6.633,0,0,0,102.763,417.811Z"/><path class="cls-14" d="M107.119,413.085c.033,0,.066.013.1.019Z"/><path class="cls-14" d="M104.8,413.077a6.363,6.363,0,0,1,.709-.085A6.363,6.363,0,0,0,104.8,413.077Z"/><path class="cls-14" d="M106.29,412.993c.054,0,.109.012.164.016C106.4,413.005,106.344,413,106.29,412.993Z"/><path class="cls-14" d="M105.182,415.856a3.544,3.544,0,0,1,.429-.079A3.544,3.544,0,0,0,105.182,415.856Z"/><path class="cls-14" d="M105.815,415.749a4.425,4.425,0,0,1,.71,0A4.425,4.425,0,0,0,105.815,415.749Z"/><path class="cls-14" d="M104.614,416.061a3.432,3.432,0,0,1,.359-.141A3.432,3.432,0,0,0,104.614,416.061Z"/><path class="cls-14" d="M103.579,416.8a4.1,4.1,0,0,1,.377-.333A4.1,4.1,0,0,0,103.579,416.8Z"/><path class="cls-14" d="M104.1,416.364a3.325,3.325,0,0,1,.336-.211A3.156,3.156,0,0,0,104.1,416.364Z"/><path class="cls-14" d="M103.513,413.458c.124-.053.251-.1.38-.144C103.764,413.358,103.637,413.405,103.513,413.458Z"/><path class="cls-14" d="M102.938,413.744c.109-.062.221-.121.335-.177C103.159,413.623,103.047,413.682,102.938,413.744Z"/><path class="cls-14" d="M102.406,414.088c.1-.072.2-.142.3-.207C102.6,413.946,102.5,414.016,102.406,414.088Z"/><path class="cls-15" d="M126.2,451.129c.214-.212.417-.436.614-.667a10.627,10.627,0,0,1-.848.876c.065-.058.134-.112.2-.173A.449.449,0,0,1,126.2,451.129Z"/><path class="cls-15" d="M96.915,451.853h.009l.1.038c-.216-.115-.439-.22-.647-.344C96.557,451.652,96.734,451.756,96.915,451.853Z"/><path class="cls-15" d="M102.41,418.375l.011,0c.108-.181.213-.366.326-.537C102.632,418.01,102.52,418.191,102.41,418.375Z"/><path class="cls-10" d="M188.694,450.9c-1.06,1.812-3.675,4.915-6.13,4.679a32.448,32.448,0,0,0,3.672-3.639,15.193,15.193,0,0,1-1.887,2.152c-5.987,3.23-13.286,2.771-20.087,1.414a.481.481,0,0,1-.461.4c-8.787.8-12.426-7.259-12.636-14.756-2.5-1.993-4.421-3.7-8.116-3.978-3.743-.28-7.093.249-10.181,2.429-.3.216-.568-.186-.45-.451,2.5-5.863,14.516-6.1,18.832-1.255.193-3.181.642-6.713,3.706-8.3,3.977-2.058,10.012-1.407,14.309-1.357,5.4.07,14.41-.419,19,3.568-.49-5.838-1.209-11.666-2.087-17.5-.15-1-.294-1.991-.454-2.987-11.253-3.473-20.422-12.285-28.091-20.926-6.31-7.115-12.878-15.332-17.712-24.115-2.149,12.887-7.253,24.767-18.042,33.2-7.155,5.59-14.631,11.335-23.03,14.923A53.624,53.624,0,0,1,79.6,418.365a118.5,118.5,0,0,1,.024,14.127c0,.042-.006.083-.007.122.938.407,1.868.84,2.8,1.278a75.5,75.5,0,0,0,7.486,3.265c.122-2.969.218-6.823,2.981-8.377,4-2.245,11.049-1.1,15.4-.925,5.07.206,10.5.45,15.448,1.691,3.253.814,5.99,2.452,6.824,5.872.961,3.97,1.031,10.165-.639,14.012-1.509,3.481-5.554,5.58-9.091,6.322a.3.3,0,0,1-.228-.537c1.63-1.189,3.352-2.179,4.822-3.413-7.519,6.076-20.11,3.163-28.383.09a27.165,27.165,0,0,0,4.894,1.913c.513.155.448,1.051-.132.98-3.776-.451-7.307-1.508-9.8-4.542-2.69-3.276-2.41-7.716-2.165-11.729a16.027,16.027,0,0,1-4.089-1.309c-.591-.259-1.171-.526-1.733-.784-.544-.249-1.072-.487-1.574-.692-.971-.393-1.962-.781-2.953-1.178-.119,1.735-.269,3.482-.532,5.228l-.469,2.565-1.766-2.319c-2.518-3.068-5.54-5.584-9.665-6.552-8.543-2.009-8.964,8.56-9,14.568-.033,6.213,1.859,13.167,7.4,16.72a12.154,12.154,0,0,0,10.089,1.386l2.057-.708.974,2.362a131.779,131.779,0,0,0,17.594,30c6.484,8.228,14.355,16.032,23.747,20.765l1.726.824a41.877,41.877,0,0,0,11.441,3.4,35.354,35.354,0,0,0,5.782.319l1.659-.082c.7-.044,1.4-.105,2.1-.179.316-.034.631-.08.947-.12.369-.046.739-.088,1.107-.142.5-.073,1-.157,1.5-.243.174-.029.348-.055.522-.086.6-.107,1.191-.223,1.785-.344l.174-.035c2.994-.617,5.966-1.4,8.91-2.191,7.7-2.077,13.884-5.663,18.574-12.246,4.459-6.25,6.725-13.77,8.443-21.168a172.464,172.464,0,0,0,3.906-25.125c.288-3.6.425-7.193.475-10.767C188.868,450.549,188.791,450.738,188.694,450.9Zm-22.326-38.312c5.175-1.676,9.71,3.246,12.467,7.084.215.3-.214.728-.517.512-2.359-1.651-5.042-4.655-7.948-5.291-5-1.088-6.814,3.574-8.168,7.1a.864.864,0,0,1-1.558.2C158.314,418,162.58,413.813,166.368,412.585Zm-51.9,7.879c-2.1-1.765-5.079-4.484-7.938-4.715a6.808,6.808,0,0,1,2.289.659c-.457.148-.91.305-1.376.443-1.677.5-3.362.992-5.017,1.521a18.964,18.964,0,0,1-2.02,3.122.788.788,0,0,1-1.333-.551,13.377,13.377,0,0,1,.231-1.485,11.536,11.536,0,0,1,.737-2.3l.031-.069c.071-.157.146-.31.224-.462l.065-.122c.075-.138.152-.275.234-.409.031-.05.063-.1.095-.149.08-.124.16-.248.245-.366.039-.054.081-.1.121-.157a6.9,6.9,0,0,1,.454-.538c.068-.073.134-.15.206-.22s.137-.123.206-.184c.088-.08.176-.16.269-.235.071-.056.146-.108.22-.161.1-.072.2-.142.3-.207.075-.048.153-.092.231-.137.109-.062.221-.121.335-.177.079-.038.159-.075.24-.109.124-.053.251-.1.38-.144.079-.028.158-.056.24-.08.145-.044.3-.078.449-.11.072-.016.141-.035.215-.047a6.363,6.363,0,0,1,.709-.085,6.837,6.837,0,0,1,.784,0c.054,0,.109.012.164.016.22.017.441.041.665.076l.1.019a12.223,12.223,0,0,1,4.886,2.133,10.973,10.973,0,0,1,3.679,4.209A.845.845,0,0,1,114.463,420.464ZM74.5,454.869a.563.563,0,0,1-1.077,0c-.585-2.482-1.087-6.429-3.141-8.171-3.118-2.647-4.892,1.819-6.606,3.452a.646.646,0,0,1-1.07-.283c-1.38-4.036,3.933-7.726,7.511-6.514C74.117,444.707,75.1,451.321,74.5,454.869Zm72.948,18.9c-.822.329-1.232-.918-.575-1.363,1.527-1.027,4.832-2.824,5.424-4.778.77-2.548-1.167-3-2.5-4.191a12.448,12.448,0,0,1-3.44-5.468,29.428,29.428,0,0,1-.307-18.625c.131-.4.817-.363.774.106a45.75,45.75,0,0,0,.406,13.854,18.632,18.632,0,0,0,2.636,7.013c1.139,1.576,2.766,2.364,4.068,3.746C157.332,467.664,150.478,472.562,147.444,473.766Z"/><path class="cls-10" d="M125.969,451.338c-.176.164-.372.309-.557.464.059-.048.124-.084.183-.133C125.721,451.56,125.844,451.448,125.969,451.338Z"/><path class="cls-16" d="M184.349,454.089a15.193,15.193,0,0,0,1.887-2.152c.03-.044.062-.087.091-.129.157-.224.3-.442.419-.643a15.3,15.3,0,0,0,1.624-4.713c.188-.961.392-2.147.543-3.4q-.1-3.589-.328-7.174c-2.417-6.334-13.828-5.377-19.32-5.437-2.832-.029-5.675.014-8.5.241-2.622.213-5.379.131-6.735,3.282-.55,1.279-.574,3.717-.654,5.166-.423,7.469,1.885,14.889,10.421,15.782a.575.575,0,0,1,.222.071c.007,0,.012.01.019.015a.524.524,0,0,1,.256.511C171.1,456.868,178.362,457.319,184.349,454.089Zm-12.584-10.05c.121,2.565-.946,7.733-4.6,5.1-3.127-2.246-4.4-7.2-3.691-10.825.525-2.7,2.841-3.752,4.733-2.658a3.26,3.26,0,0,1,1.195.826,3.483,3.483,0,0,0,1.172-.962c.687-.852.886-1.967,1.524-2.83a.37.37,0,0,1,.681.185,6.06,6.06,0,0,1-1.345,3.745,4.873,4.873,0,0,1-1.159,1.066,11.81,11.81,0,0,1,1.053,3.027,3.281,3.281,0,0,0,1.117-.776,7.664,7.664,0,0,0,1.5-2.331c.157-.4.883-.4.824.111a6.22,6.22,0,0,1-1.167,3.417,4.563,4.563,0,0,1-1.957,1.407C171.7,443.1,171.745,443.609,171.765,444.039Z"/><path class="cls-16" d="M96.924,451.854c8.337,3.111,21.143,6.106,28.671-.185.191-.166.389-.325.569-.5a.449.449,0,0,1,.039-.036c.214-.212.417-.436.614-.667.038-.044.075-.089.112-.134a8.82,8.82,0,0,0,.554-.748l.014-.023a8.208,8.208,0,0,0,.44-.776c.039-.077.077-.154.114-.233a8.38,8.38,0,0,0,.368-.905c.962-2.884.892-8.764.058-11.655-1.867-6.454-14.168-5.679-19.38-5.924q-4.93-.231-9.86-.066c-2.3.081-3.959-.146-5.59,1.584-1.55,1.643-1.373,3.65-1.536,5.8-.244,3.228-.839,7.423.615,10.4a7.94,7.94,0,0,0,.7,1.152c.026.035.048.073.074.108a8.461,8.461,0,0,0,.784.893c.065.065.126.133.193.2a10,10,0,0,0,.8.668c.118.09.235.181.357.266.242.17.494.328.75.481.175.1.352.208.533.305Zm8.145-13.465a.337.337,0,0,1,.012-.072,7.41,7.41,0,0,1,.443-1.253l1.129-1.106s2.073-.927,3.162-.3c2.744.982,3.445,5.951,3.56,8.38.119,2.565-.946,7.733-4.6,5.1-2.684-1.927-3.866-9.2-3.866-9.2Z"/><path class="cls-14" d="M105.611,415.777a3.544,3.544,0,0,0-.429.079c-.072.018-.14.042-.209.064a3.432,3.432,0,0,0-.359.141c-.062.029-.124.059-.183.092a3.325,3.325,0,0,0-.336.211c-.046.032-.094.063-.139.1a4.1,4.1,0,0,0-.377.333c-.015.014-.031.027-.045.041a6.633,6.633,0,0,0-.771.975l-.016.024c-.115.175-.227.356-.337.54,1.659-.53,3.347-1.022,5.028-1.524.466-.138.919-.3,1.376-.443a6.808,6.808,0,0,0-2.289-.659,4.425,4.425,0,0,0-.71,0C105.744,415.754,105.68,415.768,105.611,415.777Z"/><path class="cls-11" d="M70.113,443.353c-3.578-1.212-8.891,2.478-7.511,6.514a.646.646,0,0,0,1.07.283c1.714-1.633,3.488-6.1,6.606-3.452,2.054,1.742,2.556,5.689,3.141,8.171a.563.563,0,0,0,1.077,0C75.1,451.321,74.117,444.707,70.113,443.353Z"/><path class="cls-11" d="M149.8,463.434c1.329,1.19,3.266,1.643,2.5,4.191-.592,1.954-3.9,3.751-5.424,4.778-.657.445-.247,1.692.575,1.363,3.034-1.2,9.888-6.1,6.49-9.706-1.3-1.382-2.929-2.17-4.068-3.746a18.632,18.632,0,0,1-2.636-7.013,45.75,45.75,0,0,1-.406-13.854c.043-.469-.643-.506-.774-.106a29.428,29.428,0,0,0,.307,18.625A12.448,12.448,0,0,0,149.8,463.434Z"/><path class="cls-11" d="M104.905,439.94s-.4,6.121,3.866,9.2c3.652,2.639,4.723-2.538,4.6-5.1-.115-2.429-.816-7.4-3.56-8.38a3.31,3.31,0,0,0-2.394-.277,3.218,3.218,0,0,0-1.205.856l-.692.826a7.41,7.41,0,0,0-.443,1.253C105.072,438.341,104.905,439.94,104.905,439.94Zm2.112-2.011a1.658,1.658,0,0,1,2.3-.654c0,.009,0,.016,0,.025.7,1.383,1.585,2.845,1,4.451l-.017.048a1.839,1.839,0,0,1-3.526-.589c-.011-.135-.02-.266-.027-.392A5.455,5.455,0,0,1,107.017,437.929Z"/><path class="cls-11" d="M173.592,441.137a6.22,6.22,0,0,0,1.167-3.417c.059-.512-.667-.507-.824-.111a7.664,7.664,0,0,1-1.5,2.331,3.281,3.281,0,0,1-1.117.776,13.758,13.758,0,0,0-.658-2.183,1.242,1.242,0,0,1,.272-1.371,4.782,4.782,0,0,0,.492-.539,6.06,6.06,0,0,0,1.345-3.745.37.37,0,0,0-.681-.185c-.638.863-.837,1.978-1.524,2.83-.08.1-.165.194-.255.286a1.221,1.221,0,0,1-1.544.143,2.506,2.506,0,0,0-.568-.293c-1.892-1.094-4.208-.043-4.733,2.658-.711,3.625.564,8.579,3.691,10.825,3.659,2.63,4.726-2.538,4.6-5.1-.009-.194-.023-.4-.041-.629a1.308,1.308,0,0,1,.656-1.223A4.506,4.506,0,0,0,173.592,441.137Zm-4.873.614a2.133,2.133,0,0,1-2.181,1.579,1.279,1.279,0,0,1-1.233-1.074,12.728,12.728,0,0,1-.16-1.438,5.465,5.465,0,0,1,.262-2.889,1.656,1.656,0,0,1,2.3-.654c0,.009,0,.016,0,.025C168.407,438.683,169.3,440.145,168.719,441.751Z"/><path class="cls-11" d="M107.218,413.1c-.033-.006-.066-.014-.1-.019-.223-.036-.445-.059-.665-.076-.055,0-.11-.013-.164-.016a6.617,6.617,0,0,0-.784,0,6.363,6.363,0,0,0-.709.085c-.073.012-.143.031-.215.047-.152.032-.3.066-.449.11-.082.024-.161.052-.24.08-.129.044-.256.091-.38.144-.081.034-.161.071-.24.109-.114.056-.226.115-.335.177-.078.045-.156.089-.231.137-.1.065-.2.135-.3.207-.074.053-.149.1-.22.161-.093.075-.181.155-.269.235-.069.061-.14.12-.206.184s-.138.147-.206.22c-.159.171-.311.35-.454.538-.04.053-.082.1-.121.157-.085.118-.165.242-.245.366-.032.05-.064.1-.095.149-.082.134-.159.271-.234.409l-.065.122c-.078.152-.153.305-.224.462-.011.023-.021.046-.031.069a11.65,11.65,0,0,0-.734,2.3h0a13.377,13.377,0,0,0-.231,1.485.788.788,0,0,0,1.333.551,28.477,28.477,0,0,0,2.346-3.659l.016-.024a6.633,6.633,0,0,1,.771-.975c.014-.014.03-.027.045-.041a4.1,4.1,0,0,1,.377-.333c.045-.035.093-.066.139-.1a3.156,3.156,0,0,1,.336-.211c.059-.033.121-.063.183-.092a3.432,3.432,0,0,1,.359-.141c.069-.022.137-.046.209-.064a3.544,3.544,0,0,1,.429-.079c.068-.009.133-.023.2-.028a4.425,4.425,0,0,1,.71,0c2.859.231,5.837,2.95,7.938,4.715a.845.845,0,0,0,1.32-1.018,10.973,10.973,0,0,0-3.679-4.209l-.025.01A12.347,12.347,0,0,0,107.218,413.1Z"/><path class="cls-11" d="M102.707,413.881c.075-.048.153-.092.231-.137C102.86,413.789,102.782,413.833,102.707,413.881Z"/><path class="cls-11" d="M101.051,415.426c.143-.188.3-.367.454-.538A6.9,6.9,0,0,0,101.051,415.426Z"/><path class="cls-11" d="M102.186,414.249c.071-.056.146-.108.22-.161C102.332,414.141,102.257,414.193,102.186,414.249Z"/><path class="cls-11" d="M101.711,414.668c.066-.064.137-.123.206-.184C101.848,414.545,101.777,414.6,101.711,414.668Z"/><path class="cls-11" d="M112.079,415.247l.025-.01a12.223,12.223,0,0,0-4.886-2.133A12.347,12.347,0,0,1,112.079,415.247Z"/><path class="cls-11" d="M100.067,417.091c.071-.157.146-.31.224-.462C100.213,416.781,100.138,416.934,100.067,417.091Z"/><path class="cls-11" d="M106.454,413.009c.22.017.442.04.665.076C106.9,413.05,106.674,413.026,106.454,413.009Z"/><path class="cls-11" d="M103.273,413.567c.079-.038.159-.075.24-.109C103.432,413.492,103.352,413.529,103.273,413.567Z"/><path class="cls-11" d="M104.582,413.124c.072-.016.142-.035.215-.047C104.723,413.089,104.654,413.108,104.582,413.124Z"/><path class="cls-11" d="M100.036,417.16a11.536,11.536,0,0,0-.737,2.3h0A11.65,11.65,0,0,1,100.036,417.16Z"/><path class="cls-11" d="M105.506,412.992a6.617,6.617,0,0,1,.784,0A6.837,6.837,0,0,0,105.506,412.992Z"/><path class="cls-11" d="M103.893,413.314c.079-.028.158-.056.24-.08C104.051,413.258,103.972,413.286,103.893,413.314Z"/><path class="cls-11" d="M100.356,416.507c.075-.138.152-.275.234-.409C100.508,416.232,100.431,416.369,100.356,416.507Z"/><path class="cls-11" d="M100.685,415.949c.08-.124.16-.248.245-.366C100.845,415.7,100.765,415.825,100.685,415.949Z"/><path class="cls-11" d="M104.973,415.92c.069-.022.137-.046.209-.064C105.11,415.874,105.042,415.9,104.973,415.92Z"/><path class="cls-11" d="M105.611,415.777c.069-.009.133-.023.2-.028C105.744,415.754,105.679,415.768,105.611,415.777Z"/><path class="cls-11" d="M104.431,416.153c.059-.033.121-.063.183-.092C104.552,416.09,104.49,416.12,104.431,416.153Z"/><path class="cls-11" d="M103.534,416.836c.014-.014.03-.027.045-.041C103.564,416.809,103.548,416.822,103.534,416.836Z"/><path class="cls-11" d="M103.956,416.462c.045-.035.093-.066.139-.1C104.049,416.4,104,416.427,103.956,416.462Z"/><path class="cls-11" d="M102.747,417.835l.016-.024Z"/><path class="cls-11" d="M162.2,421.985c1.354-3.521,3.167-8.183,8.168-7.1,2.906.636,5.589,3.64,7.948,5.291.3.216.732-.211.517-.512-2.757-3.838-7.292-8.76-12.467-7.084-3.788,1.228-8.054,5.415-5.724,9.6A.864.864,0,0,0,162.2,421.985Z"/><path class="cls-17" d="M215.537,516.214q-.31-7.347-.7-14.69c-.806-15.126-1.951-30.241-3.986-45.255C207.332,430.258,201.168,404,189.13,380.5c-5.378-10.493-12.344-20.207-21.93-27.239-9.731-7.138-21.391-11.4-33.239-13.355-13.56-2.239-27.644-1.777-41.221.152C81.379,341.676,74.252,350.5,68.6,359.892c-13.754,22.854-8.913,49.658-10.7,74.987-1.821,3.472-2.171,8.4-2.329,11.715a29.431,29.431,0,0,0,1.606,11.337c-.948,5.489-1.025,11.251-1.246,16.756-.272,6.8-.3,13.608-.166,20.41.119,5.611.248,11.361.58,17.1l.2,3.226,2.941,1.406c4.532,2.106,9.13,4.013,13.738,5.654,12.12,4.318,26.666,7.573,39.612,4.941-.005.007-.008.015-.013.021a.788.788,0,0,0-.261.1l9.12-.413c-.535-2.684-.193-2.446-.13-5.138a41.693,41.693,0,0,0,16.957,3.618c.151,0,2.757.746,2.757.746s11.43,1.718,17.162,1.619c8.34-.144,16.68-.614,25.011-.953,10.362-.422,20.954-2.032,30-6.981l2.2-1.293Zm-95.768,7.6a7.994,7.994,0,0,0-5.431,1.985c-7.376.128-14.567.338-21.9-.844a105.394,105.394,0,0,1-19.28-5.112,128.749,128.749,0,0,1-13.952-6.157C58.667,507.5,58.161,501.313,58,495.1c-.177-6.8-.144-13.606.044-20.41.121-4.461.532-9,.643-13.5a15.942,15.942,0,0,0,7,6.643,15.4,15.4,0,0,0,10.829.761,123.146,123.146,0,0,0,22.936,36.864,67.906,67.906,0,0,0,20.324,15.732C119.748,522.044,119.753,522.926,119.769,523.811Zm26.4-1.468c-.5.085-1,.17-1.5.243-.368.054-.738.1-1.107.142-.316.04-.631.086-.947.12-.7.075-1.4.136-2.1.179l-1.659.082a35.354,35.354,0,0,1-5.782-.319,41.877,41.877,0,0,1-11.441-3.4l-1.726-.824c-9.392-4.733-17.263-12.537-23.747-20.765a131.779,131.779,0,0,1-17.594-30l-.974-2.362-2.057.708a12.154,12.154,0,0,1-10.089-1.386c-5.54-3.553-7.432-10.507-7.4-16.72.036-6.008.457-16.577,9-14.568,4.125.968,7.147,3.484,9.665,6.552l1.766,2.319.469-2.565c.263-1.746.413-3.493.532-5.228.991.4,1.982.785,2.953,1.178.5.2,1.031.443,1.574.692.562.258,1.142.526,1.733.784a16.027,16.027,0,0,0,4.089,1.309c-.245,4.013-.525,8.453,2.165,11.729,2.49,3.034,6.021,4.091,9.8,4.542.58.071.645-.825.132-.98a24.794,24.794,0,0,1-5.541-2.257c-.256-.153-.507-.311-.75-.481-.122-.085-.239-.176-.357-.266a9.8,9.8,0,0,1-.8-.668c-.067-.063-.129-.131-.193-.2a8.363,8.363,0,0,1-.784-.893c-.026-.035-.048-.073-.074-.108a7.8,7.8,0,0,1-.7-1.152c-1.454-2.981-.859-7.176-.615-10.4.163-2.148-.014-4.155,1.536-5.8,1.631-1.73,3.291-1.5,5.59-1.584q4.931-.163,9.86.066c5.212.245,17.513-.53,19.38,5.924.834,2.891.9,8.771-.058,11.655a8.677,8.677,0,0,1-.368.905c-.037.079-.075.156-.114.233a8.208,8.208,0,0,1-.44.776l-.014.023a8.609,8.609,0,0,1-.554.748c-.037.045-.074.09-.112.134-1.663,1.96-4.046,3.161-6.227,4.753a.3.3,0,0,0,.228.537c3.537-.742,7.582-2.841,9.091-6.322,1.67-3.847,1.6-10.042.639-14.012-.834-3.42-3.571-5.058-6.824-5.872-4.95-1.241-10.378-1.485-15.448-1.691-4.35-.174-11.4-1.32-15.4.925-2.763,1.554-2.859,5.408-2.981,8.377a75.5,75.5,0,0,1-7.486-3.265c-.929-.436-1.858-.871-2.8-1.278,0-.039.007-.08.007-.122a118.5,118.5,0,0,0-.024-14.127A53.624,53.624,0,0,0,98.852,414.4c8.4-3.588,15.875-9.333,23.03-14.923,10.789-8.428,15.893-20.308,18.042-33.2,4.834,8.783,11.4,17,17.712,24.115,7.669,8.641,16.838,17.453,28.091,20.926.161,1,.307,1.991.456,2.987h0c.878,5.833,1.6,11.661,2.087,17.5-4.593-3.987-13.6-3.5-19-3.568-4.3-.05-10.332-.7-14.309,1.357-3.064,1.583-3.513,5.115-3.706,8.3-4.316-4.842-16.336-4.608-18.832,1.255-.118.265.148.667.45.451,3.088-2.18,6.438-2.709,10.181-2.429,3.695.279,5.614,1.985,8.116,3.978.21,7.5,3.849,15.552,12.636,14.756a.481.481,0,0,0,.461-.4s-.047-.392-.22-.5c-.007,0-.012-.011-.019-.015a.564.564,0,0,0-.222-.071c-8.536-.893-10.844-8.313-10.421-15.782.08-1.449.1-3.887.654-5.166,1.356-3.151,4.113-3.069,6.735-3.282,2.821-.227,5.664-.27,8.5-.241,5.492.06,16.9-.9,19.32,5.437q.234,3.583.328,7.174c-.151,1.252-.355,2.438-.543,3.4a15.3,15.3,0,0,1-1.624,4.713c-.118.2-.263.419-.419.643l-.091.129a32.448,32.448,0,0,1-3.672,3.639c2.455.236,5.07-2.867,6.13-4.679.1-.159.174-.348.266-.516-.05,3.574-.187,7.163-.475,10.767a172.464,172.464,0,0,1-3.906,25.125c-1.718,7.4-3.984,14.918-8.443,21.168-4.69,6.583-10.869,10.169-18.574,12.246-2.944.794-5.916,1.574-8.91,2.191h0l-.174.034c-.594.121-1.189.237-1.785.344C146.519,522.288,146.345,522.314,146.171,522.343Zm56.289-.474c-6.765,1.97-13.678,2.3-20.673,2.569-11.391.439-22.706,1.343-33.969.295a83.05,83.05,0,0,0,16.243-4.535,31.638,31.638,0,0,0,14.565-12.053c4.586-6.784,6.9-14.8,8.659-22.71a175.615,175.615,0,0,0,3.727-25.849c1.1-15.84.259-32.257-3.548-47.773l-.493-1.877c-.289-1.1-.551-2.216-.871-3.312a.565.565,0,0,0-1.088.3c.135.792.253,1.58.386,2.369a54.585,54.585,0,0,1-11.9-6.5c-5.7-4.231-10.717-9.574-15.359-14.916-1.034-1.189-2.041-2.4-3.033-3.626-.4-.5-.8-1-1.193-1.506-.537-.683-1.072-1.368-1.6-2.061s-1.051-1.4-1.568-2.105c-.324-.445-.642-.894-.961-1.343-1.461-2.051-2.887-4.128-4.236-6.255-1.821-2.864-3.431-5.848-5.039-8.83l-1.128-2.073-.774,3.716c-.436,2.1-.882,4.2-1.382,6.29-.021.09-.043.18-.065.27-.112.461-.225.921-.343,1.381-.051.2-.1.4-.158.6-.1.37-.2.741-.3,1.111-.08.287-.165.572-.248.858s-.169.589-.259.883c-.114.374-.236.747-.357,1.119-.069.212-.134.425-.205.636q-.3.882-.623,1.757c-3.172,8.459-8.416,14.712-15.549,20.149-6.513,4.962-13.2,10.07-20.735,13.381-6.164,2.7-12.521,3.364-18.983,3.862l-1.821.138.088,2.181a134.039,134.039,0,0,1,0,13.418A25.547,25.547,0,0,0,73.45,430.6a.442.442,0,0,0-.339.8,27,27,0,0,0,4.417,2.343c-.1,1.211-.2,2.418-.373,3.62-3.278-3.757-8.135-6.455-12.769-6.576a6.457,6.457,0,0,0-4.5,1.511c1.194-12.032.635-24.112,1.353-36.192.07-1.175.163-2.342.269-3.506.02-.225.042-.449.064-.674,1.259-12.983,4.853-25.221,12.734-35.957,3.849-5.246,8.455-10.883,14.976-12.668,6.05-1.652,12.909-1.8,19.156-2.1,12.464-.593,25.106.273,37.064,4.03,11.638,3.663,22.272,10.037,30.292,19.31a81.943,81.943,0,0,1,9.582,13.949c.022.039.043.079.064.118q.642,1.161,1.255,2.338l.206.4q.57,1.106,1.119,2.22c.052.106.1.21.156.315q1.242,2.547,2.38,5.139c.07.157.137.315.206.473q.444,1.016.874,2.036.15.356.3.71.4.952.782,1.9c.089.219.179.438.268.658q.5,1.254.991,2.507c9.014,23.215,13.576,47.887,16.121,72.584,1.29,12.521,2.078,25.09,2.685,37.664.157,3.266.354,6.554.528,9.844A60.041,60.041,0,0,1,202.46,521.869Z"/><path class="cls-11" d="M137.234,370.087c-.021.09-.043.18-.065.27C137.191,370.267,137.213,370.177,137.234,370.087Z"/><path class="cls-11" d="M136.826,371.738q-.078.3-.158.6C136.721,372.136,136.775,371.937,136.826,371.738Z"/><path class="cls-11" d="M135.3,376.943c-.2.588-.405,1.174-.623,1.757Q135.005,377.826,135.3,376.943Z"/><path class="cls-11" d="M61.508,392.6c.02-.225.042-.449.064-.674C61.55,392.151,61.528,392.375,61.508,392.6Z"/><path class="cls-11" d="M136.37,373.447c-.08.287-.165.572-.248.858C136.205,374.019,136.29,373.734,136.37,373.447Z"/><path class="cls-11" d="M135.863,375.188c-.114.374-.236.747-.357,1.119C135.627,375.935,135.749,375.562,135.863,375.188Z"/><path class="cls-11" d="M190.556,389.018c.07.157.137.315.206.473C190.693,389.333,190.626,389.175,190.556,389.018Z"/><path class="cls-11" d="M186.7,380.947l.206.4Z"/><path class="cls-11" d="M185.376,378.491l.064.118C185.419,378.57,185.4,378.53,185.376,378.491Z"/><path class="cls-11" d="M191.636,391.527q.15.356.3.71Q191.786,391.883,191.636,391.527Z"/><path class="cls-11" d="M188.02,383.564c.052.106.1.21.156.315C188.125,383.774,188.072,383.67,188.02,383.564Z"/><path class="cls-11" d="M158.144,387.88c-1.034-1.19-2.04-2.4-3.033-3.626C156.1,385.479,157.11,386.691,158.144,387.88Z"/><path class="cls-11" d="M150.754,378.582c-.324-.445-.642-.895-.961-1.343C150.112,377.688,150.43,378.137,150.754,378.582Z"/><path class="cls-11" d="M153.918,382.748q-.807-1.023-1.6-2.061C152.846,381.38,153.381,382.065,153.918,382.748Z"/><path class="cls-11" d="M192.716,394.142l.268.658C192.9,394.58,192.805,394.361,192.716,394.142Z"/><path class="cls-11" d="M186.183,414.308c-.149-1-.295-1.991-.456-2.987.16,1,.3,1.991.454,2.987Z"/><path class="cls-11" d="M82.41,433.892c-.928-.438-1.858-.871-2.8-1.278C80.552,433.021,81.481,433.456,82.41,433.892Z"/><path class="cls-11" d="M140.516,523.027c.7-.043,1.4-.1,2.1-.179C141.919,522.922,141.218,522.983,140.516,523.027Z"/><path class="cls-11" d="M148.652,521.879h0l-.174.035Z"/><path class="cls-11" d="M84.007,436.421c.562.258,1.142.525,1.733.784C85.149,436.947,84.569,436.679,84.007,436.421Z"/><path class="cls-11" d="M146.693,522.257c-.174.031-.348.057-.522.086C146.345,522.314,146.519,522.288,146.693,522.257Z"/><path class="cls-11" d="M144.674,522.586c-.368.054-.738.1-1.107.142C143.936,522.682,144.306,522.64,144.674,522.586Z"/><path class="cls-11" d="M186.327,451.808c-.029.042-.061.085-.091.129Z"/><path class="cls-11" d="M164.023,454.984a.575.575,0,0,0-.222-.071A.564.564,0,0,1,164.023,454.984Z"/><path class="cls-11" d="M126.929,450.328c-.037.045-.074.09-.112.134C126.855,450.418,126.892,450.373,126.929,450.328Z"/><path class="cls-11" d="M127.5,449.557l-.014.023Z"/><path class="cls-11" d="M96.382,451.548c-.256-.153-.508-.311-.75-.481C95.875,451.237,96.126,451.4,96.382,451.548Z"/><path class="cls-11" d="M94.284,449.937a8.461,8.461,0,0,1-.784-.893A8.363,8.363,0,0,0,94.284,449.937Z"/><path class="cls-11" d="M95.275,450.8a10,10,0,0,1-.8-.668A9.8,9.8,0,0,0,95.275,450.8Z"/><path class="cls-11" d="M93.426,448.936a7.94,7.94,0,0,1-.7-1.152A7.8,7.8,0,0,0,93.426,448.936Z"/><path class="cls-11" d="M128.051,448.548c-.037.079-.075.156-.114.233C127.976,448.7,128.014,448.627,128.051,448.548Z"/><path class="cls-18" d="M193.118,459.088c-1.892-1.353-1.673-19.862,2.044-20.826s5.44,3.264,7.1,8.377c1.278,3.937-1.029,8.931-1.322,10.572-.519,2.919,25.736,97.039-23.836,137.427l-8.3,2.548S219.593,552.98,193.118,459.088Z"/><path class="cls-19" d="M130.121,571.059q-3.786-15.894-7.616-31.768,5.654,4.066,11.435,7.89c2.826,1.86,5.637,4.708,8.577,5.7-2.818,1.893-5.032,5.473-6.452,7.957-1.788,3.137-4.334,7.195-5.624,11.1A1.623,1.623,0,0,0,130.121,571.059Z"/><path class="cls-17" d="M163.776,769.194c-.909.074-1.932.069-2.89.213-.018-4.146-.112-8.3-.238-12.456,1.043-.124,2.1-.5,3.128-.678,1.377-.241,2.811-.307,4.211-.491a62.862,62.862,0,0,0,.22,13.164A35.5,35.5,0,0,0,163.776,769.194Z"/><path class="cls-3" d="M134.478,662.55c-.01-.006,0,0-.02-.014a1.6,1.6,0,0,1-.211-.12,1.428,1.428,0,0,1-.131-.093.884.884,0,0,1-.094-.08c-.067-.067-.414-.472-.253-.253a4.194,4.194,0,0,1-.346-.536,10.058,10.058,0,0,1-.974-3.334,13.982,13.982,0,0,1-.064-2.555,7.928,7.928,0,0,0-.047-2.2c1.986-7.25,1.015-16.428-1.853-23.179"/><path class="cls-3" d="M135.305,662.654l-.116,0"/><path class="cls-3" d="M139.233,658.915a.153.153,0,0,1-.015.037"/><path class="cls-3" d="M139.488,656.285a3.338,3.338,0,0,1,.129.436.336.336,0,0,0,.02.089"/><path class="cls-3" d="M139,655.615a.86.86,0,0,1,.108.1c.062.063.122.127.176.191"/><path class="cls-3" d="M127.478,573.113c11.668,52.925,23.916,105.9,28.048,160,2.6,33.93,2.937,68.774-2.591,102.454-3.064,18.67-7.938,36.726-13.464,54.623a288.528,288.528,0,0,1-34.6,3.523c-2.435.079-4.907.143-7.394.163H94.73c-10.207-.064-20.565-1.011-29.873-4.3,4.857-12.547,9.174-25.318,13.1-38.019,7.136-23.114,14.026-47.9,14.084-72.338l2.162-.906c.146-.065.285-.134.431-.2.062,4.775.564,10.967,4.47,13.82.872.634,1.707-.416,1.59-1.223-.373-2.611-1.87-5.018-2.494-7.609-.49-2.011-.9-4.047-1.265-6.093.052-.03.109-.054.158-.079,6.69-1.932,12.974-4.88,19.862-6.371,6.749-1.446,13.684-1.664,20.409-3.021.631,2.893,2.8,5.6,3.678,8.49.812,2.655,1.345,5.38,2.046,8.06a.641.641,0,0,0,1.253-.169,25.421,25.421,0,0,0-1.439-10.655c-.867-2.412-1.768-5.474-4.01-6.9a.672.672,0,0,0-.5-.471,31.482,31.482,0,0,0-9.749-.624,30.952,30.952,0,0,0-5.937-6.133,27.482,27.482,0,0,0-3.685-2.712l1.721-3.8-2.2-2.7c-6.078-7.265-12.753-14.178-18.973-21.15a481.486,481.486,0,0,0-.44-49.5c-1.061-19.278-3.228-38.72-8.806-57.238,3.481-6.139,2.936-14.612,2.019-21.159-.091-.648-1.206-.5-1.142.153a34.507,34.507,0,0,1-1.246,12.662,31.508,31.508,0,0,1-1.193,3.446L87.2,620.973c-.114.3-.235.579-.347.875-5.885,10.035-14.073,18.479-20.486,28.16-2.9,4.365-5.842,9.059-7.245,14.164-1.627,5.911-.448,11.842-.118,17.875a1.286,1.286,0,0,0,.646,1.078c9.023,15.267,20.865,29.107,32.362,42.546,1.12,1.308,2.234,2.663,3.349,4l3.913,4.7c5.548,6.737,11.124,13.607,17.009,20.067-.211.366-16.246,16.968-26.18,20.53-18.411-15.183-35.922-31.723-48.707-52.03-14.623-23.233-26.633-50.822-19-78.685,6.407-23.376,22.925-45.335,37.439-64.5,11.515-15.2,24.882-30.461,41.2-40.895-3.175,13.344-4.416,27.928-.391,41.159a1.627,1.627,0,0,0,2.942.386,26.312,26.312,0,0,1,5.058-5.407C114.052,567.5,120.35,567.046,127.478,573.113Z"/><path class="cls-19" d="M159.328,733.114c-4.345-52.932-15.619-104.759-27.845-156.33a1.2,1.2,0,0,0,.332-.23c3.161-3.208,4.349-9.062,6.5-13.014a37.867,37.867,0,0,1,7.542-9.47c.079.044.158.093.233.137,6.382,31.19,16.886,61.558,23.826,92.651a717.441,717.441,0,0,1,14.76,99.292c-.934.052-1.868.111-2.8.178-3.294.25-6.91.255-10.357.743l-2.539.473-.411,2.727c-.129.959-.246,1.94-.355,2.933a12.825,12.825,0,0,0-4.468.037,32.1,32.1,0,0,0-3.21.49C160.284,746.87,159.892,740,159.328,733.114Z"/><path class="cls-17" d="M199.868,753.231c.614-.094,1.244-.148,1.873-.225q.561,7.716,1.052,15.435c-.753-.089-1.51-.129-2.273-.148-.55-.01-1.085-.07-1.591-.06a50.306,50.306,0,0,0-.279-14.923A6.145,6.145,0,0,0,199.868,753.231Z"/><path class="cls-19" d="M197.686,748.929l-.634-1.989-2.757-.528a45.005,45.005,0,0,0-7.665-.332c.735-16.943-2.72-34.8-4.937-51.577-2.026-15.336-4.847-30.59-8.215-45.683-6.98-31.265-14.9-63.112-25.37-93.457,6.895,4.1,13.251,9.4,20.6,12.566,1.43,3.728,2.8,7.485,4.04,11.3a467.232,467.232,0,0,1,13.125,49.418c7.153,34.2,11.4,68.922,14.271,103.716q.736,8.9,1.392,17.8c-.523.027-1.048.069-1.56.126a7.258,7.258,0,0,0-1.868.359C197.974,750.071,197.845,749.486,197.686,748.929Z"/><path class="cls-3" d="M118.928,532.7l.189,4.116.646.475c2.185,10.533,4.468,21.062,6.782,31.586a16.687,16.687,0,0,0-13.053-.227.871.871,0,0,0-.352.137,27.593,27.593,0,0,0-10.066,7.233c-2.105-10.531-1.635-21.339.4-31.913.463-2.4,2.266-21.547,15.088-22.161Q118.713,527.317,118.928,532.7Z"/><path class="cls-20" d="M173.349,773.865c-2.071-7.683-1.969-15.643-1.863-23.747,7.817-.511,15.468-1.687,23.337-1.365,1.568,7.881.966,15.512-.4,23.339C187.39,772.34,180.462,774.633,173.349,773.865Z"/><path class="cls-19" d="M153.856,539.11c-.027-2.337-.017-4.677-.01-7.02,4.441,11.075,9.353,21.877,13.722,32.938a184.1,184.1,0,0,0-19.582-13.012c.2-.145.4-.278.61-.453a22.073,22.073,0,0,0,2.3-2.332l3.151-4.273-.164-4.774C153.871,539.826,153.859,539.468,153.856,539.11Z"/><path class="cls-21" d="M117.472,759.188a34.648,34.648,0,0,1,4.513,2.967c1.253,1.1,2.494,2.328,3.839,3.383a98.562,98.562,0,0,0-9.751,1.833c-2.348.555-4.825,1.12-7.3,1.784A44.942,44.942,0,0,0,117.472,759.188Z"/><path class="cls-3" d="M230.967,894.764a49.06,49.06,0,0,0,5.442-1.377l2.863-.956c1.362-.5,2.719-1.011,4.047-1.586a1059.376,1059.376,0,0,0-2.041-117.3c-3.4-1.322-6.754-2.7-10.291-3.71-3.772-1.075-7.879-.748-11.458-2.254-.275,1.348-.7,2.67-1,4.013-.446,1.956-.466,3.977-1.1,5.9a1.006,1.006,0,0,1-1.927,0c-1.1-3.675.194-9.035,2.671-11.933a.937.937,0,0,1,1.376.075c3.76-1.447,8.56.052,12.318,1.022a44.355,44.355,0,0,1,9.154,3.5c-.29-3.894-.575-7.8-.9-11.7-2.643-31.45-5.066-63.518-11.223-94.5-.713-3.569-1.479-7.186-2.254-10.827l-1.677-7.959c-3.856-18.76-6.856-38.068-1.9-56.578.31-1.138,1.945-.647,1.742.478-3.656,20.385.389,40.945,4.755,61.135,5.283,5.938,10.475,11.941,17.222,16.534,17.6,11.991,27.571-6.037,34.224-20.233,7.461-15.915,15.735-30.934,21.566-47.6,4.426-12.65,8.367-25.042,7.559-37.958a.735.735,0,0,1-.191.012c-8.711-1.153-21.989-7.137-27.2-15.718-.983,15.119-7.733,29.461-12.3,43.731-2.293,7.181-4.736,14.276-8.421,20.874-.32.568-.679,1.091-1.038,1.616l-1.907,2.526c-3.351,3.964-7.374,7.2-9.34,12.318-.349.908-1.91.871-1.816-.245.409-5.2,2.727-8.365,6.43-11.911a26.69,26.69,0,0,0,2.472-2.751c-10.554-12.454-19.973-25.893-29.491-39.106-10.17-14.117-24.248-33.688-43.384-34.492,2.823,5.008,5.907,15.155,5.907,15.155l-4.045,13.075-.517-.448s-10.128-8.137-14.913-4.668c1.592,4.183,3.1,8.379,4.557,12.518A433.762,433.762,0,0,1,189.2,625.047c7.378,33.687,11.519,68.052,14.541,102.376a1288.763,1288.763,0,0,1,4.513,162.466C214.107,894.749,221.315,896.606,230.967,894.764Zm3.812-108.653a98.6,98.6,0,0,1-12.411-5.073.773.773,0,0,1,.591-1.407c4.263,1.278,8.283,3.463,12.313,5.3C235.943,785.234,235.465,786.359,234.779,786.111Z"/><path class="cls-10" d="M305.138,522.394c-3.938-.449-4.283-4.121-4.439-7.384,2.552-.956,4.436-2.569,4.486-5.175.054-2.647-1.632-4.237-3.99-5.15.532-2.443,1.865-8.078,3.581-6.149a15.29,15.29,0,0,1,2.891,5.457,1.112,1.112,0,0,0,.3.963c.384,1.335.673,2.678.914,3.928.668,3.51,1.471,8.5-.451,11.785A3.165,3.165,0,0,1,305.138,522.394Z"/><path class="cls-10" d="M309.43,523.771c3.822-3.352,3.061-10.3,2.274-14.711-.213-1.2-.5-2.758-.909-4.391,1.956-.347,3.7-.058,4.931,2.085a14.823,14.823,0,0,1,1.751,7.669c-.062,2.549-.431,5.425-1.932,7.577C313.789,524.522,312.041,523.758,309.43,523.771Z"/><path class="cls-10" d="M303.912,547.917a30.052,30.052,0,0,0,4.124.219,26.676,26.676,0,0,0-.766,4.167,42.214,42.214,0,0,0-.572,5.413,62.188,62.188,0,0,1-12.508-6.446,38.383,38.383,0,0,1-6.7-5.968,9.75,9.75,0,0,0,.886-3.68c.057-.55.1-1.1.136-1.65a21.64,21.64,0,0,0,6.571,3.6c.751.245,1.076-.793.506-1.2-8.147-5.8-28.4-29.7-9.813-34.765,4.044-1.1,12.9-2.883,16.1,1.1,3.51,4.368-12.027,5.085-13.664,5.605-.741.234-.9,1.522,0,1.658a26.974,26.974,0,0,0,2.888.251,10.831,10.831,0,0,1,7.017,7.175c.775,2.716.213,5.307.688,7.992.156.877,1.3.822,1.721.223,1.422-2.032,1.276-5.181.528-7.915a5.561,5.561,0,0,0,1.781.968,7.219,7.219,0,0,0,5.58-.191,1,1,0,0,0,.233,1.134c2.388,2.213,6.556,1.26,8.468-1.151a16.3,16.3,0,0,0,3.121-10.659,16.767,16.767,0,0,0-.3-2.507.9.9,0,0,0,1,0c1.925-1.179,3.378-1.9,5.01.192a14.747,14.747,0,0,1,2.673,6.354c.822,4.419.5,10.283-4,12.245-1.724-4.072-.872-8.216-1.555-12.541-.144-.908-1.35-.676-1.615,0a18.319,18.319,0,0,0,.307,13.466,1.327,1.327,0,0,0-.092.391c-.218,2.7,1.065,5.454-.478,8.01a9.581,9.581,0,0,1-4.589,3.811c-4.072,1.747-8.645,2.1-12.9,3.162C302.78,546.618,303.094,547.816,303.912,547.917Z"/><path class="cls-22" d="M309.153,558.66a13.522,13.522,0,0,0,.448-2.549c.149.954.28,1.9.377,2.852C309.7,558.864,309.428,558.76,309.153,558.66Z"/><path class="cls-21" d="M295.785,516.087c.7-.077,1.4-.177,2.083-.308a9.888,9.888,0,0,0,.107,2.1A10.119,10.119,0,0,0,295.785,516.087Z"/><g class="cls-23"><path class="cls-17" d="M330.964,515.011c-1.378-4.161-7.631-12.286-11.359-5.17-1.318-4.887-4.642-9.851-9.566-7.749-.948-2.773-2.348-5.35-4.5-6.388a2.991,2.991,0,0,0-4.307,1.319c-1.547,4.436-3.531,7.167-9.216,6.8a12.389,12.389,0,0,0-2.366.067c-.448.057-.855.11-.929.122-8.673,1.593-15.019,6.274-12.668,15.991a38.982,38.982,0,0,0,10.112,17.9c-.106,1.125-.176,2.256-.332,3.379-.086.6-.2,1.2-.3,1.791-.832-1-1.664-2.025-2.526-3.1a1.023,1.023,0,0,0-.223-.188c-.26-.546-1.216-.634-1.332.08l0,.013a1.26,1.26,0,0,0-.5,1.29c.039.157.114.309.158.466-3.029,16.934-9.377,32.544-14.784,48.841-2,6.036-4.062,12.632-7.554,18.157-6.291-8-12.82-15.826-18.7-24.118-5.305-7.485-10.4-15.137-16.134-22.308-9.3-11.618-24.1-29.683-41.088-26.177-2.187-3.265-4.958-5.654-8.582-5.81a16.181,16.181,0,0,0-4.664-3.758,32.677,32.677,0,0,0,4.877-2.949c10.727-7.833,17.083-21.423,20.818-33.8a148.173,148.173,0,0,0,5.248-25.674,1.253,1.253,0,0,0,.612-.233c6.254-4.832,7.274-17.984,6.635-25.21-.242-2.737-1.446-6.888-3.646-8.706,6.695-12.2,8.9-30.925,3.569-43.589-1.854-4.4-7.076-10-12.4-8.54-2.947.812-6.878-4.349-9.11-6.13a87.331,87.331,0,0,0-10.362-7.09c-16.05-9.4-35.226-16.3-54.087-15.289-14.192.761-35.842,6.394-37.769,23.257-.01.035.008.061.008.095C58.93,383.176,59.14,427.458,73.972,446.373a9.583,9.583,0,0,0-1.957,3.578c-3.683,12.771,7.822,34.12,21.92,32.73,4.007,12.208,14.135,24.228,24.451,32.266.035,1.655.082,3.312.126,4.97-9.167-1.349-14.229,7.841-16.639,15.836-17.7,9.212-31.607,24.392-43.681,40.3-7.839,10.333-15.069,21.091-22.083,32-7.565,11.76-14.953,23.8-17.824,37.695-5.659,27.388,3.788,53.554,18.3,76.633,13.305,21.172,30.412,38.9,50.247,53.68l2.843,2.066c-3.435,25.64-8.178,50.432-16.226,75.116-3.824,11.731-8.237,23.233-12.713,34.706l-1.746,4.478,4.156,1.456c10.259,3.131,22.227,3.8,31.3,3.844q-5.291,69.98-10.368,139.99c-2.871,38.782-6.155,77.861-7.079,116.866l-.082,3.794,2.685.723c-1.555,8.035-3.442,19.26,1.358,25.982a.98.98,0,0,0,1.273.367,5.542,5.542,0,0,0,2.3,1.085,10.32,10.32,0,0,0,1.925.277c2.878,6.6,12.466,7.723,19.091,7.757,9.94.05,21.514-.485,31.082-3.512a.968.968,0,0,0,.678-.708c.025-.035.052-.05.07-.089,3.284-6.618-.719-13.137-6.373-16.887-7.391-4.9-14.958-7.554-20.592-14.455l4.366-1.124.225-3.844c3.067-53.128,8.442-105.825,17.678-158.507C142.961,936.79,157.237,879.189,170.8,821.3c3.523-.514,7.044-1.067,10.588-1.371l0,0c-.963,28.365.887,57.14,1.912,85.331,1.236,34.067,2.824,68.118,4.253,102.174,1.422,33.888,3.217,67.875,2.987,101.8-.092,14.391-.624,28.85-1.07,43.315l-.131,4.285,3.765.381c-1.053,6.524-2.287,16.585,1.666,22.044,4.892,6.762,15.141,4.755,21.3.906.034-.02.044-.049.071-.074,9.013,4.444,19.857,5.8,29.623,6.549,11.758.916,27.176,2.9,38.316-1.8a1.455,1.455,0,0,0,.922-1.268.465.465,0,0,0,.371-.4c1.7-11.438-7.735-19.611-17.912-22.2-6.987-1.778-14.15-2.328-21.239-3.517-6.967-1.174-12.919-3.676-19.3-6.217l.552-.188.463-4.676c2.948-30.2,5.2-60.484,7.233-90.647,3.564-52.855,7.009-106.795,4.277-159.9,1.251-.4,2.5-.823,3.735-1.283l4.273-1.714.188-3.953c1.82-38.361.352-76.99-2.566-115.142a1.4,1.4,0,0,0-.079-1.021q-.435-5.588-.9-11.173c-2.556-30.3-4.654-61.3-10.316-91.2-.743-3.919-1.568-7.864-2.423-11.82,5.591,5.936,11.894,11.105,18.723,13.971,15.467,6.494,25.078-6.011,31.334-18.757,9.048-18.445,18.487-36.345,25.167-55.829,4.52-13.184,13.105-35.017,3.539-47.965.047-.639.067-1.278.065-1.915a22.021,22.021,0,0,0,10.449-3.515c3.379-2.312,5.447-7.307,4.246-11.355C332.224,530.812,333.091,521.468,330.964,515.011ZM311.7,509.06c-.213-1.2-.5-2.758-.909-4.391,1.956-.347,3.7-.058,4.931,2.085a14.823,14.823,0,0,1,1.751,7.669c-.062,2.549-.431,5.425-1.932,7.577-1.756,2.522-3.5,1.758-6.115,1.771C313.252,520.419,312.492,513.468,311.7,509.06Zm-6.928-10.524a15.29,15.29,0,0,1,2.891,5.457,1.112,1.112,0,0,0,.3.963c.384,1.335.673,2.678.914,3.928.668,3.51,1.471,8.5-.451,11.785a3.165,3.165,0,0,1-3.294,1.725c-3.938-.449-4.283-4.121-4.439-7.384,2.552-.957,4.436-2.569,4.486-5.175.054-2.647-1.632-4.237-3.99-5.15C301.727,502.242,303.06,496.607,304.776,498.536ZM185.807,562.494c-4.355-3.235-11.96-7.213-16.488-4.331-3.747-9.542-8.059-18.929-13.687-27.3a1.188,1.188,0,0,0-1.783-.117c0-.455.007-.907.007-1.363A30.578,30.578,0,0,0,164,528.543C176.4,529.63,191.34,553.363,185.807,562.494ZM198.65,753.31a6.139,6.139,0,0,0,1.218-.079c.614-.094,1.244-.148,1.873-.225q.561,7.716,1.052,15.435c-.753-.089-1.51-.129-2.273-.148-.55-.01-1.085-.07-1.591-.06A50.306,50.306,0,0,0,198.65,753.31Zm1.325-3.019a7.258,7.258,0,0,0-1.868.359c-.133-.579-.262-1.164-.421-1.721l-.634-1.989-2.757-.528a45.005,45.005,0,0,0-7.665-.332c.735-16.943-2.72-34.8-4.937-51.577-2.026-15.336-4.847-30.59-8.215-45.683-6.98-31.265-14.9-63.112-25.37-93.457,6.895,4.1,13.251,9.4,20.6,12.566,1.43,3.728,2.8,7.485,4.04,11.3a467.232,467.232,0,0,1,13.125,49.418c7.153,34.2,11.4,68.922,14.271,103.716q.736,8.9,1.392,17.8C201.012,750.192,200.487,750.234,199.975,750.291Zm-31.768,18.655a35.5,35.5,0,0,0-4.431.248c-.909.074-1.932.069-2.89.213-.018-4.146-.112-8.3-.238-12.456,1.043-.124,2.1-.5,3.128-.678,1.377-.241,2.811-.307,4.211-.491A62.862,62.862,0,0,0,168.207,768.946Zm-4.456-15.705a32.1,32.1,0,0,0-3.21.49c-.257-6.86-.649-13.731-1.213-20.617-4.345-52.932-15.619-104.759-27.845-156.33a1.2,1.2,0,0,0,.332-.23c3.161-3.208,4.349-9.062,6.5-13.014a37.867,37.867,0,0,1,7.542-9.47c.079.044.158.093.233.137,6.382,31.19,16.886,61.558,23.826,92.651a717.441,717.441,0,0,1,14.76,99.292c-.934.052-1.868.111-2.8.178-3.294.25-6.91.255-10.357.743l-2.539.473-.411,2.727c-.129.959-.246,1.94-.355,2.933A12.825,12.825,0,0,0,163.751,753.241Zm-33.31-181.31a1.623,1.623,0,0,0-.32-.872q-3.786-15.894-7.616-31.768,5.654,4.066,11.435,7.89c2.826,1.86,5.637,4.708,8.577,5.7-2.818,1.893-5.032,5.473-6.452,7.957C134.277,563.973,131.731,568.031,130.441,571.931Zm23.44-31.747c-.01-.358-.022-.716-.025-1.074-.027-2.337-.017-4.677-.01-7.02,4.441,11.075,9.353,21.877,13.722,32.938a184.1,184.1,0,0,0-19.582-13.012c.2-.145.4-.278.61-.454a21.969,21.969,0,0,0,2.3-2.331l3.151-4.273Zm17.6,209.934c7.817-.511,15.468-1.687,23.337-1.365,1.568,7.881.966,15.512-.4,23.339-7.037.248-13.965,2.541-21.078,1.773C171.278,766.182,171.38,758.222,171.486,750.118Zm29.678-292.474a139.736,139.736,0,0,0-.429-25.666C208.933,433.859,204.47,448.785,201.164,457.644ZM67.985,405.931c1.439-13.727,7.066-23.967,18.306-31.98a1.128,1.128,0,0,0,.337-.428,1.148,1.148,0,0,0,.3-.619c1.555-11.419,14.8-17.55,25.055-19.547a72.753,72.753,0,0,1,30.631.857c18.5,4.386,36.481,13.238,49.891,26.914a1.478,1.478,0,0,0,1.741.222c7.75-3.423,11.844,6.893,12.669,12a52.476,52.476,0,0,1,.473,12.725,80.073,80.073,0,0,1-5.192,22.942,3.753,3.753,0,0,0-1.8.248A101.543,101.543,0,0,0,190.64,396.7a36.5,36.5,0,0,0,3.026-6.176c.236-.634-.735-1.223-1.164-.676-1.1,1.4-2.214,2.755-3.343,4.081l-1.549,1.782c-9.706,10.945-20.6,18.937-34.033,22.924.349-1.287.72-2.574,1.149-3.837a86.935,86.935,0,0,1,3.618-8.905,82.091,82.091,0,0,0,7.109-7.171.728.728,0,0,0-1.028-1.03c-1.12.949-2.256,1.876-3.4,2.793l-5.768,4.421a128.017,128.017,0,0,1-42.9,20.822c-6.135.608-12.166.927-18.482,1.028a.821.821,0,0,0-.216,1.606,49.67,49.67,0,0,0,10.933,1.363l-.77,1.677a111.113,111.113,0,0,0-5.469,18.249c-.146.642-.3,1.294-.456,1.943a28.873,28.873,0,0,0-9.84-8.174,12.317,12.317,0,0,0-11.619.824C69.236,433.561,66.668,418.523,67.985,405.931ZM118.3,510.659c-8.721-8.463-16.372-17.473-21.667-28.528l-1.34-2.968-2.324.064c-5.932-.289-10.633-4.057-13.927-9.983-2.633-4.74-5.756-11.59-4.151-17.18,2.935-10.227,13.766-6.286,19.062-.621,1.1,1.176,2.12,2.4,3.106,3.662l2.714,3.745.651-3.722c.444-2.488.907-4.957,1.5-7.352,1.421-5.763,3.217-11.323,5.1-16.894a108.313,108.313,0,0,0,45.556-20.2,76.712,76.712,0,0,0-3.017,9l-.978,4.116,3.821-.579c14.029-2.782,28.452-12.441,36.5-23.872,4.616,13.09,8.433,26.081,9.213,40.328.751,13.771-.012,27.687-3.323,41.114-3.19,12.936-8.035,26.888-17.769,36.452-6.294,6.187-14.244,10.53-23.183,9.557l-2.918-.5c-1-.225-1.989-.485-2.964-.76-.077-.056-.154-.124-.238-.177a1.065,1.065,0,0,0-.855-.145c-5.117-1.542-9.979-3.662-15.032-5.575-.849-.323-1.317.971-.6,1.423,1.83,1.145,3.7,2.192,5.59,3.148a1.09,1.09,0,0,0,.151.663c1.672,2.8,5.1,5.289,7.6,7.367,1.776,1.473,3.71,3.156,5.939,3.915-.044,2.994-.02,5.992.114,8.963a22.174,22.174,0,0,1-1.593,1.929c-5.733,6.123-15.715-3.784-20.743-7.376q-3.031-2.165-5.994-4.408c-.329-6.168-.931-12.356-1.486-18.5,1.721,1.236,3.443,2.362,5.127,3.339.852.5,1.835-.708,1.07-1.388-2.229-1.985-4.416-3.974-6.551-5.988ZM103.476,544.1c.463-2.4,1.03-5.114,1.81-7.8.037-.022.077-.04.116-.059a18.882,18.882,0,0,1,1.474-4.443c2.222-5.2,5.727-9.479,11.688-9.854q.149,5.376.364,10.754l.189,4.116.646.475c2.185,10.533,4.468,21.062,6.782,31.586a16.687,16.687,0,0,0-13.053-.227.871.871,0,0,0-.352.137,27.593,27.593,0,0,0-10.066,7.233C100.969,565.484,101.439,554.676,103.476,544.1ZM64.857,889.577c4.857-12.547,9.174-25.318,13.1-38.019,7.136-23.114,14.026-47.9,14.083-72.338l2.163-.906c.146-.065.285-.134.431-.2.062,4.775.564,10.967,4.47,13.82.872.634,1.707-.416,1.59-1.223-.373-2.611-1.87-5.018-2.494-7.609-.49-2.011-.9-4.047-1.265-6.093.052-.03.109-.054.158-.079,6.69-1.932,12.974-4.88,19.862-6.371,6.749-1.446,13.684-1.664,20.409-3.021.631,2.893,2.8,5.6,3.678,8.49.812,2.655,1.345,5.38,2.046,8.06a.641.641,0,0,0,1.253-.169,25.421,25.421,0,0,0-1.439-10.655c-.867-2.412-1.768-5.474-4.01-6.9a.672.672,0,0,0-.5-.471,31.482,31.482,0,0,0-9.749-.624,30.952,30.952,0,0,0-5.937-6.133,27.482,27.482,0,0,0-3.685-2.712l1.721-3.8-2.2-2.7c-6.078-7.264-12.753-14.177-18.973-21.149a481.486,481.486,0,0,0-.44-49.5c-1.061-19.278-3.228-38.72-8.806-57.238,3.48-6.139,2.936-14.612,2.019-21.159-.091-.648-1.206-.5-1.142.153a34.507,34.507,0,0,1-1.246,12.662,31.508,31.508,0,0,1-1.193,3.446L87.2,620.973c-.114.3-.235.579-.347.875-5.885,10.035-14.073,18.479-20.486,28.16-2.9,4.365-5.842,9.059-7.245,14.164-1.627,5.911-.448,11.842-.118,17.875a1.288,1.288,0,0,0,.646,1.078c9.023,15.267,20.865,29.107,32.362,42.546,1.12,1.308,2.234,2.663,3.349,4l3.913,4.7c5.548,6.737,11.124,13.607,17.009,20.067a4.676,4.676,0,0,1-.907,1.045c-.741.079-15.339,15.923-25.273,19.485-18.411-15.183-35.922-31.723-48.707-52.03-14.623-23.233-26.633-50.822-19-78.685,6.407-23.376,22.925-45.335,37.439-64.5,11.515-15.2,24.882-30.461,41.2-40.895-3.175,13.344-4.416,27.928-.391,41.159a1.627,1.627,0,0,0,2.942.386c1.439-2.049,10.714-16.071,23.884-7.288,11.668,52.925,23.916,105.9,28.048,160,2.6,33.93,2.937,68.774-2.591,102.454-3.064,18.67-7.938,36.726-13.464,54.623a288.528,288.528,0,0,1-34.6,3.523c-2.435.079-4.907.143-7.394.163H94.73C84.523,893.813,74.165,892.867,64.857,889.577Zm43.916-120.422a44.942,44.942,0,0,0,8.7-9.967,34.648,34.648,0,0,1,4.513,2.967c1.253,1.1,2.494,2.328,3.839,3.383a98.562,98.562,0,0,0-9.751,1.833C113.725,767.926,111.248,768.491,108.773,769.155ZM63.321,663.113a69.272,69.272,0,0,1,8.838-15.085c5.419-7.293,11.111-14.261,15.012-22.388a1.008,1.008,0,0,0,.624-.288c.121-.117.22-.249.339-.371a304.976,304.976,0,0,1,7.775,59.844c.411,13.084-.1,26.181-.424,39.274-11.8-13.836-22.621-28.237-33.509-42.791-.024-.035-.054-.046-.079-.077C63.282,675.2,60.832,669.241,63.321,663.113Zm51.446,504.645c-9.967-1.723-21.355.516-26.033,9.075-.352.65.408,1.581,1.089,1.085,10.638-7.693,20.476-8.723,32.333-5.587,6.732,3.784,13.246,7.559,13.568,16.733-15.325-.411-37.492,9.575-48.449-5.444-.439-.589-1.707-.5-1.588.431.012.109.045.208.062.317-.186-.015-.379-.02-.56-.04a16.323,16.323,0,0,1-2.457-.371c-.629-4.513-1.4-8.832-1.191-13.434.163-3.646.413-7.263.22-10.893a53.947,53.947,0,0,0,10.373,1.178,80.614,80.614,0,0,0,16.057-1.461A18.17,18.17,0,0,0,114.767,1167.758Zm13.739-170.32c-8.914,51.869-16.421,104.972-18.061,157.9a58.477,58.477,0,0,1-29.258.535c1.9-40.442,3.8-80.849,6.764-121.265,3.341-45.579,7.519-91.207,9.385-136.889.76-.01,1.508-.02,2.206-.035a269.981,269.981,0,0,0,38.728-3.665l4.532-.724,1.189-3.863a395.176,395.176,0,0,0,13.9-66.969,69.232,69.232,0,0,0,9.5-.7C151.338,879.487,138.624,938.514,128.506,997.438ZM257.125,1162c5.82.847,12.4,1.709,17.444,4.974,5.944,3.854,7.18,9.08,9.256,15.212a1.718,1.718,0,0,0-.468.025c-23.352,5.459-49.13.922-71.573-6.127-.74-.233-1.075.782-.5,1.184.5.341,1.018.668,1.533.99-6.479,2.878-15.369,3.869-16.83-4.909-.877-5.31.054-10.685-.513-16.005a54.245,54.245,0,0,0,7.622-.372,111.613,111.613,0,0,0,19.408-4.265l1.025-.342C233.209,1159.669,245.536,1160.323,257.125,1162Zm-25.772-106.28c-2.117,30.817-5.228,61.519-8.361,92.227a119.17,119.17,0,0,1-14.118,4.235,51.261,51.261,0,0,1-14.717,1.075c.223-15.747.123-31.505.185-47.089.132-33.932-1.7-67.934-3.138-101.832-1.446-34.051-3.061-68.1-4.29-102.174-.99-27.4-.713-55.054-2.11-82.487,5.264-.332,10.574-.486,15.716-1.521a.7.7,0,0,0,0-1.348,70.261,70.261,0,0,0-15.9-.891l-3.1.188c-3.284.263-6.58.669-9.8,1.233l-3.26.62a96.655,96.655,0,0,0-10.36,2.724,429.524,429.524,0,0,0,2.808-48c1.516-.054,3.188-.549,4.478-.668,1.078-.1,2.215-.129,3.282-.342.089.421.161.857.26,1.273l.964,3.2,4.4.778c6.371.679,13.117-.332,19.53-1.551l3.745-.728.654-2.437c.072-.312.128-.639.193-.956a18.845,18.845,0,0,0,2.108-.01c.822,0,1.634-.01,2.444-.059,1.58,25.327,2.549,50.675,2.356,76.062-.095,12.93-.454,25.854-.937,38.768l-.217,5.89,3.905,3.1c7.7,4.771,17.994,4.513,28.261,1.744C235.168,949.784,235.007,1002.7,231.353,1055.722ZM310.131,560.95c.808,12.916-3.133,25.308-7.559,37.958-5.831,16.663-14.105,31.682-21.566,47.6-6.653,14.2-16.619,32.224-34.224,20.233-6.747-4.593-11.939-10.6-17.222-16.534-4.366-20.19-8.411-40.75-4.755-61.135.2-1.125-1.432-1.616-1.741-.478-4.957,18.51-1.957,37.818,1.9,56.578l1.677,7.959c.775,3.641,1.541,7.258,2.254,10.827,6.157,30.984,8.58,63.051,11.223,94.5.326,3.9.611,7.8.9,11.7a44.355,44.355,0,0,0-9.154-3.5c-3.758-.97-8.558-2.469-12.318-1.022a.939.939,0,0,0-1.377-.075c-2.476,2.9-3.772,8.258-2.67,11.933a1.006,1.006,0,0,0,1.927,0c.634-1.922.654-3.943,1.1-5.9.3-1.343.728-2.665,1-4.013,3.579,1.506,7.686,1.179,11.458,2.254,3.537,1.006,6.891,2.388,10.291,3.71a1059.376,1059.376,0,0,1,2.041,117.3c-1.328.575-2.685,1.09-4.047,1.585l-2.863.957a49.06,49.06,0,0,1-5.442,1.377c-9.652,1.842-16.86-.015-22.712-4.875a1288.763,1288.763,0,0,0-4.513-162.466c-3.022-34.324-7.163-68.689-14.541-102.376a433.762,433.762,0,0,0-14.262-51.611c-1.456-4.139-2.965-8.335-4.557-12.518,4.785-3.469,14.22,2.87,17.086,6.627a1.806,1.806,0,0,0,.517.448l6.035-12.839c-1.351-3.834-7.247-12.342-10.07-17.35,19.136.8,33.214,20.375,43.384,34.492,9.518,13.213,18.937,26.652,29.491,39.106a26.69,26.69,0,0,1-2.472,2.751c-3.7,3.545-6.021,6.708-6.43,11.911-.094,1.116,1.467,1.153,1.816.245,1.966-5.117,5.989-8.354,9.34-12.318l1.907-2.526c.359-.525.718-1.048,1.038-1.616,3.685-6.6,6.128-13.693,8.421-20.874,4.562-14.27,11.312-28.612,12.3-43.731,5.211,8.581,18.489,14.565,27.2,15.718A.735.735,0,0,0,310.131,560.95Zm-.978-2.29a13.522,13.522,0,0,0,.448-2.549c.149.954.28,1.9.377,2.852C309.7,558.864,309.428,558.76,309.153,558.66Zm15.475-28.57c-1.724-4.072-.872-8.216-1.556-12.541-.143-.908-1.349-.676-1.614,0a18.319,18.319,0,0,0,.307,13.466,1.327,1.327,0,0,0-.092.391c-.218,2.7,1.065,5.454-.478,8.01a9.581,9.581,0,0,1-4.589,3.811c-4.072,1.747-8.645,2.1-12.9,3.162-.924.229-.61,1.427.208,1.528a30.052,30.052,0,0,0,4.124.219,26.676,26.676,0,0,0-.766,4.167,42.214,42.214,0,0,0-.572,5.413,62.188,62.188,0,0,1-12.508-6.446,38.383,38.383,0,0,1-6.7-5.968,9.75,9.75,0,0,0,.886-3.68c.057-.55.1-1.1.136-1.65a21.64,21.64,0,0,0,6.571,3.6c.751.245,1.076-.793.506-1.2-8.147-5.8-28.4-29.7-9.813-34.765,4.044-1.1,12.9-2.883,16.1,1.1,3.51,4.368-12.027,5.085-13.664,5.605-.741.234-.9,1.522,0,1.658a26.974,26.974,0,0,0,2.888.251,10.827,10.827,0,0,1,7.016,7.175c.776,2.715.214,5.307.689,7.992.156.877,1.3.822,1.721.223,1.422-2.032,1.276-5.181.528-7.915a5.561,5.561,0,0,0,1.781.968,7.219,7.219,0,0,0,5.58-.191,1,1,0,0,0,.233,1.134c2.388,2.213,6.556,1.26,8.468-1.151a16.3,16.3,0,0,0,3.121-10.659,16.767,16.767,0,0,0-.3-2.507.9.9,0,0,0,1,0c1.925-1.179,3.378-1.9,5.01.192a14.747,14.747,0,0,1,2.673,6.354C329.445,522.264,329.126,528.128,324.628,530.09Zm-26.653-12.209a10.119,10.119,0,0,0-2.19-1.794c.7-.077,1.4-.177,2.083-.308A9.888,9.888,0,0,0,297.975,517.881Z"/></g><path class="cls-24" d="M74.931,460.649a11.622,11.622,0,0,0,2.44-7.4c0-5.376-3.113-9.733-6.952-9.733s-6.953,4.357-6.953,9.733a12.654,12.654,0,0,0,1.1,5.252c1.237,2.7.939,4.481,3.4,4.481.09,0,16.417,119.877,80.778,140.7l-1.958-6.5S99.55,582.463,74.931,460.649Z"/><path class="cls-20" d="M206.207,529.916c-3.585,26.535-13.419,54.271-36.268,72.887l-1.572-6.057s24.366-19.452,32.05-68.2"/><path d="M168.937,605.861l-2.535-9.77.881-.7c.237-.19,23.064-19.886,30.537-67.3l3.967.481c-6.972,44.237-26.932,64.755-31.465,68.795l.607,2.336c18.122-15.775,29.665-39.524,33.814-70.224l3.964.722c-4.428,32.766-17.618,57.618-37.67,73.955Z"/><path class="cls-24" d="M168.937,605.861c114.445,80.163,139.387-73.8,139.387-73.8l8.453,3.018c-45.6,173.757-156.953,73.868-156.953,73.868"/><path class="cls-25" d="M305.3,524.684S309.31,543.44,323.72,542.9c0,0,14.2-1,10.021-17.369"/><circle class="cls-24" cx="327.311" cy="524.536" r="11.867"/><circle class="cls-25" cx="158.538" cy="597.192" r="11.757"/><path class="cls-20" d="M129.746,497.932l27.181-3.608"/><path d="M129.746,499.432l27.181-3.608c1.886-.251,1.911-3.254,0-3l-27.181,3.608c-1.886.25-1.911,3.253,0,3Z"/></g><line class="cls-26" x1="396.124" y1="470.031" x2="419.966" y2="470.948"/><path class="cls-7" d="M473.688,513.982c-7.9,4.886-12.725,13.322-18.116,20.883a126.109,126.109,0,0,1-47.313,40l3.127,17.693c-3.269-8.545-5.015-17.582-6.746-26.566-2.689-13.959-6.178-30.239-8.868-44.2l-3.8,4.868c3.554-7.743-5.155-21.529-5.155-21.529l-23.533,21.521a14.693,14.693,0,0,0-4.737,11.833c.98,14.56,2.539,29.176,7.911,42.684,3.479,8.748,8.518,16.914,10.849,26.035,1.38,5.4,1.841,11.2,4.782,15.937a19.13,19.13,0,0,0,5.422,5.6c-1.664-4.045-3.742-11.324,1.318-14.146,0,0,5.793.828,10.62,9.586,0,0,6.62,7.268,8.827,7.655a12.842,12.842,0,0,1,2.224,3.823l1.557.215c3.191.441,6.381.852,9.583,1.2,4.353.48,9.326.788,12.67-2.087a16.771,16.771,0,0,0,3.521-5.049,242.165,242.165,0,0,1,48.51-63.1c6.671-6.214,14.279-13.294,14.131-22.409Z"/><path d="M472.552,512.039c-12.1,7.952-18.313,22.256-27.879,32.763a126.284,126.284,0,0,1-37.55,28.123,2.3,2.3,0,0,0-1.034,2.541l3.128,17.693,4.339-1.2c-4.2-11.363-6.073-23.35-8.443-35.183-2.376-11.863-4.871-23.7-7.171-35.58-.3-1.555-2.739-2.3-3.761-.993l-3.8,4.868,3.76,2.189c2.916-7.559-1.376-16.838-5.381-23.263a2.283,2.283,0,0,0-3.534-.455l-16.087,14.711c-6.041,5.525-12.835,10.409-12.854,19.494a122.1,122.1,0,0,0,10.323,49.429c3.832,8.46,7.649,16.411,9.615,25.558,1.588,7.384,3.939,13.3,10.153,17.951,1.521,1.139,4-.772,3.305-2.541a25.279,25.279,0,0,1-1.6-5.221c-.158-1-.214-5.969.309-6.125,2.488-.742,6.8,4.924,7.735,6.281a37.4,37.4,0,0,0,4.934,6c1.793,1.751,4.56,3.329,6.079,4.957,1.083,1.16,1.108,2.759,2.493,3.676,1.24.82,4.652.715,6.253.921,4.914.633,10.317,1.761,15.217.45,3.707-.991,6.016-3.454,7.93-6.64,2.951-4.912,5.521-10.043,8.546-14.921,12.187-19.657,27.244-36.207,43.725-52.276a49.155,49.155,0,0,0,8.275-9.9c1.692-2.862,4.161-8.082,3.062-11.514-.783-2.442-4.038-4.926-5.66-6.771l-21.7-24.679c-1.917-2.179-5.089,1.014-3.182,3.182l18.232,20.733,4.967,5.648c.88,1,2.762,2.451,3.255,3.7.045.114.241.2.277.315-.735-2.391-2.3,7.184-1.058,2.265a20.165,20.165,0,0,1-2.876,6.119c-3.069,4.63-7.408,8.306-11.411,12.093a244.9,244.9,0,0,0-40.7,50.293c-2.673,4.381-4.845,9.151-7.635,13.441-4.191,6.442-10.7,5.023-17.346,4.2-1.178-.146-4.109-.06-5.148-.675-1.011-.6-1.2-1.5-1.915-2.33a9.917,9.917,0,0,0-1.866-1.709,37.647,37.647,0,0,1-7.128-6.317c-3.042-3.767-6.6-10.554-12.319-10.923-3.11-.2-5.2,3.254-5.8,5.949-.807,3.643.391,7.6,1.717,10.964l3.305-2.541c-7.28-5.452-7.292-13.878-9.638-21.89-2.044-6.982-5.539-13.4-8.515-20a99.6,99.6,0,0,1-7.161-23.492c-1.4-7.8-3.466-17.62-2.408-25.557.928-6.962,9.043-12.269,13.885-16.7l13.6-12.435-3.534-.455c3.385,5.428,7.394,13.4,4.928,19.795-.787,2.039,2.393,3.94,3.761,2.189l3.8-4.868-3.76-.993c2.3,11.878,4.8,23.717,7.171,35.58,2.369,11.834,4.243,23.82,8.443,35.183a2.252,2.252,0,0,0,4.339-1.2l-3.128-17.693-1.034,2.541a129.944,129.944,0,0,0,36.211-26.42A136.815,136.815,0,0,0,459.3,533.454c4.493-6.49,8.811-13.116,15.527-17.529C477.234,514.341,474.982,510.443,472.552,512.039Z"/><path class="cls-8" d="M445.566,574.963a1.5,1.5,0,0,0,0-3,1.5,1.5,0,0,0,0,3Z"/><path class="cls-8" d="M463.9,546.017a1.5,1.5,0,0,0,0-3,1.5,1.5,0,0,0,0,3Z"/><path class="cls-8" d="M481.267,555.666a1.5,1.5,0,0,0,0-3,1.5,1.5,0,0,0,0,3Z"/><path class="cls-8" d="M459.074,566.279a1.5,1.5,0,0,0,0-3,1.5,1.5,0,0,0,0,3Z"/><path class="cls-8" d="M427.234,583.647a1.5,1.5,0,0,0,0-3,1.5,1.5,0,0,0,0,3Z"/><path class="cls-8" d="M431.093,603.91a1.5,1.5,0,0,0,0-3,1.5,1.5,0,0,0,0,3Z"/><path class="cls-8" d="M422.409,621.277a1.5,1.5,0,0,0,0-3,1.5,1.5,0,0,0,0,3Z"/><path class="cls-8" d="M383.814,599.085a1.5,1.5,0,0,0,0-3,1.5,1.5,0,0,0,0,3Z"/><path class="cls-8" d="M380.919,536.368a1.5,1.5,0,0,0,0-3,1.5,1.5,0,0,0,0,3Z"/><path class="cls-8" d="M368.376,543.122a1.5,1.5,0,0,0,0-3,1.5,1.5,0,0,0,0,3Z"/><path class="cls-8" d="M393.463,573.033a1.5,1.5,0,0,0,0-3,1.5,1.5,0,0,0,0,3Z"/><path class="cls-8" d="M376.1,564.35a1.5,1.5,0,0,0,0-3,1.5,1.5,0,0,0,0,3Z"/><path class="cls-8" d="M380.919,555.666a1.5,1.5,0,0,0,0-3,1.5,1.5,0,0,0,0,3Z"/><path class="cls-8" d="M399.252,604.874a1.5,1.5,0,0,0,0-3,1.5,1.5,0,0,0,0,3Z"/><path class="cls-8" d="M381.884,581.717a1.5,1.5,0,0,0,0-3,1.5,1.5,0,0,0,0,3Z"/><path class="cls-8" d="M449.426,595.226a1.5,1.5,0,0,0,0-3,1.5,1.5,0,0,0,0,3Z"/><path class="cls-8" d="M476.442,533.473a1.5,1.5,0,0,0,0-3,1.5,1.5,0,0,0,0,3Z"/><path class="cls-8" d="M490.915,705.222a1.5,1.5,0,0,0,0-3,1.5,1.5,0,0,0,0,3Z"/><path class="cls-8" d="M492.845,722.59a1.5,1.5,0,0,0,0-3,1.5,1.5,0,0,0,0,3Z"/><path class="cls-8" d="M500.564,712.941a1.5,1.5,0,0,0,0-3,1.5,1.5,0,0,0,0,3Z"/><path class="cls-8" d="M501.529,743.817a1.5,1.5,0,0,0,0-3,1.5,1.5,0,0,0,0,3Z"/><path class="cls-8" d="M506.354,756.36a1.5,1.5,0,0,0,0-3,1.5,1.5,0,0,0,0,3Z"/><path class="cls-7" d="M393.463,704.257a1.5,1.5,0,0,0,0-3,1.5,1.5,0,0,0,0,3Z"/><path class="cls-7" d="M427.234,729.344a1.5,1.5,0,0,0,0-3,1.5,1.5,0,0,0,0,3Z"/><path class="cls-7" d="M372.235,745.747a1.5,1.5,0,0,0,0-3,1.5,1.5,0,0,0,0,3Z"/><path class="cls-7" d="M365.481,714.871a1.5,1.5,0,0,0,0-3,1.5,1.5,0,0,0,0,3Z"/><path class="cls-7" d="M407.936,750.571a1.5,1.5,0,0,0,0-3,1.5,1.5,0,0,0,0,3Z"/><path class="cls-7" d="M467.758,751.536a1.5,1.5,0,0,0,0-3,1.5,1.5,0,0,0,0,3Z"/><path class="cls-7" d="M456.18,710.046a1.5,1.5,0,0,0,0-3,1.5,1.5,0,0,0,0,3Z"/><path class="cls-7" d="M366.446,692.678a1.5,1.5,0,0,0,0-3,1.5,1.5,0,0,0,0,3Z"/><path class="cls-7" d="M398.287,683.994a1.5,1.5,0,0,0,0-3,1.5,1.5,0,0,0,0,3Z"/><path class="cls-7" d="M365.481,604.874a1.5,1.5,0,0,0,0-3,1.5,1.5,0,0,0,0,3Z"/><path class="cls-7" d="M368.376,625.137a1.5,1.5,0,0,0,0-3,1.5,1.5,0,0,0,0,3Z"/><path class="cls-7" d="M341.359,610.664a1.5,1.5,0,0,0,0-3,1.5,1.5,0,0,0,0,3Z"/><path class="cls-7" d="M344.254,591.366a1.5,1.5,0,0,0,0-3,1.5,1.5,0,0,0,0,3Z"/><path class="cls-7" d="M351.008,564.35a1.5,1.5,0,0,0,0-3,1.5,1.5,0,0,0,0,3Z"/><path class="cls-7" d="M447.5,647.329a1.5,1.5,0,0,0,0-3,1.5,1.5,0,0,0,0,3Z"/><path class="cls-7" d="M461.969,615.488a1.5,1.5,0,0,0,0-3,1.5,1.5,0,0,0,0,3Z"/><path class="cls-7" d="M446.531,738.993a1.5,1.5,0,0,0,0-3,1.5,1.5,0,0,0,0,3Z"/><path class="cls-7" d="M409.866,724.519a1.5,1.5,0,0,0,0-3,1.5,1.5,0,0,0,0,3Z"/><path class="cls-7" d="M408.9,544.087a1.5,1.5,0,0,0,0-3,1.5,1.5,0,0,0,0,3Z"/><path class="cls-7" d="M412.76,556.63a1.5,1.5,0,0,0,0-3,1.5,1.5,0,0,0,0,3Z"/><path class="cls-7" d="M437.847,543.122a1.5,1.5,0,0,0,0-3,1.5,1.5,0,0,0,0,3Z"/><path class="cls-7" d="M427.234,552.771a1.5,1.5,0,0,0,0-3,1.5,1.5,0,0,0,0,3Z"/><path class="cls-7" d="M450.391,527.684a1.5,1.5,0,0,0,0-3,1.5,1.5,0,0,0,0,3Z"/><path class="cls-7" d="M490.915,581.717a1.5,1.5,0,0,0,0-3,1.5,1.5,0,0,0,0,3Z"/><path class="cls-7" d="M489.951,623.207a1.5,1.5,0,0,0,0-3,1.5,1.5,0,0,0,0,3Z"/><path class="cls-7" d="M498.635,643.47a1.5,1.5,0,0,0,0-3,1.5,1.5,0,0,0,0,3Z"/><path class="cls-7" d="M492.845,609.7a1.5,1.5,0,0,0,0-3,1.5,1.5,0,0,0,0,3Z"/><path class="cls-7" d="M504.424,588.471a1.5,1.5,0,0,0,0-3,1.5,1.5,0,0,0,0,3Z"/><path class="cls-7" d="M501.529,565.314a1.5,1.5,0,0,0,0-3,1.5,1.5,0,0,0,0,3Z"/><path class="cls-7" d="M503.459,623.207a1.5,1.5,0,0,0,0-3,1.5,1.5,0,0,0,0,3Z"/><path class="cls-7" d="M505.389,603.91a1.5,1.5,0,0,0,0-3,1.5,1.5,0,0,0,0,3Z"/><path class="cls-7" d="M489.951,596.19a1.5,1.5,0,0,0,0-3,1.5,1.5,0,0,0,0,3Z"/><path class="cls-7" d="M453.285,634.786a1.5,1.5,0,0,0,0-3,1.5,1.5,0,0,0,0,3Z"/></svg>