<svg id="Layer_1" data-name="Layer 1" xmlns="http://www.w3.org/2000/svg" viewBox="0 0 531 774.361"><defs><style>.cls-1{fill:#d3e2df;}.cls-1,.cls-10,.cls-5,.cls-9{stroke:#000;stroke-width:5px;}.cls-1,.cls-10,.cls-5{stroke-miterlimit:10;}.cls-2{fill:#fff;}.cls-3{font-size:27.33px;font-family:OpenSans-Light, Open Sans;}.cls-4{font-size:50px;font-family:OpenSans-Bold, Open Sans;font-weight:700;}.cls-5{fill:#6cc1d6;}.cls-6{fill:#231f20;}.cls-10,.cls-7{fill:#e25963;}.cls-8{fill:#ffb583;}.cls-11,.cls-9{fill:none;stroke-linecap:round;stroke-linejoin:round;}.cls-11{stroke:#29292d;stroke-width:4px;}</style></defs><title>Before-Step-3</title><rect class="cls-1" x="3.392" y="71.861" width="524.215" height="700"/><polygon class="cls-2" points="3.379 250.277 2.512 67.861 528.489 67.861 527.616 250.277 3.379 250.277"/><path d="M525.976,70.361l-.847,177.416H5.867L5.024,70.361H525.976m5.024-5H0L.891,252.777H530.105L531,65.361Z"/><text class="cls-3" transform="translate(26.622 120.701)">A drop of blood from your finger will <tspan x="0" y="32.795">also be tested to check if your </tspan><tspan x="0" y="65.591">hemoglobin level is enough to give </tspan><tspan x="0" y="98.387">blood. </tspan></text><rect class="cls-2" x="2.5" y="2.5" width="526" height="65.281"/><path d="M526,5V65.281H5V5H526m5-5H0V70.281H531V0Z"/><text class="cls-4" transform="translate(180.295 54.085)">STEP 3 </text><path class="cls-5" d="M172.91,492.058l62.562,164.473a23.969,23.969,0,0,1-44.807,17.043L128.1,509.1A137.435,137.435,0,0,1,172.91,492.058Z"/><path class="cls-6" d="M153.183,506.991c21.884-8.324,20.557-11.812,19.92-13.488l-3.874,1.473a2.05,2.05,0,0,1,.014-1.665c-.689,1.041-6.626,4.754-17.834,9.017s-18.114,5.436-19.321,5.115a2.053,2.053,0,0,1,1.118,1.236l-3.874,1.473C129.969,511.828,131.3,515.316,153.183,506.991Z"/><path class="cls-7" d="M217.141,679.491c7.929-3.016,11.327-13.492,7.576-23.352l-43.43-114.178A81.61,81.61,0,0,0,152.531,552.9l43.431,114.178C199.713,676.937,209.215,682.506,217.141,679.491Z"/><rect class="cls-6" x="134.33" y="524.85" width="19.459" height="3.113" transform="translate(-177.74 85.61) rotate(-20.826)"/><rect class="cls-6" x="139.035" y="537.218" width="19.459" height="3.113" transform="translate(-181.83 88.09) rotate(-20.826)"/><rect class="cls-6" x="143.739" y="549.584" width="19.459" height="3.113" transform="translate(-185.919 90.571) rotate(-20.826)"/><rect class="cls-6" x="148.443" y="561.953" width="19.459" height="3.113" transform="translate(-190.009 93.052) rotate(-20.826)"/><rect class="cls-6" x="153.148" y="574.321" width="19.459" height="3.113" transform="matrix(0.935, -0.356, 0.356, 0.935, -194.099, 95.532)"/><rect class="cls-6" x="157.852" y="586.687" width="19.459" height="3.113" transform="translate(-198.189 98.013) rotate(-20.826)"/><rect class="cls-6" x="162.557" y="599.055" width="19.459" height="3.113" transform="translate(-202.278 100.493) rotate(-20.826)"/><rect class="cls-6" x="167.261" y="611.422" width="19.459" height="3.113" transform="translate(-206.368 102.974) rotate(-20.826)"/><rect class="cls-6" x="171.965" y="623.79" width="19.459" height="3.113" transform="translate(-210.458 105.454) rotate(-20.826)"/><rect class="cls-6" x="176.67" y="636.158" width="19.459" height="3.113" transform="translate(-214.547 107.935) rotate(-20.826)"/><rect class="cls-6" x="181.374" y="648.526" width="19.459" height="3.113" transform="translate(-218.637 110.416) rotate(-20.826)"/><rect class="cls-6" x="186.079" y="660.893" width="19.459" height="3.113" transform="matrix(0.935, -0.356, 0.356, 0.935, -222.727, 112.896)"/><path class="cls-2" d="M222.712,658.864,168.656,516.62c2.144-1.08,4.2-2.2,6.142-3.368l53.667,141.223c4.046,10.635.494,20.294-10.91,24.849C223.128,672.732,225.9,667.255,222.712,658.864Z"/><path class="cls-8" d="M524.468,337.78s-278.076-1.395-348.225,0a23.915,23.915,0,0,0-16.126,6.627l-4.487,13.268a.949.949,0,0,1-.808.939h0a18.062,18.062,0,0,0-15.308,16.641l-.278,4.121a.95.95,0,0,1-.864.883l-9.752.853a.95.95,0,0,0-.866.9l-.817,17.322a.951.951,0,0,0,.394.816l3.561,2.557a.955.955,0,0,0,.554.178h15.871a.951.951,0,0,1,.95.977l1.258,7.7a15.2,15.2,0,0,0,15.182,12.754c15.658-.187,39.792-.526,39.792-.526a.951.951,0,0,1,.964.906l1.778,14.466c0,.1.775,7.265,14.831,9.13,19.242,2.553,53.424,0,53.424,0a.969.969,0,0,0,.359-.078l54.584-23.549a.956.956,0,0,1,.376-.078H524.468a.95.95,0,0,0,.95-.95V338.73A.95.95,0,0,0,524.468,337.78Z"/><path class="cls-9" d="M525.418,424.589H342.583a64.463,64.463,0,0,0-30.1,7.458l-17.864,9.432a58.875,58.875,0,0,1-27.488,6.811H223.239a16.894,16.894,0,0,1-16.9-16.894h0a6.807,6.807,0,0,0-6.807-6.807h-32.58a19.551,19.551,0,0,1-19.551-19.551v-2.151H135.674a9,9,0,0,1-9-9v-3.7a9,9,0,0,1,9-9h3.508v-5.312a16.391,16.391,0,0,1,16.391-16.391h.057v-1.088a20.614,20.614,0,0,1,20.613-20.614H527.608"/><path class="cls-9" d="M199.537,424.589H234.26a34.349,34.349,0,0,0,25.732-11.595l1.578-1.785a24.649,24.649,0,0,1,18.466-8.322h16.305"/><line class="cls-9" x1="146.929" y1="402.887" x2="218.213" y2="402.887"/><line class="cls-9" x1="139.182" y1="381.185" x2="218.213" y2="381.185"/><line class="cls-9" x1="155.63" y1="359.482" x2="223.296" y2="359.482"/><path class="cls-10" d="M182.046,454.619a18.931,18.931,0,0,1-37.861,0c0-7.818,10.585-28.825,15.925-38.926a3.4,3.4,0,0,1,6.012,0C171.461,425.794,182.046,446.8,182.046,454.619Z"/><path class="cls-11" d="M182.065,454.631a18.949,18.949,0,1,1-37.9,0c0-7.87,10.717-29.095,16.032-39.137a3.3,3.3,0,0,1,5.834,0C171.347,425.536,182.065,446.761,182.065,454.631Z"/></svg>