<svg id="Layer_1" data-name="Layer 1" xmlns="http://www.w3.org/2000/svg" xmlns:xlink="http://www.w3.org/1999/xlink" viewBox="0 0 531 774.361"><defs><style>.cls-1,.cls-27{fill:none;}.cls-2{fill:#d3e2df;}.cls-14,.cls-2,.cls-21,.cls-26,.cls-27,.cls-28{stroke:#000;}.cls-14,.cls-2,.cls-26,.cls-28{stroke-miterlimit:10;}.cls-2,.cls-28{stroke-width:5px;}.cls-21,.cls-28,.cls-3{fill:#fff;}.cls-4{font-size:27.33px;font-family:OpenSans-Light, Open Sans;}.cls-5{font-size:50px;font-family:OpenSans-Bold, Open Sans;font-weight:700;}.cls-6{clip-path:url(#clip-path);}.cls-7{fill:#ffb583;}.cls-8{fill:#2d4959;}.cls-9{fill:#333;}.cls-10{fill:#f9b767;}.cls-11{fill:#ffc78a;}.cls-12{fill:#eda574;}.cls-13{fill:#231f20;}.cls-15{fill:#00a89b;}.cls-16{fill:#bec4ce;}.cls-17{fill:#ef8a6f;}.cls-18{fill:#ff6c96;}.cls-19{clip-path:url(#clip-path-2);}.cls-20{clip-path:url(#clip-path-3);}.cls-21,.cls-27{stroke-linecap:round;}.cls-21{stroke-linejoin:bevel;stroke-width:3.8px;}.cls-22{fill:#e25963;}.cls-23{fill:#678b9e;}.cls-24{fill:#b3b7c6;}.cls-25{fill:#e5da53;}.cls-26,.cls-27{stroke-width:2px;}.cls-27{stroke-linejoin:round;}</style><clipPath id="clip-path"><polygon class="cls-1" points="527.608 768.915 5.846 769.007 6.939 218.627 527.608 218.627 527.608 768.915"/></clipPath><clipPath id="clip-path-2"><polygon class="cls-1" points="256.844 1178.759 -14.154 1178.759 -14.154 475.517 251.064 479.493 248.5 699.685 256.844 1178.759"/></clipPath><clipPath id="clip-path-3"><polygon class="cls-1" points="420.749 1236.014 -34.105 1236.014 -34.105 521.473 110.071 525.775 145.445 534.007 150.345 535.202 287.02 487.984 420.749 521.473 420.749 1236.014"/></clipPath></defs><title>Before-Step-4</title><rect class="cls-2" x="3.392" y="71.861" width="524.215" height="700"/><polygon class="cls-3" points="3.438 276.601 2.511 67.861 528.49 67.861 527.628 276.601 3.438 276.601"/><path d="M525.979,70.361l-.84,203.74H5.926l-.9-203.74H525.979m5.021-5H0L.948,279.1h529.17L531,65.361Z"/><text class="cls-4" transform="translate(28.311 115.499)">Once the doctor says that you are fit <tspan x="0" y="32.795">to donate, you will have to sign a </tspan><tspan x="0" y="65.591">consent form. After that, follow the </tspan><tspan x="0" y="98.387">instructions of the doctor / nurse at </tspan><tspan x="0" y="131.182">the blood bank / camp.</tspan></text><rect class="cls-3" x="2.5" y="2.5" width="526" height="65.281"/><path d="M526,5V65.281H5V5H526m5-5H0V70.281H531V0Z"/><text class="cls-5" transform="translate(180.295 54.085)">STEP 4</text><g class="cls-6"><polygon class="cls-3" points="148.349 536.709 164.043 567.312 169.798 565.219 183.527 572.863 185.492 561.819 176.075 542.463 162.997 534.354 148.349 536.709"/><polygon class="cls-7" points="114.131 528.454 115.586 544.294 134.681 556.849 140.174 558.157 148.404 552.224 146.713 539.324 135.341 531.672 114.131 528.454"/><path class="cls-3" d="M162.133,444.54a1.657,1.657,0,0,0-2.3.655,5.462,5.462,0,0,0-.262,2.888,20.423,20.423,0,0,0,.291,3.022c1.356.336,3.5-.336,3.724-2.06A5.914,5.914,0,0,0,162.133,444.54Z"/><path class="cls-3" d="M101.527,450.449c1.356.337,2.644.183,3.225-1.432s-.306-3.069-1-4.452c0-.009,0-.016,0-.025a1.661,1.661,0,0,0-2.3.655,5.462,5.462,0,0,0-.26,2.888A13.6,13.6,0,0,0,101.527,450.449Z"/><path class="cls-8" d="M186.36,399.5q.4.951.782,1.9Q186.757,400.455,186.36,399.5Z"/><path class="cls-8" d="M185.188,396.756q.444,1.017.874,2.037Q185.633,397.773,185.188,396.756Z"/><path class="cls-8" d="M187.41,402.066q.5,1.253.991,2.507Q187.914,403.319,187.41,402.066Z"/><path class="cls-8" d="M131.6,377.623q-.168.692-.343,1.38Q131.428,378.314,131.6,377.623Z"/><path class="cls-8" d="M149.537,391.52c-.4-.5-.8-1-1.193-1.507C148.741,390.516,149.133,391.022,149.537,391.52Z"/><path class="cls-8" d="M182.6,391.145q1.244,2.546,2.38,5.138Q183.844,393.694,182.6,391.145Z"/><path class="cls-8" d="M146.748,387.953q-.792-1.047-1.568-2.106Q145.956,386.907,146.748,387.953Z"/><path class="cls-8" d="M130.548,381.571c-.086.294-.17.589-.259.882C130.379,382.16,130.462,381.865,130.548,381.571Z"/><path class="cls-8" d="M129.932,383.573c-.069.212-.134.425-.2.636C129.8,384,129.863,383.785,129.932,383.573Z"/><path class="cls-8" d="M131.094,379.6q-.145.556-.3,1.112C130.9,380.343,131,379.972,131.094,379.6Z"/><path class="cls-8" d="M179.866,385.875q.642,1.161,1.255,2.338Q180.508,387.037,179.866,385.875Z"/><path class="cls-8" d="M181.327,388.61q.572,1.1,1.119,2.22Q181.9,389.714,181.327,388.61Z"/><path class="cls-8" d="M55.665,403.372c.07-1.175.162-2.343.269-3.507C55.828,401.029,55.734,402.2,55.665,403.372Z"/><path class="cls-9" d="M207.207,514.82c-.607-12.574-1.395-25.142-2.685-37.664-2.545-24.7-7.107-49.368-16.121-72.583q-.488-1.254-.991-2.507c-.089-.22-.179-.439-.268-.659q-.386-.952-.782-1.9c-.1-.237-.2-.473-.3-.71q-.43-1.02-.874-2.037c-.069-.157-.136-.315-.206-.473q-1.14-2.589-2.38-5.138c-.051-.1-.1-.21-.156-.315q-.548-1.116-1.119-2.22-.1-.2-.206-.4-.614-1.176-1.255-2.338l-.064-.119q-.709-1.276-1.453-2.533c.008.026.015.053.023.079a78.871,78.871,0,0,0-8.152-11.494c-8.02-9.274-18.654-15.647-30.292-19.311-11.958-3.757-24.6-4.622-37.064-4.029-6.247.3-13.106.446-19.156,2.1-6.521,1.786-11.127,7.422-14.976,12.669a65.384,65.384,0,0,0-11.048,25.116l0-.008c-.024.108-.043.217-.066.325q-.216,1.006-.408,2.02c-.036.19-.073.38-.108.571q-.192,1.058-.359,2.121c-.026.163-.053.325-.078.488q-.174,1.149-.321,2.306c-.014.112-.031.223-.045.335-.11.891-.211,1.785-.3,2.683-.022.224-.044.449-.064.673-.107,1.164-.2,2.332-.269,3.507-.718,12.08-.159,24.159-1.353,36.191a6.456,6.456,0,0,1,4.5-1.511c4.635.121,9.492,2.82,12.77,6.577.17-1.2.275-2.409.373-3.621a26.991,26.991,0,0,1-4.417-2.342.443.443,0,0,1,.339-.806A25.647,25.647,0,0,1,72.1,439.1a134.039,134.039,0,0,0,0-13.418l-.088-2.181,1.821-.138c6.462-.5,12.819-1.159,18.983-3.863,7.536-3.31,14.222-8.418,20.735-13.38,7.133-5.438,12.376-11.691,15.549-20.149.218-.583.424-1.169.623-1.757.071-.211.136-.424.2-.636.121-.373.243-.745.357-1.12.089-.293.173-.588.259-.882s.168-.572.247-.858q.155-.555.3-1.112.079-.3.158-.6.175-.689.343-1.38c.022-.09.044-.18.065-.271.5-2.086.946-4.187,1.381-6.29l.775-3.715,1.128,2.073c1.608,2.982,3.218,5.965,5.039,8.83.8,1.256,1.625,2.491,2.468,3.717l-.017-.012c.583.858,1.184,1.7,1.785,2.549.319.449.637.9.961,1.343q.774,1.06,1.568,2.106t1.6,2.06c.4.5.79,1.009,1.193,1.507.993,1.223,2,2.436,3.033,3.625a99.985,99.985,0,0,0,15.359,14.917,54.585,54.585,0,0,0,11.9,6.5c-.133-.789-.251-1.577-.386-2.369a.565.565,0,0,1,1.088-.3c.32,1.1.582,2.208.871,3.313l.493,1.876c3.807,15.517,4.653,31.933,3.548,47.773a175.615,175.615,0,0,1-3.727,25.849c-1.757,7.909-4.073,15.927-8.659,22.71a31.638,31.638,0,0,1-14.565,12.053A83.05,83.05,0,0,1,142.244,532c11.263,1.048,22.578.145,33.969-.294,6.994-.27,13.908-.6,20.673-2.569a60.113,60.113,0,0,0,10.849-4.47C207.561,521.374,207.364,518.087,207.207,514.82Z"/><path class="cls-9" d="M93.873,512.723a123.159,123.159,0,0,1-22.936-36.864,15.4,15.4,0,0,1-10.829-.762,15.931,15.931,0,0,1-6.995-6.643c-.111,4.5-.522,9.037-.644,13.5-.187,6.8-.22,13.607-.043,20.41.161,6.216.667,12.4,1.208,18.585a128.554,128.554,0,0,0,13.952,6.157,105.234,105.234,0,0,0,19.28,5.112c7.331,1.182,14.522.972,21.9.844a7.993,7.993,0,0,1,5.431-1.984c-.016-.885-.021-1.767,0-2.623A67.919,67.919,0,0,1,93.873,512.723Z"/><path class="cls-10" d="M133.44,532.89c.059.4.134.794.22,1.191C133.575,533.684,133.5,533.287,133.44,532.89Z"/><path class="cls-10" d="M96.342,421.749c.089-.079.177-.16.27-.234C96.519,421.589,96.431,421.67,96.342,421.749Z"/><path class="cls-10" d="M137.993,529.994c-.316.04-.631.085-.948.119C137.362,530.079,137.677,530.033,137.993,529.994Z"/><path class="cls-10" d="M140.6,529.609c-.5.085-1,.17-1.5.243C139.6,529.779,140.1,529.694,140.6,529.609Z"/><path class="cls-10" d="M142.9,529.178q-.891.183-1.785.345C141.715,529.416,142.31,529.3,142.9,529.178Z"/><path class="cls-10" d="M95.931,422.154c.068-.074.134-.15.206-.22C96.065,422,96,422.08,95.931,422.154Z"/><path class="cls-10" d="M94.717,423.9c.022-.041.043-.082.065-.122Z"/><path class="cls-10" d="M95.356,422.848c.039-.053.081-.1.121-.156C95.437,422.744,95.4,422.794,95.356,422.848Z"/><path class="cls-10" d="M94.462,424.426c.01-.024.02-.047.031-.07Z"/><path class="cls-10" d="M87.926,456.31c-.026-.035-.048-.073-.074-.109C87.878,456.237,87.9,456.275,87.926,456.31Z"/><path class="cls-10" d="M90.058,458.333c-.122-.085-.239-.177-.357-.266C89.819,458.157,89.936,458.247,90.058,458.333Z"/><path class="cls-10" d="M88.9,457.4c-.067-.063-.128-.132-.193-.2C88.774,457.268,88.836,457.335,88.9,457.4Z"/><path class="cls-10" d="M76.859,443c.5.2,1.03.443,1.574.692C77.89,443.438,77.361,443.2,76.859,443Z"/><path class="cls-10" d="M121.909,456.846a8.8,8.8,0,0,1-.554.747A8.444,8.444,0,0,0,121.909,456.846Z"/><path class="cls-10" d="M122.845,454.909a8.549,8.549,0,0,1-.368.905A8.677,8.677,0,0,0,122.845,454.909Z"/><path class="cls-10" d="M158.468,462.264c-.007,0-.012-.01-.019-.015S158.461,462.26,158.468,462.264Z"/><path class="cls-10" d="M181.172,458.431c-.118.2-.262.419-.419.642C180.909,458.849,181.054,458.631,181.172,458.431Z"/><path class="cls-10" d="M122.363,456.047a8.335,8.335,0,0,1-.44.776A8.466,8.466,0,0,0,122.363,456.047Z"/><path class="cls-10" d="M95.016,423.364c.031-.051.063-.1.095-.149C95.079,423.264,95.046,423.313,95.016,423.364Z"/><path class="cls-10" d="M98.559,420.5c.145-.043.3-.077.449-.11C98.856,420.422,98.7,420.456,98.559,420.5Z"/><path class="cls-10" d="M97.189,425.077a6.633,6.633,0,0,1,.771-.975A6.581,6.581,0,0,0,97.189,425.077Z"/><path class="cls-10" d="M101.545,420.351c.033,0,.066.013.1.018C101.611,420.364,101.578,420.356,101.545,420.351Z"/><path class="cls-10" d="M99.223,420.342a6.363,6.363,0,0,1,.709-.085A6.363,6.363,0,0,0,99.223,420.342Z"/><path class="cls-10" d="M100.716,420.259c.054,0,.109.011.163.015C100.825,420.27,100.77,420.262,100.716,420.259Z"/><path class="cls-10" d="M99.608,423.121a3.545,3.545,0,0,1,.429-.078A3.545,3.545,0,0,0,99.608,423.121Z"/><path class="cls-10" d="M100.241,423.014a4.544,4.544,0,0,1,.71,0A4.544,4.544,0,0,0,100.241,423.014Z"/><path class="cls-10" d="M99.04,423.327a3.225,3.225,0,0,1,.359-.141A3.225,3.225,0,0,0,99.04,423.327Z"/><path class="cls-10" d="M98,424.061a4.1,4.1,0,0,1,.378-.334A4.1,4.1,0,0,0,98,424.061Z"/><path class="cls-10" d="M98.521,423.629a3.513,3.513,0,0,1,.336-.211A3.513,3.513,0,0,0,98.521,423.629Z"/><path class="cls-10" d="M97.939,420.723c.123-.052.251-.1.379-.144C98.19,420.624,98.062,420.671,97.939,420.723Z"/><path class="cls-10" d="M97.364,421.01c.109-.062.221-.122.335-.177C97.585,420.888,97.473,420.947,97.364,421.01Z"/><path class="cls-10" d="M96.832,421.353c.1-.071.2-.142.3-.207C97.03,421.212,96.93,421.282,96.832,421.353Z"/><path class="cls-11" d="M120.629,458.394c.214-.211.417-.435.614-.666a10.62,10.62,0,0,1-.848.875c.065-.057.134-.111.2-.172C120.6,458.42,120.615,458.405,120.629,458.394Z"/><path class="cls-11" d="M91.341,459.119h.009c.034.013.071.025.105.037-.216-.114-.439-.219-.647-.344C90.983,458.918,91.16,459.021,91.341,459.119Z"/><path class="cls-11" d="M96.836,425.641l.011,0c.108-.18.213-.365.326-.537Q97,425.364,96.836,425.641Z"/><path class="cls-7" d="M183.12,458.162c-1.06,1.812-3.675,4.915-6.13,4.679a32.287,32.287,0,0,0,3.671-3.639,15.013,15.013,0,0,1-1.886,2.152c-5.987,3.23-13.286,2.772-20.088,1.414a.481.481,0,0,1-.46.4c-8.787.8-12.426-7.259-12.636-14.756-2.5-1.993-4.421-3.7-8.116-3.978-3.743-.281-7.093.248-10.181,2.429-.3.215-.568-.187-.45-.451,2.5-5.864,14.516-6.1,18.832-1.256.193-3.181.642-6.713,3.706-8.295,3.977-2.059,10.012-1.408,14.309-1.357,5.4.07,14.41-.419,19,3.568-.49-5.839-1.209-11.667-2.087-17.5-.15-1-.294-1.99-.454-2.986-11.253-3.474-20.422-12.285-28.091-20.926-6.31-7.115-12.878-15.333-17.712-24.115-2.149,12.887-7.253,24.766-18.042,33.195-7.155,5.589-14.631,11.334-23.03,14.923a53.645,53.645,0,0,1-19.255,3.967,118.487,118.487,0,0,1,.024,14.126c0,.042-.006.083-.007.123.938.406,1.868.839,2.8,1.278a75.734,75.734,0,0,0,7.486,3.265c.122-2.969.218-6.823,2.981-8.378,4-2.244,11.049-1.1,15.4-.924,5.069.206,10.5.45,15.448,1.69,3.253.814,5.99,2.453,6.823,5.873.962,3.97,1.032,10.164-.638,14.012-1.509,3.48-5.554,5.58-9.091,6.322a.3.3,0,0,1-.228-.537c1.629-1.19,3.352-2.18,4.822-3.413-7.519,6.075-20.11,3.163-28.383.089a27.169,27.169,0,0,0,4.894,1.914c.513.155.448,1.05-.132.98-3.776-.451-7.307-1.509-9.8-4.542-2.69-3.277-2.41-7.716-2.166-11.729a16.037,16.037,0,0,1-4.088-1.31c-.591-.259-1.171-.525-1.733-.783-.544-.249-1.072-.488-1.574-.692-.971-.394-1.962-.781-2.953-1.178-.119,1.734-.269,3.481-.532,5.228l-.469,2.565-1.766-2.32c-2.518-3.067-5.54-5.583-9.665-6.552-8.543-2.008-8.964,8.561-9,14.569-.032,6.212,1.86,13.167,7.4,16.72a12.153,12.153,0,0,0,10.089,1.385l2.057-.707.974,2.362a131.764,131.764,0,0,0,17.594,30c6.484,8.228,14.355,16.032,23.747,20.765l1.726.823a41.877,41.877,0,0,0,11.441,3.4,35.356,35.356,0,0,0,5.782.32l1.659-.083c.7-.043,1.4-.1,2.1-.179.317-.034.632-.079.948-.119.369-.046.739-.089,1.107-.142.5-.073,1-.158,1.5-.243.174-.03.348-.055.522-.086q.894-.16,1.785-.345l.174-.034c2.994-.617,5.966-1.4,8.91-2.191,7.705-2.078,13.884-5.663,18.574-12.246,4.459-6.25,6.725-13.77,8.443-21.169a172.421,172.421,0,0,0,3.906-25.125c.287-3.6.425-7.192.475-10.766C183.294,457.815,183.217,458,183.12,458.162ZM160.794,419.85c5.175-1.675,9.71,3.247,12.467,7.084.215.3-.214.729-.517.513-2.359-1.652-5.042-4.656-7.948-5.291-5-1.089-6.814,3.574-8.168,7.095a.864.864,0,0,1-1.558.2C152.74,425.266,157.006,421.079,160.794,419.85Zm-51.905,7.879c-2.1-1.765-5.079-4.484-7.938-4.715a6.822,6.822,0,0,1,2.288.66c-.456.147-.909.3-1.375.443-1.677.5-3.362.992-5.017,1.52a18.88,18.88,0,0,1-2.02,3.122.787.787,0,0,1-1.333-.55,13.574,13.574,0,0,1,.23-1.485,11.6,11.6,0,0,1,.738-2.3l.031-.07q.106-.234.224-.461l.065-.122c.075-.139.152-.276.234-.409.03-.051.063-.1.095-.149.08-.125.16-.248.245-.367.039-.054.081-.1.121-.156a6.9,6.9,0,0,1,.454-.538c.068-.074.134-.15.206-.22s.137-.123.2-.185c.089-.079.177-.16.27-.234.071-.057.146-.108.22-.162.1-.071.2-.141.3-.207.075-.048.153-.092.231-.136.109-.063.221-.122.335-.177.079-.038.159-.075.24-.11.123-.052.251-.1.379-.144.08-.027.159-.056.241-.08.145-.043.3-.077.449-.11.072-.015.141-.034.215-.047a6.363,6.363,0,0,1,.709-.085,6.839,6.839,0,0,1,.784,0c.054,0,.109.011.163.015.221.017.442.041.666.077.033,0,.066.013.1.018a12.239,12.239,0,0,1,4.886,2.134,10.973,10.973,0,0,1,3.679,4.209A.845.845,0,0,1,108.889,427.729ZM68.922,462.134a.563.563,0,0,1-1.077,0c-.585-2.481-1.087-6.428-3.141-8.171-3.118-2.646-4.892,1.819-6.606,3.452a.646.646,0,0,1-1.07-.282c-1.38-4.036,3.933-7.726,7.511-6.515C68.543,451.973,69.526,458.586,68.922,462.134Zm72.948,18.9c-.822.33-1.232-.918-.575-1.363,1.527-1.026,4.832-2.823,5.424-4.777.77-2.549-1.167-3-2.5-4.191a12.442,12.442,0,0,1-3.44-5.469,29.425,29.425,0,0,1-.307-18.624c.131-.4.817-.363.774.1a45.757,45.757,0,0,0,.406,13.855,18.632,18.632,0,0,0,2.636,7.013c1.139,1.576,2.766,2.364,4.068,3.746C151.758,474.929,144.9,479.828,141.87,481.031Z"/><path class="cls-7" d="M120.4,458.6c-.176.165-.372.309-.557.465.059-.048.124-.085.183-.134C120.147,458.825,120.27,458.714,120.4,458.6Z"/><path class="cls-12" d="M178.775,461.354a15.013,15.013,0,0,0,1.886-2.152l.092-.129c.157-.223.3-.441.419-.642a15.271,15.271,0,0,0,1.623-4.713c.189-.961.393-2.147.544-3.4q-.1-3.59-.328-7.175c-2.417-6.334-13.829-5.376-19.32-5.436-2.832-.03-5.675.014-8.5.241-2.622.213-5.379.131-6.735,3.282-.55,1.279-.574,3.716-.654,5.166-.423,7.469,1.885,14.888,10.421,15.782a.574.574,0,0,1,.222.07c.007,0,.012.011.019.015a.525.525,0,0,1,.256.512C165.525,464.133,172.788,464.584,178.775,461.354Zm-12.584-10.049c.121,2.565-.947,7.733-4.6,5.1-3.127-2.246-4.4-7.2-3.691-10.824.525-2.7,2.841-3.752,4.733-2.659a3.285,3.285,0,0,1,1.2.826,3.492,3.492,0,0,0,1.172-.961c.687-.853.886-1.968,1.524-2.83a.37.37,0,0,1,.681.184,6.065,6.065,0,0,1-1.345,3.746,4.85,4.85,0,0,1-1.159,1.065,11.817,11.817,0,0,1,1.053,3.028,3.281,3.281,0,0,0,1.117-.776,7.664,7.664,0,0,0,1.495-2.331c.157-.4.883-.4.824.11a6.226,6.226,0,0,1-1.167,3.418,4.563,4.563,0,0,1-1.957,1.407C166.128,450.364,166.171,450.874,166.191,451.305Z"/><path class="cls-12" d="M91.35,459.12c8.337,3.111,21.143,6.106,28.671-.186.191-.166.389-.324.569-.5.012-.011.025-.026.039-.037.214-.211.417-.435.614-.666.037-.045.075-.089.112-.135a8.8,8.8,0,0,0,.554-.747l.014-.023a8.335,8.335,0,0,0,.44-.776c.039-.077.077-.155.114-.233a8.549,8.549,0,0,0,.368-.905c.962-2.885.892-8.765.058-11.655-1.868-6.455-14.168-5.68-19.38-5.924q-4.93-.231-9.86-.067c-2.3.082-3.959-.145-5.59,1.584-1.55,1.644-1.373,3.65-1.536,5.8-.244,3.227-.839,7.423.615,10.4a7.929,7.929,0,0,0,.7,1.151c.026.036.048.074.074.109a8.338,8.338,0,0,0,.784.892c.065.065.126.134.193.2a10.221,10.221,0,0,0,.8.668c.118.089.235.181.357.266.242.17.494.327.75.48.175.105.352.208.533.306Zm8.144-13.465a.364.364,0,0,1,.013-.072,7.4,7.4,0,0,1,.443-1.254l1.128-1.105s2.074-.927,3.163-.3c2.743.982,3.445,5.951,3.56,8.381.119,2.565-.946,7.733-4.6,5.1-2.684-1.926-3.866-9.2-3.866-9.2Z"/><path class="cls-10" d="M100.037,423.043a3.545,3.545,0,0,0-.429.078c-.072.019-.14.042-.209.065a3.225,3.225,0,0,0-.359.141c-.062.029-.124.059-.183.091a3.513,3.513,0,0,0-.336.211c-.046.033-.094.064-.139.1a4.1,4.1,0,0,0-.378.334c-.014.014-.03.026-.044.041a6.633,6.633,0,0,0-.771.975l-.016.023q-.172.264-.337.541c1.659-.53,3.347-1.023,5.028-1.524.466-.139.919-.3,1.375-.443a6.822,6.822,0,0,0-2.288-.66,4.544,4.544,0,0,0-.71,0C100.17,423.02,100.106,423.034,100.037,423.043Z"/><path class="cls-13" d="M64.539,450.618c-3.578-1.211-8.891,2.479-7.511,6.515a.646.646,0,0,0,1.07.282c1.714-1.633,3.488-6.1,6.606-3.452,2.054,1.743,2.556,5.69,3.141,8.171a.563.563,0,0,0,1.077,0C69.526,458.586,68.543,451.973,64.539,450.618Z"/><path class="cls-13" d="M144.223,470.7c1.329,1.19,3.266,1.642,2.5,4.191-.592,1.954-3.9,3.751-5.424,4.777-.657.445-.247,1.693.575,1.363,3.034-1.2,9.888-6.1,6.49-9.7-1.3-1.382-2.929-2.17-4.068-3.746a18.632,18.632,0,0,1-2.636-7.013,45.757,45.757,0,0,1-.406-13.855c.043-.468-.643-.5-.774-.1a29.425,29.425,0,0,0,.307,18.624A12.442,12.442,0,0,0,144.223,470.7Z"/><path class="cls-13" d="M99.331,447.206s-.4,6.12,3.866,9.2c3.652,2.639,4.723-2.537,4.6-5.1-.115-2.43-.817-7.4-3.56-8.381a3.32,3.32,0,0,0-2.394-.277,3.22,3.22,0,0,0-1.2.857l-.692.825a7.4,7.4,0,0,0-.443,1.254C99.5,445.607,99.331,447.206,99.331,447.206Zm2.111-2.011a1.661,1.661,0,0,1,2.3-.655c0,.009,0,.016,0,.025.7,1.383,1.585,2.846,1,4.452l-.017.048a1.839,1.839,0,0,1-3.526-.59c-.011-.135-.02-.266-.027-.392A5.462,5.462,0,0,1,101.442,445.2Z"/><path class="cls-13" d="M168.018,448.4a6.226,6.226,0,0,0,1.167-3.418c.059-.511-.667-.506-.824-.11a7.664,7.664,0,0,1-1.495,2.331,3.281,3.281,0,0,1-1.117.776,13.7,13.7,0,0,0-.658-2.183,1.242,1.242,0,0,1,.272-1.371,4.87,4.87,0,0,0,.492-.539,6.065,6.065,0,0,0,1.345-3.746.37.37,0,0,0-.681-.184c-.638.862-.837,1.977-1.524,2.83-.08.1-.165.194-.255.286a1.221,1.221,0,0,1-1.545.142,2.561,2.561,0,0,0-.567-.293c-1.892-1.093-4.208-.042-4.733,2.659-.711,3.625.564,8.578,3.691,10.824,3.658,2.631,4.726-2.537,4.6-5.1q-.014-.292-.041-.629a1.307,1.307,0,0,1,.656-1.223A4.506,4.506,0,0,0,168.018,448.4Zm-4.873.614a2.132,2.132,0,0,1-2.181,1.578,1.277,1.277,0,0,1-1.233-1.073,12.769,12.769,0,0,1-.16-1.439,5.462,5.462,0,0,1,.262-2.888,1.657,1.657,0,0,1,2.3-.655c0,.009,0,.016,0,.025C162.833,445.948,163.725,447.411,163.145,449.017Z"/><path class="cls-13" d="M101.644,420.369c-.033-.005-.066-.013-.1-.018-.223-.037-.445-.059-.666-.077-.054,0-.109-.012-.163-.015a6.839,6.839,0,0,0-.784,0,6.363,6.363,0,0,0-.709.085c-.073.013-.143.032-.215.047-.152.033-.3.067-.449.11-.082.024-.161.053-.241.08-.128.045-.256.092-.379.144-.081.035-.161.072-.24.11-.114.055-.226.115-.335.177-.078.044-.156.088-.231.136-.1.065-.2.136-.3.207-.074.054-.149.105-.22.162-.093.074-.181.155-.27.234-.068.062-.14.12-.2.185s-.138.146-.206.22c-.159.171-.311.35-.454.538-.04.052-.082.1-.121.156-.085.119-.165.242-.245.367-.032.049-.064.1-.095.149-.082.133-.159.27-.234.409-.022.04-.043.081-.065.122q-.117.226-.224.461c-.011.023-.021.046-.031.07a11.662,11.662,0,0,0-.734,2.3l0,0a13.574,13.574,0,0,0-.23,1.485.787.787,0,0,0,1.333.55,28.408,28.408,0,0,0,2.346-3.659l.016-.023a6.581,6.581,0,0,1,.771-.975c.014-.015.03-.027.044-.041a4.1,4.1,0,0,1,.378-.334c.044-.035.093-.065.139-.1a3.513,3.513,0,0,1,.336-.211c.059-.032.121-.062.183-.091a3.225,3.225,0,0,1,.359-.141c.069-.023.137-.046.209-.065a3.545,3.545,0,0,1,.429-.078c.068-.009.133-.023.2-.029a4.544,4.544,0,0,1,.71,0c2.859.231,5.837,2.95,7.938,4.715a.845.845,0,0,0,1.32-1.017,10.973,10.973,0,0,0-3.679-4.209l-.025.01A12.349,12.349,0,0,0,101.644,420.369Z"/><path class="cls-13" d="M97.133,421.146c.075-.048.153-.092.231-.136C97.286,421.054,97.208,421.1,97.133,421.146Z"/><path class="cls-13" d="M95.477,422.692c.143-.188.3-.367.454-.538A6.9,6.9,0,0,0,95.477,422.692Z"/><path class="cls-13" d="M96.612,421.515c.071-.057.146-.108.22-.162C96.758,421.407,96.683,421.458,96.612,421.515Z"/><path class="cls-13" d="M96.137,421.934c.065-.065.137-.123.2-.185C96.274,421.811,96.2,421.869,96.137,421.934Z"/><path class="cls-13" d="M106.505,422.513l.025-.01a12.239,12.239,0,0,0-4.886-2.134A12.349,12.349,0,0,1,106.505,422.513Z"/><path class="cls-13" d="M94.493,424.356q.106-.234.224-.461Q94.6,424.121,94.493,424.356Z"/><path class="cls-13" d="M100.879,420.274c.221.018.443.04.666.077C101.321,420.315,101.1,420.291,100.879,420.274Z"/><path class="cls-13" d="M97.7,420.833c.079-.038.159-.075.24-.11C97.858,420.758,97.778,420.8,97.7,420.833Z"/><path class="cls-13" d="M99.008,420.389c.072-.015.142-.034.215-.047C99.149,420.355,99.08,420.374,99.008,420.389Z"/><path class="cls-13" d="M94.462,424.426a11.6,11.6,0,0,0-.738,2.3l0,0A11.662,11.662,0,0,1,94.462,424.426Z"/><path class="cls-13" d="M99.932,420.257a6.839,6.839,0,0,1,.784,0A6.839,6.839,0,0,0,99.932,420.257Z"/><path class="cls-13" d="M98.318,420.579c.08-.027.159-.056.241-.08C98.477,420.523,98.4,420.552,98.318,420.579Z"/><path class="cls-13" d="M94.782,423.773c.075-.139.152-.276.234-.409C94.934,423.5,94.857,423.634,94.782,423.773Z"/><path class="cls-13" d="M95.111,423.215c.08-.125.16-.248.245-.367C95.271,422.967,95.191,423.09,95.111,423.215Z"/><path class="cls-13" d="M99.4,423.186c.069-.023.137-.046.209-.065C99.536,423.14,99.468,423.163,99.4,423.186Z"/><path class="cls-13" d="M100.037,423.043c.069-.009.133-.023.2-.029C100.17,423.02,100.105,423.034,100.037,423.043Z"/><path class="cls-13" d="M98.857,423.418c.059-.032.121-.062.183-.091C98.978,423.356,98.916,423.386,98.857,423.418Z"/><path class="cls-13" d="M97.96,424.1c.014-.015.03-.027.044-.041C97.99,424.075,97.974,424.087,97.96,424.1Z"/><path class="cls-13" d="M98.382,423.727c.045-.034.093-.065.139-.1C98.475,423.662,98.426,423.692,98.382,423.727Z"/><path class="cls-13" d="M97.173,425.1l.016-.023Z"/><path class="cls-13" d="M156.628,429.251c1.354-3.521,3.167-8.184,8.168-7.095,2.906.635,5.589,3.639,7.948,5.291.3.216.732-.211.517-.513-2.757-3.837-7.292-8.759-12.467-7.084-3.788,1.229-8.054,5.416-5.724,9.6A.864.864,0,0,0,156.628,429.251Z"/><path class="cls-14" d="M209.963,523.48q-.31-7.349-.7-14.69c-.806-15.127-1.951-30.242-3.986-45.255-3.522-26.011-9.686-52.274-21.724-75.766-5.378-10.493-12.344-20.207-21.93-27.239-9.731-7.138-21.391-11.4-33.239-13.356-13.56-2.238-27.644-1.777-41.221.152-11.361,1.615-18.488,10.442-24.136,19.832-13.754,22.853-8.913,49.658-10.7,74.986-1.821,3.473-2.171,8.4-2.329,11.716A29.434,29.434,0,0,0,51.606,465.2c-.948,5.489-1.025,11.251-1.246,16.756-.273,6.8-.3,13.608-.166,20.41.118,5.61.248,11.361.58,17.1l.2,3.226,2.941,1.4c4.531,2.107,9.13,4.013,13.738,5.655,12.12,4.318,26.666,7.572,39.612,4.941-.005.007-.008.015-.013.021a.785.785,0,0,0-.261.1l9.12-.412c-.535-2.684-.193-2.447-.13-5.139a41.677,41.677,0,0,0,16.957,3.619c.151,0,2.757.745,2.757.745s11.43,1.718,17.162,1.62c8.34-.144,16.68-.614,25.011-.953,10.362-.422,20.953-2.033,30-6.982l2.2-1.292Zm-95.768,7.6a7.993,7.993,0,0,0-5.431,1.984c-7.376.128-14.567.338-21.9-.844a105.234,105.234,0,0,1-19.28-5.112,128.554,128.554,0,0,1-13.952-6.157c-.541-6.185-1.047-12.369-1.208-18.585-.177-6.8-.144-13.607.043-20.41.122-4.462.533-9,.644-13.5a15.931,15.931,0,0,0,6.995,6.643,15.4,15.4,0,0,0,10.829.762,123.159,123.159,0,0,0,22.936,36.864A67.919,67.919,0,0,0,114.2,528.454C114.174,529.31,114.179,530.192,114.2,531.077Zm26.4-1.468c-.5.085-1,.17-1.5.243-.368.054-.738.1-1.107.142-.316.039-.631.085-.948.119-.7.075-1.4.136-2.1.179l-1.659.083a35.356,35.356,0,0,1-5.782-.32,41.877,41.877,0,0,1-11.441-3.4l-1.726-.823c-9.392-4.733-17.263-12.537-23.747-20.765a131.764,131.764,0,0,1-17.594-30l-.974-2.362-2.057.707a12.153,12.153,0,0,1-10.089-1.385c-5.54-3.553-7.432-10.508-7.4-16.72.037-6.008.458-16.577,9-14.569,4.125.969,7.147,3.485,9.665,6.552l1.766,2.32.469-2.565c.263-1.747.413-3.494.532-5.228.991.4,1.982.784,2.953,1.178.5.2,1.031.443,1.574.692.562.257,1.142.525,1.733.783a16.037,16.037,0,0,0,4.088,1.31c-.244,4.013-.524,8.452,2.166,11.729,2.49,3.033,6.021,4.091,9.8,4.542.58.07.645-.825.132-.98a24.8,24.8,0,0,1-5.541-2.258c-.256-.152-.507-.311-.75-.48-.122-.086-.239-.176-.357-.266a10.039,10.039,0,0,1-.8-.668c-.067-.064-.129-.131-.193-.2a8.45,8.45,0,0,1-.784-.892c-.026-.035-.048-.073-.074-.109a7.842,7.842,0,0,1-.7-1.151c-1.454-2.981-.859-7.177-.615-10.4.163-2.149-.014-4.155,1.536-5.8,1.631-1.729,3.291-1.5,5.59-1.584q4.931-.162,9.86.067c5.212.244,17.512-.531,19.38,5.924.834,2.89.9,8.77-.058,11.655a8.677,8.677,0,0,1-.368.905c-.037.078-.075.156-.114.233a8.466,8.466,0,0,1-.44.776l-.014.023a8.444,8.444,0,0,1-.554.747l-.112.135c-1.663,1.96-4.046,3.161-6.227,4.753a.3.3,0,0,0,.228.537c3.537-.742,7.582-2.842,9.091-6.322,1.67-3.848,1.6-10.042.638-14.012-.833-3.42-3.57-5.059-6.823-5.873-4.95-1.24-10.379-1.484-15.448-1.69-4.35-.174-11.4-1.32-15.4.924-2.763,1.555-2.859,5.409-2.981,8.378a75.734,75.734,0,0,1-7.486-3.265c-.929-.436-1.858-.871-2.8-1.278,0-.04.007-.081.007-.123a118.487,118.487,0,0,0-.024-14.126,53.645,53.645,0,0,0,19.255-3.967c8.4-3.589,15.875-9.334,23.03-14.923,10.789-8.429,15.893-20.308,18.042-33.195,4.834,8.782,11.4,17,17.712,24.115,7.669,8.641,16.838,17.452,28.091,20.926.161,1,.307,1.991.456,2.987h0c.878,5.833,1.6,11.661,2.087,17.5-4.593-3.987-13.6-3.5-19-3.568-4.3-.051-10.332-.7-14.309,1.357-3.064,1.582-3.513,5.114-3.706,8.295-4.316-4.841-16.336-4.608-18.832,1.256-.118.264.148.666.45.451,3.088-2.181,6.438-2.71,10.181-2.429,3.695.278,5.614,1.985,8.116,3.978.21,7.5,3.849,15.552,12.636,14.756a.481.481,0,0,0,.46-.4c-.005,0-.046-.391-.219-.5-.007,0-.012-.011-.019-.015a.564.564,0,0,0-.222-.07c-8.536-.894-10.844-8.313-10.421-15.782.08-1.45.1-3.887.654-5.166,1.356-3.151,4.113-3.069,6.735-3.282,2.821-.227,5.664-.271,8.5-.241,5.491.06,16.9-.9,19.32,5.436q.234,3.584.328,7.175c-.151,1.252-.355,2.438-.544,3.4a15.271,15.271,0,0,1-1.623,4.713c-.118.2-.263.418-.419.642l-.092.129a32.287,32.287,0,0,1-3.671,3.639c2.455.236,5.07-2.867,6.13-4.679.1-.158.174-.347.266-.515-.05,3.574-.188,7.163-.475,10.766a172.421,172.421,0,0,1-3.906,25.125c-1.718,7.4-3.984,14.919-8.443,21.169-4.69,6.583-10.869,10.168-18.574,12.246-2.944.794-5.916,1.574-8.91,2.191h0c-.058.012-.116.021-.174.033-.594.121-1.189.238-1.785.345C140.945,529.554,140.771,529.579,140.6,529.609Zm56.289-.474c-6.765,1.97-13.679,2.3-20.673,2.569-11.391.439-22.706,1.342-33.969.294a83.05,83.05,0,0,0,16.243-4.535,31.638,31.638,0,0,0,14.565-12.053c4.586-6.783,6.9-14.8,8.659-22.71a175.615,175.615,0,0,0,3.727-25.849c1.105-15.84.259-32.256-3.548-47.773L181.4,417.2c-.289-1.105-.551-2.216-.871-3.313a.565.565,0,0,0-1.088.3c.135.792.253,1.58.386,2.369a54.585,54.585,0,0,1-11.9-6.5,99.985,99.985,0,0,1-15.359-14.917c-1.034-1.189-2.041-2.4-3.033-3.625-.4-.5-.8-1-1.193-1.507q-.807-1.023-1.6-2.06t-1.568-2.106c-.324-.445-.642-.894-.961-1.343-1.461-2.051-2.887-4.127-4.236-6.254-1.821-2.865-3.431-5.848-5.039-8.83l-1.128-2.073-.775,3.715c-.435,2.1-.881,4.2-1.381,6.29-.021.091-.043.181-.065.271q-.168.692-.343,1.38c-.051.2-.105.4-.158.6-.1.371-.2.742-.3,1.112-.079.286-.164.572-.247.858s-.169.589-.259.882c-.114.375-.236.747-.357,1.12-.069.212-.134.425-.2.636q-.3.882-.623,1.757c-3.173,8.458-8.416,14.711-15.549,20.149-6.513,4.962-13.2,10.07-20.735,13.38-6.164,2.7-12.521,3.365-18.983,3.863l-1.821.138.088,2.181a134.039,134.039,0,0,1,0,13.418,25.647,25.647,0,0,0-4.226-1.235.443.443,0,0,0-.339.806,26.991,26.991,0,0,0,4.417,2.342c-.1,1.212-.2,2.419-.373,3.621-3.278-3.757-8.135-6.456-12.77-6.577a6.456,6.456,0,0,0-4.5,1.511c1.194-12.032.635-24.111,1.353-36.191.069-1.175.163-2.343.269-3.507.02-.224.042-.449.064-.673,1.259-12.983,4.853-25.221,12.734-35.957,3.849-5.247,8.455-10.883,14.976-12.669,6.05-1.652,12.909-1.8,19.156-2.1,12.464-.593,25.106.272,37.064,4.029,11.638,3.664,22.272,10.037,30.292,19.311a81.935,81.935,0,0,1,9.582,13.948l.064.119q.642,1.161,1.255,2.338l.206.4q.57,1.1,1.119,2.22c.052.105.1.21.156.315q1.242,2.546,2.38,5.138c.07.158.137.316.206.473q.444,1.017.874,2.037c.1.237.2.473.3.71q.4.951.782,1.9c.089.22.179.439.268.659q.5,1.253.991,2.507c9.014,23.215,13.576,47.886,16.121,72.583,1.29,12.522,2.078,25.09,2.685,37.664.157,3.267.354,6.554.528,9.845A60.113,60.113,0,0,1,196.886,529.135Z"/><path class="cls-13" d="M131.66,377.352c-.021.091-.043.181-.065.271C131.617,377.533,131.639,377.443,131.66,377.352Z"/><path class="cls-13" d="M131.252,379q-.078.3-.158.6C131.147,379.4,131.2,379.2,131.252,379Z"/><path class="cls-13" d="M129.727,384.209c-.2.588-.405,1.174-.623,1.757Q129.431,385.092,129.727,384.209Z"/><path class="cls-13" d="M55.934,399.865c.02-.224.042-.449.064-.673C55.976,399.416,55.954,399.641,55.934,399.865Z"/><path class="cls-13" d="M130.795,380.713c-.079.286-.164.572-.247.858C130.631,381.285,130.716,381,130.795,380.713Z"/><path class="cls-13" d="M130.289,382.453c-.114.375-.236.747-.357,1.12C130.053,383.2,130.175,382.828,130.289,382.453Z"/><path class="cls-13" d="M184.982,396.283c.07.158.137.316.206.473C185.119,396.6,185.052,396.441,184.982,396.283Z"/><path class="cls-13" d="M181.121,388.213q.1.2.206.4Z"/><path class="cls-13" d="M179.8,385.756l.064.119Z"/><path class="cls-13" d="M186.062,398.793c.1.237.2.473.3.71C186.261,399.266,186.162,399.03,186.062,398.793Z"/><path class="cls-13" d="M182.446,390.83c.052.105.1.21.156.315C182.551,391.04,182.5,390.935,182.446,390.83Z"/><path class="cls-13" d="M152.57,395.145c-1.034-1.189-2.04-2.4-3.033-3.625C150.529,392.744,151.536,393.956,152.57,395.145Z"/><path class="cls-13" d="M145.18,385.847c-.324-.444-.642-.894-.961-1.343C144.538,384.953,144.856,385.4,145.18,385.847Z"/><path class="cls-13" d="M148.344,390.013q-.807-1.023-1.6-2.06Q147.534,388.993,148.344,390.013Z"/><path class="cls-13" d="M187.142,401.407c.089.22.179.439.268.659C187.321,401.846,187.231,401.627,187.142,401.407Z"/><path class="cls-13" d="M180.609,421.574c-.149-1-.3-1.991-.456-2.987.16,1,.3,1.991.454,2.986Z"/><path class="cls-13" d="M76.836,441.158c-.928-.439-1.858-.872-2.8-1.278C74.978,440.287,75.907,440.722,76.836,441.158Z"/><path class="cls-13" d="M134.942,530.292c.7-.043,1.4-.1,2.1-.179C136.345,530.188,135.644,530.249,134.942,530.292Z"/><path class="cls-13" d="M143.078,529.145h0l-.174.034C142.962,529.166,143.02,529.157,143.078,529.145Z"/><path class="cls-13" d="M78.433,443.687c.562.258,1.142.524,1.733.783C79.575,444.212,79,443.944,78.433,443.687Z"/><path class="cls-13" d="M141.119,529.523c-.174.031-.348.056-.522.086C140.771,529.579,140.945,529.554,141.119,529.523Z"/><path class="cls-13" d="M139.1,529.852c-.368.053-.738.1-1.107.142C138.362,529.947,138.732,529.906,139.1,529.852Z"/><path class="cls-13" d="M180.753,459.073l-.092.129Z"/><path class="cls-13" d="M158.449,462.249a.574.574,0,0,0-.222-.07A.564.564,0,0,1,158.449,462.249Z"/><path class="cls-13" d="M121.355,457.593c-.037.046-.075.09-.112.135Z"/><path class="cls-13" d="M121.923,456.823l-.014.023Z"/><path class="cls-13" d="M90.808,458.813c-.256-.153-.508-.31-.75-.48C90.3,458.5,90.552,458.661,90.808,458.813Z"/><path class="cls-13" d="M88.71,457.2a8.338,8.338,0,0,1-.784-.892A8.45,8.45,0,0,0,88.71,457.2Z"/><path class="cls-13" d="M89.7,458.067a10.221,10.221,0,0,1-.8-.668A10.039,10.039,0,0,0,89.7,458.067Z"/><path class="cls-13" d="M87.852,456.2a7.929,7.929,0,0,1-.7-1.151A7.842,7.842,0,0,0,87.852,456.2Z"/><path class="cls-13" d="M122.477,455.814c-.037.078-.075.156-.114.233C122.4,455.97,122.44,455.892,122.477,455.814Z"/><path class="cls-15" d="M124.547,578.324q-3.786-15.892-7.616-31.767,5.654,4.067,11.435,7.89c2.826,1.86,5.637,4.708,8.577,5.7-2.818,1.894-5.032,5.473-6.452,7.957-1.788,3.137-4.334,7.2-5.625,11.1A1.617,1.617,0,0,0,124.547,578.324Z"/><path class="cls-14" d="M158.2,776.46c-.909.074-1.932.069-2.891.213-.017-4.147-.111-8.3-.237-12.456,1.043-.124,2.1-.5,3.128-.679,1.377-.24,2.811-.307,4.211-.49a62.863,62.863,0,0,0,.22,13.164A35.5,35.5,0,0,0,158.2,776.46Z"/><path class="cls-3" d="M128.9,669.815c-.01-.006,0,0-.02-.013a1.722,1.722,0,0,1-.211-.12c-.034-.018-.106-.076-.131-.093a.894.894,0,0,1-.094-.081c-.067-.067-.414-.472-.253-.252a4.206,4.206,0,0,1-.346-.537,10.052,10.052,0,0,1-.974-3.333,13.984,13.984,0,0,1-.064-2.555,7.928,7.928,0,0,0-.047-2.2c1.986-7.25,1.015-16.428-1.853-23.18"/><path class="cls-3" d="M129.731,669.92l-.116,0"/><path class="cls-3" d="M133.659,666.181a.194.194,0,0,1-.015.037"/><path class="cls-3" d="M133.914,663.55a3.385,3.385,0,0,1,.129.436.351.351,0,0,0,.02.09"/><path class="cls-3" d="M133.422,662.88a.865.865,0,0,1,.108.1c.062.062.122.127.176.191"/><path class="cls-3" d="M121.9,580.379c11.668,52.925,23.916,105.9,28.048,160,2.595,33.93,2.937,68.774-2.591,102.453C144.3,861.5,139.423,879.56,133.9,897.457a288.317,288.317,0,0,1-34.6,3.522c-2.434.08-4.906.144-7.393.164H89.156c-10.207-.065-20.565-1.011-29.873-4.3,4.857-12.548,9.174-25.318,13.1-38.019,7.136-23.114,14.026-47.9,14.083-72.338l2.163-.907c.146-.064.285-.133.431-.2.062,4.775.564,10.967,4.47,13.821.872.634,1.707-.416,1.59-1.224-.373-2.61-1.87-5.018-2.494-7.608-.49-2.011-.9-4.048-1.265-6.093.052-.03.109-.055.158-.08,6.69-1.932,12.974-4.879,19.862-6.37,6.749-1.446,13.684-1.664,20.409-3.022.631,2.893,2.8,5.6,3.678,8.491.812,2.655,1.345,5.38,2.046,8.059a.64.64,0,0,0,1.253-.168,25.419,25.419,0,0,0-1.439-10.655c-.867-2.413-1.768-5.474-4.01-6.906a.671.671,0,0,0-.5-.47,31.482,31.482,0,0,0-9.749-.625,30.946,30.946,0,0,0-5.937-6.132,27.4,27.4,0,0,0-3.685-2.712l1.721-3.8-2.2-2.7C106.89,749.916,100.215,743,94,736.031a481.481,481.481,0,0,0-.44-49.5c-1.061-19.279-3.228-38.72-8.806-57.238,3.48-6.139,2.936-14.612,2.019-21.16-.091-.648-1.206-.5-1.142.154A34.5,34.5,0,0,1,84.38,620.95a31.452,31.452,0,0,1-1.193,3.447l-1.558,3.841c-.114.295-.236.58-.347.876C75.4,639.149,67.209,647.592,60.8,657.274c-2.895,4.364-5.843,9.059-7.245,14.164-1.627,5.911-.448,11.841-.118,17.875a1.284,1.284,0,0,0,.646,1.077C63.1,705.657,74.944,719.5,86.441,732.937c1.12,1.308,2.234,2.663,3.349,4l3.913,4.7c5.548,6.737,11.123,13.608,17.009,20.067-.211.367-16.246,16.969-26.18,20.531C66.121,767.048,48.61,750.508,35.825,730.2c-14.623-23.232-26.633-50.821-19-78.685,6.407-23.376,22.925-45.334,37.439-64.5,11.515-15.2,24.882-30.461,41.2-40.9-3.175,13.344-4.416,27.927-.391,41.159a1.628,1.628,0,0,0,2.942.386,26.287,26.287,0,0,1,5.058-5.407C108.478,574.762,114.776,574.312,121.9,580.379Z"/><path class="cls-15" d="M153.754,740.38c-4.345-52.932-15.619-104.76-27.845-156.331a1.2,1.2,0,0,0,.332-.23c3.161-3.207,4.349-9.061,6.5-13.013a37.867,37.867,0,0,1,7.542-9.47c.079.043.158.093.232.136,6.383,31.191,16.887,61.559,23.827,92.651a717.606,717.606,0,0,1,14.76,99.293c-.934.052-1.868.111-2.8.178-3.294.25-6.91.255-10.357.743l-2.539.473L163,757.537c-.129.958-.246,1.939-.355,2.932a12.85,12.85,0,0,0-4.468.038,31.808,31.808,0,0,0-3.21.49C154.71,754.136,154.318,747.266,153.754,740.38Z"/><path class="cls-14" d="M194.294,760.5c.614-.095,1.244-.149,1.873-.226q.561,7.718,1.052,15.436c-.753-.089-1.51-.129-2.273-.149-.55-.01-1.085-.069-1.591-.059a50.306,50.306,0,0,0-.279-14.923A6.145,6.145,0,0,0,194.294,760.5Z"/><path class="cls-15" d="M192.112,756.194l-.634-1.988-2.757-.528a44.9,44.9,0,0,0-7.665-.332c.735-16.944-2.72-34.8-4.937-51.577-2.026-15.337-4.847-30.59-8.215-45.684-6.98-31.265-14.9-63.112-25.37-93.456,6.9,4.1,13.251,9.395,20.6,12.566,1.43,3.727,2.8,7.485,4.04,11.3A467.215,467.215,0,0,1,180.3,635.915c7.153,34.2,11.4,68.923,14.271,103.717q.737,8.9,1.392,17.8c-.523.028-1.048.07-1.56.127a7.258,7.258,0,0,0-1.868.359C192.4,757.336,192.271,756.752,192.112,756.194Z"/><path class="cls-3" d="M113.354,539.961l.189,4.115.646.476c2.185,10.532,4.468,21.061,6.782,31.585a16.683,16.683,0,0,0-13.053-.226.866.866,0,0,0-.352.137A27.582,27.582,0,0,0,97.5,583.28c-2.105-10.531-1.635-21.339.4-31.912.464-2.4,2.267-21.547,15.089-22.161Q113.139,534.583,113.354,539.961Z"/><path class="cls-16" d="M167.775,781.131c-2.071-7.683-1.969-15.644-1.863-23.748,7.817-.51,15.468-1.686,23.337-1.365,1.568,7.882.966,15.513-.4,23.34C181.816,779.605,174.888,781.9,167.775,781.131Z"/><path class="cls-15" d="M148.282,546.376c-.027-2.337-.017-4.678-.01-7.021,4.441,11.076,9.353,21.878,13.722,32.938a184.4,184.4,0,0,0-19.582-13.012c.2-.145.4-.277.61-.453a21.884,21.884,0,0,0,2.3-2.332l3.151-4.272-.164-4.774C148.3,547.092,148.285,546.734,148.282,546.376Z"/><path class="cls-17" d="M111.9,766.453a34.552,34.552,0,0,1,4.513,2.968c1.253,1.094,2.494,2.328,3.839,3.383a98.272,98.272,0,0,0-9.751,1.833c-2.348.555-4.825,1.119-7.3,1.783A44.942,44.942,0,0,0,111.9,766.453Z"/><path class="cls-3" d="M256.45,617.115c-.32.567-.679,1.091-1.038,1.616l-2.945-1.476c-10.554-12.454-21.189-24.481-30.707-37.693-10.17-14.117-24.249-33.689-43.384-34.493,2.823,5.008,5.907,15.156,5.907,15.156L180.238,573.3l-.518-.448s-10.127-8.138-14.912-4.669c1.592,4.183,3.1,8.379,4.557,12.519a433.516,433.516,0,0,1,14.261,51.611c7.379,33.687,11.52,68.052,14.542,102.375a1288.784,1288.784,0,0,1,4.513,162.467c5.852,4.859,13.06,6.717,22.712,4.874a48.839,48.839,0,0,0,5.442-1.377l2.863-.956c1.362-.5,2.719-1.01,4.047-1.585a1059.372,1059.372,0,0,0-2.041-117.3c-3.4-1.323-6.754-2.7-10.291-3.71-3.772-1.075-7.879-.748-11.458-2.254-.275,1.347-.7,2.67-1,4.012-.446,1.957-.466,3.978-1.1,5.9a1.007,1.007,0,0,1-1.927,0c-1.1-3.676.193-9.035,2.67-11.933a.939.939,0,0,1,1.377.074c3.76-1.447,8.56.052,12.318,1.023a44.355,44.355,0,0,1,9.154,3.5c-.29-3.894-.575-7.8-.9-11.7-2.642-31.451-5.065-63.518-11.222-94.5-.713-3.569-1.479-7.186-2.254-10.827l-1.677-7.96c-3.856-18.759-6.856-38.067-1.9-56.578.309-1.138,1.944-.646,1.741.479-3.656,20.385.389,40.945,4.755,61.135,5.283,5.938,14.894,15.721,21.641,20.314M217.385,786.9c4.263,1.278,8.283,3.463,12.313,5.295.671.308.193,1.432-.493,1.184a98.673,98.673,0,0,1-12.412-5.072A.773.773,0,0,1,217.385,786.9Z"/><path class="cls-18" d="M303.579,565.925a13.526,13.526,0,0,0,.448-2.548c.149.953.28,1.9.376,2.852C304.126,566.13,303.854,566.026,303.579,565.925Z"/><g class="cls-19"><g class="cls-20"><path class="cls-14" d="M244.507,679.752c15.467,6.5,25.077-6.011,31.334-18.757,9.048-18.444,18.487-36.344,25.167-55.828,4.52-13.184-34.839-23.719-40.246-7.422-2,6.036-4.062,12.632-7.554,18.156-6.291-8-12.82-15.825-18.7-24.118-5.3-7.485-10.4-15.137-16.134-22.307-9.3-11.619-24.1-29.684-41.088-26.178-2.187-3.264-4.958-5.653-8.582-5.809a16.181,16.181,0,0,0-4.664-3.758,32.761,32.761,0,0,0,4.877-2.949c10.727-7.833,17.083-21.423,20.818-33.805a148.278,148.278,0,0,0,5.248-25.675,1.244,1.244,0,0,0,.612-.233c6.254-4.832,7.274-17.984,6.635-25.21-.242-2.737-1.446-6.888-3.646-8.706,6.695-12.2,8.9-30.924,3.57-43.588-1.855-4.4-7.077-10-12.4-8.54-2.947.811-6.878-4.349-9.11-6.13a87.142,87.142,0,0,0-10.363-7.09c-16.049-9.4-35.225-16.3-54.086-15.29-14.192.762-35.842,6.394-37.769,23.258-.01.034.008.061.008.095C53.356,390.442,53.566,434.724,68.4,453.639a9.575,9.575,0,0,0-1.957,3.578c-3.683,12.77,7.822,34.119,21.92,32.73,4.007,12.208,14.135,24.228,24.451,32.265.035,1.656.082,3.313.126,4.971-9.167-1.35-14.229,7.84-16.639,15.836-17.7,9.212-31.607,24.391-43.681,40.3-7.839,10.333-15.069,21.091-22.083,32-7.565,11.76-14.953,23.8-17.824,37.7-5.659,27.387,3.788,53.553,18.3,76.632,13.305,21.172,30.412,38.9,50.247,53.68l2.843,2.066c-3.435,25.64-8.178,50.433-16.226,75.117-3.824,11.73-8.237,23.232-12.713,34.7l-1.746,4.478,4.156,1.457c10.259,3.13,22.227,3.8,31.3,3.844q-5.29,69.98-10.368,139.989c-2.871,38.782-6.155,77.862-7.079,116.866l-.082,3.8,2.685.723c-1.555,8.035-3.442,19.26,1.358,25.982a.98.98,0,0,0,1.273.366,5.524,5.524,0,0,0,2.3,1.085,10.236,10.236,0,0,0,1.925.278c2.878,6.6,12.466,7.722,19.091,7.757,9.94.05,21.514-.485,31.082-3.512a.967.967,0,0,0,.678-.709c.025-.034.052-.049.07-.089,3.284-6.618-.719-13.137-6.373-16.886-7.391-4.9-14.958-7.555-20.592-14.455l4.366-1.125.225-3.844c3.067-53.127,8.442-105.824,17.678-158.506,10.286-58.651,24.562-116.252,38.12-174.145,3.523-.514,7.044-1.066,10.588-1.37l0,0c-.963,28.364.887,57.14,1.912,85.331,1.236,34.066,2.824,68.118,4.253,102.174,1.422,33.887,3.217,67.874,2.987,101.8-.092,14.39-.624,28.85-1.07,43.314l-.131,4.285,3.765.382c-1.053,6.524-2.287,16.584,1.666,22.043,4.892,6.762,15.141,4.756,21.3.907.034-.02.044-.05.071-.074,9.013,4.443,19.857,5.795,29.623,6.548,11.757.917,27.176,2.9,38.316-1.8a1.457,1.457,0,0,0,.922-1.268.464.464,0,0,0,.371-.4c1.7-11.438-7.735-19.612-17.912-22.2-6.987-1.778-14.15-2.328-21.239-3.517-6.967-1.174-12.919-3.675-19.3-6.216l.552-.189.463-4.676c2.948-30.2,5.2-60.484,7.233-90.646,3.564-52.855,7.009-106.8,4.277-159.9,1.251-.4,2.5-.822,3.735-1.283l4.273-1.714.188-3.952c1.82-38.361.352-76.99-2.566-115.143a1.4,1.4,0,0,0-.079-1.02q-.435-5.587-.9-11.173c-2.556-30.3-4.654-61.3-10.316-91.2-.743-3.918-1.568-7.864-2.423-11.819C231.375,671.718,237.678,676.887,244.507,679.752ZM180.233,569.759c-4.355-3.235-11.96-7.212-16.488-4.33-3.747-9.542-8.059-18.929-13.687-27.3a1.188,1.188,0,0,0-1.783-.118c0-.454.007-.906.007-1.362a30.6,30.6,0,0,0,10.145-.845C170.822,536.9,185.765,560.629,180.233,569.759Zm12.843,190.817a6.145,6.145,0,0,0,1.218-.079c.614-.095,1.244-.149,1.873-.226q.561,7.718,1.052,15.436c-.753-.089-1.511-.129-2.273-.149-.55-.01-1.085-.069-1.591-.059A50.306,50.306,0,0,0,193.076,760.576Zm1.325-3.019a7.266,7.266,0,0,0-1.868.359c-.134-.58-.262-1.164-.421-1.722l-.634-1.988-2.757-.528a44.91,44.91,0,0,0-7.666-.332c.736-16.944-2.719-34.8-4.936-51.577-2.026-15.337-4.847-30.59-8.215-45.684-6.98-31.265-14.9-63.112-25.37-93.456,6.9,4.1,13.25,9.395,20.6,12.566,1.429,3.727,2.8,7.485,4.04,11.3A467.215,467.215,0,0,1,180.3,635.915c7.153,34.2,11.4,68.923,14.271,103.717q.737,8.9,1.392,17.8C195.438,757.458,194.913,757.5,194.4,757.557Zm-31.768,18.655a35.5,35.5,0,0,0-4.431.248c-.909.074-1.932.069-2.89.213-.018-4.147-.112-8.3-.238-12.456,1.042-.124,2.1-.5,3.128-.679,1.377-.24,2.811-.307,4.211-.49A62.863,62.863,0,0,0,162.633,776.212Zm-4.456-15.705a31.808,31.808,0,0,0-3.21.49c-.257-6.861-.649-13.731-1.213-20.617-4.345-52.932-15.619-104.76-27.845-156.331a1.2,1.2,0,0,0,.332-.23c3.161-3.207,4.349-9.061,6.5-13.013a37.867,37.867,0,0,1,7.542-9.47c.079.043.158.093.232.136,6.383,31.191,16.887,61.559,23.827,92.651a717.615,717.615,0,0,1,14.76,99.292c-.934.052-1.868.112-2.8.179-3.294.25-6.91.255-10.357.743l-2.539.473L163,757.537c-.129.958-.246,1.939-.355,2.932A12.85,12.85,0,0,0,158.177,760.507ZM124.866,579.2a1.617,1.617,0,0,0-.319-.872q-3.786-15.892-7.616-31.767,5.654,4.067,11.435,7.89c2.826,1.86,5.637,4.708,8.577,5.7-2.818,1.894-5.032,5.473-6.452,7.957C128.7,571.238,126.157,575.3,124.866,579.2Zm23.441-31.746c-.01-.358-.022-.716-.025-1.074-.027-2.337-.017-4.678-.01-7.021,4.441,11.075,9.353,21.878,13.722,32.938a184.3,184.3,0,0,0-19.582-13.012c.2-.145.4-.277.609-.453a21.8,21.8,0,0,0,2.3-2.332l3.151-4.272Zm17.605,209.933c7.817-.51,15.468-1.686,23.337-1.365,1.568,7.882.966,15.513-.4,23.34-7.037.247-13.965,2.541-21.078,1.773C165.7,773.448,165.806,765.487,165.912,757.383ZM195.59,464.91a139.735,139.735,0,0,0-.429-25.666C203.359,441.125,198.9,456.05,195.59,464.91ZM62.411,413.2c1.439-13.726,7.066-23.967,18.306-31.979a1.131,1.131,0,0,0,.337-.429,1.144,1.144,0,0,0,.3-.619c1.555-11.418,14.8-17.549,25.055-19.547a72.753,72.753,0,0,1,30.631.857c18.5,4.387,36.481,13.239,49.89,26.914a1.478,1.478,0,0,0,1.742.222c7.75-3.423,11.844,6.893,12.669,12a52.482,52.482,0,0,1,.473,12.726,80.08,80.08,0,0,1-5.192,22.942,3.751,3.751,0,0,0-1.8.247,101.53,101.53,0,0,0-9.753-32.562,36.579,36.579,0,0,0,3.026-6.176c.235-.634-.735-1.224-1.164-.676-1.1,1.4-2.214,2.755-3.344,4.08l-1.548,1.782c-9.706,10.945-20.6,18.938-34.034,22.924.35-1.286.721-2.573,1.15-3.836a86.953,86.953,0,0,1,3.618-8.906,82.082,82.082,0,0,0,7.109-7.17.728.728,0,0,0-1.028-1.03q-1.68,1.422-3.4,2.792l-5.768,4.421a128.02,128.02,0,0,1-42.9,20.823c-6.135.608-12.166.926-18.482,1.028a.821.821,0,0,0-.216,1.606,49.729,49.729,0,0,0,10.933,1.362l-.77,1.677a111.142,111.142,0,0,0-5.469,18.249c-.146.643-.3,1.294-.456,1.943a28.882,28.882,0,0,0-9.84-8.173,12.314,12.314,0,0,0-11.619.823C63.662,440.826,61.094,425.788,62.411,413.2Zm50.317,104.729c-8.721-8.464-16.372-17.473-21.668-28.528l-1.34-2.969-2.323.065c-5.932-.289-10.633-4.057-13.927-9.983-2.633-4.741-5.756-11.591-4.151-17.181,2.935-10.226,13.766-6.286,19.062-.62,1.1,1.175,2.12,2.4,3.106,3.662l2.714,3.745.651-3.723c.444-2.488.907-4.956,1.5-7.351,1.421-5.764,3.217-11.324,5.1-16.894a108.327,108.327,0,0,0,45.556-20.2,76.651,76.651,0,0,0-3.017,9l-.978,4.117,3.821-.58c14.029-2.781,28.451-12.441,36.5-23.871,4.616,13.09,8.433,26.081,9.214,40.327.75,13.771-.013,27.688-3.324,41.114-3.191,12.937-8.035,26.889-17.769,36.453-6.294,6.187-14.244,10.53-23.183,9.556l-2.918-.5c-1-.225-1.989-.486-2.964-.76-.077-.056-.154-.124-.238-.177a1.065,1.065,0,0,0-.855-.145c-5.117-1.542-9.979-3.662-15.032-5.576-.849-.323-1.317.971-.6,1.423,1.83,1.146,3.7,2.192,5.59,3.148a1.093,1.093,0,0,0,.151.664c1.671,2.8,5.1,5.288,7.6,7.366,1.776,1.474,3.71,3.157,5.939,3.916-.045,2.993-.02,5.991.114,8.962a22.187,22.187,0,0,1-1.593,1.93c-5.733,6.122-15.715-3.785-20.743-7.376q-3.032-2.164-5.994-4.409c-.329-6.167-.931-12.356-1.486-18.5,1.721,1.236,3.443,2.362,5.127,3.339.852.5,1.835-.709,1.07-1.388C119.217,524,117.03,522.011,114.9,520ZM97.9,551.368c.464-2.4,1.031-5.115,1.811-7.806.037-.021.077-.039.116-.058a18.9,18.9,0,0,1,1.474-4.444c2.222-5.2,5.727-9.478,11.688-9.853q.148,5.376.364,10.754l.189,4.115.646.476c2.185,10.532,4.468,21.061,6.781,31.585a16.68,16.68,0,0,0-13.052-.226.866.866,0,0,0-.352.137A27.582,27.582,0,0,0,97.5,583.28C95.4,572.749,95.865,561.941,97.9,551.368ZM59.283,896.843c4.857-12.548,9.174-25.318,13.1-38.019,7.136-23.114,14.026-47.9,14.083-72.338l2.163-.907c.146-.064.285-.133.431-.2.062,4.775.564,10.967,4.47,13.821.872.634,1.707-.416,1.59-1.224-.373-2.61-1.87-5.018-2.494-7.608-.49-2.011-.9-4.048-1.265-6.093.052-.03.109-.055.158-.08,6.69-1.932,12.974-4.879,19.862-6.37,6.749-1.447,13.684-1.664,20.409-3.022.631,2.893,2.8,5.6,3.678,8.491.812,2.655,1.345,5.38,2.046,8.059a.64.64,0,0,0,1.253-.168,25.419,25.419,0,0,0-1.439-10.655c-.867-2.413-1.768-5.474-4.01-6.906a.671.671,0,0,0-.5-.47,31.482,31.482,0,0,0-9.749-.625,30.946,30.946,0,0,0-5.937-6.132,27.344,27.344,0,0,0-3.686-2.712l1.722-3.8-2.2-2.7C106.89,749.916,100.215,743,94,736.031a481.481,481.481,0,0,0-.44-49.5c-1.061-19.279-3.228-38.72-8.805-57.238,3.479-6.139,2.935-14.612,2.018-21.16-.091-.648-1.206-.5-1.142.154A34.5,34.5,0,0,1,84.38,620.95a31.452,31.452,0,0,1-1.193,3.447l-1.558,3.841c-.114.295-.236.58-.347.876C75.4,639.149,67.209,647.592,60.8,657.274c-2.895,4.364-5.843,9.059-7.244,14.164-1.628,5.911-.449,11.841-.119,17.875a1.286,1.286,0,0,0,.646,1.077C63.1,705.657,74.944,719.5,86.441,732.937c1.12,1.308,2.234,2.663,3.349,4l3.913,4.7c5.548,6.737,11.123,13.608,17.009,20.067a4.663,4.663,0,0,1-.907,1.046c-.741.079-15.339,15.923-25.274,19.485C66.121,767.048,48.61,750.508,35.825,730.2c-14.623-23.232-26.633-50.821-19-78.685,6.407-23.376,22.925-45.334,37.439-64.5,11.515-15.2,24.882-30.461,41.2-40.9-3.175,13.344-4.416,27.927-.391,41.159a1.628,1.628,0,0,0,2.942.386c1.439-2.05,10.714-16.071,23.884-7.288,11.669,52.925,23.916,105.9,28.048,160,2.595,33.93,2.937,68.774-2.591,102.453C144.3,861.5,139.423,879.56,133.9,897.457a288.317,288.317,0,0,1-34.6,3.522c-2.434.08-4.906.144-7.393.164H89.156C78.949,901.078,68.591,900.132,59.283,896.843ZM103.2,776.42a44.942,44.942,0,0,0,8.7-9.967,34.552,34.552,0,0,1,4.513,2.968c1.253,1.094,2.494,2.328,3.839,3.383a98.272,98.272,0,0,0-9.751,1.833C108.151,775.192,105.674,775.756,103.2,776.42ZM57.747,670.379a69.284,69.284,0,0,1,8.837-15.085C72,648,77.7,641.032,81.6,632.906a1.009,1.009,0,0,0,.624-.289c.121-.116.22-.249.339-.37a304.976,304.976,0,0,1,7.775,59.844c.411,13.084-.1,26.181-.424,39.273-11.8-13.835-22.621-28.237-33.509-42.791-.024-.034-.054-.045-.079-.076C57.708,682.465,55.258,676.506,57.747,670.379Zm51.446,504.645c-9.967-1.724-21.355.515-26.034,9.075-.351.649.409,1.58,1.09,1.085,10.638-7.693,20.476-8.723,32.333-5.588,6.731,3.785,13.246,7.559,13.568,16.734-15.325-.411-37.492,9.575-48.449-5.444-.439-.59-1.707-.506-1.588.43.012.11.044.208.062.317-.186-.014-.379-.019-.56-.039a16.328,16.328,0,0,1-2.457-.372c-.629-4.512-1.4-8.832-1.191-13.434.163-3.646.413-7.262.22-10.893a53.948,53.948,0,0,0,10.373,1.179,80.688,80.688,0,0,0,16.057-1.461A18.175,18.175,0,0,0,109.193,1175.024ZM122.932,1004.7c-8.914,51.87-16.421,104.973-18.061,157.9a58.466,58.466,0,0,1-29.258.535c1.9-40.441,3.8-80.848,6.764-121.265,3.341-45.578,7.519-91.206,9.384-136.888.761-.01,1.509-.02,2.207-.035a269.982,269.982,0,0,0,38.728-3.666l4.532-.723,1.189-3.864a395.145,395.145,0,0,0,13.905-66.968,69.232,69.232,0,0,0,9.5-.7C145.763,886.752,133.05,945.78,122.932,1004.7Zm128.619,164.565c5.82.847,12.4,1.709,17.444,4.973,5.944,3.854,7.18,9.08,9.256,15.213a1.679,1.679,0,0,0-.468.025c-23.352,5.458-49.13.921-71.573-6.128-.741-.233-1.075.783-.5,1.184.5.342,1.018.669,1.533.991-6.48,2.878-15.369,3.868-16.83-4.909-.877-5.311.054-10.685-.513-16.006a54.223,54.223,0,0,0,7.621-.371,111.6,111.6,0,0,0,19.409-4.265l1.025-.342C227.635,1166.935,239.962,1167.588,251.551,1169.268Zm-25.771-106.28c-2.118,30.816-5.229,61.519-8.362,92.226a119.177,119.177,0,0,1-14.118,4.236,51.332,51.332,0,0,1-14.717,1.075c.223-15.748.123-31.505.185-47.09.132-33.932-1.7-67.934-3.138-101.831-1.446-34.052-3.061-68.1-4.29-102.174-.99-27.4-.713-55.055-2.11-82.488,5.263-.332,10.573-.485,15.716-1.521a.7.7,0,0,0,0-1.347,70.317,70.317,0,0,0-15.9-.892l-3.1.189c-3.284.262-6.581.668-9.8,1.233l-3.26.619a96.652,96.652,0,0,0-10.36,2.725,429.552,429.552,0,0,0,2.808-48c1.516-.054,3.188-.55,4.478-.669,1.078-.1,2.215-.129,3.282-.341.089.421.161.857.26,1.273l.964,3.2,4.4.777c6.37.679,13.117-.332,19.53-1.55l3.745-.728.654-2.438c.072-.311.128-.639.193-.956a18.609,18.609,0,0,0,2.108-.01c.822,0,1.634-.009,2.444-.059,1.58,25.328,2.549,50.676,2.355,76.063-.094,12.929-.453,25.853-.936,38.767l-.217,5.89,3.905,3.1c7.7,4.771,17.994,4.513,28.261,1.744C229.594,957.049,229.433,1009.964,225.78,1062.988Zm-8.29-467.132c-4.957,18.511-1.957,37.819,1.9,56.578l1.677,7.96c.775,3.641,1.541,7.258,2.254,10.827,6.157,30.984,8.58,63.051,11.222,94.5.327,3.9.612,7.8.9,11.7a44.355,44.355,0,0,0-9.154-3.5c-3.758-.971-8.558-2.47-12.318-1.023a.939.939,0,0,0-1.377-.074c-2.477,2.9-3.772,8.257-2.67,11.933a1.007,1.007,0,0,0,1.927,0c.634-1.922.654-3.943,1.1-5.9.305-1.342.728-2.665,1-4.012,3.579,1.506,7.686,1.179,11.458,2.254,3.537,1,6.89,2.387,10.291,3.71a1059.372,1059.372,0,0,1,2.041,117.3c-1.328.575-2.685,1.09-4.047,1.585l-2.863.956a48.839,48.839,0,0,1-5.442,1.377c-9.652,1.843-16.86-.015-22.712-4.874a1288.784,1288.784,0,0,0-4.513-162.467c-3.022-34.323-7.163-68.688-14.541-102.375A433.71,433.71,0,0,0,169.365,580.7c-1.456-4.14-2.965-8.336-4.557-12.519,4.785-3.469,14.22,2.87,17.086,6.628a1.838,1.838,0,0,0,.517.448l.079-.168a26.96,26.96,0,0,0-1.52-25.705c-.978-1.574-1.884-3.056-2.594-4.317,19.135.8,33.214,20.376,43.384,34.492,8.545,11.863,26.038,33.8,29.418,38.191.377.49.433.921,1.05.931l1.721.026a2.667,2.667,0,0,0,2.325-1.292c.06-.1.118-.2.176-.3,3.685-6.6,6.128-13.693,8.421-20.875,4.562-14.27,32.127,9.934,32.127,9.934-5.831,16.662-14.106,31.682-21.566,47.6-6.652,14.2-16.619,32.223-34.224,20.233-6.747-4.593-11.939-10.6-17.222-16.534-4.366-20.19-8.411-40.75-4.755-61.135C219.434,595.21,217.8,594.718,217.49,595.856Z"/></g></g><path class="cls-21" d="M248.416,612l5.2,6.38,26.816,29.192a18.4,18.4,0,0,1,4.192,18.317c-7.093,22.052-25.439,74.118-51.026,110.527l-29.91-5.951,41.94-92.685"/><path class="cls-16" d="M124.172,505.2l27.181-3.608"/><path d="M124.172,506.7l27.181-3.608c1.886-.25,1.911-3.253,0-3L124.172,503.7c-1.886.251-1.911,3.254,0,3Z"/><path class="cls-22" d="M523.863,791.452c-10.654-27.413-18.507-92.632-18.507-92.632L446.6,715.605,467.2,801.781l33.256,4.662a34.243,34.243,0,0,0,21.626-7.426,6.512,6.512,0,0,0,2.509-3.224A7.286,7.286,0,0,0,523.863,791.452Z"/><path d="M526.033,790.854c-6.823-17.841-10-37.241-13.15-56-2.008-11.967-3.822-23.983-5.277-36.032a2.286,2.286,0,0,0-2.848-2.169L446,713.435a2.3,2.3,0,0,0-1.572,2.768l18.016,75.336,2.592,10.84a2.187,2.187,0,0,0,1.571,1.572l28.94,4.056a35.545,35.545,0,0,0,15.375-.746c7.461-2.15,18.45-7.136,15.113-16.407-.974-2.705-5.324-1.538-4.34,1.2,3.006,8.348-15.259,12.48-20.968,12.177-3.345-.178-6.761-.948-10.076-1.413l-22.847-3.2,1.571,1.572-18.015-75.336-2.592-10.841-1.572,2.768,58.76-16.784-2.848-2.17c1.456,12.052,3.25,24.072,5.24,36.045,3.184,19.15,6.384,38.977,13.347,57.185C522.717,794.728,527.07,793.566,526.033,790.854Z"/><path class="cls-8" d="M449.635,532.21a69.679,69.679,0,0,0,5.87-17.483,63.543,63.543,0,0,0,.833-13.365c-2.12,2.363-4.274,4.66-6.407,6.871-1.691,1.758-3.443,3.522-5.255,5.24.053,4.149-.9,8.4-1.142,12.538-.07,1.223-.1,2.455-.145,3.685a15.233,15.233,0,0,1,3.747,1.2A14.011,14.011,0,0,1,449.635,532.21Z"/><path class="cls-7" d="M432.151,520.008c9.3-6.168,16.691-14.3,23.963-22.585-.812-10.018-3.224-19.933-4.862-29.936-2.41-14.712-5.79-34.5,2.67-47.987-12.853,1.126-26.06,2.288-38.3-1.91a71.046,71.046,0,0,1-25.972-16.361c-7.923,16.039-16.048,31.413-17.306,49.985-1.221,18.082,1.485,37.665,10.617,53.624,4.744,8.3,11.594,17.553,21.221,20.466C414.046,528.29,423.716,525.6,432.151,520.008Zm2.359-62.834c-3.079,2.053-5.636-1.042-5.944-3.971-.248-2.352.07-6.175,2.14-7.794,1.388-2.436,5.942-.614,6.607,2.44C437.973,450.846,437.276,455.332,434.51,457.174ZM425.385,430.8c2.065-5.365,11.913-7,13.831-.7a.694.694,0,0,1-1.012.779c-2.012-1.149-3.908-2.238-6.286-1.465-1.906.62-3.518,1.881-5.412,2.507A.916.916,0,0,1,425.385,430.8Zm-22.271,43.6c.754-3.164,1.108-6.408,1.918-9.566.166-.642,1.265-.523,1.183.161-.444,3.742-.222,7.516-.87,11.24a1.313,1.313,0,0,1-1.6.906c-1.591-.264-6.826-.517-4.494,2.585,1.311,1.743,3.429,1.891,5.224,2.851a.774.774,0,0,1-.183,1.4c-3.224,1.041-7.988-1.837-8.161-5.413C395.945,474.583,399.95,473.98,403.114,474.4ZM382.7,427.689c3.925-5.818,14.091-4.019,15.4,3.082a1.013,1.013,0,0,1-1.68.978c-1.884-1.672-3.4-4.017-6-4.637-2.634-.625-4.417.235-6.532,1.757C383.177,429.375,382.23,428.387,382.7,427.689Zm1.4,25.514c-.251-2.352.067-6.175,2.137-7.794,1.388-2.436,5.942-.614,6.61,2.44.657,3-.039,7.483-2.805,9.325C386.963,459.227,384.406,456.132,384.1,453.2Z"/><path class="cls-7" d="M355.74,672.266a.983.983,0,0,1-.162-.237,75.6,75.6,0,0,1-4.371-14.588c-6.094-.709-12.132-3.383-17.794-5.526-.3,13.19-4,26.483-7.354,39.1-3.981,14.985-8.012,29.934-11.026,45.15-5.832,29.474-7.9,60.295-17.629,88.836a1.239,1.239,0,0,1-1.438.882c-5.5,10.243-8.877,20.845-8.942,32.64-.06,11.072,1.484,24.481,11.426,30.875-.243-7.168-1.981-14.1-3.421-21.131a17.993,17.993,0,0,1-4.492-2.439.588.588,0,0,1,.451-1.07c1.429.381,2.889.738,4.366,1.041a1.3,1.3,0,0,1,2.014.374,31.569,31.569,0,0,0,8.034.383,1.234,1.234,0,0,1,.416-.039,17.928,17.928,0,0,0,9.424-3.768,1.563,1.563,0,0,1,1.812-.1,14.034,14.034,0,0,1-.171-3.786c.959-8.537,9.135-21.189,2.306-28.871a.977.977,0,0,1-1.588-.5c-.065-.366-.086-.735-.13-1.1a1.454,1.454,0,0,1-.1-2.053c.02-4.106,1.222-8.219,2.027-12.252,1.335-6.684,2.821-13.361,4.718-19.915,3.4-11.754,7.674-22.693,14.122-33.11a1.117,1.117,0,0,1,.236-.255c2.244-13.766,5.253-27.4,8.571-40.956C350.952,703.861,355.7,688.569,355.74,672.266ZM313.71,838.82c-1.126,4.178-3.937,8-8.417,8.041.477,4.431-.072,14.78-5.438,12.342-2.118-.964-3.294-3.68-3.986-5.733a22.343,22.343,0,0,1-1.118-11.122.671.671,0,0,1,1.285,0c.645,3.163.821,6.419,1.819,9.5.506,1.562,1.226,3.928,2.672,4.923.39.265.612.4.786.244a3.888,3.888,0,0,0,1.012-1.914c.884-3.231.255-6.566.922-9.785a.883.883,0,0,1,1.41-.479,9.358,9.358,0,0,0,6.566-8.944,23.571,23.571,0,0,0-.419-6.571c-.3-1.326-.87-2.473-.34-3.774a.936.936,0,0,1,1.357-.552C315.271,826.946,314.575,835.608,313.71,838.82Z"/><path class="cls-7" d="M400.976,544.1c1.685,6.773,5.386,19.053,14.316,19.239,5.638.117,10.708-3.023,14.652-6.847A64.252,64.252,0,0,0,445.009,532.9c-.607-.28-1.2-.568-1.767-.895a19.25,19.25,0,0,1-.879,4.519.805.805,0,0,1-1.542,0c-1.2-4.385-.518-9.44,0-13.91.175-1.512.337-3.031.58-4.53a23.1,23.1,0,0,1-2.118,1.751.6.6,0,0,1-.19.761c-9.723,7.344-22.24,17.079-34.276,9.356a33.908,33.908,0,0,1-3.857,14.12C400.967,544.084,400.976,544.089,400.976,544.1Z"/><path class="cls-8" d="M386.252,534.831c-1.6-3.574-3.559-7.069-5.395-10.532a.793.793,0,0,1,1.241-.958,32.489,32.489,0,0,1,7.1,10.767l.716,1.862a33.986,33.986,0,0,1,1.708,16.568c6.657-6.977,9.486-15.634,11.609-25.125-7.267-2.372-13.72-7.515-18.835-15.1-23.209-34.4-17.236-78.915,3.472-112.864q-2.5-2.574-4.761-5.329a.648.648,0,0,1,.915-.917c1.714,1.409,3.4,2.845,5.082,4.279l1.682,1.428c8.219,6.973,16.541,13.638,27.377,16.412,12.212,3.126,24.855,2,37.392,1.842l2.318-.012c2.175,0,4.351.028,6.52.129a.7.7,0,0,1,0,1.409c-2.624.146-5.284.36-7.959.59-11.886,19.27-1.61,48.895,1.427,68.875q.48,3.2.8,6.353l.306,3.856c.544,9.223-.371,18.183-4.063,27.132-3.195,7.742-6.253,16.238-11.016,23.351,7.823-1.033,14.6-4.366,21.9-7.917l2.658-1.286.419-.2c6.824-3.261,12.585-4.46,20.026-2.757.723.163.578,1.382-.178,1.307-6.39-.646-11.85.8-17.149,3,9.824,4.69,17.852,13.05,24.5,21.592.169.218.333.441.5.662,11.821-16.258,22.426-33.415,17.168-54.878-5.481-22.376-22.529-40.289-23.2-64.074-.4-14.285,2.978-29.893-1.706-43.744a73.068,73.068,0,0,0-19.12-29.837c-17.79-16.647-42.146-25.928-63.314-13.106l-2,1.282a48.656,48.656,0,0,0-3.959,2.99c-.72.6-1.751-.392-1.045-1.041q1.55-1.4,3.183-2.721c-5.222-2-10.468-2.275-15.954,1.126-6.72,4.171-11.8,10.637-15.9,17.309A137.856,137.856,0,0,0,352.8,422.172a47.308,47.308,0,0,0,4.68,31.26c3.2,6.221,2.431,4.812.014,11.481a87.85,87.85,0,0,0-4.448,17.075c-3.094,21.078-.634,48.493,12.8,66.726C371.6,542.319,378.324,537.174,386.252,534.831Z"/><path class="cls-3" d="M431.918,447.533a3.6,3.6,0,0,0,.2,2.833,2.779,2.779,0,0,0,1.66,1.267,2.474,2.474,0,0,1,1.056.4,9.024,9.024,0,0,0,.217-1.893C435.04,448.074,433.891,445.735,431.918,447.533Z"/><path class="cls-3" d="M390.584,450.139c-.012-2.065-1.159-4.4-3.137-2.606a3.622,3.622,0,0,0,.209,2.833,2.776,2.776,0,0,0,1.663,1.267,2.487,2.487,0,0,1,1.053.4A8.871,8.871,0,0,0,390.584,450.139Z"/><path class="cls-7" d="M468.164,690.918c-6.276,2.156-13.214,1.712-19.669.638-12.816-2.135-30.208-6.131-40.085-15.366a.527.527,0,0,1-.316-.358.779.779,0,0,1-.026-.724c.084-5.049-1.381-8.537-5.451-11.721a42.034,42.034,0,0,1-6.949-6.5c-2.019-2.493-4.069-5.879-6.841-7.608-3.843-2.395-4.1,5.862-3.623,7.461a18.32,18.32,0,0,0,4.284,7.44,2.765,2.765,0,0,1-.434,2.752c-6.515,3.136-16.45,3.615-23.182.9a.813.813,0,0,1,.214-1.588c1.186-.035,2.345-.035,3.5-.026-.638-1.744-1.25-3.507-1.848-5.285-2.6,2.629-6.778,6.588-5.532,9.58.923,2.213,2.59,4.018,3.337,6.324,1.41,4.316-1.226,13.98,5.87,14.288a1.271,1.271,0,0,1,1.265,1.267c-1.945,17.181,22.132,8.58,29.543,4.711a.746.746,0,0,1,.892.191c18.534,10.891,38.107,17.179,58.8,22.582,5.728,1.5,12.66,3.441,19,2.812a1.15,1.15,0,0,1,.723-.081,17.318,17.318,0,0,0,6.8-2.288c9.86-5.961,14.781-18.66,15.629-29.689-7.966-6.745-16.585-10.332-25.848-14.155C476.6,682.411,474.523,688.738,468.164,690.918Z"/><path class="cls-23" d="M385.871,601.207c3.761.68,7.853-.043,11.513-.983,4.089-1.049,8.556-2.274,11.982-4.842,4.757-3.565,3.379-7.413,2.169-11.967-5.226.747-10.431,1.614-15.6,2.647-5.364,1.072-10.679,2.291-15.939,3.7C380.893,593.542,381.423,600.4,385.871,601.207Z"/><path class="cls-24" d="M368.339,593.3c-4.38,1.524-8.718,3.26-13.089,4.883-.2.554-.4,1.109-.592,1.665,5.079,22.365,10.522,44.572,17.674,66.412,4.906.08,9.633.136,14.59-1.382-3.9-4.781-5.95-11.235-2.345-16.888,1.99-3.121,5.672-.4,7.4,1.439,2,2.137,3.7,4.546,5.709,6.677a71.453,71.453,0,0,0,6.645,5.576c4.378,3.642,6.005,7.572,5.094,12.981,10.431,5.259,20.966,9.941,32.42,12.551,6.162,1.4,12.66,2.687,19.014,2.149.781-.066,1.516-.166,2.217-.292-3.258-20.185-8.78-40.2-13.85-59.981-2.581-10.083-5.337-20.049-8.665-29.913-2-5.927-4.185-11.872-5.655-17.967a66.9,66.9,0,0,0-8.07.294q-6.324.693-12.643,1.556c1.232,4.347,2.851,9.1-.985,12.612-4.525,4.142-10.737,6.345-16.686,7.506-4.145.808-10.665,2.389-14.149-.927-3.226-3.064-3.841-7.714-4.12-12C374.925,591.174,371.614,592.159,368.339,593.3Z"/><path class="cls-25" d="M479.788,725.829a39.6,39.6,0,0,1-9.272-.694c-13.91-2.608-28.89-6.2-42.707-11.862-12.819,6.877-27.061,7.1-40.454,12.377a1.391,1.391,0,0,1-1.7-.964,128.072,128.072,0,0,1-5.443-19.5c-.436-.087-.865-.186-1.289-.309a13.27,13.27,0,0,1-8.022-5.888,9.234,9.234,0,0,1-1.012-4.5c.155-1.312-2.021-1.128-2.631-1.452a5.534,5.534,0,0,1-3.316-4.624c-.375-5.121.755-8.879-2.141-13.722-3.827-6.394.214-11.314,5.257-15.786-3.277-10.071-6-20.553-8.7-30.638-2.055-7.671-4-15.429-5.325-23.28a67.386,67.386,0,0,0-2.686,17.218,100.729,100.729,0,0,0,2.889,25.8c1.547,6.312,3.658,13.013,4.462,19.589,5.174,13.773-2,31.461-5.248,44.77-5.019,20.6-10.178,41.337-12.5,62.445-2.186,19.84-1.2,39.437.708,59q3.141,1.38,6.325,2.631l2.145.853a152.865,152.865,0,0,0,26.763,7.646c14.353,2.65,28.791,3.245,43.282,4.575,13.8,1.265,28.416,3.232,42.2.808,6.955-1.224,15.749-3.195,19.267-10.089,2.9-5.679,3.084-11.858,3.01-18.106a1.535,1.535,0,0,1,3-.4c1.841,6.884,5.038,13.233,7.935,19.717l2.8,1.5a32.967,32.967,0,0,0,5.188-1.935,141.367,141.367,0,0,0-.773-19.92c-1.559-12.288-5.345-23.883-9.675-35.442C485.234,767.237,475.5,745.951,479.788,725.829Z"/><path class="cls-25" d="M497.342,568.781l-2.41-3.294c-7.3-9.6-16.221-17.789-26.377-23.171-3.614,1.678-7.219,3.594-11.053,5.322a35.231,35.231,0,0,1-15.021,3.2l-3.029-.13.923-1.56c2.8-4.738,5.67-9.651,8.18-14.707a19.778,19.778,0,0,1-2.024-.834c-1.534,11.472-11.544,24.565-21.375,29.715-13.806,7.23-22.353-3.723-25.931-16.169a38.4,38.4,0,0,1-9.2,10.265c-.867.658-2.207-.431-1.843-1.417,2.472-6.7,1.388-12.934-.976-18.912a57.083,57.083,0,0,0-19.028,14.587l-2.041,2.408c-7.735,9.456-13.65,20.8-18.459,31.17-9.116,19.654-14.93,40.13-21.59,60.51,1.976.662,3.945,1.356,5.923,2.053a.809.809,0,0,1,1.405.492v.009q1.5.534,3,1.067c4.593,1.62,9.5,2.774,14.082,4.534-.658-3.436-1.232-6.845-1.812-10.056-1.419-7.847-2.333-15.9-1.67-23.882a87.944,87.944,0,0,1,4.949-22.54l-.065-.528.3-.131A92.654,92.654,0,0,1,364.691,573.7a.737.737,0,0,1,1.27.745c-3.316,6.838-6.711,13.6-9.487,20.544a206.981,206.981,0,0,1,41.592-11.964c4.5-.815,8.978-1.567,13.462-2.211a1.385,1.385,0,0,1,1.687-.229,210.621,210.621,0,0,1,21.117-1.926l2.318-.065.894,2.659c11.689,34.857,22.777,70.742,28.221,107.086a12.956,12.956,0,0,0,7.182-6.077c-11.411-7.986-1.763-27.756,1.256-37.673,2.947-9.671,3.11-19.156,3.59-29.2.492-10.33,1.458-20.554,2.976-30.781.147-.987,1.865-.756,1.742.236-1.229,10.132-1.528,20.351-1.824,30.545-.217,7.362.34,15.17-1.359,22.393-2.749,11.691-13.918,30.922-5.077,41.8a37.376,37.376,0,0,0,1.383-4.155l-1.848-.774c-.851-.359-.87-1.871.238-1.773,12.246,1.082,24.151,7.591,33.888,16.509,2.111-9.9,3.851-19.872,5.427-30.011,2.568-16.5,4.915-33.827,1.52-50.4A110.267,110.267,0,0,0,497.342,568.781Z"/><path class="cls-26" d="M493.257,720.912c7.87-6.83,12.631-17.494,13.424-27.882.118.113.248.22.366.335l3.3,3.465,1.015-4.1c2.85-12.432,4.043-25.569,5.862-37.642,2.475-16.45,3.605-32.961.246-49.366-2.884-14.1-9.913-27.427-18.377-39.1,12.3-15.473,21.572-34.9,18.659-54.162-1.993-13.194-8.253-24.577-14.3-36.28-8.245-15.971-10.175-30.646-9.339-48.453.648-13.854-.456-26.274-6.757-38.777-5.667-11.248-14.6-20.639-24.64-28.086-9.4-6.974-20.818-11.787-32.514-12.688-9.431-.725-18.033,2.862-25.416,8.245-10.894-7.208-23.741,1.388-31.438,10.909-11.7,14.466-18.963,33.606-23.083,51.583a50.829,50.829,0,0,0-.137,24c1.421,6.043,7.428,13.3,5.11,19.173a95.105,95.105,0,0,0-5.556,21.314,107.358,107.358,0,0,0,1.976,39.557c2.144,9.294,6.074,19.9,12.112,28.155-6.92,8.374-12.344,18.412-16.71,27.049-10.414,20.592-19.382,43.5-24.753,66.386l-.636,2.846,3.436,1.336q3.1,1.2,6.2,2.38c-2.5,13.121-4.93,26.092-8.375,39.048-3.99,15-8,29.921-11.087,45.135-3.089,15.181-5.489,30.5-7.968,45.793-2.376,14.619-6.18,28.737-8.985,43.225-.01.058,0,.1,0,.157-9.351,8.272-10.91,24.418-11.014,36.073-.108,12.332,3.109,27.081,15.33,32.657a1.488,1.488,0,0,0,2.209-1.265c0-.528-.024-1.051-.038-1.571a28.015,28.015,0,0,0,4.841,3.684,1.136,1.136,0,0,0,1.549-.4,17.491,17.491,0,0,0,1.689-7.219c1.14,1.309,2.636,2.412,4.27,2.135,2.166-.369,2.629-2.862,2.853-4.67a23.3,23.3,0,0,0-.037-5.089,11.679,11.679,0,0,0,4.478,3.5,1.209,1.209,0,0,0,1.414-.183c1.949-1.877.981-4.407.624-6.889-.463-3.229-1.674-6.429-2.537-9.566-1.47-5.339-.742-9.792.956-14.888,2.55-7.634,5.171-17.373-1.344-23.5,2.559-9.773,3.9-19.92,6.457-29.715a172.812,172.812,0,0,1,10.925-30.582c-.518,3.576-1,7.159-1.4,10.759-1.968,17.937-1.414,36.081.364,54.176l.3,3.13,4.212,2.178c1.98.979,4,1.861,6.024,2.709,1.062,53.54,9.763,106.541,20.9,158.91,10.445,49.121,22.5,98.04,35.194,146.679l.663,2.554c-5.749,7.212-11.33,13.7-18.426,19.758-7.665,6.547-15.87,12.438-23.672,18.819a1.124,1.124,0,0,0-.149,1.691s.007.012.012.017a1.73,1.73,0,0,0,.3.272c7.111,6.767,18.144,5.3,26.835,2.979a111.235,111.235,0,0,0,16.918-6.614c4.588-2.087,9.6-3.916,13.734-6.865-.026.144-.058.286-.082.429a1.24,1.24,0,0,0,.853,1.508c14.108,2.3,10.619-16.081,9.429-25.724l1.894.655c.561.161,1.13.308,1.7.453.614,9.629-2.477,20.484,1.012,29.7,2.775,7.323,11.459,5.108,12.192-1.578,9.809,6.07,19.074,11.966,30.876,12.968,11.209.947,28.857,1.4,38.6-5.549a1.44,1.44,0,0,0,.457-2.01.963.963,0,0,0-.595-.662c-9.6-4.4-19.431-7.932-28.688-13.1-1.949-1.09-3.773-2.27-5.537-3.5a1.414,1.414,0,0,0-1.277-.874c-6.441-4.675-11.894-10.145-17.881-15.633l.455-2.617c2.426-13.851,4.559-27.744,6.665-41.558,4.792-31.476,8.732-63.1,12.953-94.652,7.516-56.237,15.152-113.3,15.048-170.215a34.033,34.033,0,0,0,5.109-1.706l4.226-2.123-.02-3.569a149.282,149.282,0,0,0-7.881-44.54C491.089,771.2,481.2,750.292,482.3,725.6A20.64,20.64,0,0,0,493.257,720.912ZM353.048,481.988a87.85,87.85,0,0,1,4.448-17.075c2.417-6.669,3.186-5.26-.014-11.481a47.308,47.308,0,0,1-4.68-31.26,137.856,137.856,0,0,1,17.918-45.621c4.1-6.672,9.178-13.138,15.9-17.309,5.486-3.4,10.732-3.13,15.954-1.126q-1.638,1.313-3.183,2.721c-.706.649.325,1.642,1.045,1.041a48.656,48.656,0,0,1,3.959-2.99l2-1.282c21.168-12.822,45.524-3.541,63.314,13.106a73.068,73.068,0,0,1,19.12,29.837c4.684,13.851,1.306,29.459,1.706,43.744.672,23.785,17.72,41.7,23.2,64.074,5.258,21.463-5.347,38.62-17.168,54.878-.168-.221-.332-.444-.5-.662-6.646-8.542-14.674-16.9-24.5-21.592,5.3-2.2,10.759-3.642,17.149-3,.756.075.9-1.144.178-1.307-7.441-1.7-13.2-.5-20.026,2.757l-.419.2-2.658,1.286c-7.3,3.551-14.079,6.884-21.9,7.917,4.763-7.113,7.821-15.609,11.016-23.351,3.692-8.949,4.607-17.909,4.063-27.132l-.306-3.856q-.315-3.151-.8-6.353c-3.037-19.98-13.313-49.605-1.427-68.875,2.675-.23,5.335-.444,7.959-.59a.7.7,0,0,0,0-1.409c-2.169-.1-4.345-.134-6.52-.129l-2.318.012c-12.537.16-25.18,1.284-37.392-1.842-10.836-2.774-19.158-9.439-27.377-16.412l-1.682-1.428c-1.684-1.434-3.368-2.87-5.082-4.279a.648.648,0,0,0-.915.917q2.251,2.751,4.761,5.329C367.163,433.4,361.19,477.916,384.4,512.316c5.115,7.582,11.568,12.725,18.835,15.1-2.123,9.491-4.952,18.148-11.609,25.125a33.986,33.986,0,0,0-1.708-16.568l-.716-1.862a32.489,32.489,0,0,0-7.1-10.767.793.793,0,0,0-1.241.958c1.836,3.463,3.795,6.958,5.395,10.532-7.928,2.343-14.655,7.488-20.409,13.883C352.414,530.481,349.954,503.066,353.048,481.988Zm51.774,47.967c12.036,7.723,24.553-2.012,34.276-9.356a.6.6,0,0,0,.19-.761,23.1,23.1,0,0,0,2.118-1.751c-.243,1.5-.405,3.018-.58,4.53-.523,4.47-1.2,9.525,0,13.91a.805.805,0,0,0,1.542,0,19.25,19.25,0,0,0,.879-4.519c.567.327,1.16.615,1.767.895a64.252,64.252,0,0,1-15.065,23.585c-3.944,3.824-9.014,6.964-14.652,6.847-8.93-.186-12.631-12.466-14.316-19.239,0-.007-.009-.012-.011-.021A33.908,33.908,0,0,0,404.822,529.955Zm-.638-4.651c-9.627-2.913-16.477-12.171-21.221-20.466-9.132-15.959-11.838-35.542-10.617-53.624,1.258-18.572,9.383-33.946,17.306-49.985a71.046,71.046,0,0,0,25.972,16.361c12.238,4.2,25.445,3.036,38.3,1.91-8.46,13.488-5.08,33.275-2.67,47.987,1.638,10,4.05,19.918,4.862,29.936-7.272,8.284-14.662,16.417-23.963,22.585C423.716,525.6,414.046,528.29,404.184,525.3Zm39.2,4.392c.049-1.23.075-2.462.145-3.685.243-4.143,1.195-8.389,1.142-12.538,1.812-1.718,3.564-3.482,5.255-5.24,2.133-2.211,4.287-4.508,6.407-6.871a63.543,63.543,0,0,1-.833,13.365,69.679,69.679,0,0,1-5.87,17.483,14.011,14.011,0,0,0-2.5-1.317A15.233,15.233,0,0,0,443.389,529.7ZM326.09,645.763s12.474-40.856,21.59-60.51c4.809-10.375,10.724-21.714,18.459-31.17l2.041-2.408a57.083,57.083,0,0,1,19.028-14.587c2.364,5.978,3.448,12.208.976,18.912-.364.986.976,2.075,1.843,1.417a38.4,38.4,0,0,0,9.2-10.265c3.578,12.446,12.125,23.4,25.931,16.169,9.831-5.15,19.841-18.243,21.375-29.715a19.778,19.778,0,0,0,2.024.834c-2.51,5.056-5.38,9.969-8.18,14.707l-.923,1.56,3.029.13a35.231,35.231,0,0,0,15.021-3.2c3.834-1.728,7.439-3.644,11.053-5.322,10.156,5.382,19.074,13.574,26.377,23.171l2.41,3.294a110.267,110.267,0,0,1,17.517,40.185c3.395,16.576,1.048,33.9-1.52,50.4-1.576,10.139-3.316,20.107-5.427,30.011-9.737-8.918-21.642-15.427-33.888-16.509-1.108-.1-1.089,1.414-.238,1.773l1.848.774a37.376,37.376,0,0,1-1.383,4.155c-8.841-10.874,2.328-30.105,5.077-41.8,1.7-7.223,1.142-15.031,1.359-22.393.3-10.194.595-20.413,1.824-30.545.123-.992-1.6-1.223-1.742-.236-1.518,10.227-2.484,20.451-2.976,30.781-.48,10.047-.643,19.532-3.59,29.2-3.019,9.917-12.667,29.687-1.256,37.673a12.956,12.956,0,0,1-7.182,6.077c-5.444-36.344-16.532-72.229-28.221-107.086l-.894-2.659-2.318.065a210.621,210.621,0,0,0-21.117,1.926,1.385,1.385,0,0,0-1.687.229c-4.484.644-8.964,1.4-13.462,2.211a206.981,206.981,0,0,0-41.592,11.964c2.776-6.945,6.171-13.706,9.487-20.544a.737.737,0,0,0-1.27-.745A92.654,92.654,0,0,0,352.2,596.781l-.236.659a87.944,87.944,0,0,0-4.949,22.54c-.663,7.98.251,16.035,1.67,23.882.58,3.211,1.154,6.62,1.812,10.056-4.586-1.76-9.489-2.914-14.082-4.534l-3-1.067v-.009Zm78.238,15.917a71.453,71.453,0,0,1-6.645-5.576c-2.01-2.131-3.7-4.54-5.709-6.677-1.725-1.837-5.407-4.56-7.4-1.439-3.605,5.653-1.554,12.107,2.345,16.888-4.957,1.518-9.684,1.462-14.59,1.382-7.152-21.84-12.595-44.047-17.674-66.412.192-.556.393-1.111.592-1.665,4.371-1.623,8.709-3.359,13.089-4.883,3.275-1.139,6.586-2.124,9.911-3.052.279,4.289.894,8.939,4.12,12,3.484,3.316,10,1.735,14.149.927,5.949-1.161,12.161-3.364,16.686-7.506,3.836-3.511,2.217-8.265.985-12.612q6.315-.86,12.643-1.556a66.9,66.9,0,0,1,8.07-.294c1.47,6.1,3.655,12.04,5.655,17.967,3.328,9.864,6.084,19.83,8.665,29.913,5.07,19.781,10.592,39.8,13.85,59.981-.7.126-1.436.226-2.217.292-6.354.538-12.852-.746-19.014-2.149-11.454-2.61-21.989-7.292-32.42-12.551C410.333,669.252,408.706,665.322,404.328,661.68Zm-24.336-71.915c5.26-1.412,10.575-2.631,15.939-3.7,5.173-1.033,10.378-1.9,15.6-2.647,1.21,4.554,2.588,8.4-2.169,11.967-3.426,2.568-7.893,3.793-11.982,4.842-3.66.94-7.752,1.663-11.513.983C381.423,600.4,380.893,593.542,379.992,589.765Zm-73.73,301.629a39.911,39.911,0,0,1-5.024-3.792c-.475-6.224-1.892-12.325-3.188-18.453a23.733,23.733,0,0,0,6.648.419C305.44,876.751,308.888,884.325,306.262,891.394Zm7.233-5.927c-.38,1.313-2.966-1.007-4.036-1.916-.057-1.171-.161-2.342-.279-3.5a59.251,59.251,0,0,0-1.81-10.814,24.583,24.583,0,0,0,4.595-1.323c.265,3.735,1.388,7.513,1.73,11.246A17.386,17.386,0,0,1,313.5,885.467Zm7.668-5.391c-1.056,1.1-4.2-4.672-5.35-7.108a37.026,37.026,0,0,0-1.2-6.3,19.358,19.358,0,0,0,2.74-1.81c.06-.05.077-.108.127-.159.557,2.222,1.345,4.417,1.923,6.381C319.811,872.46,322.025,879.185,321.163,880.076Zm17.071-119.017c-6.448,10.417-10.722,21.356-14.122,33.11-1.9,6.554-3.383,13.231-4.718,19.915-.805,4.033-2.007,8.146-2.027,12.252a1.454,1.454,0,0,0,.1,2.053c.044.366.065.735.13,1.1a.977.977,0,0,0,1.588.5c6.829,7.682-1.347,20.334-2.306,28.871a14.034,14.034,0,0,0,.171,3.786,1.563,1.563,0,0,0-1.812.1,17.928,17.928,0,0,1-9.424,3.768,1.234,1.234,0,0,0-.416.039,31.569,31.569,0,0,1-8.034-.383,1.3,1.3,0,0,0-2.014-.374c-1.477-.3-2.937-.66-4.366-1.041a.588.588,0,0,0-.451,1.07,17.993,17.993,0,0,0,4.492,2.439c1.44,7.026,3.178,13.963,3.421,21.131-9.942-6.394-11.486-19.8-11.426-30.875.065-11.795,3.446-22.4,8.942-32.64A1.239,1.239,0,0,0,297.4,825c9.73-28.541,11.8-59.362,17.629-88.836,3.014-15.216,7.045-30.165,11.026-45.15,3.354-12.62,7.057-25.913,7.354-39.1,5.662,2.143,11.7,4.817,17.794,5.526a75.6,75.6,0,0,0,4.371,14.588.983.983,0,0,0,.162.237c-.039,16.3-4.788,31.6-8.7,47.582-3.318,13.559-6.327,27.19-8.571,40.956A1.117,1.117,0,0,0,338.234,761.059Zm64.109,393.947c.5,1.877,1.388,3.663,1.99,5.521,1.123,3.462-.838,4.481-3.323,6.009a45.4,45.4,0,0,1-6.906,3.439,10.407,10.407,0,0,1-2.886.8c-.328.029-.95-2.077-1.349-3.193C393.938,1164.11,399.005,1159.845,402.343,1155.006Zm19.476,22.674c.183-1.376.424-2.727.7-4.1a.785.785,0,0,0-1.429-.605,10.486,10.486,0,0,0-1,2.144c-8.062,4.484-17.192,8.181-25.756,11.549-10.392,4.087-19.669,5.183-29.878,1.285,7.58-6.123,15.394-11.949,22.855-18.226.484,2.033,1.939,4.033,3.908,4.147,3,.176,6.708-2.133,9.2-3.511,1.8-.993,6.069-3.012,6.537-5.364.843-4.236-1.473-8.173-3.492-11.787a19.58,19.58,0,0,0,1.624-3.468l2.911.808a52.9,52.9,0,0,0,18.79,1.245l.014.133C425.8,1159.16,432.92,1177.23,421.819,1177.68Zm55.866-4.665a45.164,45.164,0,0,0-3.6,4.933,54.6,54.6,0,0,1-17.183-12.976,36.933,36.933,0,0,0,6.747-4.421C467.311,1165.471,472.494,1169.553,477.685,1173.015ZM462.8,1159.356c-2.85,1.286-5.566,2.86-8.376,4.243a1.186,1.186,0,0,0-.431,1.631,53.375,53.375,0,0,0,19.944,15.537,1.325,1.325,0,0,0,1.79-.467,36.352,36.352,0,0,1,4.149-5.858c1.215.773,2.415,1.523,3.584,2.238,7.787,4.75,18.158,10.735,27.608,13.072-10.691,3.858-22.642,4.08-33.854,3.436-11.853-.682-20.069-8.375-30.917-11.527a.676.676,0,0,0-1-.246.7.7,0,0,0-.395,1.234c-.721,3.067-3.14,3.819-7.3,2.2-1-1.294-1.26-3.655-1.455-5.164a50.149,50.149,0,0,1-.164-7.664c.128-5.261.66-10.586.366-15.846a70.41,70.41,0,0,0,13.024,1.244c2.614.009,5.409-.119,8.289-.381l3.5-.4A29.5,29.5,0,0,0,462.8,1159.356Zm16.267-145.928c-4.289,32.214-8.438,64.473-13.253,96.609-2.173,14.5-4.79,28.91-7.469,43.314-1.786.251-3.6.448-5.451.578a58.864,58.864,0,0,1-21.862-2.424c-.019-.154-.036-.31-.055-.467l-.521-4.6c-4.86-42.249-7.989-84.681-11.411-127.1-2.152-26.753-4.164-53.484-4.923-80.315-.53-18.727-.2-37.565-.614-56.34l-.1-4.537c-.193-6.7-.5-13.38-.99-20.045a.72.72,0,0,0-1.439,0c-.431,5.8-.7,11.631-.879,17.467a63.689,63.689,0,0,1-5.224-4.776c-5.06-5.188-9.342-11.106-14.6-16.1-.7-.665-1.963.214-1.38,1.067,5.527,8.024,12.52,17.91,21.076,24.486-.424,19.59.239,39.29.7,58.776.632,26.826,2.759,53.567,4.9,80.315,2.13,26.645,4.462,53.273,6.6,79.92q1.629,20.31,3.467,40.616c.224,2.441.458,4.915.7,7.387a51.382,51.382,0,0,1-19.231-.679c-11.108-48.76-24.647-97-35.252-145.869-11.409-52.562-20.317-106.076-22.592-159.908,24.706,9.67,52.391,10.6,78.771,12.865,14.472,1.248,30.006,2.368,43.931-2.612,9.848-3.523,13.383-11.605,14.4-20.65,2.048,5.123,4.534,10.062,6.7,15.187a1.609,1.609,0,0,0,1.325,1.092C492.009,902.534,486.45,957.946,479.063,1013.428ZM492.12,785.646c4.33,11.559,8.116,23.154,9.675,35.442a141.367,141.367,0,0,1,.773,19.92,32.967,32.967,0,0,1-5.188,1.935l-2.8-1.5c-2.9-6.484-6.094-12.833-7.935-19.717a1.535,1.535,0,0,0-3,.4c.074,6.248-.114,12.427-3.01,18.106-3.518,6.894-12.312,8.865-19.267,10.089-13.78,2.424-28.394.457-42.2-.808-14.491-1.33-28.929-1.925-43.282-4.575a152.865,152.865,0,0,1-26.763-7.646l-2.145-.853q-3.18-1.257-6.325-2.631c-1.908-19.561-2.894-39.158-.708-59,2.327-21.108,7.486-41.848,12.5-62.445,3.246-13.309,10.422-31,5.248-44.77-.8-6.576-2.915-13.277-4.462-19.589a100.729,100.729,0,0,1-2.889-25.8,67.386,67.386,0,0,1,2.686-17.218c1.323,7.851,3.27,15.609,5.325,23.28,2.7,10.085,5.422,20.567,8.7,30.638-5.043,4.472-9.084,9.392-5.257,15.786,2.9,4.843,1.766,8.6,2.141,13.722a5.534,5.534,0,0,0,3.316,4.624c.61.324,2.786.14,2.631,1.452a9.234,9.234,0,0,0,1.012,4.5,13.27,13.27,0,0,0,8.022,5.888c.424.123.853.222,1.289.309a128.072,128.072,0,0,0,5.443,19.5,1.391,1.391,0,0,0,1.7.964c13.393-5.274,27.635-5.5,40.454-12.377,13.817,5.658,28.8,9.254,42.707,11.862a39.6,39.6,0,0,0,9.272.694C475.5,745.951,485.234,767.237,492.12,785.646ZM382.353,705.471c6.874.517,14.783-2.649,19.951-6.651a101.08,101.08,0,0,0,22.11,13.011c-9.04,4.133-18.158,5.936-28.008,8.088a71.278,71.278,0,0,0-7.4,2.128c-2.352.787-2.877-4.61-3.214-5.748A95.341,95.341,0,0,0,382.353,705.471Zm99.269,17.141a1.15,1.15,0,0,0-.723.081c-6.335.629-13.267-1.317-19-2.812-20.688-5.4-40.261-11.691-58.8-22.582a.746.746,0,0,0-.892-.191c-7.411,3.869-31.488,12.47-29.543-4.711a1.271,1.271,0,0,0-1.265-1.267c-7.1-.308-4.46-9.972-5.87-14.288-.747-2.306-2.414-4.111-3.337-6.324-1.246-2.992,2.93-6.951,5.532-9.58.6,1.778,1.21,3.541,1.848,5.285-1.151-.009-2.31-.009-3.5.026a.813.813,0,0,0-.214,1.588c6.732,2.711,16.667,2.232,23.182-.9a2.765,2.765,0,0,0,.434-2.752,18.32,18.32,0,0,1-4.284-7.44c-.475-1.6-.22-9.856,3.623-7.461,2.772,1.729,4.822,5.115,6.841,7.608a42.034,42.034,0,0,0,6.949,6.5c4.07,3.184,5.535,6.672,5.451,11.721a.779.779,0,0,0,.026.724.527.527,0,0,0,.316.358c9.877,9.235,27.269,13.231,40.085,15.366,6.455,1.074,13.393,1.518,19.669-.638,6.359-2.18,8.434-8.507,10.043-14.438,9.263,3.823,17.882,7.41,25.848,14.155-.848,11.029-5.769,23.728-15.629,29.689A17.318,17.318,0,0,1,481.622,722.612Z"/><path class="cls-13" d="M405.032,464.829c-.81,3.158-1.164,6.4-1.918,9.566-3.164-.415-7.169.188-6.978,4.167.173,3.576,4.937,6.454,8.161,5.413a.774.774,0,0,0,.183-1.4c-1.8-.96-3.913-1.108-5.224-2.851-2.332-3.1,2.9-2.849,4.494-2.585a1.313,1.313,0,0,0,1.6-.906c.648-3.724.426-7.5.87-11.24C406.3,464.306,405.2,464.187,405.032,464.829Z"/><path class="cls-13" d="M437.313,447.849c-.665-3.054-5.219-4.876-6.607-2.44-2.07,1.619-2.388,5.442-2.14,7.794.308,2.929,2.865,6.024,5.944,3.971C437.276,455.332,437.973,450.846,437.313,447.849Zm-2.475,4.183a2.474,2.474,0,0,0-1.056-.4,2.779,2.779,0,0,1-1.66-1.267,3.6,3.6,0,0,1-.2-2.833c1.973-1.8,3.122.541,3.137,2.606A9.024,9.024,0,0,1,434.838,452.032Z"/><path class="cls-13" d="M392.847,447.849c-.668-3.054-5.222-4.876-6.61-2.44-2.07,1.619-2.388,5.442-2.137,7.794.306,2.929,2.863,6.024,5.942,3.971C392.808,455.332,393.5,450.846,392.847,447.849Zm-2.475,4.183a2.487,2.487,0,0,0-1.053-.4,2.776,2.776,0,0,1-1.663-1.267,3.622,3.622,0,0,1-.209-2.833c1.978-1.8,3.125.541,3.137,2.606A8.871,8.871,0,0,1,390.372,452.032Z"/><path class="cls-13" d="M425.385,430.8a.916.916,0,0,0,1.121,1.119c1.894-.626,3.506-1.887,5.412-2.507,2.378-.773,4.274.316,6.286,1.465a.694.694,0,0,0,1.012-.779C437.3,423.8,427.45,425.431,425.385,430.8Z"/><path class="cls-13" d="M398.1,430.771c-1.306-7.1-11.472-8.9-15.4-3.082-.468.7.479,1.686,1.183,1.18,2.115-1.522,3.9-2.382,6.532-1.757,2.6.62,4.118,2.965,6,4.637A1.013,1.013,0,0,0,398.1,430.771Z"/><path class="cls-22" d="M414.859,582.13a56.01,56.01,0,0,1-5.142-8.622,45.1,45.1,0,0,1-2.2-6.5c-1.6-5.865-2.776-11.932-5.632-17.3l-2.2-5.69c-.588,2.838-9.592,11.549-9.592,11.549,4.5-6.068-2.838-20.064-2.838-20.064-5.677-1.076-22.764,15.542-22.764,15.542l-2.52,13.984c-.5,2.795-1.006,5.685-.361,8.451.3,1.287.839,2.5,1.235,3.762a35.005,35.005,0,0,1,1.109,5.587l1.266,8.872Z"/><path d="M416.8,581a46.966,46.966,0,0,1-6.651-12.936c-1.121-3.732-1.9-7.559-3.048-11.285-1.409-4.575-3.528-8.895-5.257-13.356a2.272,2.272,0,0,0-4.339,0c-1.29,3.985-6.063,7.689-9.013,10.556l3.534,2.726c3.653-5.8,1.244-16.342-2.532-21.721-3.454-4.923-11.579,1.86-14.788,4.293-4.135,3.134-11.633,7.5-12.71,12.921-1.23,6.19-3.386,13.271-2.9,19.612.209,2.759,1.428,5.208,2.055,7.87.965,4.1,1.3,8.456,1.893,12.622.181,1.268,1.7,1.777,2.768,1.572l49.647-9.569c2.841-.547,1.638-4.885-1.2-4.339l-49.647,9.569,2.767,1.571c-.594-4.169-.926-8.518-1.893-12.623-1.1-4.678-2.154-7.786-1.355-12.853.55-3.489,1.548-6.974,1.89-10.488.258-2.656.07-2.064,1.343-3.729,2.213-2.893,5.956-5.384,8.8-7.616,2.732-2.147,7.317-6.414,11.084-6.041l-1.943-1.114c2.458,4.757,6,12.776,2.838,17.792-1.381,2.2,1.725,4.486,3.534,2.727,3.571-3.471,8.594-7.67,10.17-12.542h-4.339c1.927,4.973,4.256,9.824,5.721,14.949,2.486,8.7,4.553,16.129,9.688,23.7C414.533,585.65,418.433,583.4,416.8,581Z"/><path class="cls-22" d="M509.7,585.908c1.942,4.768-8.592,5.581-11.524,9.813s-5.544,8.841-9.6,12.014c-4.463,3.492-10.194,4.866-15.181,7.559-8.21,4.433-14.01,12.19-19.539,19.707l-13.351-39.633c7.618-3.836,12.848-11.032,18.365-17.535a150.446,150.446,0,0,1,26.068-24.216S500.8,564.056,509.7,585.908Z"/><path d="M507.531,586.506c.517,1.854-8.925,5.452-10.389,6.949-2.105,2.153-3.48,5.131-5.287,7.535a24.825,24.825,0,0,1-9,7.6c-5.976,2.973-11.891,4.917-17.1,9.276-5.435,4.548-9.664,10.333-13.843,16l4.112.537-13.35-39.632-1.034,2.541c8.4-4.54,13.848-12.187,19.982-19.24a151.82,151.82,0,0,1,24.45-22.511H483.8c10.747,7.162,18.822,19.269,23.728,30.946,1.106,2.629,5.462,1.474,4.34-1.2-5.388-12.82-14-25.776-25.8-33.635a2.186,2.186,0,0,0-2.271,0,157.7,157.7,0,0,0-22.99,20.551c-6.773,7.428-12.394,16.307-21.442,21.2a2.271,2.271,0,0,0-1.034,2.541l13.35,39.633a2.284,2.284,0,0,0,4.113.537c5.26-7.137,10.779-14.573,18.732-18.9,6.361-3.461,13.347-5.008,18.427-10.538,2.42-2.634,4.155-5.719,6.289-8.562,1.849-2.464,3.961-3.426,6.716-4.736,3.4-1.616,7.124-3.724,5.907-8.091C511.094,582.524,506.752,583.707,507.531,586.506Z"/></g><line class="cls-27" x1="393.669" y1="499.075" x2="412.649" y2="499.992"/><circle class="cls-28" cx="255.744" cy="459.094" r="45.8"/><path class="cls-22" d="M281.672,443.569a4.818,4.818,0,0,0-6.743-.977l-28.487,21.273a2.174,2.174,0,0,1-3.349-1.011l-1.639-4.587a4.818,4.818,0,0,0-9.075,3.241l4.823,13.5A4.775,4.775,0,0,0,240.347,478a4.849,4.849,0,0,0,1.408.21,4.776,4.776,0,0,0,2.868-.962L280.7,450.313a4.816,4.816,0,0,0,.977-6.744Z"/><path class="cls-28" d="M224.391,481.18s-5.77,18.152-25.12,15.537c0,0,12.355,15.314,35.231-4.26"/><path class="cls-25" d="M451.976,602.8a1.5,1.5,0,0,0,0-3,1.5,1.5,0,0,0,0,3Z"/><path class="cls-25" d="M464.118,611.367a1.5,1.5,0,0,0,0-3,1.5,1.5,0,0,0,0,3Z"/><path class="cls-25" d="M466.261,585.654a1.5,1.5,0,0,0,0-3,1.5,1.5,0,0,0,0,3Z"/><path class="cls-25" d="M480.545,601.367a1.5,1.5,0,0,0,0-3,1.5,1.5,0,0,0,0,3Z"/><path class="cls-25" d="M486.259,575.655a1.5,1.5,0,0,0,0-3,1.5,1.5,0,0,0,0,3Z"/><path class="cls-25" d="M496.973,586.369a1.5,1.5,0,0,0,0-3,1.5,1.5,0,0,0,0,3Z"/><path class="cls-25" d="M375.553,554.942a1.5,1.5,0,0,0,0-3,1.5,1.5,0,0,0,0,3Z"/><path class="cls-25" d="M397.694,569.227a1.5,1.5,0,0,0,0-3,1.5,1.5,0,0,0,0,3Z"/><path class="cls-25" d="M376.267,570.655a1.5,1.5,0,0,0,0-3,1.5,1.5,0,0,0,0,3Z"/><path class="cls-25" d="M386.267,579.94a1.5,1.5,0,0,0,0-3,1.5,1.5,0,0,0,0,3Z"/><path class="cls-25" d="M490.545,734.929a1.5,1.5,0,0,0,0-3,1.5,1.5,0,0,0,0,3Z"/><path class="cls-25" d="M502.075,728a1.5,1.5,0,0,0,0-3,1.5,1.5,0,0,0,0,3Z"/><path class="cls-25" d="M502.075,742.533a1.5,1.5,0,0,0,0-3,1.5,1.5,0,0,0,0,3Z"/><path class="cls-25" d="M494.289,749.8a1.5,1.5,0,0,0,0-3,1.5,1.5,0,0,0,0,3Z"/><path class="cls-25" d="M504.93,759.922a1.5,1.5,0,0,0,0-3,1.5,1.5,0,0,0,0,3Z"/><path class="cls-25" d="M496.365,766.151a1.5,1.5,0,0,0,0-3,1.5,1.5,0,0,0,0,3Z"/><path class="cls-25" d="M475.862,590.188a1.5,1.5,0,0,0,0-3,1.5,1.5,0,0,0,0,3Z"/><path class="cls-22" d="M422.939,572.63a1.5,1.5,0,0,0,0-3,1.5,1.5,0,0,0,0,3Z"/><path class="cls-22" d="M443.234,561.612a1.5,1.5,0,0,0,0-3,1.5,1.5,0,0,0,0,3Z"/><path class="cls-22" d="M464.883,553.494a1.5,1.5,0,0,0,0-3,1.5,1.5,0,0,0,0,3Z"/><path class="cls-22" d="M456.378,564.705a1.5,1.5,0,0,0,0-3,1.5,1.5,0,0,0,0,3Z"/><path class="cls-22" d="M446.714,581.135a1.5,1.5,0,0,0,0-3,1.5,1.5,0,0,0,0,3Z"/><path class="cls-22" d="M354.921,581.35a1.5,1.5,0,0,0,0-3,1.5,1.5,0,0,0,0,3Z"/><path class="cls-22" d="M348.405,596.727a1.5,1.5,0,0,0,0-3,1.5,1.5,0,0,0,0,3Z"/><path class="cls-22" d="M341.629,614.45a1.5,1.5,0,0,0,0-3,1.5,1.5,0,0,0,0,3Z"/><path class="cls-22" d="M341.368,629.567a1.5,1.5,0,0,0,0-3,1.5,1.5,0,0,0,0,3Z"/><path class="cls-22" d="M333.028,642.077a1.5,1.5,0,0,0,0-3,1.5,1.5,0,0,0,0,3Z"/><path class="cls-22" d="M342.671,647.029a1.5,1.5,0,0,0,0-3,1.5,1.5,0,0,0,0,3Z"/><path class="cls-22" d="M354.4,635.3a1.5,1.5,0,0,0,0-3,1.5,1.5,0,0,0,0,3Z"/><path class="cls-22" d="M360.916,657.715a1.5,1.5,0,0,0,0-3,1.5,1.5,0,0,0,0,3Z"/><path class="cls-22" d="M362.479,698.374a1.5,1.5,0,0,0,0-3,1.5,1.5,0,0,0,0,3Z"/><path class="cls-22" d="M370.82,712.709a1.5,1.5,0,0,0,0-3,1.5,1.5,0,0,0,0,3Z"/><path class="cls-22" d="M358.309,724.438a1.5,1.5,0,0,0,0-3,1.5,1.5,0,0,0,0,3Z"/><path class="cls-22" d="M377.336,729.129a1.5,1.5,0,0,0,0-3,1.5,1.5,0,0,0,0,3Z"/><path class="cls-22" d="M354.921,739.815a1.5,1.5,0,0,0,0-3,1.5,1.5,0,0,0,0,3Z"/><path class="cls-22" d="M370.3,748.677a1.5,1.5,0,0,0,0-3,1.5,1.5,0,0,0,0,3Z"/><path class="cls-22" d="M356.224,761.708a1.5,1.5,0,0,0,0-3,1.5,1.5,0,0,0,0,3Z"/><path class="cls-22" d="M382.288,766.66a1.5,1.5,0,0,0,0-3,1.5,1.5,0,0,0,0,3Z"/><path class="cls-22" d="M384.112,744.506a1.5,1.5,0,0,0,0-3,1.5,1.5,0,0,0,0,3Z"/><path class="cls-22" d="M403.66,732.257a1.5,1.5,0,0,0,0-3,1.5,1.5,0,0,0,0,3Z"/><path class="cls-22" d="M399.229,752.065a1.5,1.5,0,0,0,0-3,1.5,1.5,0,0,0,0,3Z"/><path class="cls-22" d="M411.479,766.66a1.5,1.5,0,0,0,0-3,1.5,1.5,0,0,0,0,3Z"/><path class="cls-22" d="M418.516,746.07a1.5,1.5,0,0,0,0-3,1.5,1.5,0,0,0,0,3Z"/><path class="cls-22" d="M422.686,725.48a1.5,1.5,0,0,0,0-3,1.5,1.5,0,0,0,0,3Z"/><path class="cls-22" d="M437.021,731.735a1.5,1.5,0,0,0,0-3,1.5,1.5,0,0,0,0,3Z"/><path class="cls-22" d="M435.978,747.113a1.5,1.5,0,0,0,0-3,1.5,1.5,0,0,0,0,3Z"/><path class="cls-22" d="M430.244,763.272a1.5,1.5,0,0,0,0-3,1.5,1.5,0,0,0,0,3Z"/><path class="cls-22" d="M454.744,736.427a1.5,1.5,0,0,0,0-3,1.5,1.5,0,0,0,0,3Z"/><path class="cls-22" d="M449.531,753.107a1.5,1.5,0,0,0,0-3,1.5,1.5,0,0,0,0,3Z"/><path class="cls-22" d="M467.254,765.618a1.5,1.5,0,0,0,0-3,1.5,1.5,0,0,0,0,3Z"/><path class="cls-22" d="M466.472,745.81a1.5,1.5,0,0,0,0-3,1.5,1.5,0,0,0,0,3Z"/><path class="cls-22" d="M447.446,726.523a1.5,1.5,0,0,0,0-3,1.5,1.5,0,0,0,0,3Z"/><path class="cls-22" d="M469.079,732.778a1.5,1.5,0,0,0,0-3,1.5,1.5,0,0,0,0,3Z"/><path class="cls-22" d="M471.424,629.828a1.5,1.5,0,0,0,0-3,1.5,1.5,0,0,0,0,3Z"/><path class="cls-22" d="M460.478,637.907a1.5,1.5,0,0,0,0-3,1.5,1.5,0,0,0,0,3Z"/><path class="cls-22" d="M466.212,647.551a1.5,1.5,0,0,0,0-3,1.5,1.5,0,0,0,0,3Z"/><path class="cls-22" d="M487.844,619.923a1.5,1.5,0,0,0,0-3,1.5,1.5,0,0,0,0,3Z"/><path class="cls-22" d="M504.264,606.11a1.5,1.5,0,0,0,0-3,1.5,1.5,0,0,0,0,3Z"/><path class="cls-22" d="M502.44,621.487a1.5,1.5,0,0,0,0-3,1.5,1.5,0,0,0,0,3Z"/><path class="cls-22" d="M507.131,643.12a1.5,1.5,0,0,0,0-3,1.5,1.5,0,0,0,0,3Z"/><path class="cls-22" d="M493.839,635.822a1.5,1.5,0,0,0,0-3,1.5,1.5,0,0,0,0,3Z"/><path class="cls-22" d="M484.977,649.636a1.5,1.5,0,0,0,0-3,1.5,1.5,0,0,0,0,3Z"/><path class="cls-22" d="M479.5,665.013a1.5,1.5,0,0,0,0-3,1.5,1.5,0,0,0,0,3Z"/><path class="cls-22" d="M498.53,655.891a1.5,1.5,0,0,0,0-3,1.5,1.5,0,0,0,0,3Z"/><path class="cls-22" d="M494.1,670.747a1.5,1.5,0,0,0,0-3,1.5,1.5,0,0,0,0,3Z"/><path class="cls-22" d="M503.743,677.524a1.5,1.5,0,0,0,0-3,1.5,1.5,0,0,0,0,3Z"/></svg>