<svg id="Layer_1" data-name="Layer 1" xmlns="http://www.w3.org/2000/svg" xmlns:xlink="http://www.w3.org/1999/xlink" viewBox="0 0 838.404 314.918"><defs><style>.cls-1,.cls-11{fill:none;}.cls-2{fill:#d3e2df;}.cls-3{clip-path:url(#clip-path);}.cls-4{fill:#f9b767;}.cls-19,.cls-20,.cls-5{fill:#00a89b;}.cls-6{fill:#fff;}.cls-7{fill:#de953d;}.cls-8,.cls-9{fill:#231f20;}.cls-10,.cls-11,.cls-12,.cls-15,.cls-17,.cls-9{stroke:#000;}.cls-10,.cls-11,.cls-15,.cls-17,.cls-9{stroke-miterlimit:10;}.cls-10,.cls-17{stroke-width:2px;}.cls-11,.cls-12{stroke-width:5px;}.cls-12,.cls-17{fill:#e5da53;}.cls-12{stroke-linecap:round;stroke-linejoin:round;}.cls-13{clip-path:url(#clip-path-2);}.cls-14{fill:#ffb583;}.cls-16{fill:#333;}.cls-18{fill:#67c96e;}.cls-19{font-size:29.485px;letter-spacing:0.16em;}.cls-19,.cls-20{font-family:OpenSans-Bold, Open Sans;font-weight:700;}.cls-20{font-size:37px;}.cls-21{fill:#e25963;}</style><clipPath id="clip-path"><circle class="cls-1" cx="508.4" cy="152.857" r="109.586"/></clipPath><clipPath id="clip-path-2"><circle class="cls-1" cx="127.461" cy="152.857" r="109.586"/></clipPath></defs><title>how-often</title><path class="cls-2" d="M837.416,213.144c9.044,60.944-44.981,101.637-123.174,101.468-79.185,4.01-182.538-32.843-295.04-30.5-112.5-2.342-215.856,34.511-295.041,30.5C45.968,314.781-8.059,274.088.988,213.144,10.183,152.8,65.208,98.467,139.61,60.511,214.922,22.328,309.611.519,419.2,0,528.789.518,623.479,22.328,698.793,60.51,773.194,98.467,828.218,152.8,837.416,213.144Z"/><g class="cls-3"><polygon class="cls-4" points="551.041 284.995 560.216 280.213 565.122 279.333 569.655 301.729 574.371 329.753 570.709 348.24 557.789 367.195 545.88 378.856 535.155 359.358 547.218 345.487 548.889 342.017 554.763 334.769 557.302 319.148 555.389 305.641 551.041 284.995"/><polygon class="cls-4" points="452.932 274.864 444.947 298.528 439.537 320.313 440.941 340.814 444.418 360.053 454.899 376.731 464.875 371.123 468.128 363.18 459.153 338.329 457.446 317.463 460.53 303.347 467.771 288.064 456.608 276.584 452.932 274.864"/><polygon class="cls-5" points="551.616 283.653 565.122 279.333 560.286 261.356 554.951 243.494 545.128 229.902 531.167 223.125 500.186 226.264 487.826 229.316 477.066 233.73 452.932 273.323 468.366 288.983 466.416 299.514 460.956 328.143 460.019 334.384 460.542 340.083 463.553 349.324 547.23 347.172 549.857 347.104 548.166 329.188 547.183 293.716 549.367 276.363 551.616 283.653"/><path class="cls-4" d="M504.493,228.742c1.508,1.451,3.841,1.453,5.717.963,4.559-1.19,9.268-4.506,10.008-9.285-.206-2.158-.13-4.341-.214-6.508-.033-.919-.1-1.835-.166-2.752a41.531,41.531,0,0,1-12.743,3.682,36.387,36.387,0,0,1-.291,8.211c-.084.525-.815.331-.858-.114-.062-.638-.086-1.294-.126-1.94-.464.76-.947,1.507-1.358,2.321C503.533,225.153,502.819,227.134,504.493,228.742Z"/><path class="cls-4" d="M472.748,124.905a91.867,91.867,0,0,0-6.03,26.386l-.139,1.8a112.734,112.734,0,0,0,.16,16.683c.653,7.932,1.672,16.527,5.08,23.816a32.967,32.967,0,0,0,13.848,14.494,38.45,38.45,0,0,0,19.948,5.217l1.336-.062a39.39,39.39,0,0,0,12.77-3.678l1.39-.653c2.526-1.22,4.97-2.584,7.3-3.943,11.189-6.534,19.191-18.711,22.622-31.355l.453-1.779,1.379.7c3.572,1.153,8.226-1.6,10.367-5.111A28.959,28.959,0,0,0,566.917,154c.1-2.314.13-4.9-.959-7.007-1.756-3.408-5.691-2.7-8.494-1.175a20.553,20.553,0,0,0-5.1,4.154l-1.778,1.954-.011-2.139c0-5.575.053-11.138-.41-16.725-.092-1.134-.208-2.263-.33-3.39-10.014,1.574-21.261-1.314-29.737-5.962-5.2-2.847-8.712-6.236-10.47-11.845a14.033,14.033,0,0,1-8.774-5.992c-2.745-4.3-3.1-9.416-2.758-14.4C486.954,100.517,478.148,111.332,472.748,124.905Zm14.328,22.3A18.155,18.155,0,0,1,486.053,152a.529.529,0,0,1-.148.413l-.014.013c-.092.243-.175.488-.278.727-.555,1.317-1.337,3.348-2.831,3.89-3.713,1.351-3.066-4.781-2.645-6.6.092-.4.208-.816.344-1.233a2.927,2.927,0,0,1-.708-.743,4.348,4.348,0,0,1-.525-2.881c.03-.384.638-.526.715-.1a6.146,6.146,0,0,0,.622,2.02,1.8,1.8,0,0,0,.381.452,7.4,7.4,0,0,1,1.544-2.291c-.985-.719-1.667-2.166-.982-3.084a.317.317,0,0,1,.541,0,9.8,9.8,0,0,0,.679,1.685,3.091,3.091,0,0,0,.759.688,3.517,3.517,0,0,1,1.137-.381,1.654,1.654,0,0,1,1.334.018C487.069,145.056,487.148,146.179,487.076,147.209Zm2.408-10.927a.45.45,0,0,1-.669.384c-1.834-1.044-1.7-4.223-4.5-3.7-1.34.252-2.5,1.343-3.532,2.15-.737.578-1.854,1.161-2.275,2.028-.273.563-1.107.256-1.122-.3-.044-1.555,1.577-2.606,2.63-3.534a8.446,8.446,0,0,1,4.374-2.4A4.747,4.747,0,0,1,489.484,136.282ZM555.439,152.1c2.485-2.631,8.418-1.03,8.092,2.937a.644.644,0,0,1-1.19.323,3.656,3.656,0,0,0-6.069-.884,10.6,10.6,0,0,0-2.754,4.527c-.7,2.862-.259,5.963-.846,8.87-.086.427-.639.262-.687-.091C551.247,162.188,551.363,156.414,555.439,152.1Zm-20.319-5.972c.185-.362.8-.106.654.275a4.219,4.219,0,0,1-2.024,2.448,4.063,4.063,0,0,1-1.925.434,19.044,19.044,0,0,1-.737,2.708.52.52,0,0,1-.146.413.083.083,0,0,0-.014.013c-.091.241-.175.488-.276.727-.557,1.317-1.34,3.346-2.833,3.89-3.714,1.351-3.064-4.781-2.643-6.6.565-2.46,1.88-5.5,4.5-5.864a1.659,1.659,0,0,1,1.333.017,1.764,1.764,0,0,1,.523.352,1.913,1.913,0,0,0,1.033-.682,15.145,15.145,0,0,0,.889-1.883.283.283,0,0,1,.523.142,3.7,3.7,0,0,1-.776,2.587,2.915,2.915,0,0,1-1.149.829,4.724,4.724,0,0,1,.057,1.277c-.019.272-.053.543-.085.813a3.27,3.27,0,0,0,1.133-.164A3.581,3.581,0,0,0,535.12,146.131Zm-12.99-9.32c.889-2.405,4.155-4.5,6.678-4.662a5.227,5.227,0,0,1,5.341,4.6c.108.666-.682,1.3-1.229.714-1.678-1.8-2.466-3.916-5.409-2.892-1.8.626-3.1,2.087-4.846,2.766A.435.435,0,0,1,522.13,136.811Z"/><path class="cls-6" d="M529.474,146.144a.49.49,0,0,1-.641.02,6.148,6.148,0,0,0-1.83,2.928.245.245,0,0,1,.046.075c.22.795.131,1.562.831,2.162a1.969,1.969,0,0,0,1.778.34c.114-.352.2-.656.259-.837a17.823,17.823,0,0,0,.478-1.889,13.337,13.337,0,0,0,.25-1.734Q530.912,146.228,529.474,146.144Z"/><path class="cls-7" d="M501.19,214.777a42.022,42.022,0,0,1-18.442-6.583,33.88,33.88,0,0,1-12.976-15.34c-2.975-7.212-3.954-15.353-4.591-23.077a112.664,112.664,0,0,1-.1-17.273,30.71,30.71,0,0,1-4.655-2.5,59.6,59.6,0,0,0-3.712,15.9c-.569,7.831-1.708,15.653-2.115,23.486-.418,8.076-.295,17.4,3.519,24.733,3.694,7.1,11.339,10.953,18.711,7.29a15.254,15.254,0,0,1-5.822-6.25.329.329,0,0,1,.513-.4c5.488,5.064,12.8,10.073,20.644,8.2,1.25-1.58-3.46,6.326-1.948,4.907,1.013-.95,0,2.133,12.464-3.468,1-.449,4.565-4.872,3.9-7.044C505.868,215.018,500.894,214.935,501.19,214.777Z"/><path class="cls-7" d="M461.077,148.2a37.989,37.989,0,0,0,4.152,2.385,92.473,92.473,0,0,1,7.507-29.546c5.41-12.073,14.047-23.993,25.479-31.092.086-.925.19-1.844.3-2.748.035-.285.462-.3.46,0,0,.766-.01,1.538-.014,2.31v1.249c.013,4.492.292,9.028,2.48,13.04a12.071,12.071,0,0,0,7.6,5.993,73.177,73.177,0,0,1-1.9-19.36c.007-.332.552-.435.6-.082.921,6.276,1.342,12.589,2.914,18.756.1.412.214.824.33,1.231l.578,1.841a14.852,14.852,0,0,0,3.044,5.357,26.721,26.721,0,0,0,7.388,5.049,49.1,49.1,0,0,0,17.677,5.193,57.179,57.179,0,0,0,9.916-.054c-.766-6.183-1.914-12.3-3.085-18.431a.424.424,0,0,1,.817-.226,104.224,104.224,0,0,1,3.912,18.522l.223,1.784q.174,1.529.32,3.063a125.765,125.765,0,0,1,.668,15.235c2.832-2.872,6.32-5.113,10.032-4.862,6.541.444,6.563,8.722,6.04,13.5-.684,6.26-2.987,14.189-9.014,17.345a9.208,9.208,0,0,1-7.049.615c-1.609,6.345-4.892,12.452-8.323,17.772-4.919,7.625-11.478,12.744-19.506,16.824-1.091.557-2.194,1.09-3.3,1.609.07.538.117,1.083.165,1.626,1.5.8-.773,9.691.319,11.024,1.244,1.518,6.043-3.442,6.843-1.581,5.587-.935,9.731-7.651,13.26-11.617a.269.269,0,0,1,.446.261,21.2,21.2,0,0,1-8.11,9.738c4.5.666,8.931,1.244,13.382-.254,4.349-1.46,6.983-4.368,9.411-8.095a.338.338,0,0,1,.613.261c-.781,4.911-4.336,7.885-8.742,9.384,2.461,1.019,6.757-.332,8.842-.892,3.613-.973,6.585-2.752,8.3-6.2,3.05-6.145,4.034-14.052,5.216-20.747,4.572-25.936,3.05-52.281-3.452-77.738-1.615-6.321-3.019-13.124-6.409-18.775-3.182-5.3-8.336-9.1-13.569-12.2-9.346-5.543-20.488-8.494-30.892-5.447l-1.175.361a29.258,29.258,0,0,0-4.219,1.794.544.544,0,0,1-.548-.939,28.475,28.475,0,0,1,3.6-1.883c-3.663-3.171-7.9-6.2-12.719-6.509-5.79-.369-11.779,3.839-16.357,6.959a146.154,146.154,0,0,0-13.135,10.422c-4.3,3.723-8.606,7.371-11.835,12.107a103.291,103.291,0,0,0-7.826,14.094c-2.486,5.278-4.057,10.8-2.874,16.655a24.4,24.4,0,0,0,10.169,15.2Z"/><path class="cls-7" d="M539.687,127.78a57.179,57.179,0,0,0,9.916-.054c-.7-5.672-1.729-11.284-2.8-16.908-.206-.46-.4-.916-.594-1.351-.8,7.044-3.855,13.687-12.751,11.206-11.881-3.317-19.745-12.625-24.345-23.5a9.5,9.5,0,0,1-.334,1.136,87.951,87.951,0,0,0,1.888,10.8c.1.412.214.824.33,1.231l.578,1.841a14.852,14.852,0,0,0,3.044,5.357,26.721,26.721,0,0,0,7.388,5.049A49.1,49.1,0,0,0,539.687,127.78Z"/><path class="cls-7" d="M505.537,99.737c-3.063-1.937-4.662-5.466-6.566-8.611.028,4.374.347,8.771,2.475,12.676a12.071,12.071,0,0,0,7.6,5.993,64.421,64.421,0,0,1-1.6-9.708A2.03,2.03,0,0,1,505.537,99.737Z"/><path class="cls-6" d="M484.436,146.144a.491.491,0,0,1-.642.02,5.811,5.811,0,0,0-1.674,2.53.442.442,0,0,1-.051.741,2.863,2.863,0,0,0,.773,1.894,1.971,1.971,0,0,0,1.779.34c.115-.352.2-.656.259-.837a18.4,18.4,0,0,0,.48-1.889,13.683,13.683,0,0,0,.247-1.734Q485.877,146.228,484.436,146.144Z"/><path class="cls-8" d="M555.439,152.1c-4.076,4.311-4.192,10.085-3.454,15.682.048.353.6.518.687.091.587-2.907.149-6.008.846-8.87a10.6,10.6,0,0,1,2.754-4.527,3.656,3.656,0,0,1,6.069.884.644.644,0,0,0,1.19-.323c.326-3.967-5.607-5.568-8.092-2.937"/><path class="cls-9" d="M508.526,186.339c-4.334-.1-9.737.008-13.262,2.838-.534.432.007,1.174.6.971C501.975,188.044,512,186.418,508.526,186.339Z"/><path class="cls-9" d="M534.149,136.754a5.227,5.227,0,0,0-5.341-4.6c-2.523.166-5.789,2.257-6.678,4.662a.435.435,0,0,0,.535.531c1.743-.679,3.047-2.14,4.846-2.766,2.943-1.024,3.731,1.094,5.409,2.892.547.586,1.337-.048,1.229-.714"/><path class="cls-9" d="M484.388,130.909a8.446,8.446,0,0,0-4.374,2.4c-1.053.928-2.674,1.979-2.63,3.534.015.559.849.866,1.122.3.421-.867,1.538-1.45,2.275-2.028,1.032-.807,2.192-1.9,3.532-2.15,2.8-.526,2.668,2.653,4.5,3.7a.45.45,0,0,0,.669-.384,4.747,4.747,0,0,0-5.1-5.373"/><path class="cls-8" d="M535.12,146.131a3.581,3.581,0,0,1-1.958,1.727,3.27,3.27,0,0,1-1.133.164c.032-.27.066-.541.085-.813a4.724,4.724,0,0,0-.057-1.277,2.915,2.915,0,0,0,1.149-.829,3.7,3.7,0,0,0,.776-2.587.283.283,0,0,0-.523-.142,15.145,15.145,0,0,1-.889,1.883,1.913,1.913,0,0,1-1.033.682,1.764,1.764,0,0,0-.523-.352,1.659,1.659,0,0,0-1.333-.017c-2.625.367-3.94,3.4-4.5,5.864-.421,1.824-1.071,7.956,2.643,6.6,1.493-.544,2.276-2.573,2.833-3.89.1-.239.185-.486.276-.727a.083.083,0,0,1,.014-.013.52.52,0,0,0,.146-.413,19.044,19.044,0,0,0,.737-2.708,4.063,4.063,0,0,0,1.925-.434,4.219,4.219,0,0,0,2.024-2.448c.146-.381-.469-.637-.654-.275m-5.2,4.7c-.055.181-.145.485-.259.837a1.969,1.969,0,0,1-1.778-.34c-.7-.6-.611-1.367-.831-2.162a.245.245,0,0,0-.046-.075,6.148,6.148,0,0,1,1.83-2.928.49.49,0,0,0,.641-.02q1.438.084,1.171,1.065a13.337,13.337,0,0,1-.25,1.734,17.823,17.823,0,0,1-.478,1.889"/><path class="cls-8" d="M485.978,144.588a1.654,1.654,0,0,0-1.334-.018,3.517,3.517,0,0,0-1.137.381,3.091,3.091,0,0,1-.759-.688,9.8,9.8,0,0,1-.679-1.685.317.317,0,0,0-.541,0c-.685.918,0,2.365.982,3.084a7.4,7.4,0,0,0-1.544,2.291,1.8,1.8,0,0,1-.381-.452,6.146,6.146,0,0,1-.622-2.02c-.077-.428-.685-.286-.715.1a4.348,4.348,0,0,0,.525,2.881,2.927,2.927,0,0,0,.708.743c-.136.417-.252.832-.344,1.233-.421,1.822-1.068,7.954,2.645,6.6,1.494-.542,2.276-2.573,2.831-3.89.1-.239.186-.484.278-.727l.014-.013a.529.529,0,0,0,.148-.413,18.155,18.155,0,0,0,1.023-4.787c.072-1.03-.007-2.153-1.1-2.621m-.371,2.621a13.683,13.683,0,0,1-.247,1.734,18.4,18.4,0,0,1-.48,1.889c-.057.181-.144.485-.259.837a1.971,1.971,0,0,1-1.779-.34,2.863,2.863,0,0,1-.773-1.894.442.442,0,0,0,.051-.741,5.811,5.811,0,0,1,1.674-2.53.491.491,0,0,0,.642-.02q1.442.084,1.171,1.065"/><path class="cls-10" d="M579.905,550.468c-2.477-2.766-6.256-4.052-9.713-5.046-9.279-2.665-18.795-4.506-27.836-7.853l.551-.1.239-2c1.366-11.539,1.838-23.275,2.2-34.726a445.01,445.01,0,0,0-.912-44.659c5.261-1.492,10.452-3.259,15.583-5.09,1-.356,1.983-.734,2.976-1.1l2.164-.8-.409-1.956c-1.052-5.059-2.076-10.125-2.988-15.206q-3.813-21.3-6.471-42.79c-.673-5.43-1.267-10.873-1.827-16.315a98.991,98.991,0,0,0,7.411-8.58,75.1,75.1,0,0,0,9.84-16.01,50.207,50.207,0,0,0,3.662-18.487c.407-14.407-2.579-28.7-6.212-42.563-3.719-14.181-7.394-28.653-12.668-42.347-2.26-5.866-5.348-11.04-10.363-14.941a51.076,51.076,0,0,0-15.8-7.96,12.376,12.376,0,0,0,3.11-1.015.773.773,0,0,0,.175.1,26.2,26.2,0,0,0,14.291.771c2.893,2.976,8.878,1.222,12.3.155,5.837-1.816,8.629-5.809,10.254-11.509a176.165,176.165,0,0,0,6.521-44.634A183.985,183.985,0,0,0,571.017,120c-1.656-7.048-3.187-14.51-6.228-21.115-2.722-5.918-7.349-10.309-12.7-13.883-10.511-7.011-24.121-11.491-36.16-6.978-4.959-5.382-12.712-8.958-19.771-6.447C487,74.837,479.07,81.763,471.824,88.018c-3.919,3.381-7.974,6.7-11.124,10.847a88.851,88.851,0,0,0-7.655,12.91c-4.316,8.282-6.976,16.938-3.127,25.958a27.743,27.743,0,0,0,9.363,11.456,57.613,57.613,0,0,0-4.337,18.574c-.665,10.1-2.584,20.157-2.052,30.31.411,7.873,1.733,16.552,7.7,22.264,4.6,4.4,12.234,6.192,17.35,1.724a22.378,22.378,0,0,0,4.044,1.743c2.184.69,5.737,1.625,8.6,1.245-.181.251-.373.506-.545.753-.332.469-.653.954-.969,1.448-8.931,1.884-15.915,9.546-20.855,16.94a201,201,0,0,0-17.754,33.133c-9.413,22.217-14.168,46.714-9.3,70.646,2.03,9.97,5.692,20.736,11.769,29.281q-2.9,26.961-3.961,54.078c-.244,6.421-.445,12.871-.541,19.32l-.02,1.831,2.115,1a101.276,101.276,0,0,0,13.756,5.043c0,12.169.785,24.379,1.835,36.454,1.105,12.694,2.243,25.81,4.772,38.426l.376,1.882.185.072c-3.343.6-6.471,2.3-9.623,3.508-4.8,1.843-9.728,3.328-14.616,4.917-1.6.516-18.452,5.949-12.235,9.061,3.57,1.79,8.859,1.327,12.676,1.129,5.3-.277,10.595-.786,15.869-1.4,5.033-.591,10.082-1.208,15.083-2.023a42.064,42.064,0,0,0,7.564-2.057l1.739-.661-.066-1.519a32.611,32.611,0,0,0-1.768-9.03l1.592-.22.022-1.957c.15-12.8-.363-25.666-.113-38.458.216-11.184.717-22.356,1.224-33.524,3.472.393,6.977.708,10.486.915l1.942.091.422-2.381c.142-.8.273-1.6.424-2.4.754-3.961,1.6-7.9,2.511-11.826.707,3.458,1.438,6.912,2.22,10.36l.347,1.539,2.283.239a93.338,93.338,0,0,0,14.556.217c.544,12.65,1.175,25.3,1.751,37.954.355,7.781.658,15.561.984,23.351.186,4.448.25,8.944.434,13.427l.056,1.3,1.879.727c.2.069.41.129.612.189-.753,3.382-1.49,7.953-.831,11.861l.347,1.522,2.107.356c.467.082.932.161,1.4.252,5.5,1.069,10.98,2.29,16.508,3.218A106.521,106.521,0,0,0,564.3,555.6c2.516.06,5.04.006,7.557-.126,2.425-.129,5.379.006,7.749-.613C582.121,554.215,581.28,552,579.905,550.468Zm-35.564-10.253a20.446,20.446,0,0,1-10.863-2.508,24.88,24.88,0,0,0,6.765.2A13.078,13.078,0,0,0,544.341,540.215ZM449.872,132.284c-1.183-5.85.388-11.377,2.874-16.655a103.232,103.232,0,0,1,7.826-14.094c3.229-4.736,7.538-8.384,11.835-12.107a146.154,146.154,0,0,1,13.135-10.422c4.578-3.12,10.567-7.328,16.357-6.959,4.82.307,9.056,3.338,12.719,6.509a28.475,28.475,0,0,0-3.6,1.883.544.544,0,0,0,.548.939,29.258,29.258,0,0,1,4.219-1.794l1.175-.361c10.4-3.047,21.546-.1,30.892,5.447,5.233,3.1,10.387,6.9,13.569,12.2,3.39,5.651,4.794,12.454,6.409,18.775,6.5,25.457,8.024,51.8,3.452,77.738-1.182,6.7-2.166,14.6-5.216,20.747-1.715,3.447-4.687,5.227-8.3,6.2-2.085.56-6.381,1.911-8.842.892,4.406-1.5,7.961-4.473,8.742-9.384a.338.338,0,0,0-.613-.261c-2.428,3.727-5.062,6.635-9.411,8.095-4.451,1.5-8.881.92-13.382.254a21.2,21.2,0,0,0,8.11-9.738.269.269,0,0,0-.446-.261c-3.529,3.967-13.51,10.6-13.51,10.6s-4.466,2.763-6.11,1.065c-.893-.923.325-8.886-.8-9.491-.048-.543-.1-1.088-.165-1.626,1.109-.519,2.212-1.052,3.3-1.609,8.028-4.08,14.587-9.2,19.506-16.824,3.43-5.32,6.714-11.427,8.323-17.772a9.208,9.208,0,0,0,7.049-.615c6.027-3.156,8.33-11.085,9.014-17.345.523-4.777.5-13.055-6.04-13.5-3.712-.25-7.2,1.991-10.032,4.863a125.765,125.765,0,0,0-.668-15.235q-.145-1.533-.32-3.063l-.223-1.784a104.224,104.224,0,0,0-3.912-18.522.424.424,0,0,0-.817.226c1.171,6.134,2.319,12.248,3.085,18.431a57.08,57.08,0,0,1-9.916.054,49.1,49.1,0,0,1-17.677-5.193,26.721,26.721,0,0,1-7.388-5.049,14.852,14.852,0,0,1-3.044-5.357L511,110.34c-.116-.407-.225-.819-.33-1.231-1.572-6.167-1.993-12.48-2.914-18.756-.052-.353-.6-.25-.6.082a73.177,73.177,0,0,0,1.9,19.36,12.071,12.071,0,0,1-7.6-5.993c-2.188-4.012-2.467-8.548-2.48-13.04V89.513c0-.772.013-1.544.014-2.31,0-.3-.425-.285-.46,0-.114.9-.218,1.823-.3,2.748-11.433,7.1-20.07,19.019-25.48,31.092a92.473,92.473,0,0,0-7.507,29.546,37.989,37.989,0,0,1-4.152-2.385l-1.036-.716A24.4,24.4,0,0,1,449.872,132.284ZM507.1,214.842a41.531,41.531,0,0,0,12.743-3.682c.069.917.133,1.833.166,2.752.084,2.167.008,4.35.214,6.508-.74,4.779-5.449,8.095-10.008,9.285-1.876.49-4.209.488-5.717-.963-1.674-1.608-.96-3.589-.031-5.422.411-.814.894-1.561,1.358-2.321.04.646.064,1.3.126,1.94.043.445.774.639.858.114A36.387,36.387,0,0,0,507.1,214.842Zm12.626-5.278a39.39,39.39,0,0,1-12.77,3.678l-1.336.062a38.45,38.45,0,0,1-19.948-5.217,32.967,32.967,0,0,1-13.848-14.494c-3.408-7.289-4.427-15.884-5.08-23.816a112.746,112.746,0,0,1-.16-16.684l.139-1.8a91.881,91.881,0,0,1,6.03-26.387c5.4-13.572,14.206-24.387,25.346-33.44-.341,4.988.013,10.1,2.758,14.4a14.036,14.036,0,0,0,8.774,5.992c1.758,5.609,5.275,9,10.47,11.845,8.476,4.648,19.723,7.536,29.737,5.962.122,1.127.238,2.256.33,3.39.463,5.587.407,11.15.411,16.725l.01,2.139,1.778-1.954a20.553,20.553,0,0,1,5.1-4.154c2.8-1.522,6.738-2.233,8.494,1.175,1.089,2.112,1.061,4.693.959,7.007a28.959,28.959,0,0,1-3.687,13.428c-2.141,3.509-6.8,6.264-10.367,5.111l-1.379-.7-.453,1.779c-3.431,12.644-11.433,24.821-22.622,31.355-2.328,1.359-4.772,2.723-7.3,3.943Zm-28.463,17.347.9-3.953c-7.845,1.874-15.156-3.135-20.644-8.2a.329.329,0,0,0-.513.4,15.254,15.254,0,0,0,5.822,6.25c-7.372,3.663-15.017-.188-18.711-7.29-3.814-7.334-3.937-16.657-3.519-24.733.407-7.833,1.546-15.655,2.115-23.486a59.6,59.6,0,0,1,3.712-15.9,30.71,30.71,0,0,0,4.655,2.5,112.664,112.664,0,0,0,.1,17.273c.637,7.724,1.616,15.865,4.591,23.077a33.88,33.88,0,0,0,12.976,15.34,42.022,42.022,0,0,0,18.442,6.583l4.426.17c0,1.344.02,2.693.071,4.03a23.117,23.117,0,0,0-1.728,2,.326.326,0,0,0-.18.139c-.078.12-.136.258-.212.38a10.242,10.242,0,0,0-1.728,3.606l-11.625,3.439ZM474.315,536.339a30.613,30.613,0,0,0,7.243,1.076,21.214,21.214,0,0,1-3.3,1.677c-3.187,1.057-5.535-.523-8.391-1.542A30.62,30.62,0,0,1,474.315,536.339Zm11.829,10.36c0,.069,0,.135.006.2a44.211,44.211,0,0,1-5.758,1.771c-4.294.875-8.713,1.331-13.057,1.885-8.215,1.048-16.721,2.316-25.019,2.017-1.257-.041-6.857-.016-7.028-1.687-.117-1.142,5.407-3.1,6.109-3.36,3.607-1.34,7.318-2.425,10.982-3.592,3.919-1.249,7.824-2.539,11.63-4.1,1.664-.683,3.267-1.362,4.894-1.96,0,0,0,.006,0,.013,1.455,2.34,5.355,3.8,8.036,3.432a16.058,16.058,0,0,0,7.775-3.911c.012-.009.012-.025.022-.037.124-.006.254,0,.377-.01C485.449,540.482,486.009,543.556,486.144,546.7Zm-.316-50.055c-.29,12.783-.757,25.88-.036,38.748a28.588,28.588,0,0,1-5.159.214,30.142,30.142,0,0,1-7.894-1.577c-1.608-13.238-3.862-26.389-5.056-39.691-1.063-11.807-1.555-23.621-2.045-35.45a123.28,123.28,0,0,0,13.263,2.879c2.772.437,5.585.821,8.414,1.167C486.5,474.153,486.082,485.41,485.828,496.644Zm47.189-271.508a65.1,65.1,0,0,1,8.751,4.652,30.437,30.437,0,0,1,11.514,14.544c5.013,12.395,8.245,25.637,11.76,38.513,3.588,13.157,6.811,26.54,7.376,40.22.272,6.566.06,13.27-1.743,19.631-1.711,6.041-4.962,11.5-8.529,16.618a87.012,87.012,0,0,1-8.96,10.826l-1.827,1.834c-1.8,1.759-3.678,3.435-5.614,5.046a.264.264,0,0,0-.028-.047,50.875,50.875,0,0,1-6.712-9.215c-1.458-2.718-2.6-5.584-3.85-8.4,1.561-1.431,3.073-2.919,4.564-4.354a101.922,101.922,0,0,0,9.372-10.083l1.807-2.461c4.628-6.927,6.378-14.925,6.4-23.312a120.472,120.472,0,0,0-3.762-28.623q-.444-1.825-.931-3.656c-.94-3.523-2.007-7.046-3.242-10.506l-1.735-4.5a83.256,83.256,0,0,0-4.456-9.3c-.208-.372-.867-.121-.708.3,1.745,4.606,3.422,9.212,4.965,13.846-.687,21.764.115,43.679,1.456,65.309v.016c-.311.443-.63.884-.968,1.321a99.59,99.59,0,0,1-9.548,10.3c-1.84,1.775-3.828,3.467-5.725,5.232a38.74,38.74,0,0,1,.629-5.065c.078-.406-.463-.859-.784-.456-1.621,2.026-2.128,4.8-2.066,7.692l.128,2.1a48.6,48.6,0,0,0,1.63,7.906,43.64,43.64,0,0,0,5.43,12.159l1.006,1.457a27.32,27.32,0,0,0,3.046,3.479c.365.347,1.009-.106.72-.559-.8-1.268-1.6-2.517-2.369-3.766a70.508,70.508,0,0,0,11.605-9.178q2.728,26.224,7.207,52.219c1.2,6.978,2.417,14.032,3.778,21.06-.853.315-1.7.645-2.555.951-5.195,1.872-10.447,3.681-15.771,5.225l-1.2.346c-3.351.944-6.732,1.768-10.146,2.413a75.745,75.745,0,0,1-7.908,1.039l-1.11.091a125.716,125.716,0,0,1-14.86.006q-1.742-7.7-3.283-15.45l-.794-4.071Q502.694,426.5,501,414.369l1.662-88.6-7.631,38.072q.344,13.593,1.455,27.152l3.669,68.461.616-32.873q1.155,7.269,2.527,14.5c.141.73.3,1.46.44,2.193q-2.008,8.041-3.583,16.181c-.142.729-.279,1.466-.416,2.2-3.618-.177-7.235-.372-10.844-.677l-1.431-.132c-2.687-.252-5.37-.541-8.047-.966a127.588,127.588,0,0,1-13.861-2.922L464.3,456.6c-1.189-.34-2.379-.683-3.556-1.061-3.485-1.129-6.847-2.5-10.181-3.948.387-20.069,1.093-40.1,2.872-60.166q.531-5.994,1.159-11.98c.349.44.726.84,1.086,1.268a38.1,38.1,0,0,0,4.4,5.109,38.777,38.777,0,0,0-1.118,7.226c-.031.645.885.715,1.074.151.663-1.944,1.207-3.923,1.723-5.911l.51-2c.823-3.3,1.618-6.619,2.729-9.838,1.117-3.253,2.508-6.38,3.887-9.514l.817-1.868c.8-1.857,1.584-3.722,2.279-5.622.167-.457-.494-.664-.74-.312a39,39,0,0,0-2.57,4.244,67.723,67.723,0,0,1-8.553-24.841q2.924-18.514,6.662-36.885c.777-3.826,1.59-7.647,2.4-11.468l.744-3.568c2.369-11.334,4.58-22.7,5.571-34.257.052-.62-.885-.6-.957,0-1.5,12.373-4.105,24.546-6.769,36.708a47.053,47.053,0,0,0-6.611,10.842c-3.335,7.663-3.8,16.014-3.841,24.266a107.093,107.093,0,0,0,.886,14.638l.988,5.811a57.975,57.975,0,0,0,6.609,17.766,42.827,42.827,0,0,1-4.709,6.453c-.715.764-4.9,5.76-5.849,5.418-.278-.1-.465.286-.276.475,1.411,1.45,4.795-2.618,5.671-3.461a26.972,26.972,0,0,0,5.981-7.563c.347.55.7,1.1,1.07,1.636a108.972,108.972,0,0,0-4.216,10.677c-.993,2.816-2.038,5.786-2.876,8.806-.516-.484-1.023-.981-1.507-1.522a51.041,51.041,0,0,1-3.4-4.307c-.258-.422-.532-.847-.788-1.268l-1.607-2.706a86.158,86.158,0,0,1-9.241-21.4,98.909,98.909,0,0,1-2.8-32.738c1.829-23.773,11.456-46.281,23.426-66.631,5.806-9.868,12.462-19.9,23.146-23.94l13.786-3.052,1.033,1.646a7.39,7.39,0,0,0,8.494,3.114l4.9-1.554,4.333-2.683a1.226,1.226,0,0,1,1.884,1.259M459.375,330.565c-.137-2.029-.208-4.087-.218-6.154-.04-7.84.22-15.969,3.048-23.374a41.874,41.874,0,0,1,4.608-8.6q-.509,2.331-1.015,4.662Q462.2,313.755,459.375,330.565Zm85.757,46.956q-2.957,2.43-6.1,4.671a46.7,46.7,0,0,1-4.654-10.064,37.622,37.622,0,0,1-1.772-10.542c.607-.491,1.2-1,1.79-1.533C536,366.657,539.565,373.635,545.132,377.521Zm4.164-94.959c3.363,11.119,5.743,22.451,6.068,34.33.215,7.881-.926,15.51-4.676,22.259q-1.06-17.466-1.374-34.968C549.19,296.969,549.222,289.766,549.3,282.562ZM529.068,535.294c-.111-4.5-.375-9.01-.535-13.468-.286-8-.655-16-1.041-24-.611-12.691-1.343-25.373-2.31-38.039,1.967-.157,3.93-.381,5.885-.689a111.145,111.145,0,0,0,12.122-2.668c.742,14.541.871,29.136.407,43.671-.384,12.046-1.614,23.976-2.687,35.935a21.285,21.285,0,0,1-2.546.374A24.6,24.6,0,0,1,529.068,535.294Zm43.42,18.433a118.568,118.568,0,0,1-27.69-2.24c-4.563-.865-9.191-1.608-13.8-2.422a41.208,41.208,0,0,1-.274-11.559.655.655,0,0,0,.18.349c3.89,3.926,11.033,5.424,16.12,3.212.55.154,1.095.3,1.634.456,4.383,1.218,8.789,2.341,13.183,3.5A111.9,111.9,0,0,1,573,548.184c1.235.472,5.288,1.96,5.745,3.448C579.568,554.306,573.821,553.674,572.488,553.727Z"/><path class="cls-10" d="M505.616,214.947c-.778.034-1.563.03-2.355,0"/><line class="cls-11" x1="549.832" y1="284.367" x2="565.746" y2="278.001"/><line class="cls-11" x1="452.932" y1="273.293" x2="468.128" y2="289.074"/><path class="cls-12" d="M530.564,225.136l14.342,5.958h0a79.019,79.019,0,0,0-9,48.359l11.514,91.67-65.348,9.367,16.346-79.24c1.79-9.617,4.046-30.171,8.313-38.974l16.8-37.14Z"/><path class="cls-12" d="M526.236,303.317v-.342s-8.678,36.1-12.036,72.352"/><path class="cls-12" d="M520.218,262.785v-.342s-8.678,36.1-12.036,72.352"/><path d="M502.7,170.314h-6.019a1.5,1.5,0,0,1-1.363-2.125l5.368-11.713a1.5,1.5,0,0,1,2.727,1.25l-4.394,9.588H502.7a1.5,1.5,0,0,1,0,3Z"/></g><g class="cls-13"><path class="cls-6" d="M86.768,156.01c3.45-.176,6.877-.574,10.32-.815a48.011,48.011,0,0,0,1.082-8.43c-.026-2.52-.736-5.062-.719-7.564-8.09-2.255-16.358-2.85-24.537-.713-2.623,5.122-1.342,9.908.425,14.951A30.486,30.486,0,0,0,86.768,156.01Zm-.453-14.063c.887-2.444,4.788-2.037,5.45.934.585,2.629.089,6.906-2.081,8.8-2.294,2-4.768-.209-5.046-2.763A10.4,10.4,0,0,1,86.315,141.947Z"/><path class="cls-14" d="M132.3,216.928a.679.679,0,0,1,.686,1.172c-.462.332-.928.629-1.39.936a.587.587,0,0,1-.132.271c-3.315,3.639-8.621,9.39-14.024,9.776a15.945,15.945,0,0,1-1.3,7.771.74.74,0,0,1-1.344-.175c-.307-2.074.207-4.146.27-6.23a24.864,24.864,0,0,0-.439-5.179c-3.676,4.393-3.969,8.073-1.843,13.128a53.6,53.6,0,0,0,4.833,9.012c.853,1.272,1.762,2.477,2.7,3.653a134.126,134.126,0,0,0,15.136-7.917c3.749-2.371,7.739-4.876,10.642-8.287,3.456-4.062,3.842-7.869-.007-12.024-.22-.243-.4-.43-.557-.6a20.8,20.8,0,0,1-.341,5.749.7.7,0,0,1-1.334,0c-.895-3.461-.708-7.451-.557-11a34.155,34.155,0,0,1,.5-5.1,45.33,45.33,0,0,1-4.682,3.411c-.6.374-1.183-.456-.732-.943a128.478,128.478,0,0,0,23.419-35.173L163,176.517l1.709.89c9.213,3.859,19.793-6.754,22-15.906,1.289-5.322-1.563-18.563-10.023-13.011a23.071,23.071,0,0,0-8.5,11.359,33.1,33.1,0,0,1-.467,4.721.712.712,0,0,1-1.364,0c-.98-5.573-.488-11.3-2.935-16.554-6.282-1.056-13.237-.99-19.488-.809-.27,3.141-.59,6.936-2.716,9.377a.683.683,0,0,1-.5.718c-9.929,2.966-23.065,5.157-32.949,1.048a.732.732,0,0,1-.46-.958,36.3,36.3,0,0,1-2.068-9.4c-.3-.048-.58-.1-.8-.14a12.939,12.939,0,0,0-3.933.226c-.1,2.773-.439,5.728-1.874,8.09a1,1,0,0,1-.447.651.727.727,0,0,1-.425.191c-6.111,2.29-16,2.779-22.674-.378-.337,11.819-1.163,25.046,2.768,36.243,3.672,10.448,10.78,16.116,21.127,25.683C108.387,227.252,121.226,222.2,132.3,216.928Zm41.812-58.548c2.638-1.972,6.77-3.134,9.809-1.441a1.082,1.082,0,0,1,0,1.861c-2.446,1.067-5.278.839-7.486,2.528a16.254,16.254,0,0,0-4.853,6.458c-.255.588-1.191.273-1.17-.318C170.529,164,171.146,160.593,174.112,158.38Z"/><path class="cls-6" d="M89.924,147.555a11.4,11.4,0,0,0,.27-1.824,6.713,6.713,0,0,0-.14-2.381,1.663,1.663,0,0,0-.434-.845c-.73-.573-1.231-.461-1.6-.117a.572.572,0,0,1-.054.323,4.232,4.232,0,0,0-.313,3.316C88.083,147.079,88.963,147.277,89.924,147.555Z"/><path class="cls-6" d="M131.9,142.505c-.733-.573-1.232-.461-1.605-.117a.523.523,0,0,1-.052.323,4.229,4.229,0,0,0-.318,3.316c.432,1.052,1.315,1.25,2.273,1.528a10.367,10.367,0,0,0,.27-1.824,6.689,6.689,0,0,0-.136-2.381A1.645,1.645,0,0,0,131.9,142.505Z"/><path class="cls-15" d="M171.431,150.264a31.051,31.051,0,0,0-5.045-1.651,30.249,30.249,0,0,1,1.719,7.542A22.89,22.89,0,0,1,171.431,150.264Z"/><path class="cls-7" d="M175.312,146.687c-4.984-3.64-12.511-2.79-18.3-2.862-4.335-.052-8.626-.054-12.93-.237.015.8-.017,1.592-.061,2.365,9.578-.757,20.466-1.193,28.846,2.689A14.579,14.579,0,0,1,175.312,146.687Z"/><path class="cls-16" d="M74.16,119.048l.511-3.422,1.783-1.1a63.459,63.459,0,0,0,7.251-5.155,90.544,90.544,0,0,0,7.654-7.348l1.319-1.4,1.2,1.667c7.644,9.975,20.854,14.38,33.329,15.085a84.313,84.313,0,0,0,21.089-1.653l1.708-.341c5.278-1.1,10.545-2.51,15.976-3.978a.739.739,0,0,1,.568,1.344,51.28,51.28,0,0,1-16.231,6.08c1.567,8.419,8.559,15.811,12.863,23.025.292.014.587.015.881.033,3.946.241,8.559.412,11.816,2.756,2.8-22.338,4.039-47.74-14.646-64.188-9.7-8.539-23.03-13.219-36-11.671-12.637,1.51-23.1,7.5-33.7,14.117a.446.446,0,0,1-.454.013c-9.625,2.957-16.228,10.8-18.948,20.557-2.59,9.285-1.407,18.075,1,26.965C73.354,126.617,73.654,122.813,74.16,119.048Z"/><path class="cls-6" d="M108.624,138.9c-.483,2.916-1.146,5.561-.911,8.609.253,3.249,1.021,6.356,1.474,9.561,5.334.721,10.489,1.356,15.907.877,4.877-.43,9.788-2.026,14.653-2.041.581-3.013,1.2-5.816,1.526-8.622l.112-1.116c.072-.905.119-1.813.106-2.732l-.015-1.126a22.935,22.935,0,0,0-.76-4.658C130.94,134.014,118.055,134.445,108.624,138.9Zm23.335,12.782c-2.293,2-4.767-.209-5.043-2.763a10.4,10.4,0,0,1,1.671-6.972c.889-2.444,4.794-2.037,5.455.934C134.627,145.51,134.132,149.787,131.959,151.682Z"/><path class="cls-14" d="M144.008,142.273c5.3-.133,10.6-.543,15.922-.512-1.341-2.2-2.722-4.384-4.114-6.553-3.1-4.829-6.7-10.261-7.434-16.014a85,85,0,0,1-26.26.324c-11.907-1.713-22.765-6.3-29.506-15.6a62.927,62.927,0,0,1-16.449,14c-.434,5.911-.546,11.851-.619,17.791a30.02,30.02,0,0,1,9.953-.787c4.35.237,9.681.289,13.2,3.081a.623.623,0,0,1,.239.547c1.268,1.831,1.554,4.381,1.593,6.676a6.678,6.678,0,0,1,3.135-.553,8.948,8.948,0,0,1,1.5.227,10.618,10.618,0,0,1,1.64-5.9.5.5,0,0,1,.145-.653c4.5-3.617,10.564-4.745,16.239-4.929,5.962-.191,13.986-.634,19.007,3.078a.933.933,0,0,1,.3,1.007A10.258,10.258,0,0,1,144.008,142.273ZM93.559,129.6c-1.615-.658-2.271-2.3-3.8-3.086a4.413,4.413,0,0,0-4.947.635c-.512.369-1.086-.427-.657-.852,1.6-1.581,3.866-3.338,6.28-2.546,2.029.668,4.539,2.619,4.252,4.986C94.623,129.243,94.153,129.834,93.559,129.6Zm38.268-1.643c-1.323-1.611-3.29-2.9-5.368-1.764-1.622.884-2.284,2.63-3.823,3.516a1,1,0,0,1-1.5-.857c-.225-2.719,3.065-5.094,5.511-5.418,2.646-.347,4.859,1.7,6.227,3.707C133.306,127.765,132.313,128.54,131.827,127.952Z"/><path class="cls-17" d="M197.546,350.845c-.628.055-.76-.963-.149-1.094,8.548-1.845,17.077-3.76,25.606-5.683-1.151-9.525-2.392-19.042-4.328-28.461a173.937,173.937,0,0,0-13.289-40.417c-6.342-13.2-14.251-26.115-24.928-36.28-10.059-9.581-21.1-15.191-34.332-18.387,7.673,6.156,6.473,13.309-1.813,19.79a100.889,100.889,0,0,1-21.936,13.223l-3.023,1.218-1.772-2.405a81.494,81.494,0,0,1-6.413-11.456c-2.925-6.253-3.614-12.029,1.846-16.175a29.779,29.779,0,0,1-5.2-.577c-10.934,5.491-21.379,10.537-30.016,19.594a109.736,109.736,0,0,0-19.7,29.487c-8.576,18.344-14.6,37.645-19.771,57.179,2.206,1.439,4.466,2.745,6.765,3.945a.8.8,0,0,1,.516.263,86.291,86.291,0,0,0,17.474,6.672q.262-1.512.533-3.021a19.55,19.55,0,0,1-5.021-.95,22.543,22.543,0,0,1-7.695-3.73c-.62-.477-.287-1.756.589-1.4a51.272,51.272,0,0,0,7.754,2.781c1.539.352,3.249.35,4.835.641,1.345-7.661,2.694-15.327,3.909-23.015,1.384-8.79,2.166-17.689,3.5-26.482a46.331,46.331,0,0,0-5.74-14.824c-.317-.561.5-1.244.92-.709a38.012,38.012,0,0,1,5.823,9.585,104.75,104.75,0,0,1,3.161-12.75.564.564,0,0,1,1.087.3,165.03,165.03,0,0,0-3.028,17.09,15.042,15.042,0,0,1-.235,5.238.617.617,0,0,1-.477.5c-.881,7.551-1.641,15.12-2.893,22.633-1.28,7.7-2.6,15.408-3.9,23.111a.966.966,0,0,1,.108.05.812.812,0,0,1,0,1.394,3.7,3.7,0,0,1-.374.136c-.22,1.319-.449,2.638-.669,3.955l-.589,3.593c-.948,5.767-1.868,11.536-2.714,17.319-3.909,26.788-6.5,53.633-8.425,80.585,1.395.522,2.787,1.023,4.19,1.507l2.582.859c23.52,7.719,48.156,9.705,73.084,7.585a350.961,350.961,0,0,0,41.139-6.432l2.105-.437c.308-.06.615-.125.924-.189.077-4.313.144-8.626.084-12.926-.156-11.579-.486-23.158-.73-34.732-.237-11.316-.5-22.657-.375-33.975.123-11.353.241-22.615-2.336-33.751a.724.724,0,0,1,.086-.575c-2-7.8-4.22-15.576-5.711-23.476a.52.52,0,0,1,1-.277,203.423,203.423,0,0,1,12.419,45.985,40.694,40.694,0,0,0,8.1,2.148v0c-.007-.638,1.025-.808,1.137-.155.02.1.03.215.052.321,10.728,1.4,21.645-1.337,32.323-5.578-.11-.919-.224-1.842-.332-2.765A152.313,152.313,0,0,1,197.546,350.845ZM151.224,424.68a135.267,135.267,0,0,0,15.968-3.762.7.7,0,0,1,.537,1.269,33.6,33.6,0,0,1-16.343,3.644C150.739,425.814,150.559,424.812,151.224,424.68Zm23.259,1.635a.786.786,0,0,1,.417,1.515,204.768,204.768,0,0,1-51.228,10.2c-17.589,1.291-36.049,2.5-53.646.9a.886.886,0,0,1,0-1.77c17.692-2.232,35.854-.749,53.646-2.208C141,433.524,157.417,429.1,174.483,426.315Z"/><path class="cls-18" d="M74.876,270.012a19,19,0,0,0-4.341,6.138,28.26,28.26,0,0,1,1.96,4.011C73.139,276.747,73.909,273.362,74.876,270.012Z"/><path class="cls-15" d="M183.921,156.939c-3.039-1.693-7.171-.531-9.809,1.441-2.966,2.213-3.583,5.622-3.7,9.088-.021.591.915.906,1.17.318a16.254,16.254,0,0,1,4.853-6.458c2.208-1.689,5.04-1.461,7.486-2.528A1.082,1.082,0,0,0,183.921,156.939Z"/><path class="cls-15" d="M90.438,123.746c-2.414-.792-4.684.965-6.28,2.546-.429.425.145,1.221.657.852a4.413,4.413,0,0,1,4.947-.635c1.526.788,2.182,2.428,3.8,3.086.594.239,1.064-.352,1.131-.863C94.977,126.365,92.467,124.414,90.438,123.746Z"/><path class="cls-15" d="M132.878,127.136c-1.368-2.006-3.581-4.054-6.227-3.707-2.446.324-5.736,2.7-5.511,5.418a1,1,0,0,0,1.5.857c1.539-.886,2.2-2.632,3.823-3.516,2.078-1.136,4.045.153,5.368,1.764C132.313,128.54,133.306,127.765,132.878,127.136Z"/><path d="M91.765,142.881c-.662-2.971-4.563-3.378-5.45-.934a10.4,10.4,0,0,0-1.677,6.972c.278,2.554,2.752,4.767,5.046,2.763C91.854,149.787,92.35,145.51,91.765,142.881Zm-1.571,2.85a11.4,11.4,0,0,1-.27,1.824c-.961-.278-1.841-.476-2.271-1.528a4.232,4.232,0,0,1,.313-3.316.572.572,0,0,0,.054-.323c.369-.344.87-.456,1.6.117a1.663,1.663,0,0,1,.434.845A6.713,6.713,0,0,1,90.194,145.731Z"/><path d="M134.042,142.881c-.661-2.971-4.566-3.378-5.455-.934a10.4,10.4,0,0,0-1.671,6.972c.276,2.554,2.75,4.767,5.043,2.763C134.132,149.787,134.627,145.51,134.042,142.881Zm-1.574,2.85a10.367,10.367,0,0,1-.27,1.824c-.958-.278-1.841-.476-2.273-1.528a4.229,4.229,0,0,1,.318-3.316.523.523,0,0,0,.052-.323c.373-.344.872-.456,1.605.117a1.645,1.645,0,0,1,.432.845A6.689,6.689,0,0,1,132.468,145.731Z"/><path class="cls-15" d="M222.333,471.166a.689.689,0,0,0-.054-.5,524.289,524.289,0,0,0,.26-56.681c-.875-19.838-1.209-39.784-2.5-59.6q2.026-.666,4.032-1.416l3.409-1.342-.48-3.813c-1.53-11.969-3.673-23.9-6.054-35.5a171.814,171.814,0,0,0-14.677-41.778c-11.531-23.215-32.673-50.25-60.827-52.024a62.188,62.188,0,0,1,.775-8.788c8.325-7.923,13.605-18.576,17.5-29.469,3.855,1.657,8.912.993,12.716-.888,7.22-3.573,12.423-11.928,13.7-19.677.909-5.548-2.175-14.781-9.176-14.711a10.374,10.374,0,0,0-3.145.539c6.532-24.083,2.89-53.009-17.552-69.413-20.668-16.587-50-10.275-68.924,5.648C82.03,79.436,74.852,91.3,71.572,98.242c-5.6,11.812-3.952,26.854,1.32,38.485l-.034.1a9.981,9.981,0,0,0-1.185.76.593.593,0,0,0-.177.216c-3.432,2.589-3.119,11.02-.617,15.206a.555.555,0,0,0,.086.72,11.761,11.761,0,0,0,1.459,1.279l.006.012c-.521,10.174,1.537,28.883,3.4,38.039.784,3.856,3.656,8.387,6.072,11.493,5.145,6.616,14.8,16.267,22.538,18.712-22.12,6.613-38.094,27.034-47.933,46.884-6.082,12.285-10.527,25.4-14.775,38.4-2.161,6.621-4.177,13.318-5.978,20.071l-.662,2.564,2.532,1.9c1.979,1.414,4.049,2.733,6.182,3.965-4.218,20.392-1.61,42.3-1.444,62.932.093,11.514.056,23.035.261,34.553.173,9.7-.3,19.65.838,29.312a.674.674,0,0,0-.82-.229c-2.375,1.054-5.276,3.553-4.708,6.511a7.547,7.547,0,0,0,1.375,2.922c-4.611,10.936-4,25.2.125,36.36.024,2.172.317,6.161,2.206,7.65,1.405,3.195,1.947,7.059,4.2,9.7,1.035,1.213,4.2,3.89,5.824,1.955a3.468,3.468,0,0,0,.566-1c1.315,1.144,3.1,1.015,4.717-.233a6.444,6.444,0,0,0,.7-.66q.039,3.756.076,7.512c.3,33.652.772,67.292,1.241,100.941.565,40.176.887,80.356,1.213,120.537l.03,3.626,3.558,1.213c1.617.51,3.16.963,4.455,1.382.27.086.551.164.825.255-10.508,8.69-22.051,10.568-35.093,13.888-4.764,1.209-18.847,4.8-14.495,12.3a.819.819,0,0,0,.667.371c.945,1.4,2.6,1.749,4.734,1.926,7.989.665,16.246.25,24.263.315,9.308.082,24.07,2.685,31.533-4.619.82,3.821,4.313,6.337,8.107,7.2,3.692.842,9.518-.246,11.372-3.92,5.189-5.816,3.937-17.977,2.241-25.33.833-.3,1.653-.617,2.439-.988l3.141-1.8.064-3.86c.663-42.749-.034-85.58-.176-128.3-.093-27.03-.1-54.056.267-81.086.182-13.474.566-26.948.958-40.418.307-10.375,1.13-20.861,1.371-31.292a42.2,42.2,0,0,1,9.218,2.181c1.744,9.368,3.574,18.715,4.956,28.161,2.1,14.325,3.717,28.714,5.623,43.056,3.629,27.328,8.939,54.44,13.863,81.557,5.113,28.169,10.052,56.335,14.326,84.648,2.431,16.107,4.732,32.245,7.232,48.353l.442,2.866,3.691.583c.093.009.186.022.283.035-.654,4.334-.945,8.8-1.375,13.163-.354,3.6-.667,8.125,1.852,10.983a.713.713,0,0,0,.743.233c5.327,5.543,15.438,5.612,22.512,5.746,6.346.117,18.555,1.1,22.78-4.671a1.237,1.237,0,0,0-.33-1.766c.442-6.726-5.224-12.1-11.122-14.743-.511-1.857-2.365-3.467-3.512-4.965a28.066,28.066,0,0,1-2.508-4.382c1.021-.229,2.04-.479,3.04-.773l3.572-1.222-.328-3.678c-.644-7.244-1.285-14.484-1.878-21.716q-4.108-50.1-8.52-100.194c-5.492-63.4-11.014-126.819-17.945-190.087.151-.026.305-.057.454-.087l3.615-.747.076-3.777c.2-16.548-1.084-33.347-1.457-49.571q-.389-16.863-.408-33.737c-.011-3.252-.028-6.5-.143-9.722l.371,1.841,2.882,1.233a41.018,41.018,0,0,0,7.754,2.05c.492,19.357,3.279,38.933,5,58.19.882,9.839,2,19.659,3.024,29.483.865,8.28.783,17.195,2.627,25.411,0-.009-.013-.017-.017-.017a.688.688,0,0,0-.717-.544,5.516,5.516,0,0,0-4.894,6.091,12.341,12.341,0,0,0,2.841,6.027c-.8,3.963-2.973,6.42-6.079,9.122-2.45,2.133-5.765,4.749-5.759,8.32a.79.79,0,0,0,.039.233,39.107,39.107,0,0,0-1.053,14.955c.317,3.333,3.283,11.41,7.427,6.467a.572.572,0,0,0,.132-.544c1.764-1.68,2.3-4.43,2.834-6.739a19.43,19.43,0,0,1,1.736-5.246,3.583,3.583,0,0,1,.66-.841c-.231,8.962-3.071,17.156-5.029,25.877-.479,2.146-1.79,8.492,1.578,9.144,1.09.216,2.264-.531,3.348-1.567,1.6,3.523,5.739,1.252,8.25-.98,3.5.8,6.681-1.321,9.055-4.374l0,.009c5.776,3.8,8.254-7.011,8.99-10.517a55.513,55.513,0,0,0,1.013-13.612c-.337-8.751-4.4-16.854-4.892-25.455,1.734-2.055,3.737-4.2,4.6-6.614C226.115,476.472,224.507,473.644,222.333,471.166Zm-150.2-367.7c2.72-9.762,9.323-17.6,18.948-20.557a.446.446,0,0,0,.454-.013c10.6-6.617,21.061-12.607,33.7-14.117,12.969-1.548,26.294,3.132,36,11.671,18.685,16.448,17.444,41.85,14.646,64.188-3.257-2.344-7.87-2.515-11.816-2.756-.294-.018-.589-.019-.881-.033-4.3-7.214-11.3-14.606-12.863-23.025a51.28,51.28,0,0,0,16.231-6.08.739.739,0,0,0-.568-1.344c-5.431,1.468-10.7,2.88-15.976,3.978l-1.708.341a84.313,84.313,0,0,1-21.089,1.653c-12.475-.7-25.685-5.11-33.329-15.085l-1.2-1.667-1.319,1.4a90.544,90.544,0,0,1-7.654,7.348,63.459,63.459,0,0,1-7.251,5.155l-1.783,1.1-.511,3.422c-.506,3.765-.806,7.569-1.019,11.382C70.73,121.54,69.547,112.75,72.137,103.465Zm71.888,42.488c.044-.773.076-1.563.061-2.365,4.3.183,8.595.185,12.93.237,5.785.072,13.312-.778,18.3,2.862a14.579,14.579,0,0,0-2.441,1.955C164.491,144.76,153.6,145.2,144.025,145.953Zm27.406,4.311a22.89,22.89,0,0,0-3.326,5.891,30.249,30.249,0,0,0-1.719-7.542A31.051,31.051,0,0,1,171.431,150.264Zm-29.238-13.772c-5.021-3.712-13.045-3.269-19.007-3.078-5.675.184-11.736,1.312-16.239,4.929a.5.5,0,0,0-.145.653,10.618,10.618,0,0,0-1.64,5.9,8.948,8.948,0,0,0-1.5-.227,6.678,6.678,0,0,0-3.135.553c-.039-2.3-.325-4.845-1.593-6.676A.623.623,0,0,0,98.7,138c-3.517-2.792-8.848-2.844-13.2-3.081a30.02,30.02,0,0,0-9.953.787c.073-5.94.185-11.88.619-17.791a62.927,62.927,0,0,0,16.449-14c6.741,9.3,17.6,13.89,29.506,15.6a85,85,0,0,0,26.26-.324c.733,5.753,4.338,11.185,7.434,16.014,1.392,2.169,2.773,4.348,4.114,6.553-5.319-.031-10.62.379-15.922.512a10.258,10.258,0,0,0-1.519-4.774A.933.933,0,0,0,142.193,136.492Zm-.7,6.944c.013.919-.034,1.827-.106,2.732l-.112,1.116c-.322,2.806-.945,5.609-1.526,8.622-4.865.015-9.776,1.611-14.653,2.041-5.418.479-10.573-.156-15.907-.877-.453-3.2-1.221-6.312-1.474-9.561-.235-3.048.428-5.693.911-8.609,9.431-4.455,22.316-4.886,32.092-1.248a22.935,22.935,0,0,1,.76,4.658Zm-68.577-4.948c8.179-2.137,16.447-1.542,24.537.713-.017,2.5.693,5.044.719,7.564a48.011,48.011,0,0,1-1.082,8.43c-3.443.241-6.87.639-10.32.815a30.486,30.486,0,0,1-13.429-2.571C71.572,148.4,70.291,143.61,72.914,138.488Zm26.2,78.828c-8.314-7.918-13.738-8.624-19.488-22.3-4.475-10.643-4.875-26.568-4.538-38.387,6.67,3.157,16.563,2.668,22.674.378a.727.727,0,0,0,.425-.191,1,1,0,0,0,.447-.651c1.435-2.362,1.776-5.317,1.874-8.09a12.939,12.939,0,0,1,3.933-.226c.22.037.5.092.8.14a36.3,36.3,0,0,0,2.068,9.4.732.732,0,0,0,.46.958c9.884,4.109,23.02,1.918,32.949-1.048a.683.683,0,0,0,.5-.718c2.126-2.441,2.446-6.236,2.716-9.377,6.251-.181,13.206-.247,19.488.809,2.447,5.256,1.955,10.981,2.935,16.554a.712.712,0,0,0,1.364,0,33.1,33.1,0,0,0,.467-4.721,23.071,23.071,0,0,1,8.5-11.359c8.46-5.552,11.312,7.689,10.023,13.011-2.21,9.152-12.79,19.765-22,15.906l-1.709-.89-1.192,2.658a128.478,128.478,0,0,1-23.419,35.173c-.451.487.136,1.317.732.943a45.33,45.33,0,0,0,4.682-3.411,34.155,34.155,0,0,0-.5,5.1c-.151,3.552-.338,7.542.557,11a.7.7,0,0,0,1.334,0,20.8,20.8,0,0,0,.341-5.749c.16.171.337.358.557.6,3.849,4.155,3.463,7.962.007,12.024-2.9,3.411-6.893,5.916-10.642,8.287a134.126,134.126,0,0,1-15.136,7.917c-.941-1.176-1.85-2.381-2.7-3.653a53.6,53.6,0,0,1-4.833-9.012c-2.126-5.055-1.833-8.735,1.843-13.128a24.864,24.864,0,0,1,.439,5.179c-.063,2.084-.577,4.156-.27,6.23a.74.74,0,0,0,1.344.175,15.945,15.945,0,0,0,1.3-7.771c5.4-.386,10.709-6.137,14.024-9.776a.587.587,0,0,0,.132-.271c.462-.307.928-.6,1.39-.936a.679.679,0,0,0-.686-1.172C121.226,222.2,108.388,226.151,99.112,217.316ZM42.873,514.926c-1.138-1.559-1.1-4.072-1.207-5.872-.384-6.834,1.1-13.37-1.125-20.023a.529.529,0,0,0-1.019.281,51.946,51.946,0,0,1,.288,11.164c-.4-2.116-.76-4.235-.989-6.381-.7-6.67.386-13.146,1.662-19.648a15.679,15.679,0,0,0,3.119,2.509c.516.31,1.347-.212,1.09-.834-.882-2.167-2.64-3.548-3.879-5.47-1.107-1.722.654-3.635,1.911-5.185,1.994,2.919,6.113,4.262,9.448,4.5a9.836,9.836,0,0,0,5.131-1.118c-.095,12.421-.019,24.841.11,37.266-.8.1-1.578.354-2.426.419a37.645,37.645,0,0,1-4.672-.255.547.547,0,0,0-.274.056c.192-1.334.311-2.564.363-3.518a.692.692,0,0,0,.106-.082c3.585-3.959,5.725-10.806,1.843-15.257-.321-.372-.848.034-.764.444a17.4,17.4,0,0,1,.546,6.964,16.908,16.908,0,0,1-2.622,5.682.962.962,0,0,0-1.039.945,28.987,28.987,0,0,1-2.014,10.72C46.16,512.944,44.323,516.92,42.873,514.926ZM48,525.7c-1.224-1.11-1.835-3.078-2.4-4.555a27.114,27.114,0,0,0-1.429-3.358c1.72-.195,3-1.8,3.937-3.968.738,4.136,2.536,8.168,2.364,12.382C50.4,527.908,48.6,526.237,48,525.7Zm8.211-.691c-1.064,1.58-2.32,1.844-3.667.613a21.487,21.487,0,0,0-.445-3.147c-.766-4.179-1.731-8.444-2.729-12.563.186-.786.342-1.584.477-2.366a.428.428,0,0,0,.106.078,14.472,14.472,0,0,0,4.27,1.109c.544,2.3.965,4.641,1.457,6.955.533,2.491.624,5.147,1.382,7.582A8.645,8.645,0,0,1,56.215,525.006Zm-.307-16.258a5.554,5.554,0,0,0,1.531-.35c.022,1.6.037,3.2.056,4.8C56.983,511.653,56.424,510.168,55.908,508.748Zm1.423-43.324a12.089,12.089,0,0,1-1.405,1.062,7.653,7.653,0,0,1-4.538.769,11.942,11.942,0,0,1-5.077-1.783c-2.277-21.522-.975-43.85-1.137-65.48-.156-20.744-.574-41.218.462-61.914a78.5,78.5,0,0,0,16.837,6.771c-.987,5.74-1.96,11.485-2.819,17.248-3.983,26.567-7.305,53.42-8.458,80.312l-.095,2.314,2.28,1.019c1.416.63,2.843,1.222,4.28,1.787C57.489,453.487,57.391,459.458,57.331,465.424Zm42.976,309.615c.1,4.347-.833,8.379-1.395,12.58-5.381,4.8-14.067,4.926-17.029-2.72a.726.726,0,0,0-1.1-.734c-9.092,5.453-18.842,4.331-29.029,4.274-5.275-.025-10.556-.116-15.833-.2-3.92-.069-11.229,1.135-14.457-1.758,3.517-7.961,21.326-9.2,28.337-11.021,8.034-2.094,16.094-5.665,20.891-12.654a79.861,79.861,0,0,0,19.814,3.359,33.53,33.53,0,0,0,9.854-1.1C99.905,768.356,100.236,771.71,100.307,775.039Zm100.673.626a35.845,35.845,0,0,0-23.911,3.074c-.515.267-.153,1.053.385.911,6.871-1.758,13.7-2.815,20.781-1.783,8.664,1.252,13.191,6.661,15.738,14.372-4.6,4.105-16.435,3.06-22.011,2.961a55.906,55.906,0,0,1-19.944-4.274c.108-3.717-.611-7.4-.28-11.2.326-3.725,1.157-7.654.313-11.341,8.479,1.071,17.111,1.269,25.156-.263a11.376,11.376,0,0,0,1.9,4.675C199.618,773.649,200.253,774.689,200.98,775.665Zm-9.627-138.216q4.329,50.084,8.5,100.185,1.072,12.919,2.036,25.878a47.441,47.441,0,0,1-13.509,2.746,97.827,97.827,0,0,1-18.985-1.093c-6.044-44.083-13.687-88.032-21.64-131.744-5.068-27.855-10.465-55.7-14.337-83.755-3.152-22.812-4.607-47.023-10.519-69.6l-.838-3.1-2.9-.778c-.244-.069-.5-.142-.741-.2a49.639,49.639,0,0,0-7.941-1.459l-2.659-.134c-5.166-.069-10.213,1.166-13.559,5.242-.431.518.149,1.476.775,1.006a20.4,20.4,0,0,1,12.542-4.1c-2.476,21.923-2.064,44.64-2.508,66.477-.566,27.915-.516,55.843-.434,83.763.134,44.437-.611,88.969.123,133.419-5.351,3.022-12.192,2.992-18.12,2.548a88.318,88.318,0,0,1-20.014-4.326c-.929-.3-1.891-.678-2.865-1.084-.032-40.681-.775-81.384-1.345-122.052-.47-33.649-.98-67.289-1.351-100.941-.311-28.585,0-57.221-.674-85.8,21.671,7.892,45.619,9.14,68.472,7.784a355.852,355.852,0,0,0,46-5.841C180.132,512.823,185.956,575.116,191.353,637.449Zm-.106-282.974c-.112-.653-1.144-.483-1.137.155v0a40.694,40.694,0,0,1-8.1-2.148A203.423,203.423,0,0,0,169.594,306.5a.52.52,0,0,0-1,.277c1.491,7.9,3.708,15.676,5.711,23.476a.724.724,0,0,0-.086.575c2.577,11.136,2.459,22.4,2.336,33.751-.121,11.318.138,22.659.375,33.975.244,11.574.574,23.153.73,34.732.06,4.3-.007,8.613-.084,12.926-.309.064-.616.129-.924.189l-2.105.437a350.961,350.961,0,0,1-41.139,6.432c-24.928,2.12-49.564.134-73.084-7.585l-2.582-.859c-1.4-.484-2.8-.985-4.19-1.507,1.924-26.952,4.516-53.8,8.425-80.585.846-5.783,1.766-11.552,2.714-17.319l.589-3.593c.22-1.317.449-2.636.669-3.955a3.7,3.7,0,0,0,.374-.136.812.812,0,0,0,0-1.394.966.966,0,0,0-.108-.05c1.3-7.7,2.616-15.406,3.9-23.111,1.252-7.513,2.012-15.082,2.893-22.633a.617.617,0,0,0,.477-.5,15.042,15.042,0,0,0,.235-5.238,165.03,165.03,0,0,1,3.028-17.09.564.564,0,0,0-1.087-.3,104.75,104.75,0,0,0-3.161,12.75,38.012,38.012,0,0,0-5.823-9.585c-.424-.535-1.237.148-.92.709a46.331,46.331,0,0,1,5.74,14.824c-1.334,8.793-2.116,17.692-3.5,26.482-1.215,7.688-2.564,15.354-3.909,23.015-1.586-.291-3.3-.289-4.835-.641a51.272,51.272,0,0,1-7.754-2.781c-.876-.36-1.209.919-.589,1.4a22.543,22.543,0,0,0,7.7,3.73,19.55,19.55,0,0,0,5.021.95q-.269,1.509-.533,3.021a86.291,86.291,0,0,1-17.474-6.672.8.8,0,0,0-.516-.263c-2.3-1.2-4.559-2.506-6.765-3.945,5.172-19.534,11.2-38.835,19.771-57.179a109.736,109.736,0,0,1,19.7-29.487c8.637-9.057,19.082-14.1,30.016-19.594a29.779,29.779,0,0,0,5.2.577c-5.46,4.146-4.771,9.922-1.846,16.175a81.494,81.494,0,0,0,6.413,11.456l1.772,2.405,3.023-1.218a100.889,100.889,0,0,0,21.936-13.223c8.286-6.481,9.486-13.634,1.813-19.79,13.23,3.2,24.273,8.806,34.332,18.387,10.677,10.165,18.586,23.081,24.928,36.28a173.937,173.937,0,0,1,13.289,40.417c1.936,9.419,3.177,18.936,4.328,28.461-8.529,1.923-17.058,3.838-25.606,5.683-.611.131-.479,1.149.149,1.094a152.313,152.313,0,0,0,25.744-4.392c.108.923.222,1.846.332,2.765-10.678,4.241-21.6,6.977-32.323,5.578C191.277,354.69,191.267,354.58,191.247,354.475Zm6.537,58.573c-1.74-18.47-3.128-36.939-6.017-55.274,8.525,1.11,17.6-.146,26.424-2.8-1.293,18.679.57,37.7,1.429,56.359a598.34,598.34,0,0,1-.022,59.988c-2.8,1.978-5.036,4.063-8.882,4.456a9.434,9.434,0,0,1-7-2.37C202.025,453.258,199.687,433.172,197.784,413.048Zm23.826,67.387c-1.506,2.288-3.106,4.49-3.745,7.2a.592.592,0,0,0,.732.734c.125,3.342,1.334,6.433,2.247,9.813a71.99,71.99,0,0,1,2.424,18.754c0,3.748-1.319,19.182-7.248,17.934a20.451,20.451,0,0,0,3.393-9.023c.056-.747-.965-.751-1.205-.159-2.057,5.068-4.705,11.807-10.439,13.068,3.812-4.05,6.968-9.235,7.48-14.791.052-.574-.788-.751-1.053-.285-1.117,1.99-1.5,4.244-2.725,6.2a64.85,64.85,0,0,1-3.883,5.608c-1.66,2.115-6.094,7.922-8.6,4.71.978-1.131,1.8-2.319,2.327-2.949a31.1,31.1,0,0,0,6.526-17.226.7.7,0,0,0-1.375-.185c-1.213,5.1-2.578,9.834-5.289,14.393-.866,1.455-7.164,10.478-6.733,5.086.888-11.061,6.958-21.042,5.149-32.289a22.787,22.787,0,0,1,2.75-.423.663.663,0,0,0,.162-1.2c-8.855-3.825-7.884,11.415-11.486,15.257-5.194.76-4.328-14.622-3.275-20.99a66.628,66.628,0,0,1,8.2-8.769,10.959,10.959,0,0,0,3.672-6.765c.164.2.326.4.482.6.4.492,1-.138.8-.613-.885-2.09-2.128-3.994-2.929-6.113a6.007,6.007,0,0,1-.442-3.566c.274-1.162,1.427-1.814,2.4-2.5a11.644,11.644,0,0,0,10.787,6.269,14.936,14.936,0,0,0,9.977-4.408,1.438,1.438,0,0,0,1.04-.354C222.765,475.8,223.229,477.974,221.61,480.435Z"/><path d="M93.645,201.632a1.5,1.5,0,0,1-.23-2.982l31.429-4.935a1.5,1.5,0,0,1,.465,2.964L93.88,201.614A1.55,1.55,0,0,1,93.645,201.632Z"/><path d="M102.565,182.319h-6.5a1.5,1.5,0,0,1-1.444-1.906l2.168-7.708a1.5,1.5,0,0,1,2.889.813l-1.632,5.8h4.523a1.5,1.5,0,1,1,0,3Z"/></g><text class="cls-19" transform="translate(607.13 87.532)">WOMEN</text><text class="cls-20" transform="translate(607.131 141.829)">Once in<tspan class="cls-21"><tspan x="0" y="44.4">4 </tspan><tspan class="cls-5" x="30.73" y="44.4">months</tspan></tspan></text><text class="cls-20" transform="translate(607.131 254.04)">(120 days)</text><text class="cls-20" transform="translate(228.583 141.829)">Once in<tspan class="cls-21"><tspan x="0" y="44.4">3</tspan><tspan class="cls-5" x="21.119" y="44.4" xml:space="preserve"> months</tspan></tspan></text><text class="cls-20" transform="translate(228.583 254.04)">(90 days)</text><text class="cls-19" transform="translate(228.583 87.532)">MEN</text></svg>